<svg xmlns="http://www.w3.org/2000/svg" xmlns:xlink="http://www.w3.org/1999/xlink" width="2816" zoomAndPan="magnify" viewBox="0 0 2112 1151.999944" height="1536" preserveAspectRatio="xMidYMid meet" version="1.0"><defs><clipPath id="b605a7ee65"><path d="M 596.351562 192 L 1489 192 L 1489 1036.949219 L 596.351562 1036.949219 Z M 596.351562 192 " clip-rule="nonzero"/></clipPath><clipPath id="793eefc55b"><path d="M 1305 115.199219 L 1329 115.199219 L 1329 184 L 1305 184 Z M 1305 115.199219 " clip-rule="nonzero"/></clipPath><clipPath id="86814a1dc0"><path d="M 1448 303 L 1515.851562 303 L 1515.851562 326 L 1448 326 Z M 1448 303 " clip-rule="nonzero"/></clipPath></defs><path fill="#000000" d="M 880.183594 349.402344 C 843.636719 349.402344 813.902344 379.132812 813.902344 415.675781 C 813.902344 452.222656 843.636719 481.953125 880.183594 481.953125 C 916.730469 481.953125 946.464844 452.222656 946.464844 415.675781 C 946.464844 379.132812 916.730469 349.402344 880.183594 349.402344 Z M 880.183594 459.53125 C 856.003906 459.53125 836.332031 439.859375 836.332031 415.675781 C 836.332031 391.496094 856.003906 371.824219 880.183594 371.824219 C 904.363281 371.824219 924.039062 391.496094 924.039062 415.675781 C 924.039062 439.859375 904.363281 459.53125 880.183594 459.53125 Z M 880.183594 459.53125 " fill-opacity="1" fill-rule="nonzero"/><g clip-path="url(#b605a7ee65)"><path fill="#000000" d="M 1476.960938 918.519531 L 1343.222656 918.519531 L 1333.246094 854.882812 L 1424.90625 854.882812 C 1431.351562 854.882812 1437.484375 851.785156 1441.308594 846.597656 C 1445.132812 841.410156 1446.277344 834.636719 1444.371094 828.484375 L 1304.710938 377.378906 C 1302.054688 368.796875 1294.230469 363.03125 1285.246094 363.03125 C 1276.261719 363.03125 1268.441406 368.796875 1265.785156 377.378906 L 1259.984375 396.117188 C 1233.582031 377.621094 1217.539062 347.230469 1217.539062 314.644531 C 1217.539062 259.832031 1262.132812 215.242188 1316.945312 215.242188 C 1371.761719 215.242188 1416.355469 259.832031 1416.355469 314.644531 C 1416.355469 355.566406 1391.800781 391.820312 1353.800781 406.996094 C 1348.046875 409.292969 1345.25 415.816406 1347.542969 421.566406 C 1349.296875 425.957031 1353.507812 428.625 1357.960938 428.625 C 1359.347656 428.625 1360.753906 428.367188 1362.117188 427.820312 C 1408.691406 409.21875 1438.785156 364.796875 1438.785156 314.644531 C 1438.785156 247.46875 1384.128906 192.816406 1316.945312 192.816406 C 1249.765625 192.816406 1195.109375 247.46875 1195.109375 314.644531 C 1195.109375 356.980469 1217.203125 396.277344 1253.085938 418.398438 L 1126.121094 828.484375 C 1125.71875 829.789062 1125.484375 831.121094 1125.347656 832.457031 L 1024.328125 832.457031 L 1149.25 428.960938 L 1178.425781 523.203125 C 1180.257812 529.113281 1186.539062 532.429688 1192.453125 530.597656 C 1198.367188 528.765625 1201.679688 522.484375 1199.847656 516.570312 L 1168.023438 413.773438 C 1165.460938 405.496094 1157.914062 399.933594 1149.25 399.933594 C 1140.582031 399.933594 1133.039062 405.496094 1130.472656 413.773438 L 1001.792969 829.417969 C 999.953125 835.355469 1001.058594 841.890625 1004.75 846.894531 C 1008.4375 851.894531 1014.351562 854.882812 1020.566406 854.882812 L 1158.503906 854.882812 L 1168.480469 918.519531 L 1104.359375 918.519531 L 1110.089844 881.960938 C 1111.046875 875.84375 1106.867188 870.109375 1100.746094 869.148438 C 1094.648438 868.203125 1088.890625 872.371094 1087.933594 878.492188 L 1081.660156 918.519531 L 962.046875 918.519531 L 948.949219 838.679688 C 947.246094 828.292969 943.183594 818.222656 937.195312 809.554688 L 912.433594 773.703125 C 908.914062 768.605469 901.929688 767.332031 896.832031 770.847656 C 891.738281 774.367188 890.460938 781.351562 893.980469 786.449219 L 918.742188 822.300781 C 922.855469 828.253906 925.648438 835.175781 926.820312 842.3125 L 951.296875 991.523438 C 952.585938 999.390625 947.484375 1006.820312 939.675781 1008.4375 C 931.808594 1010.074219 924.160156 1005.230469 922.261719 997.421875 L 886.636719 850.722656 C 886.289062 849.285156 885.65625 847.929688 884.78125 846.738281 L 790.40625 718.109375 C 784.492188 710.050781 782.066406 700.171875 783.578125 690.292969 L 784.535156 684.070312 C 784.535156 684.058594 784.535156 684.046875 784.539062 684.039062 L 804.097656 556.742188 C 807.101562 537.183594 824.835938 523.796875 844.46875 526.273438 L 869.195312 529.390625 C 878.988281 530.625 887.65625 535.644531 893.601562 543.523438 C 899.546875 551.402344 901.996094 561.113281 900.5 570.867188 L 888.742188 647.398438 L 884.679688 642.898438 L 889.746094 582.722656 C 890.269531 576.550781 885.6875 571.128906 879.515625 570.609375 C 873.34375 570.082031 867.921875 574.667969 867.402344 580.839844 L 861.925781 645.859375 C 861.664062 648.953125 862.695312 652.011719 864.769531 654.3125 L 887.855469 679.894531 C 887.871094 679.910156 887.882812 679.925781 887.898438 679.941406 L 915.390625 710.410156 C 918.035156 713.339844 919.378906 717.121094 919.175781 721.0625 C 918.976562 725.003906 917.25 728.625 914.320312 731.269531 C 908.273438 736.71875 898.914062 736.246094 893.460938 730.199219 L 835.292969 665.738281 C 832.566406 662.71875 831.199219 658.660156 831.539062 654.605469 L 838.121094 576.46875 C 838.644531 570.296875 834.0625 564.871094 827.890625 564.351562 C 821.695312 563.820312 816.296875 568.414062 815.777344 574.582031 L 809.191406 652.722656 C 808.332031 662.9375 811.777344 673.15625 818.640625 680.761719 L 876.808594 745.222656 C 883.464844 752.597656 892.59375 756.941406 902.519531 757.449219 C 903.167969 757.484375 903.820312 757.5 904.46875 757.5 C 913.683594 757.5 922.453125 754.136719 929.34375 747.917969 C 936.722656 741.265625 941.0625 732.132812 941.574219 722.210938 C 942.085938 712.289062 938.699219 702.761719 932.042969 695.386719 L 908.128906 668.886719 L 922.667969 574.273438 C 925.09375 558.484375 921.128906 542.765625 911.503906 530.015625 C 901.882812 517.261719 887.851562 509.140625 872 507.140625 L 847.269531 504.023438 C 815.503906 500.046875 786.789062 521.679688 781.929688 553.335938 L 761.414062 686.855469 C 761.410156 686.875 761.410156 686.898438 761.40625 686.921875 L 735.941406 852.65625 L 695.8125 918.519531 L 607.566406 918.519531 C 601.371094 918.519531 596.351562 923.539062 596.351562 929.730469 C 596.351562 935.921875 601.371094 940.945312 607.566406 940.945312 L 682.152344 940.945312 L 658.5625 979.660156 C 648.054688 996.90625 653.046875 1019.09375 669.929688 1030.175781 C 676.25 1034.328125 683.359375 1036.324219 690.390625 1036.324219 C 701.980469 1036.324219 713.355469 1030.894531 720.628906 1020.769531 L 777.960938 940.945312 L 853.015625 940.945312 C 859.207031 940.945312 864.226562 935.921875 864.226562 929.730469 C 864.226562 923.539062 859.207031 918.519531 853.015625 918.519531 L 794.066406 918.519531 L 808.839844 897.949219 C 814.980469 889.398438 819.230469 879.402344 821.125 869.046875 L 829.269531 824.550781 C 830.382812 818.457031 826.347656 812.617188 820.253906 811.5 C 814.164062 810.394531 808.324219 814.421875 807.207031 820.511719 L 799.0625 865.007812 C 797.761719 872.125 794.84375 878.996094 790.625 884.867188 L 702.414062 1007.6875 C 697.765625 1014.160156 688.902344 1015.804688 682.238281 1011.429688 C 675.519531 1007.019531 673.535156 998.191406 677.714844 991.328125 L 756.261719 862.40625 C 757.03125 861.140625 757.542969 859.738281 757.769531 858.273438 L 776.410156 736.945312 L 865.371094 858.195312 L 900.46875 1002.714844 C 904.613281 1019.773438 919.675781 1031.191406 936.535156 1031.191406 C 939.070312 1031.191406 941.644531 1030.933594 944.230469 1030.398438 C 963.84375 1026.332031 976.671875 1007.664062 973.429688 987.894531 L 965.726562 940.945312 L 1476.960938 940.945312 C 1483.152344 940.945312 1488.171875 935.921875 1488.171875 929.730469 C 1488.171875 923.539062 1483.152344 918.519531 1476.960938 918.519531 Z M 1181.207031 854.882812 L 1206.101562 854.882812 C 1212.292969 854.882812 1217.316406 849.863281 1217.316406 843.671875 C 1217.316406 837.476562 1212.292969 832.457031 1206.101562 832.457031 L 1148.371094 832.457031 L 1285.246094 390.34375 L 1422.125 832.457031 L 1250.355469 832.457031 C 1250.257812 832.457031 1250.164062 832.46875 1250.066406 832.472656 C 1249.898438 832.476562 1249.730469 832.484375 1249.5625 832.496094 C 1249.339844 832.511719 1249.125 832.535156 1248.90625 832.5625 C 1248.773438 832.578125 1248.644531 832.601562 1248.511719 832.621094 C 1248.261719 832.664062 1248.015625 832.710938 1247.769531 832.769531 C 1247.679688 832.792969 1247.589844 832.816406 1247.5 832.839844 C 1247.222656 832.910156 1246.949219 832.992188 1246.679688 833.085938 C 1246.625 833.105469 1246.566406 833.128906 1246.511719 833.148438 C 1246.21875 833.253906 1245.933594 833.371094 1245.65625 833.5 C 1245.617188 833.519531 1245.578125 833.539062 1245.542969 833.554688 C 1245.253906 833.691406 1244.972656 833.839844 1244.699219 834 C 1244.664062 834.023438 1244.625 834.046875 1244.589844 834.066406 C 1244.324219 834.226562 1244.0625 834.398438 1243.8125 834.578125 C 1243.761719 834.613281 1243.714844 834.648438 1243.667969 834.6875 C 1243.4375 834.859375 1243.210938 835.039062 1242.992188 835.226562 C 1242.925781 835.285156 1242.859375 835.347656 1242.796875 835.40625 C 1242.605469 835.582031 1242.417969 835.761719 1242.238281 835.949219 C 1242.15625 836.035156 1242.078125 836.125 1242 836.214844 C 1241.84375 836.386719 1241.695312 836.558594 1241.550781 836.742188 C 1241.460938 836.855469 1241.378906 836.972656 1241.292969 837.089844 C 1241.167969 837.257812 1241.046875 837.429688 1240.933594 837.605469 C 1240.847656 837.738281 1240.765625 837.878906 1240.683594 838.015625 C 1240.582031 838.1875 1240.484375 838.363281 1240.394531 838.539062 C 1240.316406 838.6875 1240.246094 838.835938 1240.179688 838.984375 C 1240.09375 839.167969 1240.011719 839.355469 1239.9375 839.546875 C 1239.878906 839.695312 1239.824219 839.847656 1239.769531 840 C 1239.699219 840.199219 1239.636719 840.402344 1239.578125 840.609375 C 1239.535156 840.757812 1239.496094 840.910156 1239.460938 841.0625 C 1239.410156 841.277344 1239.363281 841.488281 1239.324219 841.707031 C 1239.3125 841.785156 1239.289062 841.855469 1239.277344 841.933594 L 1227.273438 918.519531 L 1191.179688 918.519531 Z M 1249.972656 918.519531 L 1259.949219 854.882812 L 1310.546875 854.882812 L 1320.523438 918.519531 Z M 1249.972656 918.519531 " fill-opacity="1" fill-rule="nonzero"/></g><g clip-path="url(#793eefc55b)"><path fill="#000000" d="M 1316.835938 183.070312 C 1323.027344 183.070312 1328.050781 178.050781 1328.050781 171.859375 L 1328.050781 126.851562 C 1328.050781 120.660156 1323.027344 115.640625 1316.835938 115.640625 C 1310.644531 115.640625 1305.621094 120.660156 1305.621094 126.851562 L 1305.621094 171.859375 C 1305.621094 178.050781 1310.644531 183.070312 1316.835938 183.070312 Z M 1316.835938 183.070312 " fill-opacity="1" fill-rule="nonzero"/></g><path fill="#000000" d="M 1235.726562 196.59375 C 1237.804688 200.191406 1241.574219 202.203125 1245.449219 202.203125 C 1247.351562 202.203125 1249.28125 201.71875 1251.046875 200.699219 C 1256.410156 197.601562 1258.246094 190.746094 1255.152344 185.382812 L 1232.644531 146.40625 C 1229.550781 141.042969 1222.695312 139.207031 1217.328125 142.300781 C 1211.964844 145.398438 1210.128906 152.253906 1213.222656 157.617188 Z M 1235.726562 196.59375 " fill-opacity="1" fill-rule="nonzero"/><path fill="#000000" d="M 1148.585938 230.460938 L 1187.566406 252.960938 C 1189.332031 253.980469 1191.261719 254.464844 1193.160156 254.464844 C 1197.039062 254.464844 1200.808594 252.453125 1202.882812 248.855469 C 1205.980469 243.492188 1204.144531 236.636719 1198.777344 233.539062 L 1159.800781 211.039062 C 1154.433594 207.9375 1147.578125 209.78125 1144.484375 215.140625 C 1141.386719 220.507812 1143.222656 227.363281 1148.585938 230.460938 Z M 1148.585938 230.460938 " fill-opacity="1" fill-rule="nonzero"/><path fill="#000000" d="M 1129.03125 325.855469 L 1174.042969 325.855469 C 1180.234375 325.855469 1185.253906 320.835938 1185.253906 314.644531 C 1185.253906 308.453125 1180.234375 303.429688 1174.042969 303.429688 L 1129.03125 303.429688 C 1122.839844 303.429688 1117.820312 308.453125 1117.820312 314.644531 C 1117.820312 320.835938 1122.839844 325.855469 1129.03125 325.855469 Z M 1129.03125 325.855469 " fill-opacity="1" fill-rule="nonzero"/><path fill="#000000" d="M 1382.625 428.585938 C 1377.261719 431.683594 1375.425781 438.539062 1378.519531 443.902344 L 1401.027344 482.882812 C 1403.101562 486.480469 1406.871094 488.488281 1410.75 488.488281 C 1412.648438 488.488281 1414.578125 488.003906 1416.34375 486.984375 C 1421.707031 483.890625 1423.542969 477.03125 1420.449219 471.667969 L 1397.941406 432.691406 C 1394.847656 427.332031 1387.988281 425.496094 1382.625 428.585938 Z M 1382.625 428.585938 " fill-opacity="1" fill-rule="nonzero"/><path fill="#000000" d="M 1485.085938 398.828125 L 1446.105469 376.324219 C 1440.738281 373.234375 1433.886719 375.070312 1430.789062 380.429688 C 1427.691406 385.792969 1429.527344 392.648438 1434.890625 395.746094 L 1473.871094 418.25 C 1475.636719 419.269531 1477.566406 419.753906 1479.464844 419.753906 C 1483.34375 419.753906 1487.113281 417.742188 1489.1875 414.144531 C 1492.285156 408.78125 1490.449219 401.925781 1485.085938 398.828125 Z M 1485.085938 398.828125 " fill-opacity="1" fill-rule="nonzero"/><g clip-path="url(#86814a1dc0)"><path fill="#000000" d="M 1504.636719 303.429688 L 1459.628906 303.429688 C 1453.4375 303.429688 1448.417969 308.453125 1448.417969 314.644531 C 1448.417969 320.835938 1453.4375 325.855469 1459.628906 325.855469 L 1504.636719 325.855469 C 1510.832031 325.855469 1515.851562 320.835938 1515.851562 314.644531 C 1515.851562 308.453125 1510.832031 303.429688 1504.636719 303.429688 Z M 1504.636719 303.429688 " fill-opacity="1" fill-rule="nonzero"/></g><path fill="#000000" d="M 1440.511719 254.464844 C 1442.410156 254.464844 1444.339844 253.980469 1446.105469 252.960938 L 1485.085938 230.460938 C 1490.449219 227.363281 1492.285156 220.503906 1489.1875 215.140625 C 1486.09375 209.78125 1479.242188 207.945312 1473.871094 211.039062 L 1434.890625 233.539062 C 1429.527344 236.636719 1427.691406 243.492188 1430.789062 248.855469 C 1432.863281 252.453125 1436.632812 254.464844 1440.511719 254.464844 Z M 1440.511719 254.464844 " fill-opacity="1" fill-rule="nonzero"/><path fill="#000000" d="M 1382.625 200.699219 C 1384.390625 201.71875 1386.320312 202.203125 1388.222656 202.203125 C 1392.097656 202.203125 1395.867188 200.191406 1397.941406 196.59375 L 1420.449219 157.617188 C 1423.542969 152.253906 1421.707031 145.398438 1416.34375 142.300781 C 1410.976562 139.207031 1404.121094 141.042969 1401.027344 146.40625 L 1378.519531 185.382812 C 1375.425781 190.746094 1377.261719 197.601562 1382.625 200.699219 Z M 1382.625 200.699219 " fill-opacity="1" fill-rule="nonzero"/><path fill="#000000" d="M 611.171875 309.816406 L 924.59375 309.816406 C 930.785156 309.816406 935.804688 304.792969 935.804688 298.601562 C 935.804688 292.410156 930.785156 287.390625 924.59375 287.390625 L 624.648438 287.390625 C 629.035156 277.027344 639.304688 269.742188 651.242188 269.742188 L 658.101562 269.742188 C 661.296875 269.742188 664.339844 268.378906 666.46875 265.996094 C 668.59375 263.613281 669.605469 260.4375 669.246094 257.261719 C 669.058594 255.648438 668.972656 254.230469 668.972656 252.921875 C 668.972656 232.046875 685.957031 215.058594 706.839844 215.058594 C 714.175781 215.058594 721.316406 217.1875 727.476562 221.210938 C 730.144531 222.949219 733.425781 223.476562 736.496094 222.65625 C 739.570312 221.835938 742.148438 219.75 743.597656 216.917969 C 753.085938 198.324219 771.921875 186.773438 792.757812 186.773438 C 823.179688 186.773438 847.925781 211.519531 847.925781 241.9375 C 847.925781 246.613281 847.34375 251.257812 846.191406 255.734375 C 845.324219 259.09375 846.0625 262.660156 848.1875 265.402344 C 850.3125 268.140625 853.582031 269.742188 857.050781 269.742188 L 864.726562 269.742188 C 873.023438 269.742188 880.921875 273.320312 886.40625 279.554688 C 890.496094 284.203125 897.582031 284.660156 902.230469 280.570312 C 906.882812 276.484375 907.339844 269.398438 903.246094 264.746094 C 894.710938 255.039062 882.871094 248.960938 870.148438 247.605469 C 870.285156 245.722656 870.355469 243.832031 870.355469 241.9375 C 870.355469 199.152344 835.542969 164.347656 792.757812 164.347656 C 767.261719 164.347656 743.890625 176.640625 729.464844 197.050781 C 722.3125 194.140625 714.648438 192.632812 706.839844 192.632812 C 675.414062 192.632812 649.53125 216.792969 646.785156 247.511719 C 620.582031 249.777344 599.957031 271.828125 599.957031 298.601562 C 599.957031 304.792969 604.976562 309.816406 611.171875 309.816406 Z M 611.171875 309.816406 " fill-opacity="1" fill-rule="nonzero"/></svg>