<svg xmlns="http://www.w3.org/2000/svg" xmlns:xlink="http://www.w3.org/1999/xlink" width="2816" zoomAndPan="magnify" viewBox="0 0 2112 1151.999944" height="1536" preserveAspectRatio="xMidYMid meet" version="1.0"><defs><clipPath id="7e5cebea25"><path d="M 671.152344 115.199219 L 1440.652344 115.199219 L 1440.652344 1036.949219 L 671.152344 1036.949219 Z M 671.152344 115.199219 " clip-rule="nonzero"/></clipPath></defs><g clip-path="url(#7e5cebea25)"><path fill="#000000" d="M 883.152344 115.363281 C 886.300781 115.269531 892.132812 116.101562 896.019531 117.214844 C 900 118.234375 905.925781 120.269531 909.257812 121.753906 C 912.589844 123.140625 917.128906 125.363281 923.609375 128.882812 L 931.941406 125.273438 C 936.476562 123.234375 944.625 120.546875 949.992188 119.253906 C 956.75 117.585938 962.398438 116.84375 968.507812 116.84375 C 974.804688 116.84375 979.523438 117.398438 985.171875 118.882812 C 989.523438 120.085938 995.539062 122.308594 998.597656 123.789062 C 1001.652344 125.363281 1006.648438 128.328125 1009.703125 130.550781 C 1012.761719 132.679688 1017.019531 136.386719 1019.148438 138.792969 C 1021.371094 141.109375 1024.054688 144.8125 1025.074219 147.035156 C 1026.183594 149.167969 1028.21875 155.464844 1032.203125 171.300781 L 1040.441406 174.082031 C 1044.882812 175.65625 1050.625 177.96875 1053.03125 179.175781 C 1055.53125 180.46875 1059.328125 182.972656 1061.457031 184.730469 C 1063.675781 186.492188 1067.195312 190.101562 1069.324219 192.601562 C 1071.453125 195.195312 1075.25 201.402344 1077.75 206.496094 C 1080.25 211.589844 1082.933594 218.8125 1083.675781 222.519531 C 1084.507812 226.128906 1085.15625 230.574219 1085.15625 232.242188 C 1085.246094 234.648438 1086.453125 236.410156 1091.449219 241.6875 C 1095.152344 245.484375 1098.855469 250.488281 1100.429688 253.730469 C 1102.746094 258.453125 1103.113281 260.675781 1103.394531 268.546875 C 1103.578125 273.640625 1103.300781 282.160156 1102.746094 287.535156 C 1102.28125 292.90625 1100.800781 301.242188 1099.503906 306.054688 C 1098.207031 310.871094 1095.339844 318.652344 1093.023438 323.191406 C 1090.710938 327.820312 1086.730469 334.027344 1083.953125 337.082031 C 1080.804688 340.601562 1077.5625 343.195312 1074.878906 344.304688 C 1072.285156 345.417969 1069.878906 345.789062 1068.027344 345.324219 C 1066.546875 345.046875 1063.769531 343.9375 1062.011719 343.007812 C 1060.253906 341.992188 1058.03125 339.953125 1057.105469 338.472656 C 1056.085938 336.710938 1055.160156 335.972656 1054.417969 336.433594 C 1053.773438 336.804688 1052.105469 339.769531 1050.625 343.101562 C 1049.144531 346.4375 1046.644531 350.789062 1045.070312 352.828125 C 1043.402344 354.863281 1039.699219 359.402344 1036.738281 363.015625 C 1033.773438 366.625 1030.164062 372 1028.589844 375.054688 C 1026.554688 379.222656 1025.90625 381.90625 1025.90625 385.707031 C 1025.90625 388.484375 1026.832031 395.152344 1027.941406 400.523438 C 1029.792969 409.320312 1029.886719 410.527344 1028.683594 413.398438 C 1027.941406 415.15625 1024.238281 419.324219 1020.535156 422.660156 C 1014.148438 428.492188 1013.777344 429.050781 1012.296875 435.253906 C 1011.277344 439.421875 1009.890625 442.570312 1008.316406 444.050781 C 1007.019531 445.347656 1003.871094 447.203125 1001.371094 448.128906 C 998.78125 449.144531 994.613281 451.832031 992.117188 454.238281 C 989.523438 456.648438 985.820312 459.796875 983.785156 461.371094 C 981.285156 463.222656 979.523438 465.632812 978.320312 468.6875 C 977.394531 471.1875 975.914062 474.523438 974.988281 476.003906 C 974.0625 477.671875 971.75 479.523438 969.339844 480.542969 C 966.65625 481.652344 963.046875 482.210938 958.789062 482.210938 C 954.527344 482.210938 950.546875 481.5625 947.214844 480.265625 C 944.4375 479.246094 939.808594 476.652344 937.03125 474.617188 C 934.253906 472.484375 928.792969 469.242188 924.996094 467.390625 C 920.367188 465.167969 916.355469 463.933594 912.960938 463.6875 C 908.796875 463.410156 907.316406 463.6875 904.722656 465.539062 C 902.964844 466.652344 900.464844 469.707031 899.167969 472.300781 C 897.132812 476.28125 896.761719 478.042969 896.855469 485.265625 C 896.855469 492.675781 897.316406 494.992188 901.203125 506.566406 C 904.074219 514.996094 906.851562 521.292969 909.167969 524.628906 C 911.109375 527.40625 914.257812 532.59375 916.203125 536.203125 C 918.144531 539.816406 919.90625 542.871094 920.089844 543.148438 C 920.183594 543.429688 921.203125 542.78125 922.3125 541.761719 C 923.792969 540.28125 924.8125 540 927.589844 540.558594 C 929.441406 541.019531 932.496094 542.503906 934.253906 543.984375 C 936.015625 545.375 939.070312 548.890625 940.921875 551.578125 C 942.863281 554.355469 946.289062 560.933594 948.511719 566.304688 C 950.824219 571.675781 954.160156 581.679688 955.917969 588.53125 C 957.769531 595.386719 960.082031 605.203125 961.101562 610.296875 C 962.121094 615.390625 964.066406 626.039062 965.359375 633.914062 C 966.65625 641.785156 968.695312 652.25 969.898438 657.066406 C 971.101562 661.882812 973.414062 669.015625 974.988281 672.8125 C 976.5625 676.609375 978.875 681.148438 980.082031 682.8125 C 981.375 684.386719 983.785156 686.796875 985.355469 688 C 987.023438 689.296875 990.265625 690.964844 992.578125 691.796875 C 994.894531 692.628906 999.058594 693.464844 1001.835938 693.835938 C 1006.742188 694.296875 1007.207031 694.207031 1011.554688 690.871094 C 1014.148438 688.925781 1018.035156 686.332031 1020.351562 685.035156 C 1022.664062 683.648438 1027.203125 681.515625 1030.535156 680.128906 C 1033.867188 678.738281 1039.238281 677.070312 1042.476562 676.421875 C 1047.292969 675.40625 1048.773438 674.570312 1050.253906 672.347656 C 1051.363281 670.867188 1052.9375 667.53125 1053.863281 664.9375 C 1054.882812 662.4375 1056.828125 655.121094 1058.214844 648.730469 C 1059.695312 642.339844 1062.011719 634.839844 1063.398438 632.0625 C 1064.882812 629.28125 1068.304688 624.652344 1071.175781 621.871094 C 1074.046875 619.09375 1078.675781 615.667969 1081.453125 614.277344 C 1084.230469 612.890625 1088.304688 611.5 1090.523438 611.035156 C 1092.652344 610.667969 1094.414062 610.019531 1094.414062 609.648438 C 1094.414062 609.183594 1093.023438 608.445312 1091.359375 607.796875 C 1089.785156 607.148438 1085.0625 605.015625 1080.988281 603.070312 C 1076.914062 601.128906 1070.714844 597.609375 1067.101562 595.199219 C 1063.492188 592.882812 1058.402344 588.902344 1055.625 586.308594 C 1052.847656 583.714844 1049.421875 579.734375 1047.9375 577.417969 C 1046.550781 575.101562 1045.347656 572.601562 1045.347656 571.859375 C 1045.253906 571.121094 1046.179688 569.636719 1047.292969 568.621094 C 1048.957031 567.046875 1049.976562 566.859375 1054.882812 567.324219 C 1058.03125 567.601562 1063.308594 568.988281 1066.640625 570.378906 C 1069.972656 571.675781 1074.878906 574.175781 1077.65625 575.84375 C 1080.433594 577.417969 1086.265625 582.328125 1090.617188 586.679688 C 1095.246094 591.308594 1100.152344 597.238281 1102.28125 600.941406 C 1104.320312 604.460938 1106.539062 607.609375 1107.097656 608.074219 C 1107.929688 608.628906 1108.855469 607.980469 1110.058594 605.941406 C 1111.078125 604.277344 1112.28125 601.21875 1112.835938 599.183594 C 1113.296875 597.144531 1114.410156 587.976562 1115.242188 578.808594 C 1115.984375 569.636719 1117.464844 555.929688 1118.484375 548.246094 C 1119.5 540.648438 1120.519531 532.683594 1120.796875 530.648438 C 1121.167969 527.5 1121.074219 527.21875 1120.058594 528.515625 C 1119.5 529.445312 1117.09375 533.519531 1114.78125 537.6875 C 1112.464844 541.855469 1108.113281 547.964844 1105.058594 551.300781 C 1102.003906 554.542969 1097.839844 558.246094 1095.800781 559.449219 C 1093.765625 560.65625 1090.339844 561.765625 1088.117188 562.042969 C 1084.691406 562.507812 1083.953125 562.320312 1081.453125 559.820312 C 1078.953125 557.320312 1078.765625 556.671875 1079.230469 552.691406 C 1079.507812 550.1875 1080.804688 546.207031 1082.101562 543.613281 C 1083.394531 541.113281 1085.894531 537.039062 1087.5625 534.628906 C 1089.320312 532.128906 1090.523438 530 1090.246094 529.722656 C 1089.96875 529.445312 1088.210938 530.09375 1086.265625 531.019531 C 1084.414062 531.945312 1080.527344 533.425781 1077.75 534.257812 C 1074.972656 535.09375 1070.714844 535.742188 1068.214844 535.742188 C 1064.789062 535.742188 1063.398438 535.277344 1061.546875 533.425781 C 1059.882812 531.757812 1059.328125 530.460938 1059.695312 528.796875 C 1059.972656 527.5 1060.898438 525.367188 1061.734375 524.070312 C 1062.660156 522.683594 1066.085938 519.625 1069.417969 517.125 C 1072.75 514.71875 1078.765625 510.921875 1090.246094 504.714844 L 1075.898438 504.160156 C 1068.027344 503.882812 1060.253906 503.324219 1058.769531 502.957031 C 1057.289062 502.585938 1053.308594 501.382812 1049.976562 500.269531 C 1046.644531 499.25 1042.570312 497.121094 1040.902344 495.730469 C 1038.683594 493.785156 1037.941406 492.398438 1037.941406 490.175781 C 1037.847656 488.414062 1038.589844 486.46875 1039.515625 485.542969 C 1040.441406 484.710938 1042.292969 483.597656 1043.679688 483.042969 C 1045.160156 482.488281 1050.160156 481.652344 1054.789062 481.097656 C 1060.4375 480.542969 1067.101562 480.636719 1074.046875 481.191406 C 1079.878906 481.746094 1089.691406 483.136719 1095.800781 484.433594 C 1101.910156 485.730469 1107.28125 486.65625 1107.652344 486.46875 C 1108.023438 486.285156 1106.355469 484.710938 1103.949219 482.859375 C 1101.542969 480.914062 1096.355469 476.191406 1092.5625 472.207031 C 1088.671875 468.132812 1083.304688 461.742188 1080.617188 457.945312 C 1077.933594 454.148438 1073.859375 447.386719 1071.640625 442.941406 C 1069.417969 438.402344 1066.917969 432.382812 1066.175781 429.511719 C 1065.066406 425.53125 1064.972656 423.492188 1065.714844 421.640625 C 1066.453125 419.417969 1067.195312 419.046875 1070.066406 419.046875 C 1072.65625 418.953125 1075.15625 419.972656 1079.136719 422.566406 C 1082.191406 424.601562 1088.117188 429.976562 1092.375 434.421875 C 1096.636719 438.957031 1103.207031 447.203125 1106.910156 452.851562 C 1110.613281 458.5 1114.503906 464.613281 1115.429688 466.558594 C 1116.355469 468.410156 1117.371094 469.984375 1117.742188 469.984375 C 1118.207031 469.984375 1118.296875 468.875 1118.113281 467.484375 C 1117.835938 466.003906 1117.1875 458.039062 1116.539062 449.609375 C 1115.613281 438.308594 1115.613281 432.289062 1116.355469 426.457031 C 1116.910156 422.101562 1118.207031 416.824219 1119.316406 414.695312 C 1120.335938 412.472656 1122.09375 410.339844 1123.113281 409.785156 C 1124.128906 409.230469 1125.796875 408.859375 1126.816406 408.859375 C 1127.832031 408.859375 1130.148438 410.25 1132 411.914062 C 1133.851562 413.582031 1135.980469 416.824219 1137 419.507812 C 1137.925781 422.101562 1139.128906 427.195312 1139.683594 430.902344 C 1140.238281 434.511719 1140.703125 442.015625 1140.703125 447.570312 C 1140.703125 453.035156 1140.054688 461.835938 1139.21875 467.207031 C 1138.386719 472.578125 1137.367188 477.855469 1136.90625 479.0625 C 1136.441406 480.171875 1136.351562 481.097656 1136.71875 481.097656 C 1137.183594 481.097656 1140.332031 478.691406 1143.941406 475.820312 C 1147.550781 472.949219 1153.292969 468.6875 1156.902344 466.28125 C 1160.511719 463.871094 1165.234375 461 1167.546875 459.796875 C 1169.863281 458.59375 1174.027344 456.925781 1176.804688 455.90625 C 1179.582031 454.980469 1183.65625 454.238281 1185.785156 454.238281 C 1188.5625 454.238281 1190.324219 454.796875 1191.617188 456.09375 C 1192.636719 457.109375 1193.46875 459.054688 1193.46875 460.539062 C 1193.46875 461.925781 1192.359375 464.707031 1190.878906 466.742188 C 1189.488281 468.78125 1185.601562 472.578125 1182.269531 475.265625 C 1179.027344 477.855469 1172.363281 482.300781 1167.546875 485.171875 C 1162.734375 488.042969 1156.996094 491.101562 1154.867188 492.027344 C 1152.644531 492.859375 1150.886719 493.785156 1150.886719 494.066406 C 1150.886719 494.34375 1155.976562 495.269531 1162.179688 496.101562 C 1168.472656 496.9375 1176.898438 498.695312 1180.972656 499.992188 C 1185.046875 501.289062 1190.601562 503.605469 1193.191406 505.179688 C 1195.878906 506.660156 1198.933594 509.347656 1199.949219 511.011719 C 1200.96875 512.585938 1201.800781 515.089844 1201.800781 516.570312 C 1201.800781 518.050781 1200.875 519.996094 1199.488281 521.386719 C 1198.191406 522.683594 1195.414062 524.164062 1193.191406 524.71875 C 1191.0625 525.277344 1186.804688 525.554688 1183.75 525.183594 C 1180.695312 524.90625 1174.863281 523.792969 1170.789062 522.683594 C 1166.714844 521.664062 1159.21875 519.164062 1154.125 517.21875 C 1149.035156 515.179688 1144.773438 513.792969 1144.589844 513.976562 C 1144.496094 514.253906 1146.257812 517.496094 1148.476562 521.199219 C 1150.792969 524.8125 1154.308594 531.386719 1156.347656 535.742188 C 1158.382812 540.09375 1160.605469 546.113281 1161.4375 549.171875 C 1162.273438 552.226562 1162.921875 557.785156 1162.921875 561.488281 C 1162.921875 567.691406 1162.734375 568.339844 1160.144531 570.933594 C 1157.921875 573.15625 1156.808594 573.621094 1154.773438 573.15625 C 1153.382812 572.878906 1150.886719 571.304688 1149.21875 569.730469 C 1147.460938 568.0625 1144.40625 563.246094 1142.273438 558.894531 C 1140.144531 554.542969 1136.164062 544.167969 1133.386719 535.742188 C 1130.703125 527.3125 1128.296875 519.8125 1128.109375 519.070312 C 1127.925781 518.328125 1127.554688 517.867188 1127.371094 518.144531 C 1127.183594 518.421875 1126.539062 523.609375 1125.980469 529.722656 C 1125.332031 535.832031 1124.316406 545.1875 1123.480469 550.558594 C 1122.742188 555.929688 1121.351562 569.082031 1120.335938 579.734375 C 1119.222656 591.957031 1118.019531 600.757812 1117 603.351562 C 1116.167969 605.664062 1115.058594 607.980469 1114.59375 608.445312 C 1114.222656 608.90625 1113.855469 610.019531 1113.855469 610.757812 C 1113.761719 611.5 1114.78125 612.613281 1115.890625 613.167969 C 1117.09375 613.722656 1120.242188 615.945312 1122.835938 618.074219 C 1125.519531 620.113281 1129.222656 624.097656 1130.980469 626.78125 C 1132.738281 629.46875 1135.886719 636.785156 1137.925781 643.175781 C 1140.421875 650.675781 1141.996094 657.160156 1142.273438 661.699219 C 1142.554688 665.496094 1142.273438 670.957031 1141.71875 673.738281 C 1141.164062 676.515625 1139.589844 681.148438 1138.292969 683.925781 C 1136.8125 687.074219 1133.664062 691.148438 1124.40625 700.132812 L 1125.242188 717.730469 L 1129.960938 714.023438 C 1132.554688 711.988281 1137.832031 708.375 1141.628906 705.96875 C 1145.421875 703.558594 1151.71875 700.132812 1155.515625 698.371094 C 1159.308594 696.519531 1164.957031 694.574219 1168.011719 694.019531 C 1171.066406 693.464844 1175.046875 693.277344 1176.804688 693.648438 C 1178.566406 694.019531 1180.789062 694.945312 1181.714844 695.78125 C 1182.640625 696.707031 1183.378906 698.652344 1183.378906 700.59375 C 1183.378906 702.632812 1182.359375 705.226562 1180.695312 707.542969 C 1179.304688 709.578125 1175.601562 713.285156 1172.546875 715.785156 C 1169.585938 718.191406 1163.753906 721.988281 1159.679688 724.210938 C 1155.605469 726.433594 1148.570312 729.675781 1143.941406 731.527344 C 1139.3125 733.289062 1133.203125 735.140625 1130.242188 735.511719 C 1125.242188 736.253906 1124.871094 736.4375 1124.5 739.03125 C 1124.316406 740.511719 1123.945312 746.902344 1123.667969 753.199219 C 1123.113281 763.667969 1123.203125 764.5 1124.6875 763.945312 C 1125.613281 763.574219 1128.667969 763.109375 1131.445312 762.832031 C 1136.257812 762.371094 1136.71875 762.460938 1139.496094 765.242188 C 1141.164062 766.90625 1142.554688 769.128906 1142.554688 770.335938 C 1142.554688 771.445312 1141.90625 773.667969 1141.164062 775.152344 C 1140.332031 776.632812 1139.777344 778.207031 1139.777344 778.667969 C 1139.777344 779.039062 1141.441406 779.316406 1143.480469 779.316406 C 1146.164062 779.316406 1147.828125 779.964844 1149.496094 781.632812 C 1150.886719 783.023438 1151.8125 784.96875 1151.8125 786.542969 C 1151.8125 787.929688 1150.976562 790.710938 1150.144531 792.746094 C 1149.21875 794.785156 1147.089844 797.933594 1145.515625 799.695312 C 1143.941406 801.453125 1142.644531 803.121094 1142.554688 803.398438 C 1142.554688 803.675781 1144.21875 804.417969 1146.257812 805.066406 C 1148.292969 805.621094 1150.605469 807.101562 1151.347656 808.304688 C 1152.089844 809.417969 1152.738281 811.457031 1152.738281 812.9375 C 1152.738281 814.605469 1151.71875 816.269531 1149.679688 818.03125 C 1148.109375 819.421875 1145.238281 821.085938 1143.480469 821.644531 C 1141.71875 822.199219 1138.941406 822.941406 1137.460938 823.21875 C 1135.980469 823.589844 1134.867188 824.050781 1135.148438 824.238281 C 1135.425781 824.515625 1140.421875 826.738281 1146.257812 829.332031 C 1152.089844 831.921875 1159.585938 835.535156 1162.917969 837.386719 C 1166.253906 839.238281 1171.992188 842.851562 1175.789062 845.445312 C 1179.582031 848.039062 1185.136719 852.855469 1188.285156 856.1875 C 1191.433594 859.523438 1195.136719 864.800781 1196.523438 867.765625 C 1198.933594 872.859375 1199.859375 873.785156 1208.558594 879.527344 C 1213.746094 882.953125 1222.355469 888.046875 1227.722656 890.828125 C 1233.09375 893.605469 1241.148438 897.125 1245.777344 898.699219 C 1250.867188 900.367188 1262.070312 902.773438 1274.476562 904.71875 C 1285.675781 906.570312 1299.191406 908.515625 1304.5625 909.070312 C 1311.414062 909.8125 1324.097656 909.90625 1347.148438 909.347656 C 1365.199219 908.886719 1385.476562 908.515625 1392.046875 908.515625 C 1401.675781 908.609375 1405.378906 908.980469 1410.5625 910.644531 C 1414.175781 911.664062 1419.542969 914.074219 1422.597656 915.925781 C 1425.652344 917.777344 1429.726562 920.832031 1431.671875 922.6875 C 1433.613281 924.539062 1436.207031 928.242188 1437.410156 930.742188 C 1438.707031 933.335938 1440.003906 937.875 1440.28125 940.929688 C 1440.652344 943.988281 1440.464844 948.617188 1439.816406 951.398438 C 1439.261719 953.988281 1437.875 958.15625 1436.761719 960.65625 C 1435.652344 963.066406 1432.597656 967.140625 1429.910156 969.640625 C 1426.300781 973.253906 1424.820312 975.476562 1423.710938 979.367188 C 1422.875 982.144531 1420.839844 986.496094 1419.171875 989 C 1417.507812 991.5 1414.453125 994.925781 1412.414062 996.59375 C 1410.378906 998.167969 1405.5625 1001.410156 1401.769531 1003.722656 C 1397.972656 1006.039062 1391.675781 1009.464844 1387.882812 1011.226562 C 1384.085938 1013.078125 1375.9375 1015.855469 1369.828125 1017.339844 C 1363.71875 1018.914062 1355.203125 1020.859375 1350.851562 1021.691406 C 1346.222656 1022.617188 1338.445312 1023.265625 1331.871094 1023.265625 C 1323.355469 1023.265625 1317.707031 1022.617188 1307.804688 1020.671875 C 1299.285156 1019.003906 1292.992188 1018.265625 1289.289062 1018.449219 C 1285.121094 1018.726562 1281.046875 1020.023438 1273.085938 1023.542969 C 1267.253906 1026.136719 1259.105469 1029.285156 1255.035156 1030.582031 C 1250.960938 1031.878906 1242.164062 1033.824219 1235.59375 1034.933594 C 1225.222656 1036.695312 1220.964844 1036.878906 1205.042969 1036.601562 C 1192.265625 1036.324219 1182.453125 1035.582031 1173.566406 1034.101562 C 1166.4375 1032.988281 1155.421875 1030.859375 1149.035156 1029.285156 C 1142.644531 1027.710938 1132.832031 1024.746094 1127.277344 1022.710938 C 1121.722656 1020.671875 1114.964844 1017.894531 1112.464844 1016.597656 C 1109.875 1015.394531 1104.6875 1012.246094 1100.894531 1009.652344 C 1097.097656 1007.058594 1091.265625 1002.796875 1081.914062 995.296875 L 1061.546875 990.664062 C 1050.347656 988.070312 1035.347656 984.921875 1028.21875 983.625 C 1021.09375 982.328125 1010.261719 980.570312 1004.148438 979.828125 C 997.300781 978.902344 985.820312 978.347656 974.0625 978.347656 C 962.953125 978.347656 949.34375 978.996094 941.199219 979.828125 C 933.515625 980.664062 922.128906 982.328125 915.738281 983.535156 C 909.351562 984.832031 892.316406 988.996094 877.78125 992.796875 C 863.246094 996.59375 847.417969 1000.390625 842.601562 1001.222656 C 835.753906 1002.335938 829.734375 1002.613281 815.757812 1002.335938 C 801.5 1001.964844 796.039062 1001.5 789.835938 999.925781 C 785.484375 998.816406 779.464844 996.871094 776.410156 995.480469 C 773.355469 994.089844 767.984375 991.035156 764.375 988.628906 C 760.765625 986.21875 755.027344 981.867188 751.414062 978.996094 C 747.804688 976.03125 742.066406 970.84375 738.453125 967.324219 C 734.84375 963.898438 729.660156 957.785156 726.789062 953.804688 C 723.917969 949.730469 720.214844 943.988281 718.550781 940.929688 C 716.976562 937.875 713.273438 930.371094 710.496094 924.261719 C 707.625 918.148438 702.90625 906.941406 699.941406 899.253906 C 696.980469 891.660156 693.183594 879.898438 691.332031 873.320312 C 689.574219 866.746094 686.425781 852.945312 684.296875 842.757812 C 682.261719 832.570312 679.296875 815.714844 677.816406 805.25 C 676.335938 794.785156 674.484375 778.578125 673.648438 769.128906 C 672.816406 759.683594 671.984375 744.957031 671.707031 736.253906 C 671.152344 721.25 671.335938 719.488281 674.484375 700.132812 C 676.242188 688.925781 680.5 667.070312 683.925781 651.507812 C 687.257812 635.949219 690.59375 621.964844 691.332031 620.484375 C 691.980469 619 694.203125 613.074219 696.148438 607.515625 C 698.183594 601.960938 701.792969 592.515625 704.199219 586.679688 C 706.609375 580.84375 711.238281 569.546875 714.570312 561.671875 C 717.902344 553.800781 724.199219 539.816406 728.640625 530.648438 C 734.195312 519.070312 738.730469 511.199219 743.546875 504.714844 C 747.25 499.621094 758.082031 487.488281 767.617188 477.855469 C 777.058594 468.222656 787.519531 456.742188 790.667969 452.386719 C 793.90625 448.035156 798.351562 440.71875 800.574219 436.179688 C 802.703125 431.640625 804.925781 425.992188 805.480469 423.675781 C 805.941406 421.363281 806.777344 417.285156 807.332031 414.691406 C 807.886719 412.007812 808.351562 408.949219 808.351562 407.933594 C 808.351562 406.726562 807.054688 405.433594 804.367188 404.042969 C 802.238281 403.023438 797.980469 399.78125 795.019531 396.910156 C 792.054688 394.039062 787.796875 389.039062 785.667969 385.703125 C 783.539062 382.371094 779.742188 375.703125 777.335938 370.886719 C 774.929688 366.070312 770.023438 355.417969 766.503906 347.269531 C 762.894531 339.121094 759.007812 329.582031 757.804688 325.96875 C 756.597656 322.355469 755.117188 316.335938 754.65625 312.539062 C 753.914062 307.722656 753.914062 303.183594 754.65625 297.71875 C 755.210938 293.367188 756.042969 288.179688 756.597656 286.144531 C 757.15625 284.105469 758.449219 280.957031 759.375 279.199219 C 760.300781 277.4375 762.433594 271.140625 764.191406 265.304688 C 765.949219 259.472656 769.097656 245.300781 771.226562 233.816406 C 773.261719 222.332031 775.671875 210.664062 776.503906 207.882812 C 777.335938 205.105469 779.558594 199.640625 781.59375 195.84375 C 783.539062 192.046875 787.519531 186.027344 790.390625 182.507812 C 794 177.96875 798.535156 174.078125 805.386719 169.265625 C 810.847656 165.464844 819.550781 160.1875 834.273438 152.777344 L 837.882812 145.371094 C 840.289062 140.460938 843.527344 135.921875 847.417969 131.847656 C 850.65625 128.511719 855.285156 124.53125 857.878906 123.050781 C 860.378906 121.566406 865.839844 119.25 869.914062 117.863281 C 874.636719 116.289062 879.355469 115.363281 883.058594 115.363281 Z M 863.0625 126.199219 C 860.191406 127.585938 855.378906 131.292969 851.953125 134.71875 C 848.621094 138.054688 844.824219 142.960938 843.34375 145.648438 C 841.769531 148.796875 841.214844 150.464844 841.957031 150.464844 C 842.601562 150.464844 844.640625 150.09375 846.398438 149.539062 C 848.15625 149.074219 855.472656 147.777344 862.601562 146.667969 C 869.730469 145.648438 880.375 143.703125 886.207031 142.5 C 892.039062 141.203125 901.113281 138.515625 906.390625 136.480469 C 911.574219 134.535156 916.015625 132.496094 916.292969 131.941406 C 916.574219 131.476562 913.703125 129.625 910 127.867188 C 906.390625 126.199219 901.019531 124.066406 898.242188 123.234375 C 895.464844 122.402344 889.816406 121.476562 885.746094 121.289062 C 880.746094 120.917969 876.671875 121.289062 873.246094 122.214844 C 870.46875 123.050781 865.839844 124.808594 863.0625 126.199219 Z M 939.4375 127.957031 C 935.367188 129.441406 931.292969 131.105469 930.367188 131.570312 C 929.070312 132.21875 931.476562 133.976562 942.863281 140.925781 C 950.640625 145.554688 960.730469 151.203125 965.359375 153.519531 C 969.988281 155.742188 977.394531 159.078125 982.023438 160.929688 C 986.652344 162.78125 993.042969 164.910156 996.375 165.652344 C 999.707031 166.484375 1007.761719 167.78125 1014.242188 168.707031 L 1026.089844 170.375 C 1025.164062 163.890625 1024.148438 159.539062 1023.222656 156.484375 C 1022.203125 153.425781 1020.074219 148.890625 1018.40625 146.296875 C 1016.742188 143.796875 1012.851562 139.71875 1009.796875 137.3125 C 1006.742188 134.8125 1001.09375 131.199219 997.300781 129.253906 C 993.503906 127.308594 986.652344 124.808594 982.023438 123.699219 C 977.394531 122.679688 971.191406 121.84375 968.136719 121.84375 C 965.082031 121.84375 959.066406 122.679688 954.714844 123.605469 C 950.363281 124.53125 943.511719 126.476562 939.4375 127.957031 Z M 900.09375 144.351562 C 896.296875 145.554688 888.800781 147.40625 883.429688 148.519531 C 878.058594 149.539062 868.0625 151.203125 861.210938 152.222656 C 853.898438 153.242188 844.917969 155.28125 839.457031 157.039062 C 833.992188 158.890625 825.660156 162.78125 819.089844 166.484375 C 812.980469 170.003906 805.851562 174.449219 803.351562 176.304688 C 800.757812 178.246094 796.59375 182.691406 794 186.210938 C 791.316406 189.730469 787.890625 195.105469 786.410156 198.160156 C 784.835938 201.214844 782.707031 206.402344 781.6875 209.738281 C 780.578125 213.070312 778.261719 224.09375 776.410156 234.28125 C 774.558594 244.46875 771.691406 257.617188 770.023438 263.453125 C 768.355469 269.289062 765.855469 276.976562 764.46875 280.585938 C 763.078125 284.199219 761.414062 289.941406 760.582031 293.554688 C 759.65625 297.8125 759.375 302.722656 759.746094 307.910156 C 760.023438 312.261719 760.859375 318.097656 761.785156 320.875 C 762.617188 323.652344 766.414062 333.285156 770.207031 342.175781 C 774.097656 351.066406 779.28125 362.550781 781.871094 367.644531 C 784.371094 372.738281 787.890625 379.222656 789.648438 382 C 791.410156 384.777344 794.371094 388.667969 796.316406 390.707031 C 798.167969 392.652344 801.3125 395.523438 803.351562 396.910156 C 805.386719 398.394531 807.332031 399.597656 807.703125 399.597656 C 808.164062 399.597656 808.441406 394.875 808.441406 389.222656 C 808.535156 383.480469 808.90625 373.203125 809.367188 366.535156 C 809.921875 359.773438 810.757812 353.289062 811.3125 352.179688 C 811.867188 350.972656 813.257812 349.121094 814.367188 347.917969 C 815.757812 346.4375 817.328125 345.878906 819.738281 345.878906 C 822.515625 345.878906 824.089844 346.621094 827.144531 349.492188 C 829.363281 351.4375 832.699219 355.699219 834.640625 358.9375 C 836.585938 362.179688 838.992188 367.738281 840.105469 371.351562 C 841.492188 376.074219 841.957031 379.316406 841.585938 383.390625 C 841.308594 386.445312 840.289062 390.800781 839.269531 393.113281 C 838.34375 395.429688 835.84375 399.042969 833.808594 401.265625 C 831.863281 403.488281 828.347656 406.171875 826.03125 407.191406 C 823.164062 408.582031 820.570312 409.042969 817.609375 408.765625 L 813.257812 408.394531 C 812.332031 416.269531 811.40625 421.082031 810.664062 424.140625 C 809.832031 427.195312 807.515625 433.214844 805.574219 437.570312 C 803.535156 441.921875 799.460938 448.960938 796.59375 453.3125 C 793.261719 458.222656 784.648438 468.039062 772.984375 479.894531 C 762.988281 490.265625 752.339844 502.03125 749.378906 506.011719 C 746.507812 510.085938 742.433594 516.015625 740.398438 519.253906 C 738.453125 522.40625 734.566406 529.722656 731.972656 535.277344 C 729.289062 540.835938 722.4375 556.671875 716.792969 570.472656 C 711.050781 584.269531 704.109375 601.777344 701.421875 609.371094 C 698.644531 617.058594 695.777344 624.742188 695.035156 626.503906 C 694.203125 628.261719 691.332031 640.765625 688.460938 654.289062 C 685.683594 667.808594 681.890625 687.816406 680.039062 698.742188 C 677.167969 716.0625 676.707031 720.601562 676.796875 733.472656 C 676.796875 741.625 677.722656 757.460938 678.835938 768.667969 C 679.851562 779.875 681.796875 796.082031 683.09375 804.789062 C 684.390625 813.492188 686.890625 828.035156 688.648438 837.203125 C 690.40625 846.371094 692.90625 858.039062 694.203125 863.132812 C 695.5 868.226562 697.164062 874.898438 697.90625 877.953125 C 698.644531 881.007812 701.886719 889.992188 704.941406 897.863281 C 707.996094 905.738281 713.828125 918.890625 717.71875 927.039062 C 721.699219 935.1875 727.621094 945.5625 730.863281 950.101562 C 734.011719 954.730469 739.378906 961.121094 742.710938 964.457031 C 746.046875 967.789062 752.710938 973.53125 757.523438 977.234375 C 762.339844 980.847656 768.820312 985.386719 771.875 987.144531 C 774.929688 989 781.316406 991.777344 785.945312 993.257812 C 790.667969 994.832031 797.332031 996.40625 800.757812 996.964844 C 804.277344 997.425781 811.867188 997.890625 817.699219 997.890625 C 823.53125 997.890625 831.863281 997.425781 836.214844 996.964844 C 840.566406 996.40625 851.398438 994.09375 860.285156 991.777344 C 869.171875 989.460938 883.800781 985.664062 892.6875 983.441406 C 901.574219 981.21875 915.089844 978.347656 922.773438 977.050781 C 930.367188 975.847656 942.863281 974.273438 950.546875 973.714844 C 958.789062 973.070312 971.75 972.882812 982.488281 973.160156 C 994.984375 973.53125 1005.074219 974.457031 1015.351562 976.03125 C 1023.5 977.328125 1033.496094 979.089844 1037.570312 979.921875 C 1041.644531 980.753906 1054.605469 983.625 1066.269531 986.3125 C 1077.933594 989 1090.246094 991.5 1093.578125 991.777344 C 1096.914062 992.148438 1109.226562 992.796875 1120.890625 993.257812 C 1135.515625 993.90625 1144.496094 994.738281 1149.589844 995.945312 L 1156.996094 997.613281 C 1172.085938 987.792969 1180.417969 982.886719 1185.230469 980.476562 L 1194.027344 976.125 C 1194.304688 965.382812 1194.394531 954.730469 1194.488281 945.5625 C 1194.671875 930.464844 1194.582031 928.796875 1193.007812 927.964844 C 1192.175781 927.503906 1187.636719 924.539062 1183.007812 921.480469 C 1178.378906 918.425781 1169.957031 911.480469 1164.402344 906.109375 C 1158.847656 900.644531 1150.238281 891.476562 1145.421875 885.734375 C 1140.609375 879.992188 1134.128906 872.582031 1131.074219 869.339844 C 1128.019531 866.097656 1122.371094 860.820312 1118.574219 857.578125 C 1114.78125 854.429688 1107.652344 849.242188 1102.835938 846.09375 C 1098.023438 842.945312 1089.414062 838.128906 1083.859375 835.351562 C 1078.304688 832.664062 1067.195312 827.847656 1059.328125 824.699219 C 1051.457031 821.550781 1042.105469 817.566406 1038.496094 815.808594 C 1034.886719 814.046875 1030.90625 811.640625 1029.425781 810.34375 C 1027.664062 808.769531 1027.015625 807.289062 1027.109375 805.527344 C 1027.292969 803.859375 1028.21875 802.566406 1029.703125 801.730469 C 1031.367188 800.804688 1034.609375 800.621094 1041.738281 800.988281 C 1047.105469 801.269531 1056.269531 802.285156 1062.105469 803.398438 C 1067.9375 804.417969 1078.398438 806.824219 1085.246094 808.585938 C 1092.097656 810.4375 1101.078125 812.9375 1105.152344 814.140625 C 1109.226562 815.4375 1112.742188 816.179688 1113.019531 815.902344 C 1113.296875 815.53125 1111.910156 814.046875 1109.964844 812.566406 C 1108.113281 811.085938 1106.539062 809.324219 1106.539062 808.769531 C 1106.539062 808.121094 1108.207031 805.714844 1110.242188 803.398438 C 1112.1875 801.082031 1113.578125 798.859375 1113.207031 798.488281 C 1112.835938 798.117188 1111.726562 797.839844 1110.707031 797.839844 C 1109.6875 797.839844 1107.929688 796.914062 1106.726562 795.804688 C 1105.429688 794.507812 1104.410156 792.097656 1104.132812 789.507812 C 1103.671875 785.988281 1104.039062 784.410156 1106.449219 780.058594 L 1109.316406 774.6875 C 1105.335938 772.09375 1103.394531 770.984375 1102.375 770.613281 C 1101.355469 770.242188 1098.207031 769.5 1095.429688 769.039062 C 1092.191406 768.574219 1088.023438 768.574219 1083.859375 769.222656 C 1080.25 769.777344 1069.507812 772.835938 1059.789062 776.167969 C 1050.070312 779.410156 1040.070312 782.46875 1037.570312 783.117188 C 1034.980469 783.671875 1028.3125 784.410156 1022.757812 784.78125 L 1012.574219 785.429688 C 1003.226562 792.097656 997.390625 795.433594 993.597656 797.285156 C 989.800781 799.136719 982.671875 801.453125 977.859375 802.472656 C 973.042969 803.398438 966.195312 804.789062 962.582031 805.34375 C 958.511719 805.992188 951.289062 806.269531 943.140625 805.898438 C 934.625 805.527344 926.199219 804.507812 918.609375 802.933594 C 909.628906 800.988281 904.722656 799.414062 896.855469 795.617188 C 891.207031 792.839844 883.613281 788.578125 879.910156 785.894531 C 876.300781 783.300781 868.988281 777.09375 863.894531 772.1875 C 858.710938 767.1875 851.859375 759.777344 848.527344 755.703125 C 845.289062 751.625 840.84375 745.605469 838.621094 742.273438 C 836.308594 738.9375 831.773438 731.066406 828.53125 724.675781 C 825.199219 718.285156 818.71875 703.746094 814.183594 692.261719 C 809.644531 680.777344 804.925781 668.550781 803.90625 664.9375 C 802.796875 661.328125 801.035156 653.640625 800.109375 647.804688 C 799.09375 641.96875 797.796875 630.949219 797.242188 623.261719 C 796.683594 615.667969 796.40625 602.332031 796.683594 593.625 C 797.054688 580.84375 797.519531 576.675781 799.183594 571.398438 C 800.296875 567.785156 802.332031 562.878906 803.535156 560.285156 C 804.832031 557.785156 807.609375 553.152344 809.738281 550.1875 C 811.960938 546.949219 817.050781 541.855469 822.328125 537.59375 C 827.699219 533.332031 833.253906 529.722656 836.679688 528.425781 C 841.308594 526.570312 843.992188 526.203125 852.878906 526.203125 C 858.710938 526.109375 866.027344 526.664062 869.082031 527.3125 C 872.136719 527.960938 875.375 528.609375 876.300781 528.886719 C 877.132812 529.074219 877.875 528.703125 877.875 528.148438 C 877.875 527.5 874.542969 522.589844 870.5625 517.21875 C 866.582031 511.847656 860.5625 504.621094 857.324219 501.011719 C 853.898438 497.304688 849.175781 493.324219 846.308594 491.839844 C 842.140625 489.617188 839.640625 488.96875 831.585938 488.324219 C 826.21875 487.859375 819.089844 487.117188 815.664062 486.65625 C 812.144531 486.097656 807.792969 484.894531 805.941406 483.96875 C 804 482.949219 801.3125 481.003906 799.925781 479.523438 C 798.445312 478.132812 797.054688 475.449219 796.777344 473.6875 C 796.316406 471.097656 796.59375 469.890625 798.535156 467.667969 C 800.851562 464.984375 801.035156 464.890625 809.089844 464.984375 C 815.015625 464.984375 818.902344 465.632812 823.253906 467.113281 C 826.585938 468.316406 831.773438 470.726562 834.828125 472.578125 C 837.882812 474.429688 843.25 478.78125 846.863281 482.210938 C 852.601562 487.765625 854.269531 488.785156 861.675781 491.378906 C 866.210938 492.953125 873.152344 495.917969 876.949219 497.863281 C 880.746094 499.898438 886.578125 503.511719 889.910156 506.105469 C 893.242188 508.605469 896.207031 510.640625 896.667969 510.734375 C 897.039062 510.734375 896.207031 507.492188 894.910156 503.605469 C 893.242188 498.695312 892.316406 493.601562 891.945312 487.582031 C 891.578125 481.003906 891.855469 477.671875 892.964844 474.152344 C 893.796875 471.652344 896.113281 467.667969 898.058594 465.355469 C 900.371094 462.667969 903.242188 460.539062 906.203125 459.425781 C 910.183594 457.851562 911.480469 457.757812 916.292969 458.6875 C 919.351562 459.242188 924.71875 461.1875 928.328125 462.945312 C 931.941406 464.707031 936.941406 467.667969 939.4375 469.613281 C 941.9375 471.558594 945.917969 473.96875 948.234375 474.984375 C 951.105469 476.28125 954.4375 476.929688 959.066406 476.929688 C 964.34375 476.929688 966.195312 476.558594 968.324219 474.984375 C 969.898438 473.875 971.65625 471.003906 972.765625 468.039062 C 973.878906 464.890625 975.914062 461.742188 978.320312 459.613281 C 980.359375 457.667969 984.710938 453.683594 988.042969 450.722656 C 991.375 447.757812 995.910156 444.609375 998.226562 443.773438 C 1000.539062 442.941406 1003.316406 441.273438 1004.429688 440.164062 C 1005.445312 438.957031 1007.019531 435.347656 1007.851562 432.011719 C 1009.242188 426.363281 1009.796875 425.621094 1016.742188 419.046875 C 1022.203125 413.953125 1024.148438 411.453125 1024.148438 409.785156 C 1024.148438 408.488281 1023.3125 403.300781 1022.203125 398.207031 C 1020.8125 391.632812 1020.445312 387.28125 1020.8125 383.390625 C 1021.09375 380.332031 1022.386719 375.796875 1023.683594 373.203125 C 1024.886719 370.703125 1029.515625 364.21875 1033.960938 358.847656 C 1038.867188 352.828125 1043.21875 346.4375 1045.253906 342.175781 C 1047.105469 338.378906 1049.421875 333.75 1050.53125 331.988281 C 1052.382812 329.117188 1052.476562 328.097656 1051.734375 322.726562 C 1051.273438 319.394531 1050.347656 315.78125 1049.605469 314.667969 C 1048.863281 313.464844 1047.292969 311.890625 1046.179688 311.148438 C 1044.976562 310.410156 1042.753906 309.390625 1041.273438 308.925781 C 1038.679688 308.09375 1038.125 308.371094 1033.867188 312.632812 C 1031.367188 315.132812 1027.574219 318.003906 1025.535156 318.929688 C 1023.5 319.949219 1015.816406 321.523438 1008.132812 322.632812 C 1000.632812 323.746094 993.042969 324.578125 991.28125 324.578125 C 989.523438 324.578125 985.449219 325.503906 982.300781 326.710938 C 979.0625 327.820312 972.953125 331.339844 968.601562 334.488281 C 964.25 337.636719 955.917969 342.453125 950.085938 345.234375 C 944.253906 348.011719 937.402344 350.972656 934.808594 351.714844 C 932.3125 352.550781 928.144531 353.476562 925.550781 353.84375 C 922.589844 354.214844 918.144531 353.84375 913.054688 352.828125 C 908.703125 351.992188 902.6875 350.328125 899.632812 349.121094 C 896.574219 348.011719 889.261719 344.769531 883.429688 341.898438 C 877.597656 339.121094 872.507812 336.15625 872.136719 335.324219 C 871.671875 334.488281 871.582031 333.285156 871.859375 332.730469 C 872.042969 332.082031 874.449219 330.507812 877.042969 329.210938 C 879.632812 327.914062 882.410156 326.152344 883.246094 325.226562 C 884.539062 323.839844 884.632812 323.28125 883.707031 321.335938 C 883.058594 320.042969 880.558594 318.1875 878.152344 317.078125 C 874.820312 315.59375 872.691406 315.226562 869.542969 315.59375 C 867.230469 315.875 863.527344 317.355469 861.210938 318.746094 C 858.15625 320.691406 856.304688 322.914062 854.269531 326.894531 C 851.859375 331.617188 851.492188 333.285156 851.492188 339.769531 C 851.582031 344.953125 852.230469 349.214844 853.710938 353.753906 C 854.824219 357.363281 857.414062 363.570312 859.359375 367.644531 C 861.304688 371.71875 864.542969 377.277344 866.671875 379.964844 C 868.804688 382.554688 871.859375 385.613281 873.523438 386.632812 C 875.097656 387.648438 877.875 388.484375 879.542969 388.484375 C 882.042969 388.484375 882.503906 388.761719 882.320312 390.613281 C 882.042969 392.375 881.484375 392.652344 877.78125 392.652344 C 874.820312 392.652344 872.597656 392.003906 870.097656 390.335938 C 868.246094 389.039062 864.730469 385.519531 862.414062 382.464844 C 860.101562 379.40625 856.859375 374.222656 855.195312 370.886719 C 853.527344 367.550781 851.027344 361.71875 849.640625 357.921875 C 847.695312 352.640625 846.953125 348.75 846.675781 341.714844 C 846.308594 333.839844 846.492188 331.710938 848.15625 327.359375 C 849.175781 324.578125 851.304688 320.78125 852.695312 319.023438 C 854.175781 317.261719 857.601562 314.578125 860.378906 313.09375 C 864.453125 310.871094 866.488281 310.410156 871.394531 310.410156 C 875.746094 310.316406 878.523438 310.871094 881.394531 312.355469 C 883.523438 313.464844 886.113281 315.503906 887.226562 316.984375 C 888.242188 318.375 889.355469 320.503906 889.632812 321.800781 C 889.910156 323.097656 889.632812 325.042969 889.078125 326.246094 C 888.523438 327.359375 886.113281 329.671875 883.800781 331.339844 L 879.632812 334.304688 L 896.855469 342.175781 C 909.074219 340.695312 914.257812 339.769531 916.292969 339.210938 C 918.332031 338.75 922.3125 337.082031 925.089844 335.691406 C 927.867188 334.304688 932.03125 331.527344 934.347656 329.671875 C 936.660156 327.726562 940.179688 324.023438 942.308594 321.429688 C 944.34375 318.835938 947.679688 314.019531 949.714844 310.6875 C 951.660156 307.351562 954.527344 303.277344 956.101562 301.519531 C 957.585938 299.851562 960.453125 297.628906 962.304688 296.703125 C 964.25 295.683594 968.230469 294.664062 971.101562 294.386719 C 974.246094 294.109375 983.226562 294.664062 992.949219 295.777344 C 1001.929688 296.886719 1011 297.722656 1013.039062 297.722656 C 1016.742188 297.722656 1016.742188 297.722656 1016.742188 294.292969 C 1016.648438 292.070312 1017.296875 290.125 1018.316406 289.199219 C 1019.425781 288.089844 1021.460938 287.535156 1024.332031 287.535156 C 1026.832031 287.535156 1029.886719 288.089844 1031.277344 288.828125 C 1032.757812 289.476562 1035.257812 291.609375 1036.828125 293.460938 C 1038.960938 295.777344 1039.886719 297.722656 1039.886719 299.851562 C 1039.886719 302.535156 1040.253906 302.90625 1043.589844 304.019531 C 1045.625 304.574219 1048.957031 306.703125 1051.085938 308.648438 C 1053.125 310.5 1055.34375 313.652344 1055.902344 315.59375 C 1056.550781 317.449219 1057.195312 319.113281 1057.476562 319.113281 C 1057.753906 319.113281 1060.621094 312.078125 1063.863281 303.554688 C 1067.101562 295.035156 1071.175781 283.828125 1072.933594 278.734375 C 1074.695312 273.640625 1076.914062 266.140625 1077.839844 262.0625 C 1078.859375 257.988281 1079.878906 251.136719 1080.25 246.78125 L 1080.710938 238.910156 C 1065.25 228.167969 1057.289062 221.683594 1052.9375 217.609375 C 1048.679688 213.535156 1043.496094 207.699219 1041.457031 204.644531 C 1039.328125 201.585938 1035.902344 195.289062 1033.773438 190.75 C 1031.554688 186.210938 1029.515625 181.210938 1029.054688 179.730469 C 1028.683594 178.246094 1027.664062 176.765625 1026.925781 176.394531 C 1026.183594 175.933594 1020.535156 174.914062 1014.425781 174.082031 C 1008.316406 173.246094 999.984375 171.859375 995.910156 170.839844 C 991.835938 169.914062 984.523438 167.597656 979.710938 165.746094 C 974.894531 163.890625 965.453125 159.632812 958.878906 156.113281 C 952.308594 152.6875 941.753906 146.667969 935.457031 142.777344 C 929.253906 138.886719 923.421875 135.644531 922.496094 135.738281 C 921.664062 135.738281 917.777344 137.21875 913.980469 138.980469 C 910.183594 140.738281 903.890625 143.148438 900.09375 144.351562 Z M 1035.996094 182.136719 C 1036.644531 184.359375 1039.144531 189.824219 1041.550781 194.363281 C 1044.328125 199.640625 1048.21875 205.105469 1052.382812 209.550781 C 1055.992188 213.441406 1063.214844 219.832031 1068.582031 223.8125 C 1073.953125 227.796875 1078.582031 231.039062 1078.953125 231.039062 C 1079.414062 231.039062 1079.414062 229.09375 1079.136719 226.683594 C 1078.859375 224.183594 1077.472656 219.367188 1076.175781 215.757812 C 1074.878906 212.238281 1072.378906 206.773438 1070.621094 203.71875 C 1068.769531 200.660156 1065.4375 196.121094 1063.121094 193.621094 C 1060.808594 191.121094 1056.734375 187.789062 1054.234375 186.121094 C 1051.640625 184.546875 1047.476562 182.324219 1044.976562 181.304688 C 1042.382812 180.285156 1039.050781 179.082031 1037.476562 178.710938 L 1034.699219 178.0625 Z M 1083.859375 259.839844 C 1083.027344 264.101562 1080.898438 272.066406 1079.136719 277.4375 C 1077.285156 282.71875 1073.121094 294.386719 1069.789062 303.371094 C 1066.546875 312.261719 1062.472656 321.984375 1060.898438 324.855469 L 1057.9375 330.136719 C 1061.917969 335.972656 1064.417969 338.285156 1066.085938 339.121094 C 1068.027344 340.136719 1070.066406 340.417969 1071.824219 339.953125 C 1073.492188 339.582031 1076.636719 337.265625 1079.601562 334.117188 C 1082.65625 330.785156 1086.082031 325.691406 1088.671875 320.503906 C 1090.894531 315.875 1093.859375 308.1875 1095.152344 303.371094 C 1097.003906 296.332031 1097.558594 291.609375 1098.023438 279.753906 C 1098.394531 267.714844 1098.207031 263.917969 1097.003906 259.5625 C 1095.988281 256.230469 1094.042969 252.523438 1091.542969 249.46875 C 1089.414062 246.875 1087.097656 244.46875 1086.542969 244.28125 C 1085.894531 244.097656 1085.433594 245.394531 1085.433594 247.894531 C 1085.339844 250.117188 1084.691406 255.488281 1083.859375 259.839844 Z M 1023.035156 296.886719 C 1024.054688 298.183594 1027.015625 299.851562 1029.792969 300.777344 C 1032.570312 301.703125 1035.070312 302.167969 1035.257812 301.890625 C 1035.535156 301.609375 1035.164062 300.222656 1034.332031 298.925781 C 1033.589844 297.535156 1031.460938 295.40625 1029.703125 294.292969 C 1027.941406 293.089844 1025.628906 292.164062 1024.425781 292.164062 C 1023.3125 292.257812 1022.109375 292.71875 1021.832031 293.367188 C 1021.460938 294.015625 1022.019531 295.589844 1023.035156 296.886719 Z M 960.175781 304.851562 C 959.25 305.777344 956.195312 310.410156 953.234375 315.132812 C 950.269531 319.855469 945.550781 326.0625 942.679688 328.933594 C 939.902344 331.804688 935.085938 335.785156 932.03125 337.824219 C 928.976562 339.769531 923.792969 342.269531 920.460938 343.195312 C 917.21875 344.214844 913.515625 345.046875 912.40625 345.046875 C 911.296875 345.046875 910.277344 345.417969 910.277344 345.972656 C 910.277344 346.4375 911.851562 347.269531 913.796875 347.824219 C 915.738281 348.289062 919.351562 348.75 921.847656 348.75 C 924.441406 348.75 928.792969 348.101562 931.570312 347.269531 C 934.441406 346.4375 941.105469 343.75 946.382812 341.25 C 951.75 338.75 959.4375 334.398438 963.507812 331.527344 C 967.582031 328.5625 973.414062 324.949219 976.46875 323.375 C 979.800781 321.800781 984.523438 320.320312 988.042969 319.855469 C 991.375 319.484375 999.335938 318.464844 1005.632812 317.726562 C 1012.019531 316.890625 1018.871094 315.78125 1020.8125 315.132812 C 1022.851562 314.484375 1026.089844 312.632812 1028.035156 310.964844 C 1029.980469 309.296875 1031.460938 307.816406 1031.367188 307.539062 C 1031.273438 307.261719 1028.867188 306.425781 1026 305.59375 C 1023.222656 304.851562 1013.6875 303.371094 1004.707031 302.351562 C 995.820312 301.332031 984.152344 300.3125 978.785156 300.035156 C 970.453125 299.574219 968.601562 299.757812 965.359375 301.332031 C 963.324219 302.257812 961.007812 303.832031 960.175781 304.851562 Z M 815.015625 360.792969 C 814.550781 364.035156 814.089844 374.871094 813.90625 384.871094 L 813.535156 402.929688 C 822.238281 403.488281 823.347656 403.117188 826.957031 400.429688 C 829.457031 398.578125 832.140625 395.335938 833.714844 392.28125 C 836.214844 387.648438 836.402344 386.539062 836.03125 380.242188 C 835.753906 374.5 835.011719 371.90625 832.050781 365.886719 C 830.011719 361.53125 826.867188 356.808594 824.550781 354.492188 C 822.328125 352.363281 820.105469 350.605469 819.644531 350.605469 C 819.089844 350.605469 818.070312 351.53125 817.328125 352.640625 C 816.496094 353.84375 815.476562 357.457031 815.015625 360.792969 Z M 1121.539062 435.347656 C 1121.351562 442.476562 1121.722656 452.851562 1122.277344 458.5 C 1122.925781 464.058594 1124.222656 472.578125 1125.242188 477.488281 C 1126.257812 482.300781 1127.277344 486.65625 1127.648438 487.210938 C 1127.925781 487.675781 1128.945312 486.007812 1129.960938 483.507812 C 1130.886719 480.914062 1132.277344 476.375 1133.015625 473.320312 C 1133.664062 470.261719 1134.683594 462.945312 1135.238281 457.109375 C 1135.980469 449.425781 1135.980469 443.867188 1135.238281 437.199219 C 1134.683594 432.105469 1133.386719 425.621094 1132.371094 422.84375 C 1131.445312 419.972656 1129.871094 417.007812 1129.035156 416.082031 C 1128.109375 415.15625 1126.90625 414.414062 1126.351562 414.414062 C 1125.703125 414.507812 1124.5 416.269531 1123.574219 418.398438 C 1122.371094 421.363281 1121.910156 425.621094 1121.539062 435.347656 Z M 1070.898438 426.640625 C 1071.175781 428.308594 1073.675781 434.328125 1076.453125 439.976562 C 1079.230469 445.535156 1084.136719 453.683594 1087.46875 458.039062 C 1090.710938 462.296875 1096.726562 468.964844 1100.800781 472.855469 C 1104.875 476.652344 1110.613281 481.46875 1113.484375 483.507812 C 1116.355469 485.542969 1118.945312 486.839844 1119.316406 486.46875 C 1119.6875 486.101562 1118.851562 483.320312 1117.371094 480.449219 C 1115.890625 477.488281 1112.371094 471.1875 1109.503906 466.371094 C 1106.726562 461.464844 1101.355469 453.59375 1097.746094 448.777344 C 1094.136719 443.867188 1088.210938 437.199219 1084.601562 433.957031 C 1081.082031 430.625 1076.359375 426.917969 1074.230469 425.714844 L 1070.34375 423.492188 Z M 1169.121094 464.984375 C 1166.53125 466.371094 1161.347656 469.613281 1157.550781 472.207031 C 1153.753906 474.800781 1147.089844 479.894531 1142.738281 483.597656 C 1138.386719 487.210938 1134.222656 490.824219 1133.480469 491.75 C 1132.738281 492.582031 1132.277344 493.507812 1132.554688 493.695312 C 1132.832031 493.972656 1137 492.953125 1141.8125 491.378906 C 1146.625 489.804688 1154.585938 486.378906 1159.402344 483.785156 C 1164.214844 481.191406 1170.882812 477.207031 1174.214844 474.800781 C 1177.546875 472.484375 1181.992188 468.78125 1184.121094 466.558594 C 1186.339844 464.425781 1188.101562 462.019531 1188.101562 461.277344 C 1188.101562 460.261719 1187.082031 459.890625 1184.582031 459.890625 C 1182.730469 459.980469 1179.492188 460.539062 1177.453125 461.1875 C 1175.417969 461.835938 1171.714844 463.59375 1169.121094 464.984375 Z M 801.871094 472.761719 C 801.960938 473.597656 803.164062 475.265625 804.554688 476.652344 C 805.941406 477.949219 808.351562 479.429688 809.921875 480.078125 C 811.40625 480.636719 813.90625 481.285156 815.476562 481.5625 C 816.960938 481.933594 822.882812 482.488281 828.625 482.859375 C 835.476562 483.230469 838.992188 483.136719 838.808594 482.582031 C 838.621094 482.023438 836.214844 480.078125 833.4375 478.136719 C 830.660156 476.191406 825.199219 473.597656 821.21875 472.300781 C 817.050781 471.003906 811.867188 470.078125 808.628906 470.078125 C 805.664062 470.078125 802.886719 470.355469 802.515625 470.632812 C 802.054688 471.003906 801.777344 471.929688 801.871094 472.761719 Z M 1045.71875 488.414062 C 1044.605469 489.0625 1043.679688 489.898438 1043.679688 490.453125 C 1043.679688 490.914062 1044.605469 492.027344 1045.71875 492.769531 C 1046.921875 493.507812 1050.347656 494.992188 1053.402344 495.917969 C 1056.457031 496.84375 1063.121094 498.140625 1068.214844 498.695312 C 1074.785156 499.4375 1081.730469 499.527344 1092.285156 498.789062 C 1100.429688 498.324219 1109.410156 497.582031 1112.371094 497.304688 C 1115.429688 496.933594 1117.464844 496.195312 1117.371094 495.640625 C 1117.1875 495.082031 1113.390625 493.695312 1108.855469 492.488281 C 1104.320312 491.378906 1095.988281 489.617188 1090.433594 488.507812 C 1084.601562 487.394531 1074.878906 486.46875 1067.75 486.285156 C 1060.898438 486.007812 1053.585938 486.191406 1051.550781 486.65625 C 1049.511719 487.027344 1046.921875 487.859375 1045.71875 488.414062 Z M 867.320312 504.808594 C 869.449219 507.308594 873.894531 513.144531 877.132812 517.773438 C 880.375 522.3125 886.855469 531.945312 891.578125 539.074219 C 896.207031 546.207031 901.851562 555.746094 904.167969 560.375 C 906.480469 564.914062 910 572.878906 912.035156 577.972656 C 914.074219 583.066406 917.40625 592.234375 919.441406 598.347656 C 921.480469 604.460938 924.625 614.464844 926.386719 620.578125 C 928.144531 626.6875 930.550781 635.949219 931.753906 641.136719 C 932.957031 646.414062 934.160156 650.675781 934.441406 650.675781 C 934.71875 650.675781 935.179688 647.898438 935.550781 644.378906 C 935.921875 640.953125 935.828125 631.042969 935.367188 622.429688 C 934.808594 613.722656 933.976562 603.90625 933.421875 600.664062 C 932.867188 597.328125 931.753906 592.144531 931.015625 589.085938 C 930.273438 586.03125 928.699219 580.382812 927.402344 576.585938 C 926.199219 572.695312 922.867188 565.46875 920.089844 560.375 C 917.21875 555.28125 911.574219 544.445312 907.59375 536.296875 C 901.390625 523.703125 899.628906 520.921875 895.835938 517.679688 C 893.429688 515.644531 888.707031 511.847656 885.375 509.4375 C 882.042969 506.9375 875.929688 503.324219 871.671875 501.382812 C 867.507812 499.4375 863.617188 497.863281 863.0625 497.863281 C 862.414062 497.863281 862.324219 498.324219 862.785156 498.972656 C 863.15625 499.621094 865.191406 502.214844 867.320312 504.808594 Z M 1135.980469 502.308594 C 1137.367188 503.324219 1141.257812 505.457031 1144.589844 507.125 C 1147.921875 508.789062 1153.753906 511.289062 1157.550781 512.773438 C 1161.347656 514.253906 1168.472656 516.570312 1173.289062 517.773438 C 1178.101562 519.070312 1184.210938 520.089844 1186.898438 520.089844 C 1189.582031 520.089844 1192.820312 519.535156 1194.117188 518.886719 C 1195.414062 518.238281 1196.433594 517.03125 1196.433594 516.105469 C 1196.433594 515.273438 1195.597656 513.699219 1194.582031 512.679688 C 1193.5625 511.660156 1190.691406 509.808594 1188.285156 508.605469 C 1185.878906 507.402344 1181.25 505.546875 1177.917969 504.53125 C 1174.585938 503.511719 1167.269531 502.027344 1161.714844 501.195312 C 1156.070312 500.453125 1147.738281 499.527344 1143.109375 499.25 C 1137.460938 498.789062 1134.40625 498.972656 1134.035156 499.621094 C 1133.757812 500.175781 1134.589844 501.382812 1135.980469 502.308594 Z M 1097.839844 508.140625 C 1093.210938 509.902344 1086.171875 513.144531 1082.101562 515.457031 C 1078.121094 517.773438 1072.472656 521.757812 1069.601562 524.347656 C 1066.824219 527.035156 1064.878906 529.535156 1065.25 529.90625 C 1065.714844 530.371094 1067.84375 530.648438 1070.15625 530.460938 C 1072.378906 530.371094 1077.007812 529.164062 1080.433594 527.867188 C 1083.859375 526.570312 1090.0625 523.609375 1094.136719 521.199219 C 1098.207031 518.792969 1105.613281 513.792969 1110.519531 510.085938 C 1115.519531 506.382812 1119.59375 502.957031 1119.59375 502.492188 C 1119.59375 501.9375 1119.5 501.566406 1119.316406 501.566406 C 1119.222656 501.660156 1116.167969 502.398438 1112.652344 503.324219 C 1109.039062 504.253906 1102.375 506.476562 1097.839844 508.140625 Z M 1134.3125 520.273438 C 1135.792969 526.015625 1138.851562 535.742188 1141.164062 541.855469 C 1143.386719 547.964844 1146.535156 555.46875 1148.015625 558.523438 C 1149.589844 561.582031 1151.996094 565.101562 1153.382812 566.398438 C 1155.792969 568.621094 1155.882812 568.710938 1157.179688 566.859375 C 1157.921875 565.839844 1158.476562 563.527344 1158.476562 561.765625 C 1158.476562 559.914062 1157.644531 555.375 1156.71875 551.578125 C 1155.699219 547.6875 1153.664062 541.855469 1152.179688 538.613281 C 1150.699219 535.277344 1147.460938 529.257812 1145.050781 525.183594 C 1142.554688 521.109375 1139.035156 515.367188 1137.183594 512.402344 C 1135.332031 509.53125 1133.386719 507.125 1132.738281 507.125 C 1132.089844 507.125 1131.628906 507.679688 1131.628906 508.511719 C 1131.628906 509.253906 1132.832031 514.53125 1134.3125 520.273438 Z M 1099.78125 528.515625 C 1096.726562 531.757812 1092.746094 536.667969 1090.894531 539.539062 C 1089.042969 542.316406 1086.820312 546.390625 1085.988281 548.523438 C 1085.0625 550.746094 1084.414062 553.339844 1084.414062 554.355469 C 1084.414062 555.375 1084.878906 556.394531 1085.527344 556.765625 C 1086.171875 557.042969 1088.394531 556.765625 1090.433594 556.117188 C 1092.839844 555.375 1096.171875 552.875 1100.152344 548.890625 C 1103.484375 545.464844 1107.929688 539.816406 1110.058594 536.296875 C 1112.09375 532.683594 1115.796875 525.367188 1118.113281 520.089844 C 1120.519531 514.71875 1122.277344 509.996094 1122.1875 509.53125 C 1122 509.066406 1118.113281 511.753906 1113.578125 515.644531 C 1108.949219 519.441406 1102.746094 525.183594 1099.78125 528.515625 Z M 836.125 534.351562 C 834.457031 535.277344 829.085938 539.261719 824.273438 543.058594 C 818.441406 547.875 814.460938 551.949219 812.054688 555.746094 C 810.015625 558.800781 807.144531 564.636719 805.574219 568.710938 C 803.445312 574.453125 802.609375 578.621094 801.777344 587.699219 C 801.128906 596.21875 801.128906 603.90625 801.960938 616.871094 C 802.609375 626.503906 803.722656 638.359375 804.460938 643.265625 C 805.203125 648.082031 806.683594 655.398438 807.703125 659.472656 C 808.71875 663.550781 813.535156 676.609375 818.441406 688.648438 C 823.253906 700.59375 828.902344 713.746094 830.9375 717.820312 C 833.066406 721.898438 836.957031 729.121094 839.734375 734.03125 C 842.601562 738.84375 847.417969 746.160156 850.65625 750.238281 C 853.804688 754.3125 860.933594 762 866.488281 767.371094 C 872.042969 772.648438 879.910156 779.316406 883.984375 782.097656 C 888.058594 784.875 895.742188 789.226562 901.113281 791.730469 C 906.757812 794.414062 914.164062 797.007812 918.886719 798.027344 C 923.332031 798.953125 932.125 800.25 938.328125 800.804688 C 946.84375 801.546875 951.84375 801.546875 958.046875 800.710938 C 962.582031 800.15625 968.878906 799.230469 971.933594 798.765625 C 974.988281 798.210938 980.171875 797.007812 983.503906 795.894531 C 986.839844 794.878906 992.394531 792.5625 996.003906 790.710938 C 999.613281 788.765625 1004.707031 785.058594 1007.574219 782.1875 C 1010.445312 779.316406 1014.054688 774.410156 1015.722656 771.074219 C 1018.316406 765.980469 1018.960938 763.296875 1019.796875 754.40625 C 1020.722656 745.144531 1020.628906 742.828125 1019.332031 737.269531 C 1018.40625 733.660156 1016.277344 727.730469 1014.519531 724.027344 C 1012.390625 719.765625 1009.148438 715.230469 1005.445312 711.339844 L 999.707031 705.320312 C 990.355469 708.746094 984.339844 710.414062 980.265625 711.339844 C 976.191406 712.171875 968.507812 712.914062 963.140625 713.007812 C 955.175781 713.007812 952.121094 712.636719 946.566406 710.785156 C 940.828125 708.929688 939.160156 707.820312 936.292969 704.394531 C 934.347656 702.078125 932.21875 699.113281 931.570312 697.910156 C 930.550781 696.148438 930.273438 691.890625 930.460938 679.851562 C 930.644531 669.015625 930.273438 661.511719 929.253906 655.769531 C 928.515625 651.140625 926.476562 641.785156 924.71875 634.933594 C 922.960938 627.984375 919.164062 615.113281 916.292969 606.222656 C 913.425781 597.238281 908.980469 584.734375 906.480469 578.4375 C 903.980469 572.046875 900 563.246094 897.78125 558.988281 C 895.464844 554.632812 891.207031 547.597656 888.335938 543.242188 L 883.058594 535.371094 C 871.765625 532.59375 864.453125 531.851562 856.675781 531.574219 C 849.824219 531.386719 843.066406 531.574219 841.675781 531.945312 C 840.289062 532.40625 837.789062 533.519531 836.121094 534.351562 Z M 923.886719 548.335938 C 923.515625 549.449219 924.347656 552.875 926.109375 557.136719 C 927.683594 560.933594 930.550781 569.082031 932.496094 575.195312 C 934.53125 581.308594 936.753906 589.644531 937.496094 593.71875 C 938.328125 597.792969 939.4375 606.683594 940.085938 613.628906 C 940.640625 620.761719 940.921875 632.988281 940.640625 642.339844 C 940.273438 655.121094 939.714844 660.769531 937.773438 669.382812 C 936.476562 675.40625 935.367188 681.238281 935.367188 682.351562 C 935.367188 684.386719 935.457031 684.480469 946.660156 684.203125 C 954.25 684.015625 960.359375 684.386719 964.988281 685.3125 C 968.785156 686.148438 973.136719 687.074219 974.710938 687.445312 L 977.488281 688 C 974.339844 683.832031 972.394531 680.21875 971.101562 677.257812 C 969.710938 674.386719 967.582031 668.273438 966.285156 663.828125 C 964.988281 659.382812 962.304688 646.324219 960.359375 634.929688 C 958.417969 623.449219 955.730469 609.460938 954.4375 603.90625 C 953.234375 598.257812 951.105469 590.105469 949.898438 585.847656 C 948.605469 581.492188 946.476562 575.011719 945.085938 571.492188 C 943.789062 567.878906 941.199219 562.230469 939.347656 558.988281 C 937.585938 555.652344 934.996094 551.761719 933.605469 550.28125 C 932.308594 548.890625 930.089844 547.132812 928.792969 546.484375 C 927.402344 545.742188 925.921875 545.464844 925.367188 545.835938 C 924.902344 546.207031 924.257812 547.316406 923.886719 548.335938 Z M 1055.992188 579.085938 C 1058.769531 582.046875 1064.046875 586.585938 1067.84375 589.179688 C 1071.640625 591.867188 1079.601562 596.3125 1085.527344 599.183594 C 1091.542969 602.054688 1096.914062 604.277344 1097.46875 604.089844 C 1098.023438 604 1096.078125 600.757812 1093.023438 596.960938 C 1089.96875 593.070312 1084.414062 587.605469 1080.617188 584.734375 C 1076.824219 581.863281 1071.640625 578.527344 1069.140625 577.234375 C 1066.546875 576.027344 1063.027344 574.546875 1061.269531 573.992188 C 1059.511719 573.433594 1056.640625 572.785156 1054.976562 572.507812 C 1053.402344 572.230469 1051.828125 572.417969 1051.550781 572.878906 C 1051.273438 573.34375 1053.308594 576.214844 1055.992188 579.085938 Z M 1083.027344 619.558594 C 1080.433594 620.761719 1076.359375 624.003906 1073.859375 626.6875 C 1071.359375 629.46875 1068.582031 633.265625 1067.65625 635.117188 C 1066.640625 637.0625 1064.234375 645.582031 1062.101562 654.101562 C 1060.066406 662.625 1057.566406 670.957031 1056.550781 672.625 C 1055.253906 674.847656 1055.066406 675.773438 1055.902344 676.050781 C 1056.550781 676.238281 1059.789062 677.070312 1063.121094 677.90625 C 1066.453125 678.832031 1071.640625 680.867188 1074.601562 682.441406 C 1077.65625 684.015625 1081.914062 687.167969 1084.136719 689.296875 C 1086.265625 691.519531 1089.136719 695.410156 1090.433594 698.09375 C 1091.726562 700.78125 1092.746094 704.578125 1092.652344 706.707031 C 1092.652344 708.746094 1092.929688 710.691406 1093.210938 711.0625 C 1093.394531 711.429688 1099.132812 708.652344 1105.890625 704.761719 C 1112.652344 700.875 1120.425781 696.058594 1123.203125 693.925781 C 1125.980469 691.796875 1129.59375 687.90625 1131.257812 685.40625 C 1133.015625 682.8125 1135.054688 678.644531 1135.792969 676.144531 C 1136.535156 673.550781 1137.183594 668.457031 1137.183594 664.753906 C 1137.183594 659.566406 1136.351562 655.675781 1133.757812 647.621094 C 1131.90625 641.878906 1129.960938 635.765625 1129.40625 634.003906 C 1128.851562 632.339844 1126.257812 628.542969 1123.574219 625.671875 C 1120.984375 622.890625 1117.558594 619.835938 1115.984375 618.910156 C 1113.484375 617.519531 1113.113281 617.519531 1113.113281 618.722656 C 1113.113281 619.464844 1111.726562 622.800781 1110.058594 626.226562 C 1108.390625 629.558594 1105.429688 634.003906 1103.394531 636.042969 C 1101.355469 638.082031 1098.300781 640.394531 1096.632812 641.042969 C 1094.96875 641.785156 1092.929688 642.339844 1092.007812 642.339844 C 1091.171875 642.339844 1089.691406 641.601562 1088.859375 640.765625 C 1087.933594 639.839844 1087.191406 637.800781 1087.191406 636.320312 C 1087.191406 634.746094 1088.394531 631.414062 1089.875 628.910156 C 1091.265625 626.320312 1094.414062 622.242188 1096.726562 619.835938 C 1099.132812 617.425781 1100.707031 615.296875 1100.246094 615.113281 C 1099.78125 614.925781 1096.820312 615.390625 1093.578125 616.039062 C 1090.339844 616.777344 1085.527344 618.261719 1083.027344 619.558594 Z M 1096.171875 628.449219 C 1094.875 630.207031 1093.300781 632.800781 1092.839844 634.191406 C 1091.914062 636.507812 1092.007812 636.785156 1093.671875 636.785156 C 1094.691406 636.785156 1097.375 635.023438 1099.503906 632.800781 C 1101.726562 630.671875 1104.597656 626.503906 1105.984375 623.539062 C 1107.375 620.667969 1108.484375 617.984375 1108.484375 617.796875 C 1108.484375 617.519531 1108.113281 617.335938 1107.742188 617.335938 C 1107.375 617.335938 1105.152344 619.09375 1102.835938 621.222656 C 1100.523438 623.449219 1097.558594 626.597656 1096.171875 628.449219 Z M 1035.996094 695.132812 C 1032.847656 696.613281 1027.941406 698.28125 1025.164062 698.835938 C 1022.386719 699.300781 1017.574219 699.761719 1014.519531 699.761719 C 1011.09375 699.761719 1008.132812 700.226562 1006.835938 701.152344 L 1004.796875 702.539062 C 1012.296875 710.875 1015.816406 715.597656 1017.480469 718.378906 C 1019.148438 721.0625 1021.554688 726.34375 1022.851562 730.046875 C 1024.796875 735.695312 1025.164062 738.476562 1025.164062 747.179688 C 1025.164062 752.921875 1024.703125 759.867188 1024.238281 762.738281 C 1023.683594 765.519531 1022.386719 769.777344 1021.183594 772.1875 C 1020.074219 774.59375 1019.519531 776.539062 1020.074219 776.632812 C 1020.535156 776.632812 1025.351562 774.039062 1030.71875 770.890625 C 1036.089844 767.648438 1043.957031 762.554688 1048.308594 759.5 C 1052.566406 756.441406 1059.605469 750.328125 1064.046875 746.070312 C 1068.582031 741.625 1074.878906 733.9375 1078.582031 728.472656 C 1082.839844 722.175781 1085.710938 716.804688 1086.636719 713.375 C 1088.023438 708.46875 1087.933594 707.632812 1086.542969 703.1875 C 1085.617188 700.132812 1083.582031 696.796875 1081.175781 694.203125 C 1078.953125 691.890625 1074.785156 688.648438 1071.824219 687.074219 C 1068.769531 685.40625 1063.863281 683.460938 1060.808594 682.628906 C 1057.753906 681.886719 1054.417969 681.238281 1053.308594 681.238281 C 1052.199219 681.238281 1049.605469 683.367188 1046.644531 686.796875 C 1043.21875 690.6875 1040.164062 693.09375 1035.996094 695.132812 Z M 1022.109375 690.316406 C 1019.242188 691.890625 1017.019531 693.558594 1017.203125 693.925781 C 1017.390625 694.296875 1019.609375 694.390625 1022.109375 694.019531 C 1024.515625 693.648438 1028.40625 692.722656 1030.71875 691.890625 C 1033.035156 691.054688 1036.644531 688.925781 1038.773438 687.167969 C 1040.996094 685.40625 1042.753906 683.554688 1042.753906 683.089844 C 1042.753906 682.535156 1042.199219 682.164062 1041.550781 682.164062 C 1040.902344 682.164062 1037.476562 683.371094 1033.960938 684.757812 C 1030.347656 686.148438 1025.074219 688.648438 1022.109375 690.316406 Z M 935.085938 690.964844 C 935.273438 691.703125 935.921875 693.648438 936.660156 695.316406 C 937.402344 696.984375 939.4375 699.945312 941.289062 701.800781 C 943.511719 704.207031 946.195312 705.78125 949.4375 706.707031 C 952.214844 707.449219 957.953125 708.097656 962.675781 708.097656 C 967.210938 708.097656 973.878906 707.449219 977.488281 706.707031 C 981.007812 705.875 985.914062 704.671875 988.320312 703.929688 C 990.726562 703.097656 992.761719 702.171875 992.761719 701.800781 C 992.761719 701.429688 989.800781 699.578125 986.097656 697.722656 C 982.394531 695.871094 975.542969 693.1875 971.007812 691.890625 C 964.34375 689.851562 960.269531 689.296875 950.640625 689.019531 C 943.976562 688.832031 937.773438 688.925781 936.753906 689.203125 C 935.734375 689.480469 934.996094 690.316406 935.085938 690.964844 Z M 1148.476562 707.820312 C 1144.21875 710.226562 1137.367188 714.949219 1133.203125 718.285156 C 1126.628906 723.472656 1125.519531 724.675781 1125.242188 727.546875 L 1124.964844 730.789062 C 1132.648438 729.863281 1139.683594 727.546875 1145.515625 725.136719 C 1151.347656 722.636719 1159.863281 718.101562 1164.492188 715.042969 C 1169.308594 711.800781 1174.027344 707.726562 1175.878906 705.320312 C 1177.546875 703.003906 1178.75 700.6875 1178.566406 700.226562 C 1178.378906 699.667969 1176.160156 699.207031 1173.660156 699.019531 C 1170.605469 698.929688 1166.902344 699.578125 1162.640625 701.152344 C 1159.03125 702.449219 1152.644531 705.410156 1148.476562 707.820312 Z M 1092.929688 718.839844 C 1091.265625 720.042969 1087.007812 725.507812 1083.304688 730.972656 C 1079.136719 737.269531 1073.582031 744.03125 1068.214844 749.3125 C 1063.585938 753.847656 1056.457031 759.960938 1052.382812 762.832031 C 1048.402344 765.703125 1041.550781 770.242188 1037.199219 772.835938 C 1032.847656 775.429688 1028.683594 778.207031 1027.941406 778.949219 C 1026.738281 780.058594 1027.570312 780.058594 1033.496094 778.855469 C 1037.292969 778.113281 1045.808594 775.613281 1052.476562 773.207031 C 1059.046875 770.890625 1067.84375 767.925781 1071.917969 766.628906 C 1077.933594 764.683594 1081.265625 764.222656 1089.96875 764.222656 C 1097.097656 764.128906 1101.632812 764.5 1103.855469 765.425781 C 1105.613281 766.167969 1108.390625 767.648438 1110.058594 768.851562 C 1112.835938 770.890625 1113.296875 770.984375 1115.429688 769.6875 C 1116.722656 768.851562 1117.925781 767.371094 1118.207031 766.167969 C 1118.484375 765.054688 1118.945312 753.664062 1119.410156 740.976562 C 1119.777344 728.195312 1119.964844 714.582031 1119.777344 710.597656 C 1119.59375 706.707031 1119.222656 703.464844 1118.851562 703.558594 C 1118.484375 703.558594 1113.207031 706.523438 1107.097656 710.042969 C 1100.984375 713.65625 1094.597656 717.542969 1092.929688 718.839844 Z M 1123.757812 770.890625 C 1121.722656 772 1119.316406 773.484375 1118.390625 774.316406 C 1117.28125 775.242188 1117 776.167969 1117.648438 777.28125 C 1118.113281 778.207031 1119.222656 779.6875 1120.148438 780.613281 C 1121.351562 781.820312 1122.648438 782.1875 1124.40625 781.820312 C 1125.796875 781.449219 1128.667969 780.058594 1130.796875 778.667969 C 1132.832031 777.28125 1135.148438 775.242188 1135.886719 774.039062 C 1136.535156 772.925781 1137.277344 771.351562 1137.367188 770.519531 C 1137.554688 769.777344 1136.535156 768.761719 1135.054688 768.203125 C 1133.664062 767.742188 1132.460938 767.371094 1132.277344 767.464844 C 1132.183594 767.464844 1130.980469 767.832031 1129.777344 768.203125 C 1128.480469 768.574219 1125.703125 769.777344 1123.757812 770.890625 Z M 1109.316406 788.394531 C 1109.316406 789.785156 1109.875 791.449219 1110.519531 792.097656 C 1111.445312 793.023438 1112.742188 792.746094 1116.816406 790.800781 L 1121.910156 788.394531 C 1118.296875 786.355469 1116.445312 784.503906 1115.429688 783.023438 C 1114.410156 781.539062 1113.296875 780.335938 1112.929688 780.335938 C 1112.558594 780.335938 1111.539062 781.539062 1110.707031 783.023438 C 1109.964844 784.503906 1109.316406 786.914062 1109.316406 788.394531 Z M 1124.316406 795.246094 L 1116.539062 803.027344 C 1125.703125 803.398438 1130.238281 803.027344 1132.554688 802.378906 C 1135.332031 801.636719 1138.109375 799.785156 1141.070312 796.824219 C 1144.21875 793.671875 1145.699219 791.359375 1146.070312 788.859375 C 1146.441406 786.449219 1146.257812 785.246094 1145.332031 784.691406 C 1144.683594 784.320312 1142.832031 784.042969 1141.347656 784.042969 C 1139.777344 784.042969 1137.089844 784.875 1135.332031 785.800781 C 1133.574219 786.726562 1128.574219 790.988281 1124.316406 795.246094 Z M 1042.753906 812.011719 C 1046.085938 813.492188 1054.976562 817.199219 1062.660156 820.253906 C 1070.25 823.308594 1081.359375 828.21875 1087.191406 831.089844 C 1093.023438 834.054688 1101.542969 838.871094 1106.171875 841.832031 C 1110.707031 844.796875 1116.816406 849.148438 1119.59375 851.464844 C 1122.371094 853.78125 1127.277344 858.132812 1130.519531 861.28125 C 1133.757812 864.339844 1141.347656 872.765625 1147.367188 879.898438 C 1153.382812 887.027344 1162.363281 896.847656 1167.363281 901.847656 C 1172.457031 906.757812 1178.84375 912.589844 1181.621094 914.628906 C 1184.398438 916.757812 1188.5625 919.445312 1190.878906 920.648438 L 1195.042969 922.777344 C 1196.15625 913.886719 1196.433594 905.273438 1196.433594 897.957031 C 1196.433594 888.972656 1195.96875 882.769531 1195.042969 879.15625 C 1194.304688 876.285156 1192.542969 871.65625 1191.15625 868.96875 C 1189.859375 866.285156 1186.621094 861.929688 1184.027344 859.152344 C 1181.433594 856.464844 1176.34375 852.296875 1172.824219 849.796875 C 1169.214844 847.390625 1162.828125 843.5 1158.476562 841.183594 C 1154.125 838.777344 1144.960938 834.609375 1138.109375 831.832031 C 1131.257812 829.050781 1119.316406 824.699219 1111.726562 822.105469 C 1104.039062 819.511719 1091.359375 815.714844 1083.488281 813.679688 C 1075.621094 811.640625 1063.957031 809.140625 1057.566406 808.121094 C 1051.179688 807.101562 1043.03125 806.269531 1039.515625 806.269531 C 1033.40625 806.269531 1033.125 806.363281 1034.886719 807.75 C 1035.902344 808.585938 1039.421875 810.4375 1042.753906 812.011719 Z M 1115.796875 810.160156 C 1115.890625 810.53125 1117 811.917969 1118.390625 813.121094 C 1119.777344 814.328125 1123.019531 816.273438 1125.613281 817.382812 C 1129.222656 818.957031 1131.164062 819.328125 1134.40625 818.773438 C 1136.71875 818.402344 1140.238281 817.382812 1142.273438 816.550781 C 1144.3125 815.625 1146.441406 814.234375 1147.089844 813.308594 C 1148.109375 812.011719 1147.828125 811.640625 1145.050781 810.4375 C 1143.199219 809.601562 1137.832031 808.863281 1132.277344 808.585938 C 1127.09375 808.398438 1121.261719 808.492188 1119.316406 808.863281 C 1117.371094 809.234375 1115.796875 809.789062 1115.796875 810.160156 Z M 1206.800781 899.808594 C 1209.300781 902.589844 1213.003906 908.238281 1215.039062 912.3125 C 1217.078125 916.386719 1219.207031 922.039062 1219.855469 925 C 1220.964844 930.1875 1220.964844 930.28125 1224.667969 930.742188 C 1226.707031 931.019531 1233.742188 931.949219 1240.40625 932.6875 C 1246.980469 933.429688 1261.421875 934.355469 1272.347656 934.632812 C 1285.308594 935.097656 1300.210938 934.820312 1315.394531 933.984375 C 1328.078125 933.242188 1348.535156 932.6875 1360.757812 932.6875 C 1379.085938 932.6875 1384.273438 932.964844 1390.382812 934.355469 C 1394.453125 935.375 1399.824219 937.042969 1402.417969 938.246094 C 1404.917969 939.449219 1408.898438 942.042969 1411.210938 944.078125 C 1413.527344 946.117188 1416.859375 950.191406 1418.617188 953.15625 C 1420.375 956.121094 1422.503906 960.65625 1423.339844 963.25 L 1424.914062 967.882812 C 1428.984375 963.4375 1431.207031 960.101562 1432.503906 957.601562 C 1434.355469 953.804688 1434.726562 951.675781 1434.820312 944.726562 C 1434.820312 937.96875 1434.449219 935.652344 1432.875 932.6875 C 1431.761719 930.652344 1429.078125 927.410156 1426.855469 925.464844 C 1424.636719 923.519531 1419.820312 920.464844 1416.304688 918.703125 C 1412.691406 916.945312 1407.507812 915.089844 1404.730469 914.628906 C 1401.953125 914.074219 1392.140625 913.703125 1382.976562 913.703125 C 1373.808594 913.703125 1356.589844 914.164062 1344.742188 914.628906 C 1331.039062 915.183594 1318.632812 915.183594 1310.488281 914.628906 C 1303.542969 914.164062 1288.175781 912.3125 1276.511719 910.460938 C 1264.570312 908.609375 1251.332031 906.015625 1246.425781 904.441406 C 1241.609375 902.960938 1233 899.441406 1227.445312 896.660156 C 1221.800781 893.882812 1214.023438 889.4375 1210.042969 886.9375 C 1206.152344 884.34375 1202.542969 882.214844 1201.988281 882.214844 C 1201.433594 882.214844 1201.339844 884.714844 1201.710938 888.417969 C 1202.265625 894.253906 1202.542969 894.992188 1206.800781 899.808594 Z M 1201.617188 909.535156 C 1201.339844 913.609375 1201.0625 918.890625 1201.0625 921.296875 C 1201.0625 923.703125 1201.246094 925.742188 1201.523438 925.742188 C 1201.800781 925.742188 1204.949219 926.574219 1208.652344 927.59375 L 1215.410156 929.445312 C 1214.300781 924.074219 1212.355469 919.167969 1210.410156 915.089844 C 1208.375 911.015625 1205.691406 906.386719 1204.394531 904.902344 L 1202.171875 902.125 Z M 1199.394531 962.972656 C 1198.839844 971.492188 1198.933594 972.976562 1200.136719 972.976562 C 1200.875 972.976562 1203.191406 971.214844 1205.136719 969.085938 C 1207.171875 966.863281 1209.949219 962.601562 1211.429688 959.546875 C 1212.820312 956.492188 1214.394531 951.859375 1214.949219 949.359375 C 1215.503906 946.765625 1215.78125 942.503906 1215.6875 939.726562 L 1215.410156 934.726562 C 1205.96875 932.039062 1202.542969 931.300781 1201.710938 931.300781 C 1200.320312 931.300781 1200.136719 932.503906 1200.136719 942.136719 C 1200.136719 948.15625 1199.859375 957.507812 1199.394531 962.972656 Z M 1221.613281 940.191406 C 1221.519531 942.691406 1220.59375 948.0625 1219.578125 952.136719 C 1218.464844 956.210938 1216.335938 961.953125 1214.671875 965.011719 C 1213.003906 967.976562 1209.855469 972.140625 1207.542969 974.273438 C 1203.5625 977.792969 1203.285156 978.441406 1202.820312 983.625 C 1202.449219 987.238281 1201.339844 990.851562 1199.582031 994.09375 C 1198.097656 996.871094 1195.597656 1000.019531 1194.117188 1001.222656 C 1192.542969 1002.335938 1189.488281 1004.1875 1187.175781 1005.207031 C 1183.101562 1007.058594 1183.007812 1007.152344 1185.324219 1007.984375 C 1186.621094 1008.449219 1191.15625 1009.558594 1195.507812 1010.390625 C 1200.226562 1011.320312 1212.820312 1012.246094 1226.984375 1012.800781 C 1239.945312 1013.261719 1256.699219 1013.632812 1264.199219 1013.726562 C 1273.828125 1013.726562 1281.140625 1013.171875 1288.730469 1011.875 C 1294.75 1010.761719 1307.988281 1007.890625 1318.171875 1005.390625 C 1328.355469 1002.796875 1349 996.964844 1363.996094 992.332031 C 1378.996094 987.703125 1395.660156 982.238281 1401.027344 980.292969 C 1406.398438 978.253906 1412.601562 975.382812 1414.914062 973.996094 C 1417.691406 972.234375 1419.171875 970.660156 1419.359375 969.179688 C 1419.542969 967.976562 1418.339844 964.175781 1416.765625 960.9375 C 1415.191406 957.601562 1412.414062 953.15625 1410.65625 950.933594 C 1408.527344 948.246094 1405.378906 945.933594 1400.75 943.800781 C 1397.140625 941.949219 1390.84375 939.914062 1386.863281 939.171875 C 1381.863281 938.152344 1373.53125 937.78125 1359.089844 937.78125 C 1347.796875 937.78125 1332.519531 938.246094 1325.113281 938.800781 C 1317.707031 939.355469 1299.5625 939.820312 1284.84375 939.820312 C 1265.773438 939.914062 1253.921875 939.449219 1244.109375 938.335938 C 1236.425781 937.503906 1228.277344 936.578125 1225.964844 936.207031 L 1221.707031 935.652344 Z M 1401.027344 986.035156 C 1395.75 987.980469 1381.125 992.703125 1368.625 996.59375 C 1356.21875 1000.484375 1337.058594 1005.945312 1326.039062 1008.726562 C 1315.117188 1011.503906 1305.953125 1014.003906 1305.671875 1014.191406 C 1305.488281 1014.46875 1305.859375 1014.835938 1306.597656 1015.023438 C 1307.433594 1015.300781 1311.785156 1016.132812 1316.320312 1016.96875 C 1320.949219 1017.707031 1327.800781 1018.355469 1331.59375 1018.355469 C 1335.484375 1018.355469 1342.519531 1017.707031 1347.332031 1016.875 C 1352.238281 1016.042969 1361.589844 1014.003906 1368.164062 1012.335938 C 1374.828125 1010.671875 1382.976562 1007.984375 1386.214844 1006.410156 C 1389.546875 1004.742188 1395.566406 1001.410156 1399.546875 999.09375 C 1403.621094 996.683594 1408.710938 992.980469 1410.933594 990.757812 C 1413.15625 988.628906 1415.746094 985.199219 1416.765625 983.164062 C 1417.785156 981.125 1418.523438 979.273438 1418.339844 979.089844 C 1418.15625 978.902344 1416.394531 979.550781 1414.453125 980.570312 C 1412.414062 981.589844 1406.398438 984.089844 1401.027344 986.035156 Z M 1171.714844 994.554688 C 1167.457031 997.242188 1164.03125 999.648438 1164.03125 1000.019531 C 1164.03125 1000.484375 1165.605469 1001.222656 1167.546875 1001.871094 C 1169.398438 1002.425781 1172.269531 1002.984375 1173.75 1003.074219 C 1175.324219 1003.167969 1178.195312 1002.707031 1180.230469 1002.148438 C 1182.269531 1001.5 1185.230469 1000.390625 1186.710938 999.554688 C 1188.285156 998.816406 1190.601562 996.964844 1191.988281 995.480469 C 1193.285156 994.09375 1195.042969 991.5 1195.878906 989.832031 C 1196.710938 988.257812 1197.359375 985.570312 1197.359375 984.089844 C 1197.359375 982.515625 1196.894531 981.3125 1196.246094 981.3125 C 1195.597656 981.3125 1191.527344 983.257812 1187.175781 985.570312 C 1182.917969 987.886719 1175.878906 991.960938 1171.714844 994.554688 Z M 1121.261719 1001.59375 C 1126.445312 1002.707031 1133.296875 1003.539062 1136.535156 1003.539062 C 1139.683594 1003.539062 1143.664062 1003.261719 1145.332031 1002.890625 C 1146.996094 1002.425781 1148.386719 1001.871094 1148.386719 1001.410156 C 1148.292969 1001.039062 1145.515625 1000.390625 1142.089844 999.835938 C 1138.664062 999.371094 1129.777344 998.722656 1122.371094 998.445312 C 1113.667969 998.074219 1109.503906 998.167969 1110.335938 998.816406 C 1111.167969 999.277344 1115.984375 1000.574219 1121.261719 1001.59375 Z M 1109.410156 1009.09375 C 1112.742188 1010.949219 1119.222656 1014.003906 1123.761719 1015.855469 C 1128.386719 1017.617188 1137.089844 1020.578125 1143.199219 1022.339844 C 1149.3125 1024.097656 1159.585938 1026.414062 1165.882812 1027.527344 C 1172.269531 1028.542969 1181.25 1029.839844 1185.785156 1030.398438 C 1190.414062 1030.859375 1200.691406 1031.324219 1208.746094 1031.324219 C 1216.707031 1031.324219 1228.1875 1030.675781 1234.203125 1029.839844 C 1240.59375 1029.007812 1249.109375 1027.15625 1254.757812 1025.210938 C 1260.125 1023.449219 1265.308594 1021.507812 1266.328125 1020.765625 C 1267.996094 1019.652344 1265.867188 1019.375 1249.664062 1018.914062 C 1239.480469 1018.542969 1223.652344 1017.894531 1214.484375 1017.429688 C 1204.023438 1016.875 1195.136719 1015.855469 1190.414062 1014.746094 C 1186.34375 1013.726562 1177.175781 1010.855469 1170.046875 1008.445312 L 1157.085938 1003.910156 C 1151.71875 1006.503906 1147.460938 1007.613281 1144.125 1008.167969 C 1140.054688 1008.816406 1135.515625 1008.816406 1130.054688 1008.167969 C 1125.613281 1007.613281 1117.1875 1005.945312 1111.261719 1004.371094 C 1105.429688 1002.890625 1100.246094 1001.6875 1099.691406 1001.6875 C 1099.226562 1001.6875 1099.875 1002.613281 1101.078125 1003.632812 C 1102.375 1004.742188 1106.171875 1007.152344 1109.410156 1009.09375 Z M 1109.410156 1009.09375 " fill-opacity="1" fill-rule="evenodd"/></g></svg>