<svg xmlns="http://www.w3.org/2000/svg" xmlns:xlink="http://www.w3.org/1999/xlink" width="2816" zoomAndPan="magnify" viewBox="0 0 2112 1151.999944" height="1536" preserveAspectRatio="xMidYMid meet" version="1.0"><defs><clipPath id="e7aa1e1456"><path d="M 589 115.199219 L 1523 115.199219 L 1523 1036.949219 L 589 1036.949219 Z M 589 115.199219 " clip-rule="nonzero"/></clipPath></defs><g clip-path="url(#e7aa1e1456)"><path fill="#232320" d="M 1007.292969 301.867188 C 1010.605469 297.902344 993.027344 262.011719 990.078125 255.730469 C 988.660156 252.71875 985.359375 250.6875 982.328125 251.992188 C 970.992188 256.859375 961.542969 263.992188 951.078125 271.152344 C 953.375 276.515625 960.453125 292.574219 951.003906 296.984375 C 943.542969 300.472656 934.773438 296.984375 931.980469 289.105469 C 930.851562 285.925781 927.960938 282.6875 927.464844 279.582031 C 926.660156 274.570312 924.484375 269.332031 924.328125 264.519531 C 924.164062 259.199219 931.222656 255.738281 934.785156 252.914062 C 947.546875 242.800781 982.730469 217.261719 997.925781 229.21875 C 1013.949219 241.835938 1017.726562 254.050781 1024.921875 272.53125 C 1028.710938 282.242188 1032.496094 292.210938 1034.847656 302.035156 C 1036.585938 309.300781 1032.425781 312.398438 1028.460938 316.332031 C 1018.078125 326.632812 1007.425781 335.6875 994.945312 343.535156 C 985.390625 349.539062 976.1875 355.71875 966.023438 360.574219 C 957.703125 364.539062 969.84375 383.183594 971.5 384.789062 C 978.15625 391.21875 990.78125 401.550781 1001.09375 400.460938 C 1027.488281 392.84375 1055 373.765625 1071.84375 351.1875 C 1090.96875 349.355469 1085.628906 351.847656 1105.886719 347.015625 C 1123.949219 342.699219 1141.730469 335.617188 1156.234375 324.25 C 1210.453125 281.734375 1198.839844 241.421875 1219.292969 245.003906 C 1223.421875 245.730469 1229.621094 252.53125 1228.878906 257.210938 C 1225.710938 277.023438 1215.578125 293.640625 1203.753906 309.984375 C 1216.351562 338.609375 1228.039062 366.933594 1235.625 397.324219 C 1237.46875 404.707031 1245.261719 435.886719 1244.609375 441 C 1243.203125 452.035156 1254.007812 465.640625 1243.484375 496.589844 L 1241.050781 503.746094 C 1235.585938 519.820312 1226.546875 533.816406 1219.148438 548.941406 C 1216.457031 554.4375 1205.378906 580.671875 1204.925781 584.894531 C 1203.464844 598.320312 1202.554688 611.933594 1204.59375 625.152344 L 1207.699219 645.300781 C 1208.195312 648.539062 1209.769531 652.308594 1210.535156 655.777344 L 1213.652344 669.855469 C 1216.796875 684.089844 1221.828125 696.75 1227.574219 709.636719 C 1229.882812 714.824219 1225.957031 721.75 1222.015625 722.824219 C 1213.039062 725.28125 1209.429688 721.667969 1205.546875 715.363281 C 1200.472656 707.121094 1193.808594 700.019531 1187.855469 692.234375 C 1176.6875 677.628906 1147.921875 648.320312 1133.128906 636.820312 C 1115.710938 623.28125 1097.863281 611.789062 1077.015625 605.328125 C 1070.839844 603.414062 1064.699219 600.371094 1058.324219 599.554688 C 1052.796875 598.847656 1047.640625 596.707031 1042.207031 596.292969 C 1029.660156 595.328125 1016.722656 594.480469 1004.425781 596.449219 L 988.351562 599.015625 C 979.054688 600.496094 969.792969 603.558594 960.960938 606.511719 C 923.554688 618.972656 898.898438 644.75 875.742188 675.09375 C 873.671875 677.804688 870.761719 678.972656 867.480469 679.492188 C 862.566406 680.257812 857.390625 672.410156 854.542969 667.855469 C 865.660156 643.714844 880.441406 630.257812 898.710938 613.199219 C 895.75 612.164062 896.03125 609.761719 894.726562 608.21875 C 884.757812 596.375 873.320312 587.109375 861.003906 577.679688 C 836.335938 558.796875 807.765625 546.757812 777.574219 538.445312 C 761.488281 534.015625 711.210938 533.847656 698.253906 537.058594 L 685.820312 540.144531 C 664.21875 545.503906 639.5625 555.972656 620.03125 567.472656 C 614.699219 570.609375 609.574219 572.8125 604.328125 576.273438 C 599.917969 579.171875 592.351562 574.84375 590.53125 570.589844 C 587.828125 564.273438 589.878906 557.277344 595.777344 553.394531 C 617.578125 539.066406 641.023438 527.027344 666.351562 519.832031 L 679.0625 516.21875 C 684.132812 514.78125 705.4375 510.027344 710.074219 510.816406 C 721.109375 512.679688 718.363281 503.414062 749.59375 510.347656 C 755.566406 511.675781 762.398438 509.242188 767.957031 511.457031 C 772.355469 513.207031 776.421875 512.75 780.863281 513.898438 C 801.917969 519.335938 822.628906 526.125 841.59375 536.40625 C 857.515625 545.039062 872.109375 554.355469 885.523438 566.210938 C 892.191406 572.101562 899.09375 576.871094 905.167969 583.507812 C 909.992188 588.777344 914.332031 594.335938 920.199219 599.574219 C 935.144531 590.464844 950.164062 582.285156 967.546875 578.464844 C 973.257812 577.214844 991.464844 572.328125 996.414062 572.058594 C 1013.101562 571.15625 1029.835938 569.253906 1046.503906 572.121094 L 1064.285156 575.183594 C 1067.019531 575.652344 1071.875 577.398438 1075.132812 578.300781 C 1116.144531 589.6875 1156.191406 620.714844 1182.867188 650.453125 L 1178.15625 616.4375 C 1177.039062 608.332031 1177.234375 599.59375 1178.769531 591.664062 L 1180.859375 580.835938 C 1187.855469 544.625 1210.867188 521.1875 1222.097656 480.929688 C 1225.121094 470.089844 1222.882812 459.582031 1220.886719 448.652344 C 1218.152344 433.628906 1213.597656 405.027344 1208.207031 392.128906 C 1206.550781 388.164062 1206.355469 383.414062 1204.59375 378.804688 L 1191.800781 345.265625 L 1185.652344 331.972656 C 1176.914062 340.535156 1166.8125 347.9375 1155.570312 355.007812 C 1147.910156 359.832031 1121.496094 369.21875 1112.675781 370.875 L 1099.292969 373.382812 C 1094.375 374.300781 1088.632812 376.226562 1083.714844 376.539062 C 1058.085938 401.878906 1039.390625 412.9375 1007.292969 425.929688 C 1000.917969 428.507812 996.257812 427.863281 990.234375 424.695312 C 981.914062 420.308594 972.515625 417.5 964.875 411.890625 C 954.183594 404.035156 946.148438 394.59375 941.679688 382.210938 C 940.488281 378.917969 937.785156 376.683594 938.996094 372.324219 C 940.789062 365.824219 924.886719 367.023438 914.050781 363.992188 C 890.429688 357.375 868.289062 346.15625 853.828125 326.207031 C 843.902344 312.511719 839.925781 310.65625 846.34375 293.214844 L 855.007812 269.644531 C 856.6875 265.066406 858.878906 261.359375 860.785156 257.011719 C 866.394531 244.199219 871.695312 231.722656 878.992188 219.816406 C 880.484375 217.386719 881.933594 214.1875 883.183594 211.214844 C 889.695312 195.761719 912.851562 157.03125 923.636719 144.277344 C 925.714844 141.816406 931.121094 144.289062 933.054688 142.683594 C 936.949219 139.453125 952.359375 137.738281 958.167969 136.226562 C 964.015625 134.703125 968.921875 133.480469 975.289062 133.003906 C 980.410156 132.613281 985.316406 129.039062 991.113281 130.015625 C 995.453125 130.738281 998.949219 127.808594 1002.90625 127.445312 L 1017.738281 126.070312 C 1011.246094 126.671875 1055.03125 120.84375 1046.605469 121.226562 L 1071.222656 120.105469 C 1078.320312 119.785156 1085.195312 117.5 1092.460938 118.328125 C 1099.023438 119.070312 1104.632812 116.835938 1110.988281 116.390625 C 1135.273438 114.683594 1159.203125 114.816406 1183.445312 116.453125 C 1187.566406 116.730469 1190.609375 119.835938 1195.445312 119.589844 C 1207.058594 119.007812 1219.023438 118.328125 1230.410156 120.105469 C 1235.949219 120.976562 1240.441406 123.667969 1246.910156 122.777344 C 1250.375 122.300781 1255.398438 122.476562 1257.382812 124.828125 L 1284.460938 156.960938 C 1314.179688 192.21875 1341.25 228.574219 1366.089844 267.5 L 1373.792969 279.558594 L 1413.621094 343.648438 C 1427.898438 366.609375 1439.261719 390.160156 1451.765625 414.292969 C 1462.550781 435.109375 1478.628906 471.882812 1485.738281 493.671875 C 1486.535156 496.117188 1487.46875 497.824219 1488.429688 500.257812 C 1494.058594 514.519531 1498.199219 529.109375 1502.425781 543.953125 L 1505.09375 553.332031 C 1506.398438 557.929688 1507.164062 562.886719 1508.097656 567.535156 L 1511.335938 583.671875 L 1513.902344 596.65625 L 1517.101562 616.542969 L 1519.027344 645.039062 C 1519.214844 647.847656 1521.304688 650.09375 1521.261719 653.363281 L 1520.519531 708.476562 L 1517.785156 730.828125 L 1515.226562 752.277344 C 1511.191406 786.160156 1507.371094 772 1514.296875 803.707031 L 1517.804688 819.773438 L 1520.808594 838.375 C 1522.710938 850.199219 1523.5625 863.582031 1520.984375 874.867188 C 1516.460938 894.722656 1508.40625 896.9375 1492.902344 904.878906 L 1477.355469 912.839844 C 1445.398438 929.207031 1332.441406 974.941406 1297.617188 986.566406 L 1263.222656 998.046875 L 1214.71875 1013.121094 C 1208.132812 1015.167969 1201.4375 1015.976562 1195.175781 1018.523438 C 1191.097656 1020.179688 1186.667969 1020.097656 1182.214844 1020.71875 C 1180.839844 1020.914062 1179.886719 1024.308594 1177.089844 1023.566406 C 1171.71875 1022.125 1167.277344 1025.59375 1162.476562 1026.308594 C 1156.691406 1027.167969 1152.082031 1026.910156 1147.011719 1029.703125 C 1142.828125 1032.011719 1136.722656 1029.351562 1132.117188 1031.007812 C 1127.945312 1032.507812 1123.691406 1034.703125 1118.910156 1033.742188 C 1110.898438 1032.117188 1104.066406 1035.355469 1096.414062 1035.851562 C 1067.847656 1037.695312 1046.710938 1037.28125 1018.730469 1033.046875 L 1001.457031 1030.429688 C 994.777344 1029.414062 984.769531 1026.585938 977.503906 1024.476562 L 971.28125 1022.664062 C 938.75 1013.203125 891 990.480469 865.289062 969.980469 L 837.484375 947.808594 C 829.90625 941.761719 823.3125 935.023438 816.648438 928.078125 C 813.5 924.796875 809.183594 927.609375 805.902344 928.511719 L 793.566406 931.90625 C 785.914062 934.007812 780.492188 936.367188 770.925781 938.078125 L 751.769531 941.492188 C 737.214844 944.082031 695.582031 942.445312 678.253906 939.320312 C 657.449219 935.570312 638.175781 926.8125 620.039062 916.84375 C 617.980469 915.714844 615.691406 913.210938 614.636719 911.308594 C 612.421875 907.351562 613.726562 902.476562 616.261719 899.390625 C 618.269531 896.949219 622.722656 892.546875 627.039062 894.308594 C 643.804688 901.152344 659.207031 910.386719 677.21875 913.449219 C 681.101562 914.113281 685.726562 915.984375 689.363281 916.246094 C 710.777344 917.726562 731.957031 917.550781 753.601562 916.484375 C 757.769531 916.277344 762.128906 913.914062 766.550781 913.378906 C 784.414062 911.203125 809.929688 898.492188 818.128906 897.496094 C 822.175781 897 824.710938 903.316406 827.289062 905.269531 C 835.269531 911.347656 841.230469 918.273438 848.765625 924.679688 C 868.300781 941.316406 887.375 956.472656 909.734375 969.414062 C 937.816406 985.664062 967.585938 997.085938 999.292969 1004.734375 C 1005.542969 1006.246094 1011.421875 1006.390625 1017.707031 1008.398438 C 1024.132812 1010.457031 1031.667969 1007.488281 1038.128906 1009.984375 C 1041.222656 1011.171875 1044.058594 1012.292969 1047.734375 1012.238281 L 1097.75 1011.496094 C 1103.289062 1011.410156 1108.628906 1007.695312 1114.945312 1008.925781 C 1121.257812 1010.160156 1126.867188 1007.425781 1132.601562 1006.390625 L 1150.570312 1003.140625 L 1166.824219 999.753906 C 1171.730469 998.730469 1175.941406 997.808594 1180.890625 996.566406 L 1193.394531 993.441406 L 1207.203125 989.660156 L 1269.597656 969.972656 C 1297.019531 961.316406 1322.84375 951.566406 1349.519531 940.5625 L 1412.992188 914.382812 C 1440.917969 902.859375 1467.664062 890.003906 1494.371094 876.007812 C 1501.335938 858.84375 1497.289062 854.320312 1495.449219 839.671875 C 1494.835938 834.785156 1491.597656 814.234375 1489.796875 811.378906 C 1488.378906 809.132812 1490.230469 804.90625 1489.019531 802.683594 C 1483.503906 792.589844 1485.179688 782.476562 1487.03125 772.144531 L 1490.136719 754.867188 C 1491.339844 748.199219 1492.550781 741.8125 1493.035156 735.0625 L 1494.980469 707.785156 C 1495.375 702.246094 1497.21875 697.402344 1496.875 691.574219 C 1496.246094 680.546875 1497.796875 669.710938 1495.808594 658.765625 C 1494.121094 649.480469 1492.933594 640.484375 1493.605469 630.960938 C 1493.957031 625.960938 1491.378906 622.214844 1491.039062 617.730469 L 1489.597656 598.601562 C 1489.214844 593.488281 1487.269531 588.941406 1486.132812 583.714844 L 1483.503906 571.714844 L 1480.5 558.464844 C 1467.832031 502.574219 1426.324219 414.769531 1396.605469 364.683594 L 1373.71875 326.125 L 1351.628906 291.050781 C 1341.289062 274.644531 1330.753906 259.082031 1319.117188 243.339844 L 1296.054688 212.15625 L 1288.894531 203.472656 C 1280.230469 192.964844 1272.902344 182.28125 1263.84375 171.878906 C 1256.535156 163.480469 1249.960938 151.691406 1240.429688 146.019531 C 1228.234375 141.898438 1213.683594 145.8125 1200.929688 144.09375 C 1198.394531 143.75 1196.425781 141.773438 1193.953125 141.785156 L 1108.339844 142.117188 C 1100.195312 142.144531 1093 144.972656 1084.46875 144.683594 C 1074.242188 144.332031 1063.3125 143.886719 1053.324219 146.226562 C 1045.964844 147.953125 1039.070312 147.695312 1031.722656 148.917969 C 1000.554688 154.113281 966.832031 157.53125 937.601562 167.03125 C 918.296875 196.464844 901.878906 226.152344 886.960938 257.757812 C 882.085938 268.101562 878.796875 278.164062 874.519531 289.011719 C 872.648438 293.761719 868.496094 299.914062 869.386719 305.046875 C 875.546875 318.515625 887.738281 327.292969 900.957031 332.988281 C 923.066406 342.5 916.691406 338.390625 942.164062 343.496094 C 961.707031 337.757812 993.484375 316.320312 1007.25 301.929688 Z M 1007.292969 301.867188 " fill-opacity="1" fill-rule="nonzero"/></g><path fill="#232320" d="M 1145.664062 789.285156 C 1147.457031 803.945312 1100.277344 820.292969 1089.449219 822.746094 L 1075.507812 825.902344 C 1057.113281 830.074219 1017.386719 826.121094 996.941406 819.898438 C 970.371094 811.800781 947.320312 796.738281 929.195312 776.097656 C 927.589844 774.277344 926.84375 771.699219 926.535156 770.15625 C 926.203125 768.480469 931.410156 758.863281 938.882812 758.386719 C 943.488281 758.097656 946.210938 759.960938 949.542969 763.292969 C 965.300781 778.984375 984.324219 789.84375 1005.84375 796.8125 C 1009.808594 798.097656 1015.554688 799.792969 1019.984375 800.105469 C 1061.078125 803.035156 1027.644531 805.601562 1074.058594 800.644531 C 1095.101562 798.394531 1113.121094 787.453125 1131.058594 778.066406 C 1137.3125 774.792969 1144.921875 783.199219 1145.664062 789.296875 Z M 1145.664062 789.285156 " fill-opacity="1" fill-rule="nonzero"/></svg>