<svg xmlns="http://www.w3.org/2000/svg" xmlns:xlink="http://www.w3.org/1999/xlink" width="2816" zoomAndPan="magnify" viewBox="0 0 2112 1151.999944" height="1536" preserveAspectRatio="xMidYMid meet" version="1.0"><defs><clipPath id="31c249a79d"><path d="M 1452.550781 343.488281 L 1997.050781 343.488281 L 1997.050781 1036.488281 L 1452.550781 1036.488281 Z M 1452.550781 343.488281 " clip-rule="nonzero"/></clipPath><clipPath id="a69a0776db"><path d="M 1452.550781 343.488281 L 1997 343.488281 L 1997 1036.488281 L 1452.550781 1036.488281 Z M 1452.550781 343.488281 " clip-rule="nonzero"/></clipPath><clipPath id="09aa6714a5"><path d="M 115.199219 576 L 532.199219 576 L 532.199219 1036.5 L 115.199219 1036.5 Z M 115.199219 576 " clip-rule="nonzero"/></clipPath></defs><g clip-path="url(#31c249a79d)"><path stroke-linecap="butt" transform="matrix(0.750355, 0, 0, 0.74967, 1294.329438, 256.024937)" fill="none" stroke-linejoin="miter" d="M 686.584537 744.705589 C 684.918659 744.705589 683.565133 743.350827 683.565133 741.688638 L 683.565133 719.194374 C 683.565133 716.490061 681.373463 714.296388 678.671618 714.296388 L 674.402806 714.296388 C 671.72699 714.296388 669.561349 712.133979 669.561349 709.460929 L 669.561349 507.377299 C 669.566555 503.729862 672.533899 500.780649 676.178007 500.79107 C 676.422683 500.79107 676.667359 500.806702 676.906828 500.832755 C 692.659784 502.614789 701.468113 498.383762 703.326608 488.134465 C 705.414161 476.40535 705.924336 468.771786 704.862339 465.244194 C 704.154341 462.847307 702.858079 460.679687 701.103702 458.923707 L 692.165227 449.982276 C 691.030348 448.84636 690.036027 447.606231 689.203088 446.282733 L 583.128326 276.202756 C 582.607739 275.384688 582.326622 274.457197 582.326622 273.524495 L 582.326622 237.425292 C 582.31621 235.825631 583.60206 234.512553 585.205467 234.496921 C 585.444937 234.496921 585.684407 234.522975 585.913465 234.580291 C 632.417482 246.080138 682.560401 244.694113 736.352633 230.422213 C 738.34648 229.875098 739.54383 227.827323 739.023243 225.847286 C 738.820214 225.091745 738.382921 224.424785 737.773835 223.934987 L 695.465747 189.711608 C 693.497929 188.14321 693.185577 185.261735 694.773367 183.271277 C 694.88269 183.13059 695.002425 183.000325 695.127366 182.88048 C 710.838675 167.352821 724.504078 152.622387 736.123575 138.694389 C 737.98207 136.417346 737.888364 134.307044 735.837252 132.373902 C 732.932378 129.581008 696.152922 133.113811 660.107493 135.27622 C 636.915352 136.604929 612.791361 133.817245 587.735519 126.907958 C 585.981141 126.42858 584.455822 125.313507 583.466707 123.776373 L 581.243802 120.128936 C 579.369689 117.111984 575.402818 116.184493 572.388621 118.060318 C 570.488479 119.237919 569.337982 121.311747 569.348394 123.547105 L 569.348394 272.89922 C 569.348394 274.055979 569.030836 275.197105 568.437367 276.202756 C 531.309118 337.203531 496.294451 392.889469 463.382955 443.265782 C 462.091899 445.240608 457.989676 448.804675 451.081489 453.968403 C 448.978318 455.484695 447.452999 457.647104 446.755413 460.11694 C 443.298717 471.773105 443.376805 484.091021 446.979265 497.075895 C 447.650822 499.550942 449.910169 501.280869 452.502691 501.28608 L 477.444003 501.28608 C 479.427439 501.28608 481.030846 502.870109 481.030846 504.818883 L 481.030846 711.336753 C 481.030846 713.384529 479.349351 715.041507 477.27221 715.041507 L 469.983995 715.041507 C 467.250914 715.041507 465.033215 717.282075 465.033215 720.048917 L 465.033215 740.776779 C 465.033215 742.975662 463.221573 744.762906 460.988255 744.762906 L 437.301557 744.762906 C 435.099475 744.762906 433.313862 742.949609 433.313862 740.719462 L 433.313862 719.309008 C 433.313862 716.323321 430.893134 713.90038 427.904965 713.90038 L 382.639945 713.90038 C 381.354096 713.90038 380.307716 712.853045 380.307716 711.566021 L 380.307716 692.547243 C 380.30251 691.739597 380.922009 691.067426 381.728918 691.010109 C 404.770089 688.581958 415.952293 675.524135 415.265118 651.836638 C 414.848649 637.48658 414.791384 623.824324 415.098531 610.839449 C 415.192236 606.910638 412.084333 603.648788 408.153903 603.554996 C 408.096638 603.549786 408.034168 603.549786 407.976904 603.549786 L 369.885569 603.549786 C 366.77246 603.549786 364.247614 606.050885 364.247614 609.130364 L 364.247614 630.655452 C 364.247614 632.635489 362.670236 634.240361 360.718036 634.240361 L 342.841086 634.240361 C 340.545298 634.240361 338.681597 632.354115 338.681597 630.030177 L 338.681597 608.901097 C 338.686803 607.327488 337.833041 605.878935 336.463897 605.144237 C 332.361674 602.945353 326.45822 602.945353 318.753535 605.144237 C 316.02566 605.899777 313.20408 604.300116 312.449229 601.574959 C 312.324288 601.121635 312.261818 600.65789 312.261818 600.188933 L 312.261818 532.945831 C 312.261818 531.309695 313.589314 529.986197 315.223957 529.986197 L 402.000567 529.986197 C 404.9575 529.986197 407.357405 527.59452 407.357405 524.640096 C 407.362611 523.285334 406.852436 521.982678 405.930997 520.987449 L 382.983532 496.164036 C 381.598771 494.699851 381.661242 492.396755 383.118885 491.010729 C 383.134502 491.000308 383.139708 490.989887 383.155326 490.979465 L 404.447325 471.335413 C 407.029436 468.938526 407.1752 464.900292 404.775295 462.321034 C 403.572739 461.028799 401.886038 460.294101 400.121249 460.28889 L 318.925329 460.28889 C 316.822158 460.294101 314.875164 459.132132 313.860019 457.271939 C 312.985434 455.641014 311.902613 454.369621 310.611558 453.457762 C 307.71189 451.409987 303.698166 452.076947 301.652259 454.948001 C 300.881791 456.0266 300.470527 457.313624 300.475733 458.637122 L 299.335648 600.704785 C 299.335648 602.653558 297.7843 604.232378 295.863334 604.232378 L 286.81033 604.232378 C 284.639483 604.232378 282.8799 605.967515 282.8799 608.103871 L 282.8799 630.936825 C 282.8799 632.72928 281.453492 634.183044 279.693909 634.183044 L 262.15534 634.183044 C 260.234375 634.183044 258.683027 632.630278 258.683027 630.712769 L 258.683027 608.734357 C 258.683027 605.462085 256.03324 602.809877 252.758749 602.809877 L 217.97314 602.809877 C 214.261357 602.809877 211.252365 605.816407 211.252365 609.526372 L 211.252365 665.728162 C 211.252365 668.21884 211.93954 670.662623 213.246212 672.788557 C 218.748815 681.672671 227.385349 687.461674 239.150611 690.155567 C 241.383928 690.660997 242.971718 692.646245 242.966512 694.93892 L 242.966512 1035.208297 C 242.966512 1038.199195 245.38724 1040.622136 248.375408 1040.622136 L 900.566527 1040.622136 C 902.95602 1040.622136 904.892603 1038.683784 904.892603 1036.292107 L 904.892603 695.225504 C 904.897809 693.089148 906.287776 691.213324 908.307652 690.608891 C 930.802207 683.892397 936.664014 670.798099 936.096575 646.824018 C 935.523929 624.163014 935.393783 612.319266 935.695723 611.292773 C 936.575515 608.34356 934.86799 605.232817 931.885028 604.352222 C 931.364441 604.201114 930.828236 604.122954 930.286826 604.117744 L 890.602496 603.893687 C 887.109359 603.893687 884.282572 606.723056 884.282572 610.214174 L 884.282572 629.915543 C 884.282572 631.702787 882.824929 633.156551 881.034111 633.156551 L 864.234776 633.156551 C 862.412722 633.156551 860.934255 631.681945 860.934255 629.858226 L 860.934255 609.641005 C 860.934255 605.743459 857.774294 602.58061 853.875099 602.58061 L 837.53388 602.58061 C 835.550444 602.58061 833.947037 600.975738 833.947037 598.9957 L 833.947037 534.139064 C 833.947037 532.4404 835.321386 531.064796 837.018499 531.064796 L 920.036473 531.064796 C 923.774286 531.070006 926.83013 528.063476 926.856159 524.348301 C 926.871777 522.639217 926.221043 520.987449 925.049723 519.736899 L 903.185078 496.106719 C 902.284463 495.137543 902.336522 493.626462 903.304813 492.725024 C 903.341254 492.693761 903.377696 492.662497 903.408931 492.631233 C 914.174665 483.804436 926.871777 475.32154 927.782804 466.953278 C 928.126391 464.207279 926.132544 461.700969 923.321375 461.357068 C 923.118346 461.331015 922.915317 461.315383 922.712289 461.315383 L 839.694315 461.315383 C 837.367292 461.310172 835.284945 459.882462 834.457212 457.725263 C 832.786128 453.285812 829.673019 451.576727 825.117885 452.60322 C 823.030332 453.056544 821.536248 454.906316 821.531042 457.042671 L 821.531042 600.303567 C 821.531042 602.189813 820.000517 603.721736 818.115993 603.721736 L 808.662137 603.721736 C 806.460055 603.721736 804.679648 605.482927 804.679648 607.650547 L 804.679648 629.743593 C 804.679648 631.817421 802.998153 633.500452 800.921011 633.500452 L 782.585945 633.500452 C 780.066305 633.500452 778.030811 631.463098 778.030811 628.946367 L 778.030811 608.390455 C 778.030811 605.305766 775.505965 602.809877 772.392856 602.809877 L 739.195037 602.809877 C 735.139666 602.809877 731.849557 606.123834 731.849557 610.208963 L 731.849557 662.085936 C 731.854763 669.203648 735.649841 675.779455 741.813588 679.338312 L 763.850027 692.036602 C 764.833936 692.620192 765.552345 693.578947 765.843874 694.709652 C 766.947518 699.305423 767.343164 704.427466 767.041224 710.086204 C 766.947518 711.998503 765.37014 713.504373 763.454381 713.499162 L 717.273127 713.499162 C 714.727458 713.499162 712.660729 715.56778 712.660729 718.110565 L 712.660729 742.70992 C 712.660729 743.809362 711.770525 744.705589 710.672087 744.705589 L 686.584537 744.705589 " stroke="#858585" stroke-width="2" stroke-opacity="1" stroke-miterlimit="4"/></g><path stroke-linecap="butt" transform="matrix(0.750355, 0, 0, 0.74967, 1294.329438, 256.024937)" fill="none" stroke-linejoin="miter" d="M 710.3285 145.353566 C 665.51639 148.771736 626.456764 151.39268 584.778586 139.887622 C 583.779059 139.606248 582.737886 140.158574 582.456769 141.12254 C 582.40471 141.299701 582.383887 141.476862 582.383887 141.654023 L 582.383887 218.182458 C 582.383887 219.380901 583.227237 220.433447 584.434999 220.740874 C 625.811236 231.068331 668.457705 231.750923 712.379612 222.79386 C 713.092816 222.674016 713.571755 221.996634 713.45202 221.282779 C 713.394756 220.95451 713.212551 220.662715 712.947051 220.4595 L 675.537685 190.164933 C 673.210662 188.299529 672.830634 184.896992 674.69954 182.562632 C 674.866128 182.348997 675.053539 182.150993 675.256568 181.968621 L 711.640378 148.318411 C 712.332759 147.677505 712.384818 146.598906 711.744496 145.900682 C 711.385291 145.509885 710.859498 145.306671 710.3285 145.353566 " stroke="#858585" stroke-width="2" stroke-opacity="1" stroke-miterlimit="4"/><path stroke-linecap="butt" transform="matrix(0.750355, 0, 0, 0.74967, 1294.329438, 256.024937)" fill="none" stroke-linejoin="miter" d="M 554.485641 332.571286 C 571.852416 334.962962 580.733627 338.094547 599.068693 331.091469 C 600.620042 330.487036 601.400922 328.76232 600.812659 327.235607 C 600.744982 327.048024 600.656483 326.876074 600.547159 326.709334 L 578.286869 291.006138 C 577.651753 289.995277 576.313845 289.687851 575.303906 290.323547 C 575.007172 290.505919 574.762496 290.761239 574.585497 291.063455 L 552.720852 328.92906 C 552.044089 330.09624 552.418912 331.591689 553.558997 332.263859 C 553.840114 332.430599 554.157671 332.540022 554.485641 332.571286 " stroke="#858585" stroke-width="2" stroke-opacity="1" stroke-miterlimit="4"/><path stroke-linecap="butt" transform="matrix(0.750355, 0, 0, 0.74967, 1294.329438, 256.024937)" fill="none" stroke-linejoin="miter" d="M 520.147737 381.941948 C 519.897855 382.410904 520.048826 382.989283 520.486119 383.234183 C 520.543383 383.265447 520.600648 383.2915 520.663118 383.307132 C 541.903059 389.684935 565.813609 403.519142 590.187483 396.745331 C 591.624302 396.338902 592.889328 395.437464 593.774325 394.181704 L 601.348863 383.421765 C 602.140155 382.259796 603.379152 381.493834 604.763912 381.316673 L 625.660266 378.127771 C 627.898789 377.799502 629.450138 375.720463 629.127374 373.479895 C 629.033668 372.85983 628.80461 372.265819 628.450611 371.749968 L 607.77811 341.174026 C 606.788995 339.668156 604.810765 339.173146 603.228181 340.032899 L 588.537222 347.89052 C 587.350285 348.521006 585.975935 348.760695 584.606792 348.573112 L 545.547166 342.8779 C 543.948965 342.674686 542.387204 343.435437 541.559471 344.816252 L 520.147737 381.941948 " stroke="#858585" stroke-width="2" stroke-opacity="1" stroke-miterlimit="4"/><path stroke-linecap="butt" transform="matrix(0.750355, 0, 0, 0.74967, 1294.329438, 256.024937)" fill="none" stroke-linejoin="miter" d="M 499.027531 413.429749 C 498.532974 414.268659 498.819297 415.352469 499.657441 415.842268 C 500.03747 416.061114 500.479969 416.134063 500.901644 416.045482 C 524.989194 411.491397 528.576037 425.445448 532.506467 445.485507 C 532.938554 447.632285 534.817873 449.174629 537.004337 449.18505 L 614.55615 449.18505 C 616.430262 449.190261 618.085728 447.908448 618.601109 446.053465 C 622.734568 429.921374 633.479479 420.813203 650.825431 418.723743 C 652.850513 418.463212 654.297745 416.629072 654.053069 414.628192 C 653.980187 414.055024 653.771952 413.507908 653.443982 413.028531 L 639.549521 392.472619 C 637.847202 389.955888 634.963152 388.491702 631.922925 388.601126 C 619.814076 389.05966 611.177542 393.441795 606.013321 401.757951 C 604.519237 404.123574 602.140155 405.806606 599.407074 406.42667 C 580.504568 410.563906 565.131641 410.678539 553.288292 406.765361 C 531.918204 399.668491 519.23671 395.15088 515.254221 393.217738 C 513.234345 392.243352 510.803204 393.014524 509.673531 394.978929 L 499.027531 413.429749 " stroke="#858585" stroke-width="2" stroke-opacity="1" stroke-miterlimit="4"/><path stroke-linecap="butt" transform="matrix(0.750355, 0, 0, 0.74967, 1294.329438, 256.024937)" fill="none" stroke-linejoin="miter" d="M 481.718021 448.674409 L 516.337042 448.674409 C 518.00292 448.67962 519.351239 447.304015 519.346033 445.605352 C 519.346033 445.334399 519.309592 445.063447 519.23671 444.802916 L 516.847217 436.090752 C 516.071543 433.282226 513.520667 431.31261 510.584558 431.250083 C 504.436428 431.098975 499.7095 429.900531 496.40898 427.665173 C 493.665488 425.768506 489.906851 426.451098 488.011915 429.191886 C 487.91821 429.327363 487.82971 429.462839 487.751622 429.598315 L 479.266057 444.401698 C 478.479971 445.766881 478.948499 447.50723 480.307231 448.294034 C 480.739318 448.538933 481.223464 448.669199 481.718021 448.674409 " stroke="#858585" stroke-width="2" stroke-opacity="1" stroke-miterlimit="4"/><path stroke-linecap="butt" transform="matrix(0.750355, 0, 0, 0.74967, 1294.329438, 256.024937)" fill="none" stroke-linejoin="miter" d="M 635.910619 449.924959 L 672.861869 449.924959 C 674.090454 449.898906 675.058745 448.882834 675.032716 447.658338 C 675.022304 447.251909 674.902569 446.855902 674.683923 446.512 L 664.777156 431.818041 C 663.506925 429.989112 661.362107 428.967829 659.139202 429.144991 C 650.37252 429.827582 641.543368 433.469809 632.662158 440.07688 C 630.241429 441.879756 629.741666 445.303136 631.542896 447.726076 C 632.568452 449.106891 634.187477 449.919748 635.910619 449.924959 " stroke="#858585" stroke-width="2" stroke-opacity="1" stroke-miterlimit="4"/><path stroke-linecap="butt" transform="matrix(0.750355, 0, 0, 0.74967, 1294.329438, 256.024937)" fill="none" stroke-linejoin="miter" d="M 690.999113 469.839964 C 691.019936 465.62978 687.62571 462.195979 683.408957 462.175136 L 464.653186 461.023588 C 460.436433 461.002746 457.005766 464.405283 456.979737 468.615467 L 456.917267 481.027174 C 456.891237 485.242568 460.290669 488.67637 464.507422 488.697212 L 683.268399 489.843549 C 687.479946 489.864392 690.910613 486.467065 690.936642 482.256881 L 690.999113 469.839964 " stroke="#858585" stroke-width="2" stroke-opacity="1" stroke-miterlimit="4"/><path stroke-linecap="butt" transform="matrix(0.750355, 0, 0, 0.74967, 1294.329438, 256.024937)" fill="none" stroke-linejoin="miter" d="M 382.301563 513.187145 C 376.148228 509.315651 372.373974 506.923975 370.968389 506.012116 C 353.200762 494.512268 370.624802 482.783154 380.646098 477.202576 C 381.58836 476.634618 381.895506 475.410121 381.333272 474.466998 C 380.979273 473.883408 380.359775 473.518664 379.677806 473.497822 L 313.912078 473.497822 C 312.87611 473.497822 312.03276 474.367996 312.03276 475.436174 L 312.03276 515.177603 C 312.03276 516.376047 313.001051 517.345223 314.198401 517.345223 L 381.104214 517.345223 C 382.338005 517.376486 383.342737 516.386468 383.347943 515.135918 C 383.353149 514.354325 382.952297 513.619627 382.301563 513.187145 " stroke="#858585" stroke-width="2" stroke-opacity="1" stroke-miterlimit="4"/><path stroke-linecap="butt" transform="matrix(0.750355, 0, 0, 0.74967, 1294.329438, 256.024937)" fill="none" stroke-linejoin="miter" d="M 833.374391 496.273459 C 833.374391 506.788499 833.416038 512.90056 833.48892 514.609645 C 833.582626 516.646999 835.238092 518.251871 837.247557 518.251871 L 902.784227 518.251871 C 903.695253 518.298767 904.470928 517.595333 904.512575 516.683473 C 904.538604 516.06862 904.226252 515.490241 903.695253 515.177603 C 895.688629 510.092034 889.441587 505.423315 884.964541 501.171446 C 883.444428 499.728103 882.684371 498.076335 882.684371 496.216143 C 882.684371 494.397635 883.444428 492.745867 884.964541 491.26605 C 889.441587 487.014181 895.667805 482.345461 903.637989 477.259892 C 904.429281 476.796147 904.689574 475.785286 904.231458 474.998482 C 903.919106 474.466998 903.341254 474.154361 902.726962 474.180414 L 837.190292 474.295047 C 835.160004 474.295047 833.494126 475.936394 833.431656 477.999801 C 833.358774 479.667201 833.33795 485.75842 833.374391 496.273459 " stroke="#858585" stroke-width="2" stroke-opacity="1" stroke-miterlimit="4"/><path stroke-linecap="butt" transform="matrix(0.750355, 0, 0, 0.74967, 1294.329438, 256.024937)" fill="none" stroke-linejoin="miter" d="M 657.317148 505.386841 C 657.317148 503.307802 655.635653 501.629981 653.558511 501.629981 L 497.205478 501.629981 C 495.128336 501.629981 493.446841 503.307802 493.446841 505.386841 L 493.446841 709.742302 C 493.446841 711.816131 495.128336 713.499162 497.205478 713.499162 L 527.607746 713.499162 C 529.684887 713.499162 531.366382 715.182194 531.366382 717.256022 L 531.366382 740.146293 C 531.366382 742.225332 533.047878 743.908364 535.125019 743.908364 L 561.034623 743.908364 C 563.111764 743.908364 564.793259 742.225332 564.793259 740.146293 L 564.793259 716.464007 C 564.793259 714.384968 566.474755 712.701937 568.551896 712.701937 L 653.558511 712.701937 C 655.635653 712.701937 657.317148 711.024116 657.317148 708.945077 L 657.317148 505.386841 " stroke="#858585" stroke-width="2" stroke-opacity="1" stroke-miterlimit="4"/><path stroke-linecap="butt" transform="matrix(0.750355, 0, 0, 0.74967, 1294.329438, 256.024937)" fill="none" stroke-linejoin="miter" d="M 311.579849 677.342643 C 356.142078 677.650069 379.28216 677.665701 380.989685 677.399959 C 392.531094 675.805509 398.700047 670.433355 399.496545 661.28871 C 400.407572 650.356821 400.709512 636.496561 400.407572 619.718352 C 400.376337 618.045742 399.007193 616.701401 397.330904 616.701401 L 380.817891 616.701401 C 379.339425 616.701401 378.142075 617.899844 378.142075 619.379661 L 378.142075 641.128806 C 378.142075 644.713715 375.211172 647.621243 371.593093 647.621243 L 334.412786 647.621243 C 330.544826 647.621243 327.410893 644.484448 327.410893 640.618165 L 327.410893 620.859479 C 327.410893 618.941969 325.854339 617.383992 323.93858 617.383992 C 323.516904 617.383992 319.534415 617.347518 311.980701 617.274569 C 304.426987 617.232884 300.418469 617.217253 299.965558 617.217253 C 298.044593 617.217253 296.493244 618.770018 296.493244 620.687528 L 296.264186 640.446214 C 296.201716 644.317708 293.015725 647.397187 289.147765 647.334659 L 251.962251 646.881335 C 248.370202 646.818807 245.501769 643.895647 245.527799 640.33158 L 245.756857 618.582436 C 245.788092 617.102619 244.616772 615.883333 243.138305 615.846858 L 226.625293 615.622802 C 224.92818 615.586327 223.527801 616.941089 223.496566 618.639753 C 223.002009 635.417962 223.132155 649.273011 223.892212 660.2049 C 224.574181 669.354756 230.670252 674.799858 242.170014 676.545417 C 243.877539 676.811159 267.012415 677.076901 311.579849 677.342643 " stroke="#858585" stroke-width="2" stroke-opacity="1" stroke-miterlimit="4"/><path stroke-linecap="butt" transform="matrix(0.750355, 0, 0, 0.74967, 1294.329438, 256.024937)" fill="none" stroke-linejoin="miter" d="M 822.103687 616.758718 C 819.651724 616.758718 817.663082 618.723123 817.663082 621.146063 L 817.663082 639.252981 C 817.663082 643.088001 814.549973 646.198743 810.713249 646.198743 L 770.914389 646.198743 C 767.233841 646.183111 764.26129 643.187002 764.276908 639.508302 C 764.282114 639.310298 764.28732 639.107084 764.308143 638.90908 L 766.187461 620.348838 C 766.437343 618.066584 764.792289 616.013598 762.512119 615.758278 C 762.350737 615.742646 762.189355 615.737435 762.033179 615.737435 L 748.877951 615.737435 C 746.86328 615.737435 745.233843 617.368361 745.233843 619.379661 L 745.233843 659.464992 C 745.239049 661.924406 746.32187 664.253555 748.195982 665.842795 C 755.978755 672.371707 763.074352 675.826351 769.487981 676.206727 C 789.608661 677.420802 832.312394 677.837652 897.604388 677.457276 C 930.45862 677.285326 924.31049 645.344201 922.66023 622.45393 C 922.504054 620.145623 920.718441 618.290641 918.443477 618.071795 L 902.216787 616.420027 C 900.181293 616.227234 898.380062 617.701841 898.187445 619.70272 C 898.177034 619.822564 898.171828 619.942409 898.171828 620.062253 L 898.171828 638.398439 C 898.171828 642.645098 894.756778 646.084109 890.545231 646.084109 L 854.957919 646.084109 C 851.15243 646.084109 848.06535 643.025473 848.06535 639.252981 L 848.06535 620.291521 C 848.06535 618.342747 846.487972 616.758718 844.535772 616.758718 L 822.103687 616.758718 " stroke="#858585" stroke-width="2" stroke-opacity="1" stroke-miterlimit="4"/><path stroke-linecap="butt" transform="matrix(0.750355, 0, 0, 0.74967, 1294.329438, 256.024937)" fill="none" stroke-linejoin="miter" d="M 366.246667 693.156886 C 366.251873 691.52075 364.924377 690.192041 363.289734 690.192041 L 259.203613 690.009669 C 257.568971 690.004459 256.241475 691.327957 256.236269 692.964093 L 255.658417 1024.239934 C 255.658417 1025.87607 256.980708 1027.204779 258.61535 1027.204779 L 362.701471 1027.387151 C 364.336114 1027.387151 365.66361 1026.063652 365.668816 1024.432727 L 366.246667 693.156886 " stroke="#858585" stroke-width="2" stroke-opacity="1" stroke-miterlimit="4"/><path stroke-linecap="butt" transform="matrix(0.750355, 0, 0, 0.74967, 1294.329438, 256.024937)" fill="none" stroke-linejoin="miter" d="M 783.382443 690.040933 C 781.7478 690.040933 780.420304 691.364432 780.420304 693.000568 L 780.420304 1024.391042 C 780.420304 1026.027178 781.7478 1027.350676 783.382443 1027.350676 L 889.176088 1027.350676 C 890.815937 1027.350676 892.138227 1026.027178 892.138227 1024.391042 L 892.138227 693.000568 C 892.138227 691.369642 890.815937 690.040933 889.176088 690.040933 L 783.382443 690.040933 " stroke="#858585" stroke-width="2" stroke-opacity="1" stroke-miterlimit="4"/><path stroke-linecap="butt" transform="matrix(0.750355, 0, 0, 0.74967, 1294.329438, 256.024937)" fill="none" stroke-linejoin="miter" d="M 725.586898 730.298214 L 725.586898 754.840253 C 725.586898 756.57018 724.18652 757.971838 722.458172 757.971838 L 675.766743 757.971838 C 672.497458 757.971838 669.847672 755.345684 669.847672 752.104675 L 669.847672 731.720714 C 669.847672 728.578708 667.322826 726.025502 664.209717 726.025502 L 632.604893 726.025502 C 630.15293 726.025502 628.164288 728.042014 628.164288 730.527482 L 628.164288 752.333943 C 628.179906 755.038257 625.998647 757.242351 623.291596 757.257983 C 623.114596 757.257983 622.932391 757.247561 622.755392 757.231929 L 592.977828 754.214978 C 592.358329 754.152451 591.889801 753.636599 591.895007 753.016535 L 591.895007 750.854126 C 591.900213 749.587944 592.780005 748.509345 594.003384 748.290499 C 597.720373 747.571433 602.369213 748.175865 607.949903 750.114217 C 609.761545 750.739492 611.744981 749.780737 612.369685 747.972651 C 612.494626 747.613118 612.562302 747.243163 612.562302 746.867998 L 612.562302 731.439341 C 612.562302 728.735027 610.370632 726.541354 607.668787 726.541354 L 584.887909 726.541354 C 582.34224 726.541354 580.280716 728.604761 580.280716 731.152756 L 580.280716 753.188485 C 580.280716 755.262314 578.599221 756.945345 576.52208 756.945345 L 527.269364 756.945345 C 521.985408 756.945345 517.700979 752.636159 517.700979 747.326533 L 517.700979 730.584798 C 517.700979 728.224386 515.764396 726.312087 513.374903 726.312087 L 482.39999 726.312087 C 480.135437 726.312087 478.297766 728.146226 478.297766 730.412848 L 478.297766 753.303119 C 478.297766 755.345684 476.6423 757.002662 474.596394 757.002662 L 424.890768 757.002662 C 422.058776 757.002662 419.762988 754.736041 419.762988 751.937935 L 419.762988 732.179249 C 419.762988 729.000769 417.217319 726.42672 414.072975 726.42672 L 384.633792 726.42672 C 381.426978 726.42672 378.824044 729.000769 378.824044 732.179249 L 378.824044 781.258117 C 378.824044 783.050571 380.30251 784.504335 382.12977 784.504335 L 765.333699 784.504335 C 766.71846 784.504335 767.837721 783.384051 767.837721 781.998025 L 767.837721 730.355531 C 767.837721 728.156648 766.026079 726.369404 763.797968 726.369404 L 729.574593 726.369404 C 727.372511 726.369404 725.586898 728.130594 725.586898 730.298214 " stroke="#858585" stroke-width="2" stroke-opacity="1" stroke-miterlimit="4"/><path stroke-linecap="butt" transform="matrix(0.750355, 0, 0, 0.74967, 1294.329438, 256.024937)" fill="none" stroke-linejoin="miter" d="M 574.12738 827.038659 C 609.147253 826.981342 642.287808 840.648809 658.342704 873.215208 C 663.428837 883.506191 665.709007 902.295701 665.178008 929.588949 C 664.641804 956.006813 664.699068 987.400822 665.344596 1023.765767 C 665.375831 1025.599907 666.875121 1027.069303 668.707587 1027.069303 L 766.359255 1027.069303 C 767.993897 1027.069303 769.321394 1025.745804 769.321394 1024.109668 L 769.321394 799.536985 C 769.321394 798.249961 768.275014 797.202626 766.983959 797.202626 C 727.393334 797.051518 663.090455 797.030675 574.070116 797.145309 C 485.054982 797.296417 420.752103 797.525685 381.161478 797.827901 C 379.870423 797.827901 378.824044 798.875236 378.824044 800.16226 L 379.568483 1024.734943 C 379.568483 1026.365868 380.890773 1027.694578 382.525416 1027.694578 L 480.177084 1027.350676 C 482.00955 1027.350676 483.508839 1025.886491 483.540075 1024.052351 C 484.071073 987.687407 484.013809 956.293397 483.368281 929.870323 C 482.759195 902.577075 484.9821 883.787565 490.026586 873.501793 C 506.029424 840.878076 539.112714 827.095976 574.12738 827.038659 " stroke="#858585" stroke-width="2" stroke-opacity="1" stroke-miterlimit="4"/><path stroke-linecap="butt" transform="matrix(0.750355, 0, 0, 0.74967, 1294.329438, 256.024937)" fill="none" stroke-linejoin="miter" d="M 585.002438 841.388717 C 583.216826 841.232399 581.644653 842.550686 581.488477 844.33793 C 581.478066 844.436932 581.47286 844.535934 581.47286 844.634936 L 581.358331 1025.417535 C 581.358331 1026.735823 582.43074 1027.809211 583.75303 1027.809211 L 649.117906 1027.293359 C 650.544314 1027.293359 651.710428 1026.157443 651.736458 1024.734943 C 651.736458 1023.025858 651.965516 987.400822 652.423632 917.859835 C 652.689131 870.484842 630.2154 844.994469 585.002438 841.388717 " stroke="#858585" stroke-width="2" stroke-opacity="1" stroke-miterlimit="4"/><path stroke-linecap="butt" transform="matrix(0.750355, 0, 0, 0.74967, 1294.329438, 256.024937)" fill="none" stroke-linejoin="miter" d="M 564.735995 841.388717 C 519.601121 844.957995 497.148213 870.406682 497.372065 917.745201 C 497.752094 987.171555 497.944711 1022.739274 497.944711 1024.448359 C 497.975946 1025.870859 499.136855 1027.011986 500.563262 1027.011986 L 565.870874 1027.579944 C 567.193164 1027.579944 568.265573 1026.511766 568.265573 1025.188267 L 568.265573 844.634936 C 568.270779 842.837271 566.823548 841.383507 565.027523 841.378296 C 564.928612 841.373085 564.834906 841.378296 564.735995 841.388717 " stroke="#858585" stroke-width="2" stroke-opacity="1" stroke-miterlimit="4"/><path stroke-linecap="butt" transform="matrix(0.750355, 0, 0, 0.74967, 1294.329438, 256.024937)" fill="none" stroke-linejoin="miter" d="M 541.616736 656.844048 L 614.155298 657.52664 C 615.888852 657.557903 617.31526 656.182299 617.346495 654.452371 C 617.346495 654.43674 617.346495 654.415897 617.346495 654.395055 L 617.913934 585.156283 C 618.174228 555.90384 601.229128 532.028761 580.051658 531.804704 L 578.000546 531.804704 C 556.812664 531.627543 539.425066 555.205617 539.169978 584.473691 L 538.540068 653.712463 C 538.540068 655.421548 539.909211 656.812784 541.616736 656.844048 " stroke="#858585" stroke-width="2" stroke-opacity="1" stroke-miterlimit="4"/><path stroke-linecap="butt" transform="matrix(0.750355, 0, 0, 0.74967, 1294.329438, 256.024937)" fill="none" stroke-linejoin="miter" d="M 554.542906 644.890876 L 603.509298 644.661609 C 604.987765 644.630345 606.159085 643.405849 606.12785 641.931242 C 606.12785 641.926031 606.12785 641.926031 606.12785 641.926031 L 605.846733 586.068142 C 605.732204 562.953814 593.763914 544.268517 579.109396 544.331044 C 579.098984 544.331044 579.088572 544.331044 579.083367 544.331044 L 577.828752 544.331044 C 563.184646 544.414414 551.414179 563.198714 551.523502 586.29741 L 551.809825 642.212616 C 551.809825 643.692433 553.007175 644.890876 554.485641 644.890876 C 554.506465 644.890876 554.522082 644.890876 554.542906 644.890876 " stroke="#858585" stroke-width="2" stroke-opacity="1" stroke-miterlimit="4"/><path stroke-linecap="butt" transform="matrix(0.750355, 0, 0, 0.74967, 1294.329438, 256.024937)" fill="none" stroke-linejoin="miter" d="M 283.166223 810.526191 L 339.764418 809.8436 C 341.841559 809.812336 343.497025 808.103251 343.46579 806.029423 L 342.89835 757.742571 C 342.612027 734.977354 328.587419 716.698485 311.579849 716.917332 L 309.075827 716.917332 C 292.063051 717.130967 278.501765 735.758948 278.782882 758.524164 C 278.782882 758.529375 278.782882 758.534585 278.782882 758.539796 L 279.350322 806.826648 C 279.381557 808.900477 281.089082 810.557455 283.166223 810.526191 " stroke="#858585" stroke-width="2" stroke-opacity="1" stroke-miterlimit="4"/><path stroke-linecap="butt" transform="matrix(0.750355, 0, 0, 0.74967, 1294.329438, 256.024937)" fill="none" stroke-linejoin="miter" d="M 283.395281 938.811754 L 340.222534 938.467853 C 342.35694 938.467853 344.090494 936.737925 344.090494 934.596359 L 343.809377 886.2574 C 343.684436 863.54429 329.597358 845.202894 312.319083 845.260211 L 310.3825 845.260211 C 293.088607 845.317528 279.142087 863.7944 279.235793 886.533563 C 279.235793 886.554406 279.235793 886.575248 279.235793 886.596091 L 279.522115 934.94026 C 279.522115 937.076616 281.255669 938.811754 283.395281 938.811754 " stroke="#858585" stroke-width="2" stroke-opacity="1" stroke-miterlimit="4"/><path stroke-linecap="butt" transform="matrix(0.750355, 0, 0, 0.74967, 1294.329438, 256.024937)" fill="none" stroke-linejoin="miter" d="M 806.558966 810.411558 L 864.979215 810.870093 C 866.801268 810.870093 868.279735 809.390275 868.279735 807.566557 L 868.623322 760.363514 C 868.800322 735.123252 854.629949 714.551708 836.961234 714.411022 L 835.940884 714.411022 C 818.266963 714.270335 803.784239 734.623032 803.596827 759.878926 C 803.596827 759.884137 803.596827 759.899769 803.596827 759.904979 L 803.310505 807.108022 C 803.310505 808.910898 804.757736 810.380294 806.558966 810.411558 " stroke="#858585" stroke-width="2" stroke-opacity="1" stroke-miterlimit="4"/><path stroke-linecap="butt" transform="matrix(0.750355, 0, 0, 0.74967, 1294.329438, 256.024937)" fill="none" stroke-linejoin="miter" d="M 809.177518 938.582486 L 863.381013 938.467853 C 866.056829 938.467853 868.22247 936.300233 868.22247 933.632394 L 868.165206 886.200083 C 868.123559 863.440078 854.182245 845.015312 837.018499 845.030943 L 835.310974 845.030943 C 818.142022 845.051786 804.247561 863.523448 804.278796 886.288664 C 804.278796 886.299085 804.278796 886.304296 804.278796 886.314717 L 804.336061 933.741817 C 804.336061 936.414867 806.506907 938.582486 809.177518 938.582486 " stroke="#858585" stroke-width="2" stroke-opacity="1" stroke-miterlimit="4"/><path stroke-linecap="butt" transform="matrix(0.750355, 0, 0, 0.74967, 1294.329438, 256.024937)" fill="none" stroke-linejoin="miter" d="M 818.173257 799.135767 L 852.906807 799.365035 C 854.322803 799.365035 855.468094 798.218698 855.468094 796.801408 L 855.639888 763.609733 C 855.744005 744.174106 847.294882 728.370283 836.758205 728.307756 C 836.752999 728.307756 836.742588 728.307756 836.737382 728.307756 L 835.029857 728.307756 C 824.498387 728.266071 815.887881 743.96047 815.783764 763.380466 L 815.61197 796.577351 C 815.61197 797.98943 816.757261 799.135767 818.173257 799.135767 " stroke="#858585" stroke-width="2" stroke-opacity="1" stroke-miterlimit="4"/><path stroke-linecap="butt" transform="matrix(0.750355, 0, 0, 0.74967, 1294.329438, 256.024937)" fill="none" stroke-linejoin="miter" d="M 294.499397 798.286436 L 328.32192 798.286436 C 329.701475 798.286436 330.825943 797.160941 330.825943 795.780126 L 330.825943 760.931472 C 330.825943 743.762466 322.517378 729.84489 312.261818 729.84489 L 310.554293 729.84489 C 300.30394 729.84489 291.990169 743.762466 291.990169 760.931472 L 291.990169 795.780126 C 291.990169 797.160941 293.114636 798.286436 294.499397 798.286436 " stroke="#858585" stroke-width="2" stroke-opacity="1" stroke-miterlimit="4"/><path stroke-linecap="butt" transform="matrix(0.750355, 0, 0, 0.74967, 1294.329438, 256.024937)" fill="none" stroke-linejoin="miter" d="M 296.092393 924.977547 L 327.634746 925.201604 C 329.774357 925.201604 331.507911 923.471677 331.507911 921.33011 L 331.73697 887.283893 C 331.846293 870.568212 323.511698 856.963272 313.11558 856.874692 L 311.522585 856.874692 C 301.116055 856.786111 292.573226 870.276417 292.448285 887.00773 C 292.448285 887.023362 292.448285 887.038994 292.448285 887.054626 L 292.219227 921.106053 C 292.219227 923.242409 293.952781 924.977547 296.092393 924.977547 " stroke="#858585" stroke-width="2" stroke-opacity="1" stroke-miterlimit="4"/><path stroke-linecap="butt" transform="matrix(0.750355, 0, 0, 0.74967, 1294.329438, 256.024937)" fill="none" stroke-linejoin="miter" d="M 819.594459 924.862913 L 852.735014 924.977547 C 854.307186 924.977547 855.582623 923.700944 855.582623 922.127336 L 855.639888 888.133225 C 855.676329 871.188276 847.294882 857.421807 836.919587 857.385333 C 836.914381 857.385333 836.909175 857.385333 836.90397 857.385333 L 835.654561 857.385333 C 825.279267 857.369701 816.845761 871.078853 816.804114 888.023802 L 816.752055 922.012702 C 816.752055 923.58631 818.027493 924.862913 819.594459 924.862913 " stroke="#858585" stroke-width="2" stroke-opacity="1" stroke-miterlimit="4"/><g clip-path="url(#a69a0776db)"><path fill="#151515" d="M 1829.082031 812.8125 L 1829.082031 794.375 C 1829.082031 792.464844 1830.628906 790.914062 1832.542969 790.914062 L 1867.191406 790.914062 C 1868.628906 790.917969 1869.8125 789.789062 1869.882812 788.355469 C 1870.109375 784.113281 1869.8125 780.273438 1868.984375 776.828125 C 1868.765625 775.984375 1868.226562 775.261719 1867.492188 774.824219 L 1850.957031 765.304688 C 1846.328125 762.636719 1843.480469 757.707031 1843.480469 752.371094 L 1843.480469 713.484375 C 1843.480469 710.417969 1845.945312 707.933594 1848.988281 707.933594 L 1873.898438 707.933594 C 1876.234375 707.933594 1878.128906 709.804688 1878.128906 712.117188 L 1878.128906 727.527344 C 1878.128906 729.414062 1879.660156 730.941406 1881.546875 730.941406 L 1895.304688 730.941406 C 1896.863281 730.941406 1898.125 729.679688 1898.125 728.125 L 1898.125 711.5625 C 1898.125 709.9375 1899.464844 708.617188 1901.113281 708.617188 L 1908.207031 708.617188 C 1909.625 708.617188 1910.769531 707.46875 1910.769531 706.054688 L 1910.769531 598.65625 C 1910.773438 597.054688 1911.894531 595.667969 1913.460938 595.328125 C 1916.878906 594.558594 1919.214844 595.839844 1920.46875 599.167969 C 1921.089844 600.785156 1922.652344 601.855469 1924.398438 601.859375 L 1986.695312 601.859375 C 1988.816406 601.871094 1990.53125 603.5625 1990.523438 605.636719 C 1990.523438 605.789062 1990.515625 605.9375 1990.496094 606.085938 C 1989.8125 612.359375 1980.285156 618.71875 1972.210938 625.335938 C 1971.445312 625.964844 1971.339844 627.097656 1971.96875 627.859375 C 1971.992188 627.886719 1972.015625 627.914062 1972.039062 627.941406 L 1988.445312 645.65625 C 1990.351562 647.683594 1990.234375 650.875 1988.179688 652.785156 C 1987.226562 653.664062 1985.980469 654.152344 1984.683594 654.148438 L 1922.390625 654.148438 C 1921.117188 654.148438 1920.085938 655.179688 1920.085938 656.453125 L 1920.085938 705.074219 C 1920.085938 706.558594 1921.289062 707.761719 1922.777344 707.761719 L 1935.039062 707.761719 C 1937.964844 707.761719 1940.335938 710.132812 1940.335938 713.054688 L 1940.335938 728.210938 C 1940.335938 729.578125 1941.445312 730.6875 1942.816406 730.6875 L 1955.417969 730.6875 C 1956.761719 730.6875 1957.855469 729.597656 1957.855469 728.253906 L 1957.855469 713.484375 C 1957.855469 710.867188 1959.976562 708.746094 1962.597656 708.746094 L 1992.375 708.917969 C 1994.710938 708.921875 1996.605469 710.796875 1996.605469 713.109375 C 1996.605469 713.511719 1996.550781 713.910156 1996.433594 714.292969 C 1996.207031 715.0625 1996.304688 723.941406 1996.734375 740.929688 C 1997.160156 758.902344 1992.761719 768.71875 1975.882812 773.757812 C 1974.367188 774.207031 1973.324219 775.613281 1973.320312 777.214844 L 1973.320312 1032.902344 C 1973.320312 1034.695312 1971.867188 1036.148438 1970.074219 1036.148438 L 1480.699219 1036.148438 C 1478.457031 1036.148438 1476.640625 1034.332031 1476.640625 1032.09375 L 1476.640625 777 C 1476.644531 775.28125 1475.457031 773.792969 1473.777344 773.414062 C 1464.949219 771.394531 1458.46875 767.054688 1454.339844 760.394531 C 1453.359375 758.804688 1452.84375 756.972656 1452.84375 755.101562 L 1452.84375 712.972656 C 1452.84375 710.1875 1455.101562 707.933594 1457.886719 707.933594 L 1483.992188 707.933594 C 1486.445312 707.933594 1488.433594 709.921875 1488.433594 712.375 L 1488.433594 728.851562 C 1488.433594 730.289062 1489.601562 731.453125 1491.039062 731.453125 L 1504.199219 731.453125 C 1505.519531 731.453125 1506.59375 730.363281 1506.59375 729.019531 L 1506.59375 711.902344 C 1506.59375 710.300781 1507.910156 709 1509.539062 709 L 1516.332031 709 C 1517.773438 709 1518.9375 707.816406 1518.9375 706.355469 L 1519.792969 599.851562 C 1519.785156 597.210938 1521.941406 595.074219 1524.601562 595.078125 C 1525.605469 595.082031 1526.582031 595.390625 1527.398438 595.96875 C 1528.367188 596.652344 1529.179688 597.605469 1529.835938 598.828125 C 1530.597656 600.226562 1532.058594 601.09375 1533.636719 601.089844 L 1594.5625 601.089844 C 1597.207031 601.097656 1599.34375 603.242188 1599.335938 605.882812 C 1599.332031 607.207031 1598.78125 608.46875 1597.808594 609.371094 L 1581.832031 624.097656 C 1580.722656 625.125 1580.652344 626.851562 1581.679688 627.960938 C 1581.6875 627.96875 1581.695312 627.976562 1581.703125 627.984375 L 1598.921875 646.59375 C 1600.429688 648.21875 1600.335938 650.757812 1598.714844 652.265625 C 1597.96875 652.957031 1596.988281 653.339844 1595.972656 653.339844 L 1530.859375 653.339844 C 1529.632812 653.339844 1528.636719 654.332031 1528.636719 655.558594 L 1528.636719 705.972656 C 1528.632812 708.09375 1530.347656 709.816406 1532.472656 709.824219 C 1532.820312 709.824219 1533.171875 709.777344 1533.507812 709.683594 C 1539.289062 708.035156 1543.71875 708.035156 1546.796875 709.683594 C 1547.824219 710.238281 1548.464844 711.320312 1548.460938 712.503906 L 1548.460938 728.339844 C 1548.460938 730.082031 1549.859375 731.496094 1551.582031 731.496094 L 1564.996094 731.496094 C 1566.460938 731.496094 1567.644531 730.292969 1567.644531 728.808594 L 1567.644531 712.671875 C 1567.644531 710.363281 1569.539062 708.488281 1571.875 708.488281 L 1600.457031 708.488281 C 1603.40625 708.488281 1605.800781 710.878906 1605.800781 713.824219 C 1605.800781 713.867188 1605.800781 713.910156 1605.800781 713.953125 C 1605.570312 723.6875 1605.613281 733.929688 1605.929688 744.6875 C 1606.441406 762.445312 1598.050781 772.234375 1580.761719 774.054688 C 1580.160156 774.097656 1579.691406 774.601562 1579.695312 775.207031 L 1579.695312 789.464844 C 1579.695312 790.429688 1580.476562 791.214844 1581.445312 791.214844 L 1615.414062 791.214844 C 1617.652344 791.214844 1619.472656 793.03125 1619.472656 795.269531 L 1619.472656 811.320312 C 1619.472656 812.992188 1620.808594 814.351562 1622.460938 814.351562 L 1640.234375 814.351562 C 1641.910156 814.351562 1643.269531 813.011719 1643.269531 811.363281 L 1643.269531 795.824219 C 1643.269531 793.75 1644.933594 792.070312 1646.988281 792.070312 L 1652.457031 792.070312 C 1654.011719 792.070312 1655.273438 790.828125 1655.273438 789.292969 L 1655.273438 634.472656 C 1655.273438 633.011719 1654.070312 631.824219 1652.582031 631.824219 L 1633.871094 631.824219 C 1631.925781 631.820312 1630.226562 630.523438 1629.726562 628.667969 C 1627.019531 618.933594 1626.960938 609.699219 1629.554688 600.960938 C 1630.078125 599.113281 1631.222656 597.488281 1632.800781 596.351562 C 1637.984375 592.480469 1641.0625 589.808594 1642.03125 588.328125 C 1666.726562 550.566406 1693 508.816406 1720.859375 463.085938 C 1721.308594 462.332031 1721.542969 461.476562 1721.542969 460.609375 L 1721.542969 348.644531 C 1721.535156 345.980469 1723.6875 343.8125 1726.351562 343.804688 C 1728.03125 343.796875 1729.585938 344.660156 1730.472656 346.082031 L 1732.136719 348.816406 C 1732.882812 349.96875 1734.023438 350.804688 1735.34375 351.164062 C 1754.140625 356.34375 1772.242188 358.433594 1789.644531 357.4375 C 1816.691406 355.816406 1844.292969 353.167969 1846.46875 355.261719 C 1848.007812 356.710938 1848.078125 358.292969 1846.683594 360 C 1837.96875 370.441406 1827.714844 381.484375 1815.921875 393.125 C 1814.570312 394.472656 1814.554688 396.652344 1815.886719 397.988281 C 1815.980469 398.078125 1816.074219 398.164062 1816.179688 398.246094 L 1847.921875 423.902344 C 1849.121094 424.859375 1849.300781 426.613281 1848.316406 427.816406 C 1847.941406 428.277344 1847.429688 428.609375 1846.855469 428.765625 C 1806.496094 439.464844 1768.867188 440.503906 1733.976562 431.882812 C 1732.804688 431.597656 1731.628906 432.316406 1731.34375 433.484375 C 1731.300781 433.660156 1731.28125 433.835938 1731.285156 434.015625 L 1731.285156 461.078125 C 1731.285156 461.777344 1731.492188 462.472656 1731.882812 463.085938 L 1811.480469 590.589844 C 1812.105469 591.582031 1812.847656 592.511719 1813.699219 593.363281 L 1820.410156 600.066406 C 1821.726562 601.382812 1822.695312 603.011719 1823.226562 604.804688 C 1824.027344 607.449219 1823.640625 613.171875 1822.074219 621.964844 C 1820.679688 629.648438 1814.070312 632.820312 1802.25 631.484375 C 1799.53125 631.175781 1797.074219 633.132812 1796.769531 635.847656 C 1796.75 636.027344 1796.738281 636.210938 1796.738281 636.390625 L 1796.738281 787.886719 C 1796.738281 789.886719 1798.363281 791.511719 1800.371094 791.511719 L 1803.574219 791.511719 C 1805.605469 791.511719 1807.25 793.15625 1807.25 795.183594 L 1807.25 812.046875 C 1807.25 813.292969 1808.261719 814.308594 1809.511719 814.308594 L 1827.585938 814.308594 C 1828.410156 814.308594 1829.082031 813.636719 1829.082031 812.8125 Z M 1827.328125 364.992188 C 1793.703125 367.554688 1764.394531 369.519531 1733.121094 360.894531 C 1732.371094 360.683594 1731.589844 361.097656 1731.378906 361.820312 C 1731.339844 361.953125 1731.324219 362.085938 1731.324219 362.21875 L 1731.324219 419.589844 C 1731.324219 420.488281 1731.957031 421.277344 1732.863281 421.507812 C 1763.910156 429.25 1795.910156 429.761719 1828.867188 423.046875 C 1829.402344 422.957031 1829.761719 422.449219 1829.671875 421.914062 C 1829.628906 421.667969 1829.492188 421.449219 1829.292969 421.296875 L 1801.222656 398.585938 C 1799.476562 397.1875 1799.191406 394.636719 1800.59375 392.886719 C 1800.71875 392.726562 1800.859375 392.578125 1801.011719 392.441406 L 1828.3125 367.214844 C 1828.832031 366.734375 1828.871094 365.925781 1828.390625 365.402344 C 1828.121094 365.109375 1827.726562 364.957031 1827.328125 364.992188 Z M 1710.390625 505.34375 C 1723.421875 507.136719 1730.085938 509.484375 1743.84375 504.234375 C 1745.007812 503.78125 1745.59375 502.488281 1745.152344 501.34375 C 1745.101562 501.203125 1745.035156 501.074219 1744.953125 500.949219 L 1728.25 474.183594 C 1727.773438 473.425781 1726.769531 473.195312 1726.011719 473.671875 C 1725.789062 473.808594 1725.605469 474 1725.472656 474.226562 L 1709.066406 502.613281 C 1708.558594 503.488281 1708.839844 504.609375 1709.695312 505.113281 C 1709.90625 505.238281 1710.144531 505.320312 1710.390625 505.34375 Z M 1684.625 542.355469 C 1684.4375 542.707031 1684.550781 543.140625 1684.878906 543.324219 C 1684.921875 543.347656 1684.964844 543.367188 1685.011719 543.378906 C 1700.949219 548.160156 1718.890625 558.53125 1737.179688 553.453125 C 1738.257812 553.148438 1739.207031 552.472656 1739.871094 551.53125 L 1745.554688 543.464844 C 1746.148438 542.59375 1747.078125 542.019531 1748.117188 541.886719 L 1763.796875 539.496094 C 1765.476562 539.25 1766.640625 537.691406 1766.398438 536.011719 C 1766.328125 535.546875 1766.15625 535.101562 1765.890625 534.714844 L 1750.378906 511.792969 C 1749.636719 510.664062 1748.152344 510.292969 1746.964844 510.9375 L 1735.941406 516.828125 C 1735.050781 517.300781 1734.019531 517.480469 1732.992188 517.339844 L 1703.683594 513.070312 C 1702.484375 512.917969 1701.3125 513.488281 1700.691406 514.523438 Z M 1668.777344 565.960938 C 1668.40625 566.589844 1668.621094 567.402344 1669.25 567.769531 C 1669.535156 567.933594 1669.867188 567.988281 1670.183594 567.921875 C 1688.257812 564.507812 1690.949219 574.96875 1693.898438 589.992188 C 1694.222656 591.601562 1695.632812 592.757812 1697.273438 592.765625 L 1755.464844 592.765625 C 1756.871094 592.769531 1758.113281 591.808594 1758.5 590.417969 C 1761.601562 578.324219 1769.664062 571.496094 1782.679688 569.929688 C 1784.199219 569.734375 1785.285156 568.359375 1785.101562 566.859375 C 1785.046875 566.429688 1784.890625 566.019531 1784.644531 565.660156 L 1774.21875 550.25 C 1772.941406 548.363281 1770.777344 547.265625 1768.496094 547.347656 C 1759.410156 547.691406 1752.929688 550.976562 1749.054688 557.210938 C 1747.933594 558.984375 1746.148438 560.246094 1744.101562 560.710938 C 1729.914062 563.8125 1718.378906 563.898438 1709.492188 560.964844 C 1693.457031 555.644531 1683.941406 552.257812 1680.953125 550.808594 C 1679.4375 550.078125 1677.613281 550.65625 1676.765625 552.128906 Z M 1655.789062 592.382812 L 1681.765625 592.382812 C 1683.015625 592.386719 1684.027344 591.355469 1684.023438 590.082031 C 1684.023438 589.878906 1683.996094 589.675781 1683.941406 589.480469 L 1682.148438 582.949219 C 1681.566406 580.84375 1679.652344 579.367188 1677.449219 579.320312 C 1672.835938 579.207031 1669.289062 578.308594 1666.8125 576.632812 C 1664.753906 575.210938 1661.933594 575.722656 1660.511719 577.777344 C 1660.441406 577.878906 1660.375 577.980469 1660.316406 578.082031 L 1653.949219 589.179688 C 1653.359375 590.203125 1653.710938 591.507812 1654.730469 592.097656 C 1655.054688 592.28125 1655.417969 592.378906 1655.789062 592.382812 Z M 1771.488281 593.320312 L 1799.214844 593.320312 C 1800.136719 593.300781 1800.863281 592.539062 1800.84375 591.621094 C 1800.835938 591.316406 1800.746094 591.019531 1800.582031 590.761719 L 1793.148438 579.746094 C 1792.195312 578.375 1790.585938 577.609375 1788.917969 577.742188 C 1782.339844 578.253906 1775.714844 580.984375 1769.050781 585.9375 C 1767.234375 587.289062 1766.859375 589.855469 1768.210938 591.671875 C 1768.980469 592.707031 1770.195312 593.316406 1771.488281 593.320312 Z M 1812.824219 608.25 C 1812.839844 605.09375 1810.292969 602.519531 1807.128906 602.503906 L 1642.984375 601.640625 C 1639.820312 601.625 1637.246094 604.175781 1637.226562 607.332031 L 1637.179688 616.636719 C 1637.160156 619.796875 1639.710938 622.371094 1642.875 622.386719 L 1807.023438 623.246094 C 1810.183594 623.261719 1812.757812 620.714844 1812.777344 617.558594 Z M 1581.191406 640.746094 C 1576.574219 637.84375 1573.742188 636.050781 1572.6875 635.367188 C 1559.355469 626.746094 1572.429688 617.953125 1579.949219 613.769531 C 1580.65625 613.34375 1580.886719 612.425781 1580.464844 611.71875 C 1580.199219 611.28125 1579.734375 611.007812 1579.222656 610.992188 L 1529.875 610.992188 C 1529.097656 610.992188 1528.464844 611.644531 1528.464844 612.445312 L 1528.464844 642.238281 C 1528.464844 643.136719 1529.191406 643.863281 1530.089844 643.863281 L 1580.292969 643.863281 C 1581.21875 643.886719 1581.972656 643.144531 1581.976562 642.207031 C 1581.980469 641.621094 1581.679688 641.070312 1581.191406 640.746094 Z M 1919.65625 628.066406 C 1919.65625 635.949219 1919.6875 640.53125 1919.742188 641.8125 C 1919.8125 643.339844 1921.054688 644.542969 1922.5625 644.542969 L 1971.738281 644.542969 C 1972.421875 644.578125 1973.003906 644.050781 1973.035156 643.367188 C 1973.054688 642.90625 1972.820312 642.472656 1972.421875 642.238281 C 1966.414062 638.425781 1961.726562 634.925781 1958.367188 631.738281 C 1957.226562 630.65625 1956.65625 629.417969 1956.65625 628.023438 C 1956.65625 626.660156 1957.226562 625.421875 1958.367188 624.3125 C 1961.726562 621.125 1966.398438 617.625 1972.378906 613.8125 C 1972.972656 613.464844 1973.167969 612.707031 1972.824219 612.117188 C 1972.589844 611.71875 1972.15625 611.484375 1971.695312 611.503906 L 1922.519531 611.589844 C 1920.996094 611.589844 1919.746094 612.820312 1919.699219 614.367188 C 1919.644531 615.617188 1919.628906 620.183594 1919.65625 628.066406 Z M 1787.550781 634.898438 C 1787.550781 633.339844 1786.289062 632.082031 1784.730469 632.082031 L 1667.410156 632.082031 C 1665.851562 632.082031 1664.589844 633.339844 1664.589844 634.898438 L 1664.589844 788.097656 C 1664.589844 789.652344 1665.851562 790.914062 1667.410156 790.914062 L 1690.222656 790.914062 C 1691.78125 790.914062 1693.042969 792.175781 1693.042969 793.730469 L 1693.042969 810.890625 C 1693.042969 812.449219 1694.304688 813.710938 1695.863281 813.710938 L 1715.304688 813.710938 C 1716.863281 813.710938 1718.125 812.449219 1718.125 810.890625 L 1718.125 793.136719 C 1718.125 791.578125 1719.386719 790.316406 1720.945312 790.316406 L 1784.730469 790.316406 C 1786.289062 790.316406 1787.550781 789.058594 1787.550781 787.5 Z M 1528.125 763.808594 C 1561.5625 764.039062 1578.925781 764.050781 1580.207031 763.851562 C 1588.867188 762.65625 1593.496094 758.628906 1594.09375 751.773438 C 1594.777344 743.578125 1595.003906 733.1875 1594.777344 720.609375 C 1594.753906 719.355469 1593.726562 718.347656 1592.46875 718.347656 L 1580.078125 718.347656 C 1578.96875 718.347656 1578.070312 719.246094 1578.070312 720.355469 L 1578.070312 736.660156 C 1578.070312 739.347656 1575.871094 741.527344 1573.15625 741.527344 L 1545.257812 741.527344 C 1542.355469 741.527344 1540.003906 739.175781 1540.003906 736.277344 L 1540.003906 721.464844 C 1540.003906 720.027344 1538.835938 718.859375 1537.398438 718.859375 C 1537.082031 718.859375 1534.09375 718.832031 1528.425781 718.777344 C 1522.757812 718.746094 1519.75 718.734375 1519.410156 718.734375 C 1517.96875 718.734375 1516.804688 719.898438 1516.804688 721.335938 L 1516.632812 736.148438 C 1516.585938 739.050781 1514.195312 741.359375 1511.292969 741.3125 L 1483.390625 740.972656 C 1480.695312 740.925781 1478.542969 738.734375 1478.5625 736.0625 L 1478.734375 719.757812 C 1478.757812 718.648438 1477.878906 717.734375 1476.769531 717.707031 L 1464.378906 717.539062 C 1463.105469 717.511719 1462.054688 718.527344 1462.03125 719.800781 C 1461.660156 732.378906 1461.757812 742.765625 1462.328125 750.960938 C 1462.839844 757.820312 1467.414062 761.902344 1476.042969 763.210938 C 1477.324219 763.410156 1494.683594 763.609375 1528.125 763.808594 Z M 1911.199219 718.390625 C 1909.359375 718.390625 1907.867188 719.863281 1907.867188 721.679688 L 1907.867188 735.253906 C 1907.867188 738.128906 1905.53125 740.460938 1902.652344 740.460938 L 1872.789062 740.460938 C 1870.027344 740.449219 1867.796875 738.203125 1867.808594 735.445312 C 1867.8125 735.296875 1867.816406 735.144531 1867.832031 734.996094 L 1869.242188 721.082031 C 1869.429688 719.371094 1868.195312 717.832031 1866.484375 717.640625 C 1866.363281 717.628906 1866.242188 717.625 1866.125 717.625 L 1856.253906 717.625 C 1854.742188 717.625 1853.519531 718.847656 1853.519531 720.355469 L 1853.519531 750.40625 C 1853.523438 752.25 1854.335938 753.996094 1855.742188 755.1875 C 1861.582031 760.082031 1866.90625 762.671875 1871.71875 762.957031 C 1886.816406 763.867188 1918.859375 764.179688 1967.851562 763.894531 C 1992.503906 763.765625 1987.890625 739.820312 1986.652344 722.660156 C 1986.535156 720.929688 1985.195312 719.539062 1983.488281 719.375 L 1971.3125 718.136719 C 1969.785156 717.992188 1968.433594 719.097656 1968.289062 720.597656 C 1968.28125 720.6875 1968.277344 720.777344 1968.277344 720.867188 L 1968.277344 734.613281 C 1968.277344 737.796875 1965.714844 740.375 1962.554688 740.375 L 1935.851562 740.375 C 1932.996094 740.375 1930.679688 738.082031 1930.679688 735.253906 L 1930.679688 721.039062 C 1930.679688 719.578125 1929.496094 718.390625 1928.03125 718.390625 Z M 1569.144531 775.664062 C 1569.148438 774.4375 1568.152344 773.441406 1566.925781 773.441406 L 1488.824219 773.304688 C 1487.597656 773.300781 1486.601562 774.292969 1486.597656 775.519531 L 1486.164062 1023.867188 C 1486.164062 1025.09375 1487.15625 1026.089844 1488.382812 1026.089844 L 1566.484375 1026.226562 C 1567.710938 1026.226562 1568.707031 1025.234375 1568.710938 1024.011719 Z M 1882.144531 773.328125 C 1880.917969 773.328125 1879.921875 774.320312 1879.921875 775.546875 L 1879.921875 1023.980469 C 1879.921875 1025.207031 1880.917969 1026.199219 1882.144531 1026.199219 L 1961.527344 1026.199219 C 1962.757812 1026.199219 1963.75 1025.207031 1963.75 1023.980469 L 1963.75 775.546875 C 1963.75 774.324219 1962.757812 773.328125 1961.527344 773.328125 Z M 1838.777344 803.507812 L 1838.777344 821.90625 C 1838.777344 823.203125 1837.726562 824.253906 1836.429688 824.253906 L 1801.394531 824.253906 C 1798.941406 824.253906 1796.953125 822.285156 1796.953125 819.855469 L 1796.953125 804.574219 C 1796.953125 802.21875 1795.058594 800.304688 1792.722656 800.304688 L 1769.007812 800.304688 C 1767.167969 800.304688 1765.675781 801.816406 1765.675781 803.679688 L 1765.675781 820.027344 C 1765.6875 822.054688 1764.050781 823.707031 1762.023438 823.71875 C 1761.886719 823.71875 1761.75 823.710938 1761.617188 823.699219 L 1739.273438 821.4375 C 1738.808594 821.390625 1738.457031 821.003906 1738.460938 820.539062 L 1738.460938 818.917969 C 1738.464844 817.96875 1739.125 817.160156 1740.042969 816.996094 C 1742.832031 816.457031 1746.320312 816.910156 1750.507812 818.363281 C 1751.867188 818.832031 1753.355469 818.117188 1753.824219 816.757812 C 1753.917969 816.488281 1753.96875 816.210938 1753.96875 815.929688 L 1753.96875 804.363281 C 1753.96875 802.335938 1752.324219 800.691406 1750.296875 800.691406 L 1733.207031 800.691406 C 1731.292969 800.691406 1729.746094 802.238281 1729.746094 804.148438 L 1729.746094 820.667969 C 1729.746094 822.222656 1728.484375 823.484375 1726.925781 823.484375 L 1689.96875 823.484375 C 1686.003906 823.484375 1682.789062 820.253906 1682.789062 816.273438 L 1682.789062 803.722656 C 1682.789062 801.953125 1681.335938 800.519531 1679.542969 800.519531 L 1656.300781 800.519531 C 1654.601562 800.519531 1653.222656 801.894531 1653.222656 803.59375 L 1653.222656 820.753906 C 1653.222656 822.285156 1651.980469 823.527344 1650.445312 823.527344 L 1613.148438 823.527344 C 1611.023438 823.527344 1609.300781 821.828125 1609.300781 819.730469 L 1609.300781 804.917969 C 1609.300781 802.535156 1607.390625 800.605469 1605.03125 800.605469 L 1582.941406 800.605469 C 1580.535156 800.605469 1578.582031 802.535156 1578.582031 804.917969 L 1578.582031 841.710938 C 1578.582031 843.054688 1579.691406 844.144531 1581.0625 844.144531 L 1868.601562 844.144531 C 1869.640625 844.144531 1870.480469 843.304688 1870.480469 842.265625 L 1870.480469 803.550781 C 1870.480469 801.902344 1869.121094 800.5625 1867.449219 800.5625 L 1841.769531 800.5625 C 1840.117188 800.5625 1838.777344 801.882812 1838.777344 803.507812 Z M 1725.128906 876.03125 C 1751.40625 875.988281 1776.273438 886.234375 1788.320312 910.648438 C 1792.136719 918.363281 1793.847656 932.449219 1793.449219 952.910156 C 1793.046875 972.714844 1793.089844 996.25 1793.574219 1023.511719 C 1793.597656 1024.886719 1794.722656 1025.988281 1796.097656 1025.988281 L 1869.371094 1025.988281 C 1870.597656 1025.988281 1871.59375 1024.996094 1871.59375 1023.769531 L 1871.59375 855.414062 C 1871.59375 854.449219 1870.808594 853.664062 1869.839844 853.664062 C 1840.132812 853.550781 1791.882812 853.535156 1725.085938 853.621094 C 1658.292969 853.734375 1610.042969 853.90625 1580.335938 854.132812 C 1579.367188 854.132812 1578.582031 854.917969 1578.582031 855.882812 L 1579.140625 1024.238281 C 1579.140625 1025.460938 1580.132812 1026.457031 1581.359375 1026.457031 L 1654.632812 1026.199219 C 1656.007812 1026.199219 1657.132812 1025.101562 1657.15625 1023.726562 C 1657.554688 996.464844 1657.511719 972.929688 1657.027344 953.121094 C 1656.570312 932.660156 1658.238281 918.574219 1662.027344 910.863281 C 1674.03125 886.40625 1698.855469 876.074219 1725.128906 876.03125 Z M 1733.289062 886.789062 C 1731.949219 886.671875 1730.769531 887.660156 1730.652344 889 C 1730.644531 889.074219 1730.640625 889.148438 1730.640625 889.222656 L 1730.554688 1024.75 C 1730.554688 1025.738281 1731.359375 1026.542969 1732.351562 1026.542969 L 1781.398438 1026.15625 C 1782.46875 1026.15625 1783.34375 1025.304688 1783.363281 1024.238281 C 1783.363281 1022.957031 1783.535156 996.25 1783.878906 944.117188 C 1784.078125 908.601562 1767.214844 889.492188 1733.289062 886.789062 Z M 1718.082031 886.789062 C 1684.214844 889.464844 1667.367188 908.542969 1667.535156 944.03125 C 1667.820312 996.078125 1667.964844 1022.742188 1667.964844 1024.023438 C 1667.988281 1025.089844 1668.859375 1025.945312 1669.929688 1025.945312 L 1718.933594 1026.371094 C 1719.925781 1026.371094 1720.730469 1025.570312 1720.730469 1024.578125 L 1720.730469 889.222656 C 1720.734375 887.875 1719.648438 886.785156 1718.304688 886.78125 C 1718.226562 886.777344 1718.15625 886.78125 1718.082031 886.789062 Z M 1718.082031 886.789062 " fill-opacity="1" fill-rule="nonzero"/></g><path fill="#151515" d="M 1700.734375 748.441406 C 1699.453125 748.417969 1698.425781 747.375 1698.425781 746.09375 L 1698.898438 694.1875 C 1699.089844 672.246094 1712.136719 654.570312 1728.035156 654.703125 L 1729.574219 654.703125 C 1745.464844 654.871094 1758.179688 672.769531 1757.984375 694.699219 L 1757.558594 746.605469 C 1757.558594 747.902344 1756.507812 748.953125 1755.207031 748.953125 C 1755.195312 748.953125 1755.179688 748.953125 1755.167969 748.953125 Z M 1710.433594 739.480469 L 1747.175781 739.308594 C 1748.285156 739.285156 1749.164062 738.367188 1749.140625 737.261719 C 1749.140625 737.257812 1749.140625 737.257812 1749.140625 737.257812 L 1748.929688 695.382812 C 1748.84375 678.054688 1739.863281 664.046875 1728.867188 664.09375 C 1728.859375 664.09375 1728.851562 664.09375 1728.847656 664.09375 L 1727.90625 664.09375 C 1716.917969 664.15625 1708.085938 678.238281 1708.167969 695.554688 L 1708.382812 737.472656 C 1708.382812 738.582031 1709.28125 739.480469 1710.390625 739.480469 C 1710.40625 739.480469 1710.417969 739.480469 1710.433594 739.480469 Z M 1710.433594 739.480469 " fill-opacity="1" fill-rule="nonzero"/><path fill="#151515" d="M 1899.535156 863.566406 C 1898.183594 863.542969 1897.097656 862.441406 1897.097656 861.089844 L 1897.3125 825.703125 C 1897.445312 806.773438 1908.304688 791.503906 1921.566406 791.597656 C 1921.570312 791.597656 1921.574219 791.597656 1921.582031 791.597656 L 1922.347656 791.597656 C 1935.605469 791.703125 1946.238281 807.125 1946.105469 826.046875 L 1945.847656 861.433594 C 1945.847656 862.800781 1944.738281 863.910156 1943.371094 863.910156 Z M 1908.25 855.113281 L 1934.3125 855.285156 C 1935.375 855.285156 1936.234375 854.425781 1936.234375 853.363281 L 1936.363281 828.480469 C 1936.441406 813.910156 1930.101562 802.0625 1922.195312 802.015625 C 1922.191406 802.015625 1922.183594 802.015625 1922.179688 802.015625 L 1920.898438 802.015625 C 1912.996094 801.984375 1906.535156 813.75 1906.457031 828.308594 L 1906.328125 853.195312 C 1906.328125 854.253906 1907.1875 855.113281 1908.25 855.113281 Z M 1908.25 855.113281 " fill-opacity="1" fill-rule="nonzero"/><path fill="#151515" d="M 1506.804688 863.652344 C 1505.246094 863.675781 1503.96875 862.433594 1503.941406 860.878906 L 1503.515625 824.679688 C 1503.300781 807.613281 1513.46875 793.644531 1526.234375 793.476562 C 1526.238281 793.476562 1526.242188 793.476562 1526.246094 793.476562 L 1528.125 793.476562 C 1540.886719 793.3125 1551.410156 807.015625 1551.625 824.082031 L 1552.050781 860.28125 C 1552.074219 861.835938 1550.832031 863.117188 1549.273438 863.140625 Z M 1515.308594 854.476562 L 1540.6875 854.476562 C 1541.722656 854.476562 1542.566406 853.632812 1542.566406 852.597656 L 1542.566406 826.472656 C 1542.566406 813.601562 1536.332031 803.167969 1528.636719 803.167969 L 1527.355469 803.167969 C 1519.664062 803.167969 1513.425781 813.601562 1513.425781 826.472656 L 1513.425781 852.597656 C 1513.425781 853.632812 1514.269531 854.476562 1515.308594 854.476562 Z M 1515.308594 854.476562 " fill-opacity="1" fill-rule="nonzero"/><path fill="#151515" d="M 1506.976562 959.824219 C 1505.371094 959.824219 1504.070312 958.523438 1504.070312 956.921875 L 1503.855469 920.679688 C 1503.765625 903.636719 1514.210938 889.761719 1527.1875 889.691406 C 1527.203125 889.691406 1527.214844 889.691406 1527.226562 889.691406 L 1528.679688 889.691406 C 1541.644531 889.648438 1552.214844 903.398438 1552.308594 920.425781 L 1552.519531 956.664062 C 1552.519531 958.269531 1551.21875 959.566406 1549.617188 959.566406 Z M 1516.503906 949.453125 L 1540.171875 949.621094 C 1541.777344 949.621094 1543.078125 948.324219 1543.078125 946.71875 L 1543.25 921.195312 C 1543.332031 908.664062 1537.078125 898.464844 1529.277344 898.398438 L 1528.082031 898.398438 C 1520.273438 898.332031 1513.863281 908.445312 1513.769531 920.988281 C 1513.769531 921 1513.769531 921.011719 1513.769531 921.023438 L 1513.597656 946.546875 C 1513.597656 948.152344 1514.898438 949.453125 1516.503906 949.453125 Z M 1516.503906 949.453125 " fill-opacity="1" fill-rule="nonzero"/><path fill="#151515" d="M 1901.5 959.652344 C 1899.496094 959.652344 1897.867188 958.027344 1897.867188 956.023438 L 1897.824219 920.46875 C 1897.792969 903.398438 1908.214844 889.542969 1921.097656 889.519531 C 1921.101562 889.519531 1921.105469 889.519531 1921.109375 889.519531 L 1922.390625 889.519531 C 1935.269531 889.507812 1945.730469 903.320312 1945.761719 920.382812 L 1945.804688 955.941406 C 1945.804688 957.941406 1944.179688 959.566406 1942.171875 959.566406 Z M 1909.316406 949.367188 L 1934.183594 949.453125 C 1935.363281 949.453125 1936.320312 948.496094 1936.320312 947.316406 L 1936.363281 921.832031 C 1936.390625 909.128906 1930.101562 898.808594 1922.316406 898.78125 C 1922.3125 898.78125 1922.308594 898.78125 1922.304688 898.78125 L 1921.367188 898.78125 C 1913.582031 898.769531 1907.253906 909.046875 1907.222656 921.75 L 1907.183594 947.230469 C 1907.183594 948.410156 1908.140625 949.367188 1909.316406 949.367188 Z M 1909.316406 949.367188 " fill-opacity="1" fill-rule="nonzero"/><g clip-path="url(#09aa6714a5)"><path fill="#030303" d="M 336.0625 673.902344 C 336.0625 670.617188 336.035156 667.492188 336.070312 664.371094 C 336.140625 658.171875 338.550781 655.734375 344.65625 655.695312 C 350.722656 655.65625 356.789062 655.632812 362.855469 655.632812 C 368.09375 655.632812 370.59375 658.078125 370.597656 663.296875 C 370.613281 677.078125 370.601562 690.859375 370.554688 704.640625 C 370.535156 709.921875 368.152344 712.53125 362.851562 712.875 C 361.152344 712.988281 360.890625 713.613281 360.902344 715.058594 C 360.949219 720.792969 360.960938 726.527344 360.851562 732.257812 C 360.820312 733.953125 361.316406 734.574219 363.054688 734.613281 C 365.691406 734.679688 368.332031 734.957031 370.957031 735.265625 C 374.605469 735.695312 377.203125 738.042969 378.085938 741.601562 C 378.566406 743.523438 379.21875 745.445312 379.355469 747.402344 C 380.113281 758.285156 385.0625 767.28125 391.792969 775.492188 C 393.84375 777.992188 394.703125 780.707031 394.617188 784.003906 C 394.375 793.039062 394.445312 802.082031 394.347656 811.121094 C 394.332031 812.382812 394.492188 813.375 395.464844 814.371094 C 401.398438 820.46875 406.277344 827.445312 411.714844 833.960938 C 412.832031 835.300781 413.1875 836.804688 413.164062 838.542969 C 413.035156 847.582031 412.992188 856.621094 412.90625 865.660156 C 412.898438 866.761719 412.59375 867.988281 413.351562 868.867188 C 418.136719 874.417969 417.425781 881.253906 417.542969 887.761719 C 417.605469 891.144531 418.542969 892.230469 421.777344 891.75 C 423.175781 891.542969 424.652344 891.636719 426.070312 891.792969 C 429.816406 892.207031 432.226562 894.828125 432.355469 898.625 C 432.453125 901.597656 432.589844 904.585938 432.410156 907.546875 C 432.277344 909.796875 433.292969 910.183594 435.136719 909.960938 C 436.601562 909.785156 438.355469 910.699219 438.472656 907.808594 C 438.785156 900.023438 439.40625 899.523438 447.578125 898.5 C 448.519531 898.382812 448.996094 898.15625 448.960938 897.167969 C 448.929688 896.394531 448.964844 895.621094 448.960938 894.851562 C 448.925781 877.761719 448.9375 860.675781 448.792969 843.585938 C 448.773438 840.9375 449.414062 838.871094 451.476562 837.226562 C 454.292969 834.984375 456.511719 832.375 457.066406 828.621094 C 457.246094 827.40625 458.097656 826.464844 459.164062 825.769531 C 460.457031 824.929688 461.609375 823.78125 463.003906 823.207031 C 470.453125 820.152344 470.878906 814.070312 470.375 807.292969 C 470.199219 804.925781 472.492188 802.945312 472.269531 800.269531 C 471.789062 794.46875 474.328125 790.152344 479.238281 787.109375 C 480.257812 786.480469 481.277344 785.695312 481.996094 784.753906 C 485.910156 779.628906 491.058594 778.132812 497.308594 778.8125 C 501.125 779.230469 505.019531 778.882812 508.882812 778.910156 C 514.570312 778.949219 516.414062 780.78125 516.414062 786.425781 C 516.4375 838.132812 516.664062 889.835938 516.335938 941.542969 C 516.246094 955.449219 517.839844 968.898438 521.261719 982.320312 C 525.035156 997.140625 528.210938 1012.109375 531.566406 1027.03125 C 533.136719 1034.007812 531.144531 1036.40625 524.023438 1036.40625 C 465.449219 1036.40625 406.875 1036.390625 348.300781 1036.402344 C 273.066406 1036.414062 197.835938 1036.449219 122.605469 1036.476562 C 116.46875 1036.480469 114.304688 1033.710938 115.6875 1027.644531 C 120.605469 1006.082031 125.515625 984.523438 130.445312 962.964844 C 130.941406 960.804688 131.109375 958.636719 131.109375 956.417969 C 131.125 897.214844 131.164062 838.015625 131.203125 778.8125 C 131.207031 772.394531 133.039062 770.546875 139.449219 770.546875 C 145.292969 770.542969 151.140625 770.648438 156.984375 770.539062 C 159.390625 770.496094 161.148438 771.148438 162.640625 773.144531 C 165.214844 776.582031 167.976562 779.886719 170.796875 783.125 C 172.175781 784.710938 172.222656 786.542969 172.308594 788.390625 C 172.398438 790.320312 172.921875 791.765625 175 792.335938 C 175.714844 792.53125 176.292969 793.1875 177 793.476562 C 180.640625 794.964844 182.195312 797.582031 181.554688 801.503906 C 181.058594 804.546875 181.996094 806.867188 185.078125 808 C 185.179688 808.039062 185.304688 808.097656 185.351562 808.179688 C 187.699219 812.625 192.539062 813.46875 196.371094 815.746094 C 200.4375 818.164062 204.507812 820.609375 208.769531 822.652344 C 212.660156 824.515625 214.371094 827.191406 214.074219 831.511719 C 213.816406 835.246094 214.335938 839.042969 213.941406 842.746094 C 213.300781 848.730469 214.867188 854.039062 217.980469 858.988281 C 219.046875 860.679688 219.265625 862.410156 219.257812 864.316406 C 219.1875 877.65625 219.167969 890.996094 219.128906 904.335938 C 219.121094 907.09375 220.511719 908.464844 223.332031 908.445312 C 223.441406 908.445312 223.554688 908.453125 223.660156 908.425781 C 230.472656 906.757812 234.667969 910.167969 237.992188 915.59375 C 239.566406 918.160156 243.644531 917.886719 244.722656 915.109375 C 246.613281 910.230469 249.761719 908.046875 255.117188 908.65625 C 258.242188 909.007812 262.578125 909.773438 264.339844 908.152344 C 266.375 906.28125 264.941406 901.9375 264.945312 898.671875 C 264.992188 838.035156 264.980469 777.402344 265.054688 716.765625 C 265.058594 714.066406 264.828125 712.625 261.480469 712.824219 C 258.25 713.015625 255.167969 709.390625 255.136719 705.578125 C 255.023438 691.136719 255.023438 676.695312 255.117188 662.253906 C 255.144531 658.609375 257.976562 655.722656 261.734375 655.839844 C 265.195312 655.949219 265.507812 654.507812 265.480469 651.609375 C 265.285156 629.230469 265.25 606.847656 265.171875 584.46875 C 265.152344 577.921875 267.074219 575.980469 273.597656 575.992188 C 278.230469 576.003906 282.863281 576.007812 287.496094 576.085938 C 292.707031 576.171875 295.683594 578.695312 296.574219 583.835938 C 297.667969 590.128906 298.742188 596.425781 299.65625 602.742188 C 299.90625 604.464844 300.328125 605.675781 302.1875 605.996094 C 302.613281 606.066406 303.003906 606.320312 303.421875 606.464844 C 309.515625 608.5625 312.988281 612.25 311.988281 619.261719 C 311.5625 622.257812 310.949219 626.222656 312.453125 628.214844 C 313.898438 630.128906 317.996094 628.496094 320.925781 628.550781 C 322.664062 628.582031 323.839844 629.316406 324.839844 630.597656 C 327.480469 633.988281 330.121094 637.378906 332.792969 640.742188 C 333.613281 641.769531 333.691406 642.921875 333.734375 644.152344 C 334.082031 653.621094 335.253906 663.054688 334.957031 672.554688 C 334.945312 672.996094 334.933594 673.453125 336.0625 673.902344 Z M 348.28125 893.046875 C 348.28125 892.324219 348.28125 891.898438 348.28125 891.46875 C 348.265625 855.753906 348.246094 820.039062 348.234375 784.324219 C 348.222656 761.503906 348.203125 738.6875 348.246094 715.871094 C 348.25 713.949219 348.121094 712.984375 345.664062 713 C 324.15625 713.121094 302.648438 713.128906 281.140625 713.015625 C 278.28125 713 277.5 713.667969 277.507812 716.640625 C 277.636719 765.472656 277.625 814.304688 277.636719 863.136719 C 277.640625 877.355469 277.609375 891.578125 277.660156 905.796875 C 277.664062 906.859375 276.789062 908.804688 279.164062 908.613281 C 282.652344 908.328125 285.871094 909.308594 289.179688 905.6875 C 294.867188 899.457031 301.21875 893.75 307.0625 887.597656 C 308.464844 886.117188 309.949219 885.488281 311.988281 885.519531 C 318.382812 885.609375 324.8125 885.933594 331.171875 885.425781 C 338.1875 884.867188 343.996094 886.066406 347.59375 892.738281 C 347.628906 892.808594 347.765625 892.824219 348.28125 893.046875 Z M 382.476562 931.035156 C 390.390625 937.546875 395.980469 945.011719 395.804688 954.570312 C 395.617188 964.613281 398.542969 972.71875 405.507812 979.640625 C 405.972656 980.101562 406.308594 980.699219 406.757812 981.175781 C 407.785156 982.273438 408.265625 983.582031 408.390625 985.050781 C 408.648438 988.125 409.160156 991.207031 409.105469 994.273438 C 409.046875 997.519531 409.992188 999.898438 412.75 1001.777344 C 418.117188 1005.429688 421.132812 1010.28125 419.96875 1017.113281 C 419.714844 1018.601562 420.121094 1020.195312 420.050781 1021.730469 C 419.96875 1023.460938 420.632812 1023.9375 422.359375 1023.929688 C 438.023438 1023.878906 453.6875 1023.882812 469.351562 1023.988281 C 471.589844 1024 471.539062 1023.089844 471.226562 1021.421875 C 469.117188 1010.0625 466.875 998.722656 465.046875 987.316406 C 463.308594 976.472656 460.316406 965.824219 460.609375 954.660156 C 460.929688 942.320312 460.761719 929.96875 460.777344 917.621094 C 460.785156 910.429688 460.761719 910.503906 453.527344 910.496094 C 451.582031 910.496094 450.617188 910.863281 450.953125 913.003906 C 451.089844 913.859375 450.957031 914.761719 450.933594 915.644531 C 450.816406 920.519531 449.164062 922.160156 444.300781 922.15625 C 438.457031 922.152344 432.609375 922.117188 426.765625 922.078125 C 422.339844 922.050781 420.28125 920.074219 420.226562 915.683594 C 420.183594 912.597656 420.179688 909.507812 420.34375 906.425781 C 420.4375 904.597656 419.953125 903.90625 418 903.972656 C 413.8125 904.117188 409.617188 904.039062 405.425781 904.011719 C 404.496094 904.003906 403.789062 904.21875 403.066406 904.890625 C 399.652344 908.0625 396.546875 911.339844 395.847656 916.292969 C 395.527344 918.554688 394.691406 920.765625 393.921875 922.941406 C 392.929688 925.730469 391.230469 927.597656 387.882812 927.46875 C 383.917969 927.316406 379.9375 927.523438 375.972656 927.347656 C 373.507812 927.238281 372.566406 927.757812 372.765625 930.554688 C 373.601562 942.316406 374.148438 954.101562 374.835938 965.875 C 375.921875 984.578125 377.050781 1003.28125 378.105469 1021.988281 C 378.183594 1023.347656 378.460938 1023.921875 379.964844 1023.914062 C 388.566406 1023.851562 397.171875 1023.855469 405.773438 1023.914062 C 407.261719 1023.925781 407.363281 1023.359375 407.550781 1022.023438 C 408.347656 1016.261719 406.761719 1011.714844 401.554688 1008.703125 C 400.894531 1008.320312 400.390625 1007.675781 399.742188 1007.269531 C 397.882812 1006.09375 397.332031 1004.46875 397.273438 1002.269531 C 396.871094 987.128906 396.824219 987.132812 386.722656 975.675781 C 386.285156 975.179688 385.769531 974.738281 385.40625 974.195312 C 385.054688 973.664062 384.679688 973.054688 384.617188 972.445312 C 383.742188 964.386719 383.941406 956.277344 382.953125 948.183594 C 382.304688 942.867188 383.527344 937.238281 382.476562 931.035156 Z M 296.554688 968.851562 C 296.527344 968.847656 296.5 968.847656 296.472656 968.847656 C 295.605469 986.226562 294.78125 1003.609375 293.824219 1020.988281 C 293.699219 1023.21875 294.082031 1023.949219 296.511719 1023.9375 C 318.558594 1023.84375 340.605469 1023.855469 362.652344 1023.957031 C 365.035156 1023.96875 365.515625 1023.335938 365.382812 1021.03125 C 363.605469 990.132812 361.914062 959.230469 360.269531 928.328125 C 360.183594 926.683594 359.761719 925.992188 358.085938 925.800781 C 356.753906 925.648438 355.257812 925.617188 354.507812 923.964844 C 350.238281 914.507812 343.1875 907.039062 336.683594 899.179688 C 335.890625 898.222656 335.097656 897.863281 333.882812 897.878906 C 328.039062 897.957031 322.199219 897.984375 316.355469 897.957031 C 315.058594 897.953125 314.152344 898.304688 313.222656 899.296875 C 309.007812 903.800781 304.714844 908.234375 300.363281 912.605469 C 299.265625 913.707031 298.820312 914.816406 298.761719 916.355469 C 298.066406 933.855469 297.300781 951.351562 296.554688 968.851562 Z M 503.738281 875.269531 C 503.757812 875.269531 503.777344 875.269531 503.800781 875.269531 C 503.800781 858.632812 503.792969 841.996094 503.804688 825.355469 C 503.8125 814.890625 503.78125 804.421875 503.925781 793.953125 C 503.953125 791.871094 503.324219 791.5625 501.371094 791.394531 C 496.277344 790.953125 491.890625 791.921875 488.527344 796.0625 C 487.910156 796.824219 487.074219 797.414062 486.28125 798.007812 C 485.371094 798.691406 484.746094 799.390625 484.707031 800.679688 C 484.550781 805.957031 482.320312 810.96875 482.425781 816.257812 C 482.582031 824.332031 478.851562 829.671875 471.582031 832.800781 C 470.882812 833.101562 470.300781 833.667969 469.613281 834.007812 C 468.550781 834.535156 467.796875 835.238281 467.816406 836.503906 C 467.863281 839.804688 465.722656 841.710938 463.316406 843.339844 C 461.773438 844.382812 461.34375 845.625 461.359375 847.453125 C 461.46875 863.539062 461.539062 879.625 461.4375 895.714844 C 461.421875 898.289062 462.179688 898.777344 464.578125 898.722656 C 471.332031 898.570312 473.226562 900.558594 473.234375 907.332031 C 473.246094 923.96875 473.304688 940.609375 473.164062 957.246094 C 473.144531 959.65625 474.015625 959.820312 475.949219 959.792969 C 484.109375 959.6875 492.269531 959.582031 500.421875 959.765625 C 503.269531 959.832031 503.804688 958.898438 503.796875 956.257812 C 503.699219 929.261719 503.738281 902.265625 503.738281 875.269531 Z M 223.296875 1011.421875 C 223.625 1011.425781 223.953125 1011.429688 224.28125 1011.433594 C 224.90625 1007.734375 224.265625 1003.363281 228.941406 1001.738281 C 235.933594 999.308594 238.792969 994.371094 238.582031 987.082031 C 238.335938 978.722656 241.753906 972.296875 249.542969 968.550781 C 250.328125 968.171875 250.949219 967.472656 251.710938 967.042969 C 252.6875 966.488281 252.972656 965.707031 253.066406 964.621094 C 253.40625 960.785156 254.1875 956.957031 254.183594 953.125 C 254.179688 949.378906 256.199219 948.179688 259.289062 947.625 C 264.707031 946.664062 270.136719 945.753906 275.527344 944.660156 C 277.277344 944.308594 277.503906 944.878906 277.613281 946.421875 C 278.066406 952.855469 278.121094 952.855469 271.984375 955.238281 C 270.652344 955.753906 269.339844 956.386719 267.957031 956.683594 C 266.496094 956.996094 266.070312 957.6875 266.023438 959.140625 C 265.894531 962.992188 265.53125 966.835938 265.34375 970.6875 C 265.257812 972.476562 264.578125 973.738281 263.011719 974.71875 C 259.746094 976.761719 256.609375 979.003906 253.359375 981.074219 C 252.144531 981.847656 251.613281 982.746094 251.453125 984.222656 C 250.832031 989.804688 249.839844 995.34375 249.351562 1000.933594 C 249.085938 1003.980469 247.808594 1006.003906 245.03125 1006.84375 C 237.871094 1009.011719 235.394531 1013.976562 235.585938 1021.097656 C 235.648438 1023.363281 235.839844 1023.949219 238.195312 1023.929688 C 251.535156 1023.8125 264.878906 1023.820312 278.21875 1023.960938 C 280.609375 1023.984375 281.085938 1023.128906 281.171875 1021.019531 C 281.511719 1012.652344 282.015625 1004.292969 282.4375 995.933594 C 283.652344 971.835938 284.832031 947.738281 286.113281 923.644531 C 286.234375 921.304688 285.582031 920.691406 283.253906 920.765625 C 275.320312 921.019531 267.378906 921.15625 259.445312 921.082031 C 256.832031 921.0625 255.183594 921.535156 254.28125 924.253906 C 253.113281 927.773438 250.617188 929.480469 246.667969 929.03125 C 244.054688 928.730469 241.300781 928.550781 238.75 929.039062 C 233.179688 930.109375 230.121094 927.234375 227.730469 922.898438 C 227.625 922.707031 227.421875 922.550781 227.371094 922.347656 C 226.90625 920.480469 225.480469 920.378906 224.007812 920.621094 C 222.007812 920.945312 223.039062 922.574219 223.039062 923.535156 C 223.074219 943.371094 223.210938 963.203125 223.289062 983.039062 C 223.328125 992.5 223.296875 1001.960938 223.296875 1011.421875 Z M 360.890625 829.328125 C 360.890625 855.773438 360.890625 882.214844 360.890625 908.65625 C 360.886719 912.417969 363.117188 914.757812 366.726562 914.808594 C 371.246094 914.871094 375.773438 914.835938 380.28125 915.109375 C 382.34375 915.234375 383.332031 914.695312 383.640625 912.625 C 384.625 905.96875 388.164062 900.894531 393.535156 896.980469 C 394.152344 896.527344 394.738281 895.988281 395.203125 895.378906 C 397.0625 892.933594 399.378906 891.589844 402.566406 891.886719 C 403.4375 891.96875 404.855469 892.183594 404.734375 890.632812 C 404.296875 885.066406 406.054688 879.097656 401.796875 874.210938 C 400.265625 872.457031 399.914062 870.425781 399.988281 868.101562 C 400.261719 859.515625 400.324219 850.917969 400.535156 842.328125 C 400.570312 840.929688 400.234375 839.886719 399.3125 838.78125 C 393.953125 832.351562 388.714844 825.820312 383.378906 819.375 C 382.410156 818.203125 381.9375 817.050781 381.964844 815.511719 C 382.089844 809.011719 381.699219 802.476562 382.253906 796.019531 C 382.941406 787.976562 381.503906 780.867188 376.070312 774.671875 C 374.34375 772.703125 373.160156 770.273438 371.675781 768.089844 C 370.539062 766.417969 369.890625 764.605469 369.546875 762.613281 C 368.832031 758.5 367.742188 754.433594 367.269531 750.296875 C 366.855469 746.660156 364.332031 747.386719 362.222656 747.417969 C 359.671875 747.457031 360.953125 749.589844 360.949219 750.664062 C 360.867188 776.886719 360.886719 803.109375 360.890625 829.328125 Z M 143.777344 895.855469 C 143.785156 895.855469 143.792969 895.855469 143.800781 895.855469 C 143.800781 906.21875 143.761719 916.578125 143.824219 926.9375 C 143.84375 930.097656 142.457031 934.300781 144.390625 936.109375 C 146.046875 937.660156 150.230469 936.554688 153.296875 936.554688 C 159.230469 936.5625 159.132812 936.542969 159.175781 942.472656 C 159.195312 944.476562 158.492188 944.8125 156.71875 944.753906 C 153.085938 944.632812 149.441406 944.746094 145.804688 944.738281 C 144.605469 944.738281 143.703125 944.820312 143.757812 946.472656 C 143.871094 949.886719 143.796875 953.304688 143.777344 956.722656 C 143.769531 957.660156 143.777344 958.488281 145.078125 958.484375 C 151.804688 958.457031 158.53125 958.449219 165.257812 958.460938 C 166.316406 958.460938 166.519531 957.910156 166.546875 957.007812 C 166.574219 956.0625 166.308594 955.558594 165.269531 955.585938 C 163.394531 955.640625 161.519531 955.636719 159.644531 955.652344 C 153.746094 955.695312 153.824219 955.699219 154.019531 949.765625 C 154.074219 948.03125 154.585938 947.453125 156.292969 947.523438 C 158.605469 947.621094 160.925781 947.410156 163.238281 947.511719 C 165.476562 947.605469 166.492188 947.152344 166.453125 944.457031 C 166.289062 933.769531 166.601562 923.074219 166.378906 912.386719 C 166.300781 908.628906 167.769531 906.316406 170.828125 904.679688 C 174.3125 902.808594 177.777344 900.882812 181.367188 899.226562 C 183.175781 898.390625 183.625 897.289062 183.597656 895.425781 C 183.492188 887.488281 183.515625 879.554688 183.542969 871.617188 C 183.546875 870.25 183.238281 869.105469 182.492188 867.921875 C 180.90625 865.414062 179.644531 862.699219 178.011719 860.226562 C 176.679688 858.207031 176.203125 856.164062 176.234375 853.746094 C 176.375 842.503906 176.304688 831.261719 176.402344 820.019531 C 176.417969 818.519531 176.09375 817.488281 174.722656 816.832031 C 170.5625 814.832031 168.726562 811.574219 169.425781 806.964844 C 169.789062 804.554688 168.863281 802.917969 166.480469 802.285156 C 162.042969 801.101562 160.730469 797.910156 160.332031 793.699219 C 159.636719 786.414062 155.695312 783.082031 148.378906 783.085938 C 147.828125 783.089844 147.261719 783.167969 146.726562 783.074219 C 144.15625 782.609375 143.703125 783.746094 143.71875 786.152344 C 143.832031 803.679688 143.773438 821.203125 143.78125 838.726562 C 143.785156 841.585938 142.75 845.351562 144.167969 847.066406 C 145.828125 849.082031 149.734375 847.640625 152.660156 847.699219 C 158.078125 847.808594 157.996094 847.722656 157.984375 853.199219 C 157.980469 854.980469 157.40625 855.492188 155.714844 855.449219 C 152.628906 855.371094 149.535156 855.585938 146.453125 855.464844 C 144.390625 855.386719 143.691406 855.910156 143.714844 858.164062 C 143.84375 870.726562 143.777344 883.292969 143.777344 895.855469 Z M 211.222656 970.1875 C 210.992188 970.1875 210.765625 970.1875 210.539062 970.1875 C 210.539062 956.300781 210.535156 942.414062 210.539062 928.523438 C 210.542969 924.777344 211.625 920.585938 210.285156 917.410156 C 208.964844 914.289062 205.199219 912.199219 202.507812 909.65625 C 202.1875 909.351562 201.785156 909.101562 201.554688 908.742188 C 200.476562 907.046875 198.964844 907.242188 197.222656 907.367188 C 191.414062 907.792969 186.632812 910.75 181.597656 913.171875 C 179.636719 914.117188 178.945312 915.203125 178.976562 917.421875 C 179.175781 931.199219 179.207031 944.976562 179.261719 958.753906 C 179.269531 960.066406 179.1875 961.398438 178.972656 962.695312 C 175.792969 982.140625 172.679688 1001.59375 169.289062 1021.003906 C 168.769531 1023.980469 169.808594 1023.949219 172 1023.9375 C 184.023438 1023.871094 196.042969 1023.832031 208.0625 1023.96875 C 210.601562 1023.996094 211.3125 1023.390625 211.289062 1020.765625 C 211.15625 1003.90625 211.222656 987.046875 211.222656 970.1875 Z M 312.425781 700.820312 C 312.425781 700.828125 312.425781 700.839844 312.425781 700.847656 C 319.484375 700.847656 326.542969 700.851562 333.601562 700.847656 C 340.769531 700.84375 347.941406 700.75 355.105469 700.867188 C 357.121094 700.898438 357.742188 700.378906 357.714844 698.316406 C 357.605469 690.273438 357.6875 682.226562 357.6875 674.179688 C 357.691406 667.519531 357.6875 667.605469 350.980469 667.886719 C 349.089844 667.964844 348.851562 668.703125 348.917969 670.277344 C 349.035156 673.136719 349.007812 676.007812 348.992188 678.871094 C 348.964844 683.496094 346.996094 685.46875 342.3125 685.523438 C 336.796875 685.585938 331.285156 685.597656 325.769531 685.617188 C 321.339844 685.632812 319.039062 683.546875 318.78125 679.074219 C 318.609375 676.105469 318.601562 673.121094 318.667969 670.148438 C 318.707031 668.566406 318.460938 667.71875 316.558594 667.855469 C 314.035156 668.039062 311.488281 667.992188 308.953125 667.910156 C 307.402344 667.859375 306.839844 668.28125 306.949219 669.96875 C 307.140625 672.929688 307.105469 675.917969 307.042969 678.890625 C 306.953125 683.183594 304.820312 685.34375 300.496094 685.449219 C 296.417969 685.546875 292.316406 685.261719 288.257812 685.546875 C 277.972656 686.277344 276.578125 683.300781 276.851562 674.359375 C 277.058594 667.675781 276.890625 667.757812 270.0625 667.878906 C 268.054688 667.914062 267.480469 668.40625 267.511719 670.480469 C 267.65625 679.515625 267.683594 688.554688 267.554688 697.589844 C 267.519531 700.070312 268 700.925781 270.738281 700.894531 C 284.632812 700.730469 298.53125 700.820312 312.425781 700.820312 Z M 473.933594 964.972656 C 473.871094 965.324219 473.816406 965.441406 473.835938 965.542969 C 477.238281 984.472656 480.667969 1003.398438 484 1022.339844 C 484.28125 1023.925781 485.082031 1023.949219 486.253906 1023.949219 C 496.054688 1023.929688 505.859375 1023.890625 515.664062 1023.953125 C 517.488281 1023.96875 517.890625 1023.550781 517.4375 1021.714844 C 515.890625 1015.421875 514.550781 1009.082031 513.082031 1002.769531 C 510.34375 991 507.582031 979.238281 504.804688 967.480469 C 504.519531 966.28125 504.605469 964.910156 502.5625 964.929688 C 493.003906 965.03125 483.445312 964.972656 473.933594 964.972656 Z M 277.628906 622.09375 C 277.660156 622.09375 277.691406 622.09375 277.722656 622.09375 C 277.722656 632.117188 277.835938 642.140625 277.652344 652.160156 C 277.597656 655.128906 278.222656 656.105469 281.394531 655.867188 C 286.800781 655.464844 289.324219 658.097656 289.394531 663.476562 C 289.425781 665.898438 289.535156 668.332031 289.382812 670.746094 C 289.261719 672.667969 289.667969 673.429688 291.84375 673.390625 C 294 673.351562 294.753906 672.769531 294.625 670.589844 C 294.46875 667.960938 294.585938 665.304688 294.660156 662.664062 C 294.777344 658.28125 297.054688 655.933594 301.410156 655.847656 C 306.257812 655.753906 311.105469 655.8125 315.957031 655.800781 C 321.699219 655.785156 321.699219 655.785156 321.605469 649.90625 C 321.496094 643.1875 318.78125 640.632812 312.082031 640.902344 C 309.988281 640.988281 307.890625 641.082031 305.800781 641.015625 C 302.050781 640.890625 299.667969 638.5 299.542969 634.761719 C 299.453125 632.121094 299.09375 629.40625 299.542969 626.847656 C 300.671875 620.367188 298.195312 616.597656 291.90625 614.878906 C 289.207031 614.144531 288.015625 611.96875 287.839844 609.105469 C 287.460938 602.945312 286.066406 596.921875 285.125 590.839844 C 284.429688 586.363281 281.34375 588.816406 279.34375 588.445312 C 276.832031 587.980469 277.664062 590.160156 277.65625 591.363281 C 277.605469 601.605469 277.628906 611.847656 277.628906 622.09375 Z M 166.21875 963.632812 C 158.894531 963.632812 151.851562 963.667969 144.808594 963.609375 C 143.152344 963.59375 143.222656 964.699219 142.976562 965.765625 C 138.679688 984.414062 134.378906 1003.066406 130.027344 1021.707031 C 129.625 1023.429688 129.882812 1024 131.808594 1023.96875 C 139.195312 1023.851562 146.585938 1023.839844 153.972656 1023.945312 C 155.84375 1023.972656 156.308594 1023.3125 156.550781 1021.585938 C 157.355469 1015.808594 158.335938 1010.058594 159.304688 1004.304688 C 161.574219 990.859375 163.875 977.421875 166.21875 963.632812 Z M 206.75 897.269531 C 206.75 886.5625 206.714844 876.785156 206.78125 867.007812 C 206.792969 865.300781 206.550781 863.769531 205.636719 862.324219 C 202.105469 856.753906 200.667969 850.746094 201.511719 844.136719 C 201.886719 841.203125 201.726562 838.199219 201.792969 835.226562 C 201.8125 834.375 202.0625 833.445312 201.050781 832.898438 C 197.054688 830.738281 193.0625 828.566406 188.867188 826.289062 C 188.867188 832.984375 189.25 839.277344 188.757812 845.503906 C 188.265625 851.777344 189.6875 857.160156 193.652344 861.972656 C 195.550781 864.277344 196.15625 866.976562 196.136719 869.964844 C 196.089844 877.339844 196.28125 884.722656 196.246094 892.101562 C 196.234375 894.160156 196.609375 895.316406 198.953125 894.597656 C 201.730469 893.746094 204.144531 894.351562 206.75 897.269531 Z M 206.75 897.269531 " fill-opacity="1" fill-rule="evenodd"/></g><path fill="#060606" d="M 306.445312 751.234375 C 306.449219 746.835938 306.347656 742.433594 306.472656 738.039062 C 306.6875 730.320312 311.890625 724.789062 318.757812 724.796875 C 325.285156 724.808594 330.449219 730.601562 330.511719 738.148438 C 330.582031 747.054688 330.496094 755.964844 330.578125 764.871094 C 330.597656 766.734375 330.3125 767.640625 328.101562 767.601562 C 321.722656 767.492188 315.335938 767.546875 308.957031 767.71875 C 306.859375 767.773438 306.347656 767.070312 306.402344 765.089844 C 306.53125 760.476562 306.445312 755.855469 306.445312 751.234375 Z M 322.625 747.9375 C 322.601562 747.9375 322.574219 747.9375 322.546875 747.9375 C 322.546875 744.414062 322.628906 740.886719 322.519531 737.367188 C 322.445312 734.957031 321.332031 732.941406 318.773438 732.679688 C 316.140625 732.410156 314.894531 734.414062 314.195312 736.632812 C 313.902344 737.550781 313.910156 738.582031 313.90625 739.566406 C 313.886719 744.1875 313.90625 748.8125 313.914062 753.4375 C 313.925781 760.09375 313.925781 760.003906 320.546875 759.855469 C 322.433594 759.8125 322.695312 759.085938 322.652344 757.515625 C 322.566406 754.324219 322.625 751.128906 322.625 747.9375 Z M 322.625 747.9375 " fill-opacity="1" fill-rule="evenodd"/><path fill="#030303" d="M 339.71875 816.027344 C 339.71875 820.425781 339.667969 824.828125 339.75 829.226562 C 339.777344 830.761719 339.339844 831.246094 337.730469 831.328125 C 329.003906 831.777344 329.003906 831.828125 328.996094 823.09375 C 328.988281 816.492188 328.949219 809.894531 328.988281 803.292969 C 329.007812 799.703125 331.265625 797.464844 334.648438 797.523438 C 337.816406 797.574219 339.597656 799.542969 339.632812 803.15625 C 339.671875 807.445312 339.640625 811.734375 339.640625 816.027344 C 339.667969 816.027344 339.695312 816.027344 339.71875 816.027344 Z M 339.71875 816.027344 " fill-opacity="1" fill-rule="evenodd"/><path fill="#030303" d="M 284.527344 849.175781 C 284.527344 845.769531 284.570312 842.359375 284.507812 838.957031 C 284.480469 837.625 284.777344 836.808594 286.300781 837 C 286.40625 837.015625 286.519531 837.003906 286.628906 837 C 293.96875 836.589844 293.972656 836.589844 293.988281 843.996094 C 294 848.941406 293.875 853.890625 294.058594 858.832031 C 294.140625 860.945312 293.402344 861.351562 291.484375 861.421875 C 284.554688 861.679688 284.558594 861.75 284.566406 854.78125 C 284.566406 852.914062 284.566406 851.046875 284.566406 849.175781 C 284.554688 849.175781 284.542969 849.175781 284.527344 849.175781 Z M 284.527344 849.175781 " fill-opacity="1" fill-rule="evenodd"/><path fill="#060606" d="M 435.261719 992.96875 C 433.496094 992.96875 431.699219 992.742188 429.980469 993.019531 C 427.160156 993.472656 426.535156 992.238281 426.863281 989.78125 C 427.007812 988.699219 426.949219 987.578125 426.882812 986.484375 C 426.808594 985.164062 427.414062 984.804688 428.65625 984.816406 C 433.28125 984.863281 437.90625 984.855469 442.535156 984.800781 C 443.839844 984.789062 444.144531 985.328125 444.257812 986.554688 C 444.839844 992.882812 444.878906 992.878906 438.5625 992.914062 C 437.460938 992.917969 436.359375 992.914062 435.257812 992.914062 C 435.261719 992.933594 435.261719 992.949219 435.261719 992.96875 Z M 435.261719 992.96875 " fill-opacity="1" fill-rule="evenodd"/><path fill="#060606" d="M 446.644531 1003.96875 C 445.4375 1003.96875 444.226562 1003.964844 443.015625 1003.972656 C 438.230469 1003.996094 438.355469 1003.996094 438.226562 999.171875 C 438.160156 996.828125 438.613281 995.828125 441.242188 995.992188 C 445.1875 996.234375 449.15625 996.117188 453.113281 996.019531 C 454.832031 995.976562 455.636719 996.28125 455.671875 998.304688 C 455.769531 1003.945312 455.875 1003.941406 450.277344 1003.957031 C 449.066406 1003.957031 447.855469 1003.957031 446.648438 1003.957031 C 446.644531 1003.960938 446.644531 1003.964844 446.644531 1003.96875 Z M 446.644531 1003.96875 " fill-opacity="1" fill-rule="evenodd"/><path fill="#060606" d="M 335.152344 962.722656 C 333.832031 962.722656 332.515625 962.707031 331.199219 962.726562 C 325.863281 962.792969 326.734375 963.480469 326.496094 958.039062 C 326.382812 955.390625 327.261719 954.675781 329.792969 954.789062 C 333.734375 954.96875 337.695312 954.847656 341.644531 954.757812 C 343.199219 954.726562 343.972656 954.976562 344.046875 956.859375 C 344.269531 962.667969 344.367188 962.664062 338.445312 962.679688 C 337.34375 962.683594 336.25 962.679688 335.148438 962.679688 C 335.152344 962.695312 335.152344 962.707031 335.152344 962.722656 Z M 335.152344 962.722656 " fill-opacity="1" fill-rule="evenodd"/><path fill="#060606" d="M 311.964844 1000.605469 C 309.992188 1000.605469 307.996094 1000.433594 306.046875 1000.648438 C 303.609375 1000.921875 302.9375 999.90625 303.246094 997.699219 C 303.367188 996.839844 303.355469 995.9375 303.257812 995.074219 C 303.054688 993.265625 303.65625 992.566406 305.601562 992.628906 C 309.984375 992.765625 314.378906 992.714844 318.765625 992.636719 C 320.328125 992.609375 321.082031 992.859375 321.148438 994.734375 C 321.347656 1000.570312 321.445312 1000.566406 315.589844 1000.570312 C 314.382812 1000.570312 313.175781 1000.570312 311.964844 1000.570312 C 311.964844 1000.582031 311.964844 1000.59375 311.964844 1000.605469 Z M 311.964844 1000.605469 " fill-opacity="1" fill-rule="evenodd"/><path fill="#030303" d="M 344.296875 980.15625 C 343.308594 980.15625 342.324219 980.152344 341.335938 980.15625 C 335.25 980.183594 335.3125 980.183594 335.40625 974.148438 C 335.429688 972.605469 335.746094 972.039062 337.394531 972.078125 C 341.777344 972.1875 346.167969 972.203125 350.550781 972.070312 C 352.441406 972.015625 352.929688 972.625 352.949219 974.472656 C 353.003906 980.128906 353.089844 980.128906 347.585938 980.144531 C 346.488281 980.148438 345.394531 980.144531 344.296875 980.144531 C 344.296875 980.148438 344.296875 980.152344 344.296875 980.15625 Z M 344.296875 980.15625 " fill-opacity="1" fill-rule="evenodd"/><path fill="#030303" d="M 495.21875 888.84375 C 495.21875 892.703125 495.144531 896.5625 495.253906 900.417969 C 495.300781 902.121094 494.824219 902.734375 493.042969 902.6875 C 488.742188 902.574219 484.4375 902.566406 480.136719 902.707031 C 478.304688 902.769531 477.941406 902.082031 477.957031 900.433594 C 478.03125 892.496094 477.910156 884.558594 478.042969 876.621094 C 478.125 871.621094 482.015625 867.734375 486.519531 867.78125 C 490.898438 867.828125 494.921875 871.917969 495.203125 876.605469 C 495.214844 876.828125 495.21875 877.046875 495.21875 877.269531 C 495.222656 881.125 495.21875 884.984375 495.21875 888.84375 Z M 495.21875 888.84375 " fill-opacity="1" fill-rule="evenodd"/><path fill="#060606" d="M 384.84375 871.363281 C 380.082031 871.414062 380.324219 871.398438 380.011719 866.601562 C 379.800781 863.382812 381.03125 862.851562 383.855469 862.9375 C 389.546875 863.105469 389.398438 862.972656 389.707031 868.230469 C 389.863281 870.875 389.105469 871.867188 386.492188 871.378906 C 385.960938 871.28125 385.394531 871.363281 384.84375 871.363281 Z M 384.84375 871.363281 " fill-opacity="1" fill-rule="evenodd"/><path fill="#060606" d="M 169.449219 888.671875 C 169.449219 892.527344 169.371094 896.382812 169.480469 900.234375 C 169.53125 902.015625 169.128906 902.792969 167.132812 902.722656 C 162.839844 902.574219 158.535156 902.597656 154.242188 902.710938 C 152.4375 902.761719 151.722656 902.347656 151.753906 900.371094 C 151.871094 892.882812 151.753906 885.390625 151.851562 877.902344 C 151.925781 872.183594 155.878906 867.71875 160.617188 867.738281 C 165.621094 867.761719 169.433594 872.195312 169.484375 878.097656 C 169.515625 881.621094 169.488281 885.144531 169.488281 888.671875 C 169.476562 888.671875 169.460938 888.671875 169.449219 888.671875 Z M 169.449219 888.671875 " fill-opacity="1" fill-rule="evenodd"/><path fill="#060606" d="M 159.988281 844.589844 C 158.78125 844.589844 157.574219 844.585938 156.367188 844.59375 C 151.769531 844.621094 151.953125 844.617188 151.722656 839.953125 C 151.585938 837.1875 152.433594 836.394531 155.140625 836.558594 C 158.859375 836.785156 162.601562 836.667969 166.328125 836.550781 C 168.078125 836.496094 168.835938 836.851562 168.878906 838.851562 C 168.992188 844.585938 169.097656 844.582031 163.277344 844.574219 C 162.179688 844.574219 161.082031 844.574219 159.988281 844.574219 C 159.988281 844.582031 159.988281 844.585938 159.988281 844.589844 Z M 159.988281 844.589844 " fill-opacity="1" fill-rule="evenodd"/></svg>