<svg xmlns="http://www.w3.org/2000/svg" xmlns:xlink="http://www.w3.org/1999/xlink" width="2816" zoomAndPan="magnify" viewBox="0 0 2112 1151.999944" height="1536" preserveAspectRatio="xMidYMid meet" version="1.0"><defs><clipPath id="0a71ef3b1c"><path d="M 393 115.199219 L 1718.976562 115.199219 L 1718.976562 1036.949219 L 393 1036.949219 Z M 393 115.199219 " clip-rule="nonzero"/></clipPath></defs><g clip-path="url(#0a71ef3b1c)"><path fill="#000000" d="M 766.453125 118.183594 C 821.34375 104.722656 869.921875 140.457031 920.046875 156.132812 C 1166.359375 247.707031 1412.007812 341.167969 1657.824219 434.125 C 1679.257812 442.605469 1702.796875 454.292969 1710.441406 478 C 1724.011719 520.714844 1716.09375 566.363281 1717.644531 610.40625 C 1716.3125 649.296875 1721.464844 688.851562 1712.214844 727.132812 C 1707.839844 749.792969 1707.839844 775.773438 1690.945312 793.613281 C 1666.351562 819.210938 1636.664062 839.042969 1609.136719 861.203125 C 1537.6875 915.382812 1469.503906 973.941406 1396 1025.40625 C 1357.671875 1049.226562 1311.921875 1031.390625 1274.421875 1014.933594 C 1006.066406 911.230469 738.421875 805.527344 470.566406 700.492188 C 447.300781 691.292969 417.890625 682.261719 411.296875 654.621094 C 404.375 621.710938 392.574219 589.304688 393.460938 555.289062 C 393.683594 501.714844 392.90625 448.089844 394.183594 394.519531 C 395.289062 365.984375 414.730469 342 437.996094 327.207031 C 526.121094 269.371094 614.019531 211.257812 702.476562 153.972656 C 723.246094 141.234375 742.191406 123.949219 766.449219 118.1875 Z M 1341.332031 771.894531 C 1345.320312 772.007812 1353.242188 772.171875 1357.171875 772.285156 C 1357.949219 839.761719 1357.671875 907.234375 1356.894531 974.710938 C 1353.40625 974.933594 1346.484375 975.429688 1343.050781 975.652344 C 1338.675781 907.902344 1341 839.757812 1341.332031 771.894531 Z M 451.234375 388.699219 C 482.527344 395.234375 511.609375 409.140625 541.296875 420.664062 C 693.894531 479.277344 845.769531 539.496094 997.867188 599.382812 C 1104.15625 637.71875 1207.847656 683.203125 1314.304688 721.207031 C 1341.054688 732.453125 1370.800781 722.3125 1393.34375 706.582031 C 1468.671875 649.242188 1543.0625 590.6875 1618.058594 532.902344 C 1630.683594 522.988281 1644.035156 513.734375 1655.054688 501.933594 C 1660.816406 502.324219 1666.578125 502.824219 1672.394531 503.429688 C 1670.398438 518 1657.164062 525.203125 1646.972656 533.734375 C 1565.496094 596.222656 1484.847656 659.710938 1402.59375 721.148438 C 1371.910156 746.855469 1327.15625 747.355469 1291.484375 732.398438 C 1011.4375 622.484375 730.953125 513.792969 450.792969 404.046875 C 450.90625 400.222656 451.128906 392.578125 451.238281 388.699219 Z M 732.609375 167.820312 C 643.769531 229.425781 551.984375 286.59375 461.484375 345.597656 C 446.863281 355.402344 427.363281 364.265625 424.207031 383.710938 C 418.609375 424.152344 424.429688 465.09375 422.15625 505.757812 C 423.820312 542.816406 418.777344 580.875 429.523438 617.054688 C 434.179688 635.832031 437.613281 659.65625 459.488281 665.640625 C 560.515625 708.351562 663.320312 746.964844 765.34375 787.183594 C 945.96875 858.148438 1127.144531 927.734375 1307.269531 999.917969 C 1337.234375 1011.328125 1374.121094 1011.496094 1399.4375 989.449219 C 1480.691406 925.074219 1563.164062 862.304688 1644.03125 797.488281 C 1656.550781 786.078125 1674.382812 776.992188 1678.761719 759.484375 C 1684.132812 728.570312 1691.777344 697.714844 1689.894531 666.078125 C 1688.175781 610.84375 1691.996094 555.28125 1686.789062 500.214844 C 1685.019531 475.671875 1661.367188 462.988281 1640.265625 457.058594 C 1425.796875 375.953125 1210.835938 295.898438 996.316406 214.632812 C 931.730469 193.355469 870.304688 162.777344 804.503906 145.101562 C 778.359375 139.839844 753.710938 154.191406 732.609375 167.816406 Z M 732.609375 167.820312 " fill-opacity="1" fill-rule="evenodd"/></g></svg>