<svg xmlns="http://www.w3.org/2000/svg" xmlns:xlink="http://www.w3.org/1999/xlink" width="2816" zoomAndPan="magnify" viewBox="0 0 2112 1151.999944" height="1536" preserveAspectRatio="xMidYMid meet" version="1.0"><path fill="#000000" d="M 725.363281 956.5 C 794.484375 1013.410156 886.863281 1037.011719 972.75 1017.929688 C 1055.042969 999.660156 1122.222656 943.769531 1161.929688 860.550781 C 1161.9375 860.546875 1161.9375 860.53125 1161.945312 860.523438 C 1167.214844 849.355469 1168.820312 839.378906 1167.105469 830.71875 C 1168.960938 825.820312 1170.421875 821.253906 1171.636719 817.058594 C 1204.503906 818.664062 1237.378906 814.808594 1271.976562 803.054688 C 1276.28125 801.59375 1278.050781 796.445312 1275.542969 792.648438 L 1247.257812 749.65625 C 1243.132812 743.398438 1230.808594 748.292969 1183.015625 737.8125 C 1183 737.269531 1183.035156 736.679688 1183.011719 736.140625 C 1181.679688 611.835938 1099.03125 510.007812 986.292969 477.765625 C 989.339844 460.128906 993.644531 444.074219 999.148438 429.855469 C 1010.695312 432.109375 1009.496094 431.945312 1010.355469 431.945312 C 1013.300781 431.945312 1016.007812 430.054688 1016.949219 427.152344 C 1020.796875 415.367188 1024.882812 398.652344 1028.824219 382.488281 C 1032.152344 368.867188 1035.296875 356.121094 1038.09375 346.972656 C 1044.523438 335.796875 1052.738281 324.9375 1063.636719 313.722656 C 1142.894531 232.28125 1273.972656 231.101562 1356.441406 311.21875 C 1405.996094 359.53125 1426.554688 426 1417.984375 489.0625 C 1406.921875 516.703125 1405.148438 525.425781 1367.613281 562.375 C 1363.476562 566.449219 1359.347656 570.523438 1355.277344 574.71875 C 1331.652344 599.734375 1339.972656 619.03125 1351.132812 630.84375 C 1368.457031 648.957031 1388.136719 647.054688 1407.382812 630.519531 C 1460.53125 584.488281 1494.417969 527.363281 1505.371094 465.324219 C 1506.039062 461.542969 1503.515625 457.9375 1499.738281 457.269531 C 1495.957031 456.585938 1492.355469 459.125 1491.691406 462.90625 C 1481.292969 521.761719 1448.996094 576.089844 1398.3125 619.988281 C 1379.78125 635.929688 1369.132812 629.554688 1361.203125 621.257812 C 1333.46875 591.9375 1391.859375 574.878906 1422.09375 516.132812 C 1478.734375 406.078125 1436.003906 275.78125 1319.421875 219.003906 C 1180.753906 154.5 1035.453125 240.394531 1018.921875 364.648438 C 1013.984375 384.363281 1009.796875 402.589844 1005.578125 416.894531 C 968.101562 409.265625 926.222656 402.160156 900.121094 397.132812 C 908.121094 365.855469 925.636719 307.523438 925.1875 308.976562 C 932.621094 284.9375 932.652344 284.957031 966.738281 294.191406 C 981.355469 298.300781 991.65625 294.292969 999.246094 281.472656 C 1013.828125 255.554688 1034.714844 232.363281 1066.972656 206.296875 C 1151.792969 137.699219 1287.71875 132.859375 1376.421875 195.285156 C 1444.878906 243.578125 1489.152344 320.789062 1494.84375 401.816406 C 1495.113281 405.742188 1498.566406 408.554688 1502.261719 408.257812 C 1506.089844 407.992188 1508.972656 404.667969 1508.699219 400.839844 C 1502.722656 315.691406 1456.265625 234.597656 1384.421875 183.914062 C 1290.925781 118.109375 1147.632812 123.199219 1058.238281 195.480469 C 975.699219 262.191406 995.089844 287.675781 970.429688 280.792969 C 936.921875 271.707031 925.894531 269.785156 916.421875 292.230469 C 915.035156 290.988281 903.066406 269.261719 875.886719 273.640625 L 870.871094 254.570312 C 884.53125 247.664062 893.683594 232.96875 892.46875 216.382812 L 889.589844 176.683594 C 887.589844 149.046875 858.261719 131.554688 832.796875 144.0625 C 820.253906 139.257812 807.351562 137.269531 794.1875 137.90625 C 778.296875 114.667969 743.601562 115.113281 728.332031 138.878906 L 706.808594 172.355469 C 696.480469 188.414062 699.269531 209.210938 712.425781 222.0625 L 708.039062 232.109375 C 686.386719 227.851562 666.871094 241.558594 662.019531 261.398438 L 652.558594 300.050781 C 647.027344 322.683594 662.28125 347.015625 688.402344 348.714844 L 691.398438 363.480469 C 673.714844 372.183594 664.761719 392.828125 671.441406 411.898438 L 684.597656 449.457031 C 688.800781 461.449219 698.242188 470.109375 709.449219 473.855469 C 687.398438 489.832031 689.859375 498.542969 709.285156 531.402344 C 722.335938 553.253906 693.292969 541.085938 650.144531 638.726562 C 604.105469 744.023438 637.144531 883.605469 725.363281 956.5 Z M 1258.90625 792.648438 C 1231.664062 800.875 1203.574219 804.472656 1175.351562 803.441406 C 1177.5 794.660156 1180.289062 780.035156 1181.546875 767.535156 C 1199.839844 768.1875 1220.230469 766.75 1238.816406 762.113281 Z M 1158.125 813.941406 C 1149.410156 805.363281 1135.144531 799.300781 1123.09375 801.519531 C 1162.707031 642.574219 1029.40625 502.605469 879.710938 520.300781 C 879.707031 520.238281 879.664062 520.175781 879.660156 520.113281 C 879.601562 519.191406 879.398438 518.273438 878.957031 517.402344 C 873.644531 507.011719 868.132812 496.527344 862.421875 485.945312 C 1048.386719 448.925781 1214.578125 622.777344 1158.125 813.941406 Z M 1066.578125 871.554688 C 1064.335938 875.207031 1063.90625 875.671875 1047.34375 891.171875 C 1045.953125 891.996094 1041.488281 894.371094 1040.941406 894.644531 L 1040.949219 894.65625 C 1040.644531 894.808594 1040.351562 894.984375 1040.074219 895.171875 C 1037.75 895.960938 1024.742188 903.433594 1007.59375 908.585938 C 980.414062 916.351562 981.152344 914.417969 977.425781 915.722656 C 970.1875 915.722656 919.546875 926.738281 859.585938 897.949219 C 807.578125 874.105469 763.117188 822.59375 749.269531 758.921875 L 747.742188 751.894531 C 731.265625 663.035156 781.351562 602 782.027344 600.609375 C 783.417969 599.21875 791.804688 585.367188 811.554688 568.007812 C 821.378906 559.070312 816.992188 563.785156 858.953125 537.519531 C 862.347656 537.0625 881.785156 532.148438 912.929688 533.140625 C 907.121094 681.90625 1014.980469 757.289062 1016.691406 759.617188 C 1043.011719 780.6875 1075.253906 796.785156 1107.253906 806.347656 C 1106.847656 807.734375 1106.410156 809.101562 1105.972656 810.46875 C 1093.65625 821.226562 1083.695312 847.449219 1066.578125 871.554688 Z M 931.507812 595.394531 C 931.492188 595.324219 931.457031 595.210938 931.433594 595.125 C 926.261719 568.679688 926.714844 544.933594 926.644531 543.503906 C 939.570312 547.304688 953.574219 552.5 968.019531 559.453125 C 968.375 561.226562 969.855469 593.078125 984.96875 629.402344 C 987.964844 634.277344 1017.109375 718.425781 1114.910156 754.007812 C 1114.957031 754.03125 1116.074219 754.539062 1116.265625 754.617188 C 1115.453125 770.804688 1113.484375 782.1875 1110.941406 792.8125 C 1024.15625 766.683594 954.285156 698.875 931.507812 595.394531 Z M 1104.050781 708.808594 C 1040.609375 673.886719 1010.234375 621.222656 995.882812 574.773438 C 1036.277344 600.472656 1076.628906 641.996094 1104.050781 708.808594 Z M 932.601562 468.042969 C 938.015625 449.285156 943.71875 435.078125 950.949219 420.574219 C 955.476562 421.433594 964.671875 423.128906 985.191406 427.136719 C 979.910156 441.285156 975.734375 457.042969 972.714844 474.152344 C 958.398438 470.894531 943.070312 468.839844 932.601562 468.042969 Z M 882.199219 287.03125 C 900.464844 287.03125 906.046875 303.214844 910.875 308.265625 C 910.457031 309.6875 904.414062 329.339844 893.722656 367.515625 C 885.207031 363.0625 884.75 358.367188 861.683594 327.773438 C 853.535156 316.671875 855.792969 301.140625 866.503906 292.585938 L 869.472656 303.871094 C 870.292969 306.988281 873.101562 309.050781 876.183594 309.050781 C 880.746094 309.050781 884.0625 304.730469 882.90625 300.328125 L 879.519531 287.453125 C 880.425781 287.355469 881.277344 287.03125 882.199219 287.03125 Z M 875.734375 177.691406 L 878.609375 217.394531 C 879.242188 226.078125 875.601562 234.90625 867.179688 240.527344 L 865.734375 235.03125 C 864.753906 231.324219 860.957031 229.140625 857.246094 230.082031 C 853.539062 231.058594 851.320312 234.863281 852.296875 238.574219 L 853.9375 244.8125 C 839.410156 245.238281 828.402344 234.359375 827.441406 221.101562 L 824.566406 181.410156 C 823.9375 172.777344 827.710938 164.847656 833.9375 159.730469 C 838.21875 161.746094 842.480469 164.007812 846.714844 166.789062 C 849.886719 168.878906 854.214844 168.023438 856.335938 164.792969 C 858.4375 161.582031 857.550781 157.269531 854.339844 155.164062 C 853.738281 154.769531 853.121094 154.472656 852.515625 154.089844 C 865.613281 155.285156 874.859375 165.640625 875.734375 177.691406 Z M 819.785156 154.335938 C 813.488281 161.925781 809.941406 171.820312 810.710938 182.414062 L 813.585938 222.105469 C 815.148438 243.660156 834.15625 261.089844 857.519531 258.425781 L 862.765625 278.382812 C 841.785156 290.417969 836.882812 317.472656 850.453125 335.976562 L 873.78125 368.117188 C 877.90625 373.851562 883.53125 378.3125 890.007812 381.101562 C 888.039062 388.367188 886.1875 395.308594 884.867188 400.980469 C 883.964844 404.859375 886.472656 408.628906 890.289062 409.386719 C 905.539062 412.382812 921.316406 415.242188 936.960938 418.015625 C 932.234375 427.832031 926.652344 438.0625 918.464844 467.472656 C 897.074219 466.929688 875.992188 468.890625 855.609375 473.300781 C 844.347656 452.140625 833.792969 432.445312 824.417969 413.683594 C 822.652344 410.152344 818.289062 408.789062 814.828125 410.714844 C 802.886719 417.34375 781.566406 429.746094 762.070312 441.269531 C 762.90625 435.144531 762.464844 428.886719 760.363281 422.886719 L 747.207031 385.335938 C 741.007812 367.609375 723.371094 357.164062 704.753906 359.421875 L 702.285156 347.25 C 715.261719 343.339844 725.9375 332.957031 729.390625 318.863281 L 738.847656 280.207031 C 742.789062 264.089844 736.515625 246.675781 720.980469 237.1875 L 724.140625 229.949219 C 741.949219 237.804688 762.8125 231.503906 773.324219 215.167969 L 794.847656 181.695312 C 800.808594 172.421875 802.367188 161.570312 800.109375 151.578125 C 806.765625 151.671875 813.316406 152.570312 819.785156 154.335938 Z M 718.492188 179.875 L 740.015625 146.402344 C 747.828125 134.28125 764.761719 130.382812 777.273438 140.140625 C 774.148438 140.832031 771.015625 141.582031 767.867188 142.574219 C 764.210938 143.71875 762.167969 147.617188 763.316406 151.28125 C 764.457031 154.941406 768.335938 156.992188 772.019531 155.835938 C 776.734375 154.363281 781.363281 153.402344 785.953125 152.683594 C 788.128906 159.6875 787.425781 167.539062 783.164062 174.171875 L 761.640625 207.648438 C 754.722656 218.402344 741.074219 222.183594 729.726562 217.152344 L 731.410156 213.289062 C 732.949219 209.765625 731.34375 205.671875 727.828125 204.136719 C 724.28125 202.574219 720.214844 204.210938 718.683594 207.722656 L 718.648438 207.800781 C 712.808594 198.882812 713.210938 188.101562 718.492188 179.875 Z M 666.0625 303.355469 L 675.519531 264.695312 C 678.285156 253.371094 688.726562 244.386719 702.261719 245.355469 L 700.890625 248.492188 C 698.871094 253.109375 702.285156 258.226562 707.25 258.226562 C 713.46875 258.226562 714.296875 251.640625 715.402344 249.972656 C 723.742188 255.96875 727.898438 266.507812 725.34375 276.902344 L 715.886719 315.554688 C 713.757812 324.265625 707.398438 330.832031 699.519531 333.628906 L 696.554688 319.019531 C 695.792969 315.265625 692.171875 312.855469 688.359375 313.59375 C 684.597656 314.355469 682.171875 318.027344 682.9375 321.789062 L 685.511719 334.472656 C 670.789062 331.269531 662.757812 316.816406 666.0625 303.355469 Z M 697.707031 444.855469 L 684.550781 407.300781 C 680.730469 396.382812 684.84375 384.675781 694.335938 377.960938 L 695.375 383.066406 C 696.136719 386.808594 699.785156 389.257812 703.570312 388.492188 C 707.328125 387.730469 709.757812 384.058594 708.992188 380.296875 L 707.542969 373.144531 C 708.335938 373.070312 709.113281 372.742188 709.910156 372.742188 C 720.296875 372.742188 730.332031 379.179688 734.097656 389.929688 L 747.253906 427.492188 C 750.199219 435.898438 748.863281 445.679688 741.777344 453.347656 C 737.027344 456.199219 732.914062 458.691406 729.441406 460.820312 C 716.359375 464.8125 702.277344 457.890625 697.707031 444.855469 Z M 662.859375 644.320312 C 674.285156 618.484375 690.820312 585.4375 717.628906 558.949219 C 727.714844 548.460938 728.886719 537.117188 721.226562 524.300781 C 712.40625 509.371094 706.578125 499.507812 707.757812 494.742188 C 709.191406 488.941406 727.042969 478.601562 734.992188 473.710938 L 736.121094 473.320312 C 736.121094 473.320312 736.121094 473.320312 736.121094 473.3125 C 741.617188 471.390625 746.429688 468.261719 750.488281 464.324219 C 770.324219 452.441406 798.078125 436.148438 815.269531 426.410156 C 832.625 460.59375 850.023438 491.664062 863.71875 518.15625 C 807.382812 553.839844 784.902344 564.089844 766.519531 579.917969 C 684.4375 659.738281 664.816406 780.535156 732.371094 872.722656 C 781.785156 940.167969 866.46875 972.847656 938.28125 960.371094 C 986.410156 952.011719 1026.65625 930.46875 1055.59375 902.351562 C 1056.730469 901.5625 1072.117188 886.976562 1073.457031 885.429688 L 1073.464844 885.4375 C 1081.054688 877.058594 1094.273438 853.382812 1099.4375 844.109375 C 1107.027344 830.46875 1115.695312 812.527344 1132.152344 815.425781 C 1133.554688 815.675781 1135.121094 815.394531 1140.734375 818.347656 C 1156.101562 826.746094 1157.050781 838.324219 1149.386719 854.570312 C 1111.558594 933.839844 1047.761719 987.039062 969.746094 1004.359375 C 888.640625 1022.375 800.605469 1000.453125 734.207031 945.765625 C 650.523438 876.625 619.1875 744.203125 662.859375 644.320312 Z M 662.859375 644.320312 " fill-opacity="1" fill-rule="nonzero"/><path fill="#000000" d="M 1117.726562 865.8125 C 1123.84375 869.417969 1132.214844 866.550781 1136.417969 859.40625 C 1140.621094 852.261719 1139.066406 843.546875 1132.945312 839.945312 C 1126.828125 836.339844 1118.457031 839.207031 1114.253906 846.351562 C 1110.050781 853.496094 1111.605469 862.210938 1117.726562 865.8125 Z M 1117.726562 865.8125 " fill-opacity="1" fill-rule="nonzero"/><path fill="#000000" d="M 1381.105469 588.300781 C 1375.328125 594.242188 1374.777344 603.078125 1379.871094 608.03125 C 1384.964844 612.980469 1393.773438 612.175781 1399.550781 606.230469 C 1405.324219 600.289062 1405.875 591.453125 1400.78125 586.5 C 1395.691406 581.550781 1386.878906 582.355469 1381.105469 588.300781 Z M 1381.105469 588.300781 " fill-opacity="1" fill-rule="nonzero"/><path fill="#000000" d="M 758.574219 525.300781 C 762.722656 532.492188 771.914062 534.953125 779.101562 530.804688 L 779.691406 530.460938 C 786.878906 526.308594 789.339844 517.117188 785.191406 509.925781 L 772.855469 488.550781 C 768.707031 481.363281 759.515625 478.898438 752.328125 483.050781 L 751.742188 483.390625 C 744.554688 487.539062 742.089844 496.734375 746.238281 503.925781 Z M 758.574219 525.300781 " fill-opacity="1" fill-rule="nonzero"/><path fill="#000000" d="M 1001.671875 342.238281 C 1003.5625 334.15625 998.546875 326.066406 990.464844 324.171875 L 966.449219 318.542969 C 958.367188 316.652344 950.28125 321.667969 948.390625 329.753906 L 948.234375 330.414062 C 946.34375 338.5 951.359375 346.589844 959.4375 348.480469 L 983.457031 354.109375 C 991.539062 356.003906 999.621094 350.984375 1001.515625 342.902344 Z M 1001.671875 342.238281 " fill-opacity="1" fill-rule="nonzero"/><path fill="#000000" d="M 1169.136719 942.820312 C 1165.617188 944.347656 1164 948.441406 1165.535156 951.964844 L 1195.097656 1020.039062 C 1196.628906 1023.582031 1200.75 1025.164062 1204.238281 1023.644531 C 1207.757812 1022.117188 1209.375 1018.023438 1207.839844 1014.5 L 1178.277344 946.425781 C 1176.757812 942.910156 1172.679688 941.265625 1169.136719 942.820312 Z M 1169.136719 942.820312 " fill-opacity="1" fill-rule="nonzero"/><path fill="#000000" d="M 1253.722656 950.035156 C 1255.980469 946.929688 1255.289062 942.582031 1252.1875 940.328125 L 1206.753906 907.304688 C 1203.640625 905.035156 1199.296875 905.714844 1197.050781 908.839844 C 1194.792969 911.945312 1195.484375 916.292969 1198.585938 918.546875 L 1244.019531 951.570312 C 1247.152344 953.84375 1251.488281 953.125 1253.722656 950.035156 Z M 1253.722656 950.035156 " fill-opacity="1" fill-rule="nonzero"/><path fill="#000000" d="M 1326.011719 905.078125 C 1327.378906 901.492188 1325.578125 897.472656 1321.996094 896.101562 L 1233.007812 862.148438 C 1229.457031 860.777344 1225.414062 862.582031 1224.035156 866.164062 C 1222.671875 869.75 1224.472656 873.769531 1228.054688 875.140625 L 1317.042969 909.097656 C 1320.546875 910.4375 1324.621094 908.726562 1326.011719 905.078125 Z M 1326.011719 905.078125 " fill-opacity="1" fill-rule="nonzero"/><path fill="#000000" d="M 800.699219 476.0625 C 806.503906 477.484375 812.429688 473.636719 813.941406 467.46875 C 815.449219 461.296875 811.96875 455.144531 806.164062 453.722656 C 800.359375 452.304688 794.433594 456.152344 792.921875 462.320312 C 791.414062 468.488281 794.894531 474.644531 800.699219 476.0625 Z M 800.699219 476.0625 " fill-opacity="1" fill-rule="nonzero"/><path fill="#000000" d="M 935.875 365.90625 C 930.070312 364.488281 924.140625 368.335938 922.632812 374.503906 C 921.125 380.675781 924.605469 386.828125 930.410156 388.25 C 936.210938 389.667969 942.140625 385.820312 943.648438 379.652344 C 945.160156 373.480469 941.675781 367.328125 935.875 365.90625 Z M 935.875 365.90625 " fill-opacity="1" fill-rule="nonzero"/><path fill="#000000" d="M 821.832031 515.191406 C 827.632812 516.609375 833.5625 512.761719 835.070312 506.59375 C 836.582031 500.421875 833.097656 494.269531 827.296875 492.847656 C 821.492188 491.429688 815.5625 495.277344 814.054688 501.445312 C 812.546875 507.617188 816.027344 513.769531 821.832031 515.191406 Z M 821.832031 515.191406 " fill-opacity="1" fill-rule="nonzero"/><path fill="#000000" d="M 991.902344 377.800781 C 986.097656 376.378906 980.167969 380.226562 978.660156 386.394531 C 977.152344 392.566406 980.632812 398.71875 986.4375 400.140625 C 992.238281 401.558594 998.167969 397.710938 999.675781 391.542969 C 1001.1875 385.375 997.703125 379.21875 991.902344 377.800781 Z M 991.902344 377.800781 " fill-opacity="1" fill-rule="nonzero"/></svg>