<svg xmlns="http://www.w3.org/2000/svg" xmlns:xlink="http://www.w3.org/1999/xlink" width="2816" zoomAndPan="magnify" viewBox="0 0 2112 1151.999944" height="1536" preserveAspectRatio="xMidYMid meet" version="1.0"><defs><clipPath id="6a29c26aaf"><path d="M 622.128906 115.199219 L 1458.378906 115.199219 L 1458.378906 1036.949219 L 622.128906 1036.949219 Z M 622.128906 115.199219 " clip-rule="nonzero"/></clipPath></defs><g clip-path="url(#6a29c26aaf)"><path fill="#000000" d="M 1411.921875 115.882812 L 668.777344 115.882812 C 643.085938 115.882812 622.183594 136.789062 622.183594 162.484375 L 622.183594 905.835938 C 622.183594 931.535156 643.085938 952.441406 668.777344 952.441406 L 684.6875 952.441406 L 684.6875 1009.484375 C 684.6875 1024.359375 696.785156 1036.460938 711.65625 1036.460938 L 767.964844 1036.460938 C 780.613281 1036.460938 791.425781 1027.847656 794.25 1015.515625 L 808.714844 952.441406 L 1229.976562 952.441406 C 1236.359375 952.441406 1241.535156 947.265625 1241.535156 940.878906 C 1241.535156 934.496094 1236.359375 929.320312 1229.976562 929.320312 L 668.777344 929.320312 C 655.832031 929.320312 645.300781 918.785156 645.300781 905.835938 L 645.300781 162.484375 C 645.300781 149.539062 655.832031 139.003906 668.777344 139.003906 L 1411.921875 139.003906 C 1424.867188 139.003906 1435.398438 149.539062 1435.398438 162.484375 L 1435.398438 905.835938 C 1435.398438 918.785156 1424.867188 929.320312 1411.921875 929.320312 L 1281.191406 929.320312 C 1281.160156 929.320312 1281.125 929.324219 1281.09375 929.324219 C 1280.863281 929.328125 1280.628906 929.34375 1280.394531 929.359375 C 1280.226562 929.371094 1280.058594 929.378906 1279.894531 929.398438 C 1279.722656 929.414062 1279.554688 929.449219 1279.382812 929.472656 C 1279.15625 929.511719 1278.925781 929.546875 1278.703125 929.59375 C 1278.671875 929.601562 1278.640625 929.605469 1278.609375 929.613281 C 1278.507812 929.636719 1278.410156 929.671875 1278.3125 929.695312 C 1278.066406 929.757812 1277.820312 929.824219 1277.582031 929.902344 C 1277.4375 929.949219 1277.300781 930.003906 1277.160156 930.058594 C 1276.945312 930.136719 1276.738281 930.214844 1276.53125 930.304688 C 1276.367188 930.378906 1276.207031 930.460938 1276.046875 930.539062 C 1275.875 930.625 1275.707031 930.707031 1275.542969 930.800781 C 1275.363281 930.902344 1275.1875 931.011719 1275.015625 931.121094 C 1274.878906 931.207031 1274.738281 931.292969 1274.605469 931.386719 C 1274.425781 931.511719 1274.257812 931.640625 1274.085938 931.773438 C 1273.964844 931.871094 1273.839844 931.964844 1273.722656 932.066406 C 1273.5625 932.203125 1273.40625 932.347656 1273.25 932.496094 C 1273.132812 932.605469 1273.015625 932.714844 1272.902344 932.832031 C 1272.765625 932.976562 1272.632812 933.125 1272.503906 933.273438 C 1272.386719 933.40625 1272.269531 933.542969 1272.15625 933.679688 C 1272.046875 933.820312 1271.941406 933.96875 1271.832031 934.113281 C 1271.71875 934.273438 1271.605469 934.433594 1271.5 934.597656 C 1271.410156 934.734375 1271.324219 934.875 1271.242188 935.019531 C 1271.136719 935.199219 1271.03125 935.378906 1270.933594 935.566406 C 1270.859375 935.707031 1270.796875 935.851562 1270.730469 935.992188 C 1270.636719 936.1875 1270.550781 936.378906 1270.46875 936.578125 C 1270.40625 936.734375 1270.355469 936.890625 1270.296875 937.046875 C 1270.230469 937.238281 1270.164062 937.429688 1270.105469 937.625 C 1270.054688 937.804688 1270.007812 937.992188 1269.964844 938.179688 C 1269.921875 938.351562 1269.878906 938.523438 1269.847656 938.699219 C 1269.804688 938.921875 1269.773438 939.144531 1269.742188 939.367188 C 1269.722656 939.515625 1269.703125 939.664062 1269.6875 939.816406 C 1269.664062 940.066406 1269.65625 940.316406 1269.648438 940.570312 C 1269.648438 940.671875 1269.632812 940.777344 1269.632812 940.878906 C 1269.632812 940.914062 1269.636719 940.945312 1269.640625 940.980469 C 1269.640625 941.207031 1269.65625 941.4375 1269.671875 941.667969 C 1269.683594 941.839844 1269.691406 942.011719 1269.710938 942.183594 C 1269.730469 942.347656 1269.761719 942.515625 1269.789062 942.683594 C 1269.824219 942.914062 1269.859375 943.144531 1269.910156 943.371094 C 1269.917969 943.402344 1269.917969 943.433594 1269.925781 943.464844 L 1286.445312 1015.515625 C 1289.273438 1027.847656 1300.082031 1036.460938 1312.734375 1036.460938 L 1369.039062 1036.460938 C 1383.914062 1036.460938 1396.011719 1024.359375 1396.011719 1009.484375 L 1396.011719 952.441406 L 1411.921875 952.441406 C 1437.613281 952.441406 1458.515625 931.535156 1458.515625 905.835938 L 1458.515625 162.484375 C 1458.515625 136.789062 1437.613281 115.882812 1411.921875 115.882812 Z M 771.71875 1010.347656 C 771.316406 1012.109375 769.773438 1013.339844 767.964844 1013.339844 L 711.65625 1013.339844 C 709.53125 1013.339844 707.804688 1011.609375 707.804688 1009.484375 L 707.804688 952.441406 L 784.996094 952.441406 Z M 1372.894531 1009.484375 C 1372.894531 1011.609375 1371.164062 1013.339844 1369.039062 1013.339844 L 1312.734375 1013.339844 C 1310.925781 1013.339844 1309.382812 1012.109375 1308.976562 1010.347656 L 1295.703125 952.441406 L 1372.894531 952.441406 Z M 1372.894531 1009.484375 " fill-opacity="1" fill-rule="nonzero"/></g><path fill="#000000" d="M 738.683594 865.730469 L 1342.015625 865.730469 C 1358.453125 865.730469 1371.824219 852.355469 1371.824219 835.910156 L 1371.824219 232.410156 C 1371.824219 215.96875 1358.453125 202.59375 1342.015625 202.59375 L 738.683594 202.59375 C 722.246094 202.59375 708.871094 215.96875 708.871094 232.410156 L 708.871094 277.917969 C 708.871094 284.304688 714.046875 289.480469 720.429688 289.480469 C 726.8125 289.480469 731.988281 284.304688 731.988281 277.917969 L 731.988281 232.410156 C 731.988281 228.71875 734.992188 225.714844 738.683594 225.714844 L 1342.015625 225.714844 C 1345.707031 225.714844 1348.710938 228.71875 1348.710938 232.410156 L 1348.710938 835.910156 C 1348.710938 839.605469 1345.707031 842.605469 1342.015625 842.605469 L 738.683594 842.605469 C 734.992188 842.605469 731.988281 839.605469 731.988281 835.910156 L 731.988281 750.222656 L 733.902344 750.222656 C 750.074219 750.222656 763.226562 737.066406 763.226562 720.890625 L 763.226562 654.789062 C 763.226562 638.613281 750.074219 625.457031 733.902344 625.457031 L 731.988281 625.457031 L 731.988281 442.867188 L 733.902344 442.867188 C 750.074219 442.867188 763.226562 429.710938 763.226562 413.535156 L 763.226562 347.433594 C 763.226562 331.257812 750.074219 318.101562 733.902344 318.101562 L 706.957031 318.101562 C 690.789062 318.101562 677.632812 331.257812 677.632812 347.433594 L 677.632812 413.535156 C 677.632812 429.710938 690.789062 442.867188 706.957031 442.867188 L 708.871094 442.867188 L 708.871094 625.457031 L 706.957031 625.457031 C 690.789062 625.457031 677.632812 638.613281 677.632812 654.789062 L 677.632812 720.890625 C 677.632812 737.066406 690.789062 750.222656 706.957031 750.222656 L 708.871094 750.222656 L 708.871094 835.910156 C 708.871094 852.355469 722.246094 865.730469 738.683594 865.730469 Z M 700.75 413.535156 L 700.75 347.433594 C 700.75 344.007812 703.535156 341.222656 706.957031 341.222656 L 733.902344 341.222656 C 737.328125 341.222656 740.109375 344.007812 740.109375 347.433594 L 740.109375 413.535156 C 740.109375 416.960938 737.328125 419.746094 733.902344 419.746094 L 706.957031 419.746094 C 703.535156 419.746094 700.75 416.960938 700.75 413.535156 Z M 700.75 720.890625 L 700.75 654.789062 C 700.75 651.363281 703.535156 648.578125 706.957031 648.578125 L 733.902344 648.578125 C 737.328125 648.578125 740.109375 651.363281 740.109375 654.789062 L 740.109375 720.890625 C 740.109375 724.316406 737.328125 727.101562 733.902344 727.101562 L 706.957031 727.101562 C 703.535156 727.101562 700.75 724.316406 700.75 720.890625 Z M 700.75 720.890625 " fill-opacity="1" fill-rule="nonzero"/><path fill="#000000" d="M 977.265625 687.242188 C 975.25 693.300781 978.527344 699.84375 984.585938 701.859375 C 1002.519531 707.824219 1021.28125 710.847656 1040.347656 710.847656 C 1078.773438 710.847656 1114.363281 698.507812 1143.382812 677.585938 C 1143.648438 677.425781 1143.917969 677.289062 1144.175781 677.105469 C 1144.53125 676.84375 1144.867188 676.5625 1145.183594 676.273438 C 1188.710938 644.058594 1216.988281 592.355469 1216.988281 534.164062 C 1216.988281 475.96875 1188.710938 424.261719 1145.1875 392.050781 C 1144.867188 391.757812 1144.53125 391.480469 1144.175781 391.21875 C 1143.828125 390.964844 1143.46875 390.738281 1143.105469 390.53125 C 1114.132812 369.734375 1078.648438 357.476562 1040.347656 357.476562 C 1002.050781 357.476562 966.5625 369.734375 937.59375 390.53125 C 937.230469 390.742188 936.871094 390.96875 936.523438 391.21875 C 936.164062 391.480469 935.832031 391.757812 935.511719 392.050781 C 891.988281 424.261719 863.710938 475.96875 863.710938 534.164062 C 863.710938 552.445312 866.59375 570.417969 872.027344 587.5 C 872.113281 587.921875 872.21875 588.339844 872.355469 588.761719 C 872.449219 589.046875 872.585938 589.304688 872.695312 589.578125 C 884.203125 624.273438 906.324219 655.132812 936.507812 677.109375 C 937.015625 677.476562 937.546875 677.785156 938.085938 678.058594 C 938.105469 678.070312 938.125 678.078125 938.144531 678.089844 C 939.773438 678.90625 941.527344 679.308594 943.277344 679.3125 C 943.289062 679.3125 943.296875 679.3125 943.308594 679.3125 C 943.328125 679.3125 943.351562 679.308594 943.371094 679.308594 C 943.769531 679.308594 944.167969 679.285156 944.5625 679.242188 C 944.613281 679.234375 944.660156 679.230469 944.707031 679.226562 C 945.117188 679.175781 945.523438 679.105469 945.929688 679.011719 C 945.941406 679.007812 945.957031 679.007812 945.972656 679.003906 C 946.828125 678.800781 947.65625 678.503906 948.449219 678.109375 C 948.492188 678.089844 948.53125 678.066406 948.570312 678.046875 C 948.902344 677.875 949.226562 677.691406 949.542969 677.488281 C 949.632812 677.433594 949.714844 677.371094 949.804688 677.3125 C 950.070312 677.132812 950.332031 676.9375 950.585938 676.730469 C 950.679688 676.65625 950.773438 676.578125 950.863281 676.5 C 951.113281 676.285156 951.351562 676.054688 951.585938 675.816406 C 951.660156 675.738281 951.742188 675.664062 951.816406 675.582031 C 952.109375 675.261719 952.394531 674.925781 952.65625 674.5625 C 952.660156 674.5625 952.660156 674.558594 952.664062 674.554688 C 952.664062 674.550781 952.667969 674.550781 952.667969 674.546875 L 979.53125 637.5625 C 983.285156 632.394531 982.140625 625.164062 976.976562 621.414062 C 971.808594 617.660156 964.582031 618.804688 960.832031 623.96875 L 941.027344 651.234375 C 922.203125 635.210938 907.65625 614.964844 898.398438 592.453125 L 930.386719 582.058594 C 936.457031 580.082031 939.78125 573.5625 937.808594 567.488281 C 935.835938 561.417969 929.316406 558.097656 923.242188 560.066406 L 891.222656 570.472656 C 888.335938 558.6875 886.828125 546.507812 886.828125 534.164062 C 886.828125 521.648438 888.367188 509.496094 891.203125 497.84375 L 923.242188 508.257812 C 924.429688 508.644531 925.632812 508.828125 926.816406 508.828125 C 931.691406 508.828125 936.222656 505.722656 937.808594 500.835938 C 939.78125 494.761719 936.457031 488.242188 930.386719 486.265625 L 898.355469 475.855469 C 907.765625 453.011719 922.53125 432.929688 941.078125 417.160156 L 960.832031 444.355469 C 963.089844 447.46875 966.617188 449.121094 970.191406 449.121094 C 972.546875 449.121094 974.925781 448.402344 976.976562 446.910156 C 982.140625 443.15625 983.285156 435.929688 979.53125 430.761719 L 959.757812 403.535156 C 980.109375 390.921875 1003.613281 382.964844 1028.789062 381.078125 L 1028.789062 414.753906 C 1028.789062 421.136719 1033.964844 426.3125 1040.347656 426.3125 C 1046.730469 426.3125 1051.90625 421.136719 1051.90625 414.753906 L 1051.90625 381.078125 C 1077.085938 382.964844 1100.589844 390.921875 1120.941406 403.535156 L 1101.167969 430.761719 C 1097.414062 435.929688 1098.558594 443.15625 1103.722656 446.910156 C 1105.773438 448.402344 1108.152344 449.121094 1110.507812 449.121094 C 1114.082031 449.121094 1117.605469 447.46875 1119.867188 444.355469 L 1139.621094 417.160156 C 1158.167969 432.929688 1172.933594 453.011719 1182.34375 475.855469 L 1150.3125 486.265625 C 1144.238281 488.242188 1140.917969 494.761719 1142.890625 500.835938 C 1144.476562 505.722656 1149.007812 508.828125 1153.878906 508.828125 C 1155.0625 508.828125 1156.269531 508.644531 1157.453125 508.257812 L 1189.496094 497.84375 C 1192.332031 509.496094 1193.871094 521.648438 1193.871094 534.164062 C 1193.871094 546.675781 1192.332031 558.828125 1189.496094 570.480469 L 1157.453125 560.066406 C 1151.382812 558.089844 1144.863281 561.414062 1142.890625 567.488281 C 1140.917969 573.5625 1144.238281 580.082031 1150.3125 582.058594 L 1182.34375 592.46875 C 1172.933594 615.3125 1158.167969 635.394531 1139.621094 651.164062 L 1119.867188 623.96875 C 1116.117188 618.804688 1108.886719 617.660156 1103.722656 621.414062 C 1098.558594 625.164062 1097.414062 632.394531 1101.167969 637.5625 L 1120.941406 664.789062 C 1100.589844 677.398438 1077.085938 685.359375 1051.90625 687.246094 L 1051.90625 653.570312 C 1051.90625 647.1875 1046.730469 642.007812 1040.347656 642.007812 C 1033.964844 642.007812 1028.789062 647.1875 1028.789062 653.570312 L 1028.789062 687.28125 C 1016.195312 686.347656 1003.820312 683.890625 991.878906 679.917969 C 985.820312 677.902344 979.277344 681.179688 977.265625 687.242188 Z M 977.265625 687.242188 " fill-opacity="1" fill-rule="nonzero"/><path fill="#000000" d="M 1129.335938 534.164062 C 1129.335938 485.078125 1089.417969 445.148438 1040.347656 445.148438 C 991.28125 445.148438 951.359375 485.078125 951.359375 534.164062 C 951.359375 583.246094 991.28125 623.175781 1040.347656 623.175781 C 1089.417969 623.175781 1129.335938 583.242188 1129.335938 534.164062 Z M 974.476562 534.164062 C 974.476562 497.828125 1004.027344 468.273438 1040.347656 468.273438 C 1076.671875 468.273438 1106.21875 497.828125 1106.21875 534.164062 C 1106.21875 570.496094 1076.671875 600.050781 1040.347656 600.050781 C 1004.027344 600.050781 974.476562 570.492188 974.476562 534.164062 Z M 974.476562 534.164062 " fill-opacity="1" fill-rule="nonzero"/></svg>