<svg xmlns="http://www.w3.org/2000/svg" xmlns:xlink="http://www.w3.org/1999/xlink" width="2816" zoomAndPan="magnify" viewBox="0 0 2112 1151.999944" height="1536" preserveAspectRatio="xMidYMid meet" version="1.0"><defs><clipPath id="472c9f40c6"><path d="M 781.3125 115.199219 L 1316 115.199219 L 1316 1036.949219 L 781.3125 1036.949219 Z M 781.3125 115.199219 " clip-rule="nonzero"/></clipPath></defs><g clip-path="url(#472c9f40c6)"><path fill="#333333" d="M 1109.238281 1036.886719 L 988.121094 1036.886719 L 988.121094 431.414062 L 781.558594 431.414062 L 781.558594 310.332031 L 988.121094 310.332031 L 988.121094 115.136719 L 1109.238281 115.136719 L 1109.238281 310.332031 L 1315.800781 310.332031 L 1315.800781 431.414062 L 1109.238281 431.414062 Z M 1013.3125 1011.714844 L 1084.058594 1011.714844 L 1084.058594 406.242188 L 1290.621094 406.242188 L 1290.621094 335.515625 L 1084.058594 335.515625 L 1084.058594 140.320312 L 1013.3125 140.320312 L 1013.3125 335.515625 L 806.75 335.515625 L 806.75 406.242188 L 1013.3125 406.242188 Z M 1013.3125 1011.714844 " fill-opacity="1" fill-rule="nonzero"/></g></svg>