<svg xmlns="http://www.w3.org/2000/svg" xmlns:xlink="http://www.w3.org/1999/xlink" width="2816" zoomAndPan="magnify" viewBox="0 0 2112 1151.999944" height="1536" preserveAspectRatio="xMidYMid meet" version="1.0"><defs><clipPath id="4ab488dac4"><path d="M 579 120 L 1533 120 L 1533 1036.949219 L 579 1036.949219 Z M 579 120 " clip-rule="nonzero"/></clipPath></defs><g clip-path="url(#4ab488dac4)"><path fill="#000000" d="M 1055.242188 1037.039062 C 1045.324219 1037.039062 1035.414062 1034.492188 1026.519531 1029.375 C 915.785156 965.683594 821.058594 885.054688 744.964844 789.726562 C 694.171875 726.09375 575.230469 577.085938 579.566406 392.4375 C 581.023438 330.488281 596.507812 275.660156 624.347656 233.882812 C 636.503906 215.632812 673.507812 160.105469 748.261719 133.871094 C 801.183594 115.296875 848.109375 120.785156 865.828125 124.003906 C 928.25 135.347656 966.4375 171.011719 997.121094 199.667969 L 997.878906 200.375 C 1020.183594 221.203125 1039.777344 244.71875 1056.28125 270.433594 C 1072.707031 244.722656 1092.246094 221.210938 1114.511719 200.382812 L 1115.25 199.695312 C 1145.875 171.039062 1183.992188 135.378906 1246.566406 124.003906 C 1264.285156 120.78125 1311.210938 115.296875 1364.132812 133.871094 C 1438.890625 160.105469 1475.890625 215.636719 1488.050781 233.882812 C 1507.558594 263.15625 1531.160156 314.445312 1532.828125 392.46875 C 1536.65625 571.664062 1418.378906 718.1875 1361.539062 788.601562 C 1285.785156 882.445312 1192.867188 963.1875 1085.363281 1028.589844 C 1076.109375 1034.21875 1065.675781 1037.039062 1055.242188 1037.039062 Z M 826.644531 149.988281 C 807.710938 149.988281 783.679688 152.535156 757.96875 161.558594 C 692.472656 184.546875 659.5625 233.929688 648.746094 250.160156 C 623.996094 287.304688 610.210938 336.742188 608.886719 393.128906 C 604.800781 567.109375 719.078125 710.277344 767.878906 771.414062 C 841.667969 863.855469 933.605469 942.085938 1041.132812 1003.9375 C 1050.109375 1009.097656 1061.214844 1008.9375 1070.125 1003.519531 C 1174.730469 939.878906 1265.101562 861.367188 1338.71875 770.167969 C 1393.378906 702.457031 1507.109375 561.570312 1503.507812 393.097656 C 1501.992188 322.121094 1480.996094 276.191406 1463.648438 250.160156 C 1452.835938 233.929688 1419.929688 184.546875 1354.425781 161.558594 C 1308.117188 145.304688 1267.234375 150.070312 1251.808594 152.875 C 1197.722656 162.703125 1164.550781 193.742188 1135.28125 221.125 L 1134.539062 221.816406 C 1110.515625 244.292969 1089.9375 270.167969 1073.382812 298.730469 C 1069.859375 304.804688 1063.324219 308.578125 1056.316406 308.582031 C 1056.3125 308.582031 1056.304688 308.582031 1056.300781 308.582031 C 1049.300781 308.582031 1042.765625 304.824219 1039.238281 298.769531 C 1022.589844 270.195312 1001.941406 244.308594 977.867188 221.828125 L 977.109375 221.117188 C 947.777344 193.726562 914.53125 162.679688 860.585938 152.875 C 853.722656 151.625 841.820312 149.988281 826.644531 149.988281 Z M 826.644531 149.988281 " fill-opacity="1" fill-rule="nonzero"/></g></svg>