<svg xmlns="http://www.w3.org/2000/svg" xmlns:xlink="http://www.w3.org/1999/xlink" width="2816" zoomAndPan="magnify" viewBox="0 0 2112 1151.999944" height="1536" preserveAspectRatio="xMidYMid meet" version="1.0"><defs><clipPath id="a0d383d794"><path d="M 1084 747 L 1160 747 L 1160 1036.949219 L 1084 1036.949219 Z M 1084 747 " clip-rule="nonzero"/></clipPath><clipPath id="7fe7e8650a"><path d="M 1106 115.199219 L 1203 115.199219 L 1203 214 L 1106 214 Z M 1106 115.199219 " clip-rule="nonzero"/></clipPath></defs><path fill="#000000" d="M 1050.3125 524.609375 C 1049.761719 524.609375 1049.269531 524.578125 1048.882812 524.550781 L 1010.539062 521.992188 C 1006.539062 521.726562 1002.558594 521.03125 1000.507812 517.78125 C 999.191406 515.695312 999.1875 513.226562 999.1875 511.246094 C 999.179688 502.980469 999.167969 493.617188 1002.863281 485.367188 C 1003.710938 483.46875 1004.746094 481.664062 1005.746094 479.917969 C 1006.757812 478.148438 1007.714844 476.476562 1008.507812 474.699219 C 1011.46875 468.0625 1011.863281 460.4375 1012.246094 453.0625 C 1014.210938 414.875 1017.644531 376.433594 1022.453125 338.648438 C 1024.484375 322.683594 1027.367188 306.140625 1038.125 294.742188 C 1041.929688 290.707031 1046.503906 287.566406 1050.925781 284.53125 L 1117.589844 238.742188 C 1121.410156 236.117188 1129.417969 233.675781 1135.96875 231.839844 L 1136.765625 234.6875 C 1133.050781 235.726562 1123.171875 238.496094 1119.261719 241.179688 L 1052.597656 286.964844 C 1048.304688 289.914062 1043.863281 292.964844 1040.277344 296.769531 C 1030.121094 307.535156 1027.4375 322.898438 1025.382812 339.019531 C 1020.585938 376.734375 1017.160156 415.097656 1015.203125 453.046875 C 1014.800781 460.859375 1014.394531 468.765625 1011.207031 475.90625 C 1010.355469 477.8125 1009.316406 479.628906 1008.308594 481.386719 C 1007.304688 483.148438 1006.351562 484.808594 1005.558594 486.574219 C 1002.125 494.246094 1002.136719 503.277344 1002.144531 511.242188 C 1002.144531 513.28125 1002.210938 514.941406 1003.007812 516.203125 C 1004.351562 518.335938 1007.515625 518.828125 1010.734375 519.042969 L 1049.078125 521.601562 C 1050.765625 521.71875 1052.417969 521.695312 1053.164062 520.796875 C 1053.851562 519.976562 1053.691406 518.441406 1053.488281 517.070312 L 1050.980469 500.097656 C 1050.777344 498.742188 1050.570312 497.339844 1049.898438 496.296875 C 1049.75 496.066406 1049.574219 495.847656 1049.382812 495.640625 C 1047.875 495.398438 1046.789062 494.453125 1045.921875 493.691406 L 1045.445312 493.28125 C 1045.007812 492.914062 1044.546875 492.585938 1044.074219 492.285156 L 1042.671875 491.511719 C 1039.859375 490.152344 1036.566406 489.597656 1033.128906 489.019531 C 1031.359375 488.722656 1029.53125 488.414062 1027.765625 487.984375 C 1023.355469 486.910156 1019.226562 485.042969 1015.496094 482.425781 C 1014.421875 481.671875 1013.929688 480.347656 1014.242188 479.058594 C 1014.554688 477.792969 1015.578125 476.863281 1016.859375 476.691406 C 1020.550781 476.203125 1024.535156 478.121094 1027.21875 479.601562 L 1044.066406 488.90625 C 1044.578125 489.15625 1045.074219 489.429688 1045.5625 489.730469 L 1047.6875 490.90625 C 1048.582031 491.398438 1049.601562 491.960938 1050.53125 492.703125 C 1050.652344 492.679688 1050.777344 492.648438 1050.90625 492.609375 C 1052.304688 492.167969 1053.4375 490.902344 1053.867188 489.3125 C 1055.949219 481.605469 1057.546875 473.683594 1058.617188 465.761719 C 1060.011719 455.414062 1060.546875 444.769531 1061.0625 434.480469 C 1061.222656 431.300781 1061.382812 428.125 1061.566406 424.945312 C 1063.046875 399.304688 1066.160156 373.5 1070.816406 348.246094 C 1071.34375 345.398438 1071.902344 342.488281 1072.566406 339.574219 C 1073.558594 328.824219 1076.046875 318.296875 1079.976562 308.210938 C 1082.035156 302.933594 1084.257812 299.339844 1086.980469 296.898438 C 1088.210938 295.796875 1089.964844 295.65625 1091.34375 296.554688 C 1092.710938 297.445312 1093.292969 299.085938 1092.792969 300.640625 C 1091.0625 305.996094 1088.1875 310.984375 1085.410156 315.8125 C 1083.457031 319.203125 1081.441406 322.707031 1079.863281 326.273438 C 1077.921875 330.65625 1076.566406 335.339844 1075.488281 340.042969 C 1075.34375 341.671875 1075.230469 343.300781 1075.152344 344.9375 L 1074.460938 344.90625 C 1074.203125 346.207031 1073.960938 347.5 1073.726562 348.78125 C 1069.089844 373.914062 1065.992188 399.597656 1064.515625 425.117188 C 1064.332031 428.285156 1064.175781 431.457031 1064.015625 434.628906 C 1063.496094 444.980469 1062.960938 455.683594 1061.546875 466.15625 C 1060.457031 474.203125 1058.835938 482.253906 1056.722656 490.082031 C 1056.113281 492.328125 1054.582031 494.183594 1052.628906 495.101562 C 1053.445312 496.578125 1053.6875 498.210938 1053.902344 499.664062 L 1056.414062 516.636719 C 1056.710938 518.644531 1056.902344 520.929688 1055.4375 522.6875 C 1054.082031 524.320312 1051.949219 524.609375 1050.3125 524.609375 Z M 1018.070312 479.570312 C 1017.785156 479.570312 1017.511719 479.585938 1017.246094 479.625 C 1017.089844 479.867188 1017.117188 479.949219 1017.195312 480.003906 C 1020.574219 482.375 1024.46875 484.140625 1028.460938 485.113281 C 1029.78125 485.433594 1031.171875 485.6875 1032.550781 485.921875 L 1025.789062 482.1875 C 1022.609375 480.433594 1020.070312 479.570312 1018.070312 479.570312 Z M 1089.378906 298.921875 C 1089.25 298.921875 1089.101562 298.964844 1088.953125 299.101562 C 1086.589844 301.21875 1084.613281 304.453125 1082.730469 309.28125 C 1081.105469 313.449219 1079.734375 317.695312 1078.621094 322.003906 C 1079.941406 319.382812 1081.414062 316.828125 1082.847656 314.335938 C 1085.675781 309.429688 1088.34375 304.789062 1089.976562 299.730469 C 1090.097656 299.363281 1089.910156 299.148438 1089.734375 299.035156 C 1089.652344 298.980469 1089.527344 298.921875 1089.378906 298.921875 Z M 1089.378906 298.921875 " fill-opacity="1" fill-rule="nonzero"/><path fill="#000000" d="M 1112.742188 641.058594 C 1105.722656 641.058594 1098.421875 640.152344 1091.988281 636.679688 C 1087.519531 634.265625 1083.808594 630.792969 1080.21875 627.433594 C 1078.273438 625.609375 1076.261719 623.726562 1074.175781 622.0625 C 1072.433594 620.671875 1070.519531 619.332031 1068.667969 618.035156 C 1063.089844 614.128906 1057.320312 610.085938 1054.503906 603.695312 C 1051.433594 596.714844 1052.746094 589.050781 1054.019531 581.640625 L 1054.125 581.011719 C 1059.558594 549.28125 1059.9375 517.039062 1055.253906 485.1875 L 1058.175781 484.757812 C 1062.90625 516.917969 1062.523438 549.472656 1057.039062 581.511719 L 1056.933594 582.140625 C 1055.734375 589.121094 1054.496094 596.335938 1057.210938 602.5 C 1059.691406 608.136719 1064.875 611.769531 1070.363281 615.613281 C 1072.25 616.933594 1074.203125 618.304688 1076.019531 619.75 C 1078.195312 621.488281 1080.253906 623.410156 1082.242188 625.273438 C 1085.851562 628.65625 1089.261719 631.847656 1093.390625 634.078125 C 1102.871094 639.195312 1114.839844 638.261719 1124.457031 637.5 L 1185.070312 632.753906 C 1193.335938 632.105469 1201.882812 631.433594 1209.886719 629.015625 C 1224.71875 624.539062 1237.480469 614.070312 1248.742188 604.835938 C 1251.023438 602.960938 1253.386719 601.023438 1254.867188 598.535156 C 1258.207031 592.910156 1256.582031 585.621094 1254.796875 579.234375 C 1254.097656 576.726562 1253.371094 574.222656 1252.648438 571.714844 C 1249.589844 561.171875 1246.429688 550.265625 1245.179688 539.136719 C 1244.835938 536.078125 1244.632812 532.96875 1244.433594 529.960938 C 1244.066406 524.347656 1243.6875 518.539062 1242.375 513.046875 C 1242.066406 511.738281 1241.699219 510.445312 1241.335938 509.148438 C 1240.777344 507.164062 1240.199219 505.105469 1239.816406 503.007812 C 1239.046875 498.824219 1239.050781 494.566406 1239.058594 490.449219 L 1239.167969 417.257812 C 1239.195312 399.636719 1245.035156 382.8125 1251.351562 366.515625 L 1256.035156 338.957031 C 1256.394531 336.839844 1256.839844 334.207031 1258.503906 332.171875 C 1260.308594 329.949219 1263.890625 328.84375 1266.339844 330.738281 L 1267.128906 331.347656 L 1266.855469 332.308594 C 1264.066406 342.203125 1260.210938 352.015625 1256.484375 361.507812 C 1255.726562 363.433594 1254.96875 365.367188 1254.214844 367.308594 L 1249.53125 394.871094 C 1247.898438 404.480469 1246.214844 414.398438 1245.511719 424.222656 C 1244.8125 434.046875 1245.066406 444.066406 1245.316406 453.757812 L 1246.308594 492.800781 C 1246.394531 496.1875 1246.503906 500.402344 1248.535156 503.429688 C 1251.117188 507.28125 1256.328125 509.066406 1264.566406 508.835938 C 1273.328125 508.609375 1282.046875 507.273438 1290.480469 504.875 C 1294.464844 503.738281 1298.808594 502.101562 1300.804688 498.597656 C 1302.609375 495.429688 1302.15625 491.316406 1301.484375 487.027344 L 1299.175781 472.289062 C 1299.042969 471.445312 1298.894531 470.660156 1298.511719 470.28125 C 1298.242188 470.015625 1297.796875 469.886719 1297.289062 469.828125 C 1297.253906 469.855469 1297.21875 469.882812 1297.183594 469.914062 C 1295.390625 471.355469 1293.109375 471.863281 1291.273438 472.273438 L 1254.488281 480.480469 L 1253.917969 479.925781 C 1252.851562 478.886719 1252.316406 477.425781 1252.414062 475.808594 C 1252.53125 473.808594 1253.59375 471.808594 1255.1875 470.589844 C 1257.601562 468.742188 1260.609375 468.386719 1263.738281 468.164062 C 1274.410156 467.40625 1285.238281 466.953125 1295.921875 466.824219 C 1295.984375 466.824219 1296.050781 466.824219 1296.117188 466.820312 C 1297.730469 464.808594 1297.949219 461.613281 1298.015625 458.707031 C 1298.363281 443.082031 1298.457031 427.234375 1298.296875 411.609375 C 1298.21875 404.21875 1298.125 395.023438 1295.894531 386.652344 C 1294.914062 382.976562 1293.5 379.332031 1292.132812 375.808594 C 1291.054688 373.035156 1289.9375 370.167969 1289.023438 367.261719 C 1286.480469 359.179688 1285.421875 350.667969 1284.402344 342.4375 C 1283.359375 334.027344 1282.28125 325.332031 1279.605469 317.246094 C 1274.816406 302.789062 1264.582031 290.007812 1251.519531 282.175781 C 1249.257812 280.820312 1246.863281 279.574219 1244.542969 278.367188 C 1241.859375 276.972656 1239.085938 275.53125 1236.453125 273.890625 C 1229.742188 269.703125 1223.914062 264.191406 1218.273438 258.863281 C 1211.785156 252.730469 1205.070312 246.386719 1197.144531 242.269531 C 1185.375 236.152344 1171.253906 235.128906 1158.800781 234.226562 C 1147.34375 233.398438 1136.617188 232.617188 1123.375 239.074219 L 1122.078125 236.417969 C 1136.039062 229.613281 1147.144531 230.417969 1158.914062 231.269531 C 1171.757812 232.203125 1186.195312 233.246094 1198.507812 239.644531 C 1206.800781 243.953125 1213.664062 250.441406 1220.304688 256.714844 C 1225.839844 261.945312 1231.558594 267.351562 1238.019531 271.382812 C 1240.550781 272.964844 1243.273438 274.378906 1245.902344 275.746094 C 1248.261719 276.972656 1250.703125 278.238281 1253.039062 279.640625 C 1266.699219 287.832031 1277.402344 301.199219 1282.410156 316.316406 C 1285.179688 324.679688 1286.277344 333.523438 1287.335938 342.074219 C 1288.339844 350.175781 1289.378906 358.550781 1291.84375 366.375 C 1292.730469 369.1875 1293.824219 372.007812 1294.886719 374.738281 C 1296.285156 378.335938 1297.730469 382.058594 1298.75 385.890625 C 1301.074219 394.621094 1301.171875 404.023438 1301.253906 411.578125 C 1301.414062 427.238281 1301.316406 443.113281 1300.96875 458.769531 C 1300.902344 461.65625 1300.691406 464.792969 1299.324219 467.324219 C 1299.777344 467.523438 1300.207031 467.800781 1300.589844 468.179688 C 1301.695312 469.277344 1301.9375 470.8125 1302.09375 471.832031 L 1304.402344 486.570312 C 1305.160156 491.398438 1305.652344 496.0625 1303.371094 500.058594 C 1300.847656 504.492188 1295.847656 506.414062 1291.289062 507.714844 C 1282.617188 510.183594 1273.648438 511.554688 1264.640625 511.789062 C 1255.308594 512.039062 1249.273438 509.835938 1246.078125 505.074219 C 1243.570312 501.335938 1243.449219 496.644531 1243.355469 492.875 L 1242.359375 453.832031 C 1242.109375 444.070312 1241.851562 433.976562 1242.566406 424.011719 C 1243.273438 414.042969 1244.972656 404.054688 1246.613281 394.394531 L 1248.597656 382.703125 C 1244.871094 393.972656 1242.140625 405.480469 1242.125 417.261719 L 1242.011719 490.453125 C 1242.007812 494.4375 1242 498.554688 1242.722656 502.472656 C 1243.082031 504.4375 1243.644531 506.425781 1244.183594 508.351562 C 1244.558594 509.679688 1244.933594 511.011719 1245.25 512.359375 C 1246.621094 518.097656 1247.011719 524.03125 1247.386719 529.765625 C 1247.578125 532.742188 1247.78125 535.816406 1248.117188 538.804688 C 1249.339844 549.683594 1252.464844 560.464844 1255.484375 570.894531 C 1256.214844 573.40625 1256.941406 575.921875 1257.644531 578.4375 C 1259.738281 585.929688 1261.15625 593.730469 1257.40625 600.042969 C 1255.660156 602.980469 1252.980469 605.179688 1250.613281 607.121094 C 1239.140625 616.53125 1226.136719 627.199219 1210.742188 631.84375 C 1202.433594 634.355469 1193.722656 635.039062 1185.300781 635.699219 L 1124.6875 640.449219 C 1120.964844 640.742188 1116.902344 641.058594 1112.742188 641.058594 Z M 1288.207031 469.929688 C 1280.117188 470.144531 1271.988281 470.542969 1263.949219 471.113281 C 1261.183594 471.3125 1258.753906 471.585938 1256.984375 472.9375 C 1256.082031 473.625 1255.429688 474.851562 1255.363281 475.984375 C 1255.34375 476.339844 1255.375 476.789062 1255.5625 477.214844 Z M 1263.417969 332.726562 C 1262.480469 332.726562 1261.410156 333.277344 1260.792969 334.035156 C 1259.625 335.46875 1259.265625 337.585938 1258.949219 339.449219 L 1256.660156 352.925781 C 1259.21875 346.277344 1261.683594 339.515625 1263.65625 332.742188 C 1263.578125 332.730469 1263.5 332.726562 1263.417969 332.726562 Z M 1263.417969 332.726562 " fill-opacity="1" fill-rule="nonzero"/><path fill="#000000" d="M 1138.804688 504.902344 C 1134.863281 504.902344 1131.707031 504.109375 1129.183594 502.484375 C 1123.601562 498.886719 1122 491.859375 1121.285156 486.886719 C 1117.777344 462.511719 1125.609375 438.214844 1131.804688 422.054688 C 1134.597656 414.765625 1137.714844 407.46875 1140.730469 400.414062 C 1146.164062 387.6875 1151.785156 374.527344 1155.65625 361.058594 C 1157.144531 355.890625 1158.382812 350.628906 1159.367188 345.308594 C 1158.675781 343.835938 1158.765625 342.035156 1158.804688 341.171875 C 1159.214844 332.824219 1157.296875 324.238281 1155.441406 315.9375 C 1153.28125 306.285156 1151.050781 296.304688 1152.453125 286.585938 C 1152.75 284.554688 1154.25 282.980469 1156.285156 282.574219 C 1158.273438 282.175781 1160.226562 283.035156 1161.253906 284.761719 C 1162.667969 287.136719 1163.621094 290.382812 1164.089844 294.417969 C 1165.992188 310.964844 1165.441406 327.996094 1162.515625 344.503906 C 1162.667969 344.554688 1162.796875 344.542969 1162.960938 344.464844 C 1163.667969 344.140625 1164.5 342.902344 1164.9375 341.519531 C 1167.609375 333.046875 1169.398438 323.976562 1171.132812 315.203125 C 1174.757812 296.847656 1178.507812 277.867188 1190.511719 263.226562 C 1191.492188 262.03125 1192.535156 260.84375 1193.585938 259.652344 C 1197.765625 254.898438 1202.09375 249.980469 1202.429688 244.046875 L 1205.378906 244.210938 C 1204.988281 251.167969 1200.320312 256.472656 1195.800781 261.605469 C 1194.777344 262.773438 1193.753906 263.929688 1192.796875 265.101562 C 1181.261719 279.167969 1177.75 296.949219 1174.03125 315.773438 C 1172.285156 324.628906 1170.476562 333.78125 1167.753906 342.410156 C 1167.199219 344.167969 1165.972656 346.335938 1164.195312 347.152344 C 1163.472656 347.480469 1162.71875 347.570312 1161.976562 347.417969 C 1161.023438 352.296875 1159.863281 357.125 1158.5 361.875 C 1154.574219 375.519531 1148.917969 388.765625 1143.445312 401.574219 C 1140.445312 408.605469 1137.339844 415.875 1134.5625 423.113281 C 1128.488281 438.964844 1120.800781 462.773438 1124.210938 486.464844 C 1125.21875 493.460938 1127.308594 497.761719 1130.785156 500 C 1133.03125 501.445312 1136.011719 502.066406 1139.90625 501.925781 C 1149.261719 501.5625 1158.097656 497.335938 1166.644531 493.25 C 1169.953125 491.667969 1173.375 490.03125 1176.804688 488.625 C 1196.992188 480.347656 1219.605469 479.308594 1240.46875 485.710938 L 1239.601562 488.535156 C 1219.683594 482.425781 1197.207031 483.453125 1177.925781 491.359375 C 1174.574219 492.734375 1171.191406 494.351562 1167.917969 495.914062 C 1159.101562 500.132812 1149.988281 504.492188 1140.019531 504.878906 C 1139.605469 504.894531 1139.203125 504.902344 1138.804688 504.902344 Z M 1157.238281 285.4375 C 1157.074219 285.4375 1156.941406 285.457031 1156.859375 285.476562 C 1156.234375 285.601562 1155.515625 286.070312 1155.378906 287.007812 C 1154.054688 296.1875 1156.128906 305.46875 1158.324219 315.292969 C 1159.507812 320.589844 1160.714844 325.996094 1161.355469 331.4375 C 1162.601562 319.214844 1162.542969 306.855469 1161.152344 294.757812 C 1160.734375 291.140625 1159.914062 288.289062 1158.714844 286.273438 C 1158.296875 285.574219 1157.667969 285.4375 1157.238281 285.4375 Z M 1157.238281 285.4375 " fill-opacity="1" fill-rule="nonzero"/><path fill="#000000" d="M 1111.492188 752.996094 C 1094.878906 752.996094 1078.277344 750.589844 1062.351562 745.8125 C 1059.425781 744.933594 1056.390625 743.871094 1054.292969 741.46875 C 1051.210938 737.941406 1051.3125 733.03125 1051.679688 728.304688 C 1054.738281 688.9375 1055.804688 644.710938 1054.683594 603.78125 L 1057.636719 603.703125 C 1058.761719 644.730469 1057.691406 689.066406 1054.625 728.53125 C 1054.292969 732.804688 1054.1875 736.855469 1056.515625 739.523438 C 1058.101562 741.335938 1060.6875 742.226562 1063.203125 742.984375 C 1088.949219 750.707031 1116.507812 752.121094 1142.910156 747.078125 C 1146.238281 746.441406 1149.527344 745.519531 1151.0625 743.109375 C 1152.1875 741.347656 1152.246094 738.859375 1152.296875 736.863281 C 1152.683594 721.507812 1152.855469 705.996094 1152.8125 690.554688 C 1152.40625 688.589844 1151.976562 686.632812 1151.519531 684.683594 L 1151.246094 683.53125 C 1149.871094 677.695312 1148.445312 671.660156 1149.746094 665.648438 L 1150.105469 663.976562 L 1151.707031 664.574219 C 1155.527344 666 1155.597656 671.078125 1155.621094 672.746094 C 1155.699219 678.5625 1155.75 684.398438 1155.765625 690.246094 C 1158.425781 703.207031 1159.992188 716.425781 1160.425781 729.628906 C 1160.601562 735.003906 1161 739.667969 1164.117188 742.363281 C 1166.710938 744.605469 1170.609375 744.832031 1174.714844 744.878906 L 1230.210938 745.507812 C 1233.773438 745.542969 1237.8125 745.59375 1241.152344 744.058594 C 1245.117188 742.230469 1248.171875 738.109375 1249.523438 732.753906 C 1250.742188 727.941406 1250.539062 722.746094 1250.34375 717.722656 L 1250.332031 717.386719 C 1248.851562 679.195312 1249.644531 640.496094 1252.6875 602.375 L 1255.632812 602.609375 C 1252.601562 640.617188 1251.8125 679.195312 1253.285156 717.273438 L 1253.296875 717.609375 C 1253.503906 722.839844 1253.710938 728.25 1252.390625 733.476562 C 1250.816406 739.703125 1247.171875 744.539062 1242.390625 746.742188 C 1238.449219 748.558594 1234.054688 748.5 1230.179688 748.464844 L 1174.679688 747.832031 C 1170.007812 747.78125 1165.535156 747.492188 1162.183594 744.597656 C 1157.832031 740.839844 1157.625 734.414062 1157.46875 729.726562 C 1157.234375 722.472656 1156.648438 715.210938 1155.726562 707.996094 C 1155.652344 717.667969 1155.492188 727.332031 1155.25 736.933594 C 1155.191406 739.300781 1155.121094 742.242188 1153.554688 744.695312 C 1151.417969 748.050781 1147.441406 749.21875 1143.464844 749.980469 C 1132.929688 751.996094 1122.207031 752.996094 1111.492188 752.996094 Z M 1152.226562 669.347656 C 1152.105469 671.609375 1152.324219 673.910156 1152.710938 676.210938 C 1152.695312 675.070312 1152.679688 673.929688 1152.664062 672.789062 C 1152.644531 671.375 1152.5 670.226562 1152.226562 669.347656 Z M 1152.226562 669.347656 " fill-opacity="1" fill-rule="nonzero"/><path fill="#000000" d="M 1227.757812 1020.738281 C 1226.992188 1020.738281 1226.226562 1020.734375 1225.460938 1020.722656 C 1222.132812 1020.671875 1218.34375 1020.429688 1215.457031 1018.167969 C 1211.714844 1015.242188 1211.148438 1010.539062 1210.601562 1005.996094 C 1210.121094 1001.996094 1209.667969 998.222656 1207.160156 995.902344 C 1206.609375 995.390625 1205.941406 994.945312 1205.234375 994.476562 C 1204.171875 993.773438 1203.074219 993.042969 1202.183594 991.960938 C 1199.589844 988.824219 1200.101562 984.378906 1200.4375 981.4375 C 1204.363281 947.085938 1204.554688 912.226562 1201.003906 877.832031 C 1200.742188 875.296875 1200.460938 872.765625 1200.175781 870.234375 C 1199.308594 862.429688 1198.410156 854.355469 1198.140625 846.34375 C 1197.792969 835.847656 1198.519531 825.222656 1199.222656 814.945312 C 1199.953125 804.214844 1200.714844 793.121094 1200.234375 782.246094 C 1199.710938 770.421875 1197.703125 758.492188 1195.765625 746.953125 L 1198.679688 746.464844 C 1200.632812 758.089844 1202.652344 770.113281 1203.183594 782.117188 C 1203.671875 793.15625 1202.910156 804.335938 1202.171875 815.148438 C 1201.472656 825.351562 1200.753906 835.898438 1201.097656 846.242188 C 1201.359375 854.140625 1202.25 862.15625 1203.117188 869.90625 C 1203.398438 872.449219 1203.679688 874.984375 1203.941406 877.527344 C 1207.515625 912.136719 1207.324219 947.207031 1203.375 981.773438 C 1203.003906 985.007812 1202.808594 988.078125 1204.460938 990.078125 C 1205.074219 990.820312 1205.949219 991.402344 1206.871094 992.015625 C 1207.644531 992.527344 1208.441406 993.058594 1209.167969 993.734375 C 1212.472656 996.792969 1213.015625 1001.289062 1213.539062 1005.644531 C 1214.035156 1009.769531 1214.5 1013.667969 1217.277344 1015.839844 C 1219.441406 1017.535156 1222.53125 1017.722656 1225.507812 1017.765625 C 1231.589844 1017.851562 1237.785156 1017.582031 1243.859375 1016.949219 C 1250.742188 1016.234375 1254.625 1014.355469 1256.085938 1011.039062 C 1257.566406 1007.667969 1255.875 1003.832031 1253.976562 1001.570312 C 1251.785156 998.960938 1248.675781 997.085938 1245.671875 995.269531 L 1244.890625 994.800781 C 1237.613281 990.386719 1229.050781 984.097656 1227.398438 974.558594 C 1226.710938 970.597656 1227.375 966.527344 1227.957031 962.929688 L 1246.785156 846.925781 C 1248.25 837.894531 1249.761719 828.554688 1250.121094 819.3125 C 1250.539062 808.417969 1249.371094 797.367188 1248.242188 786.679688 L 1243.816406 744.804688 L 1246.757812 744.492188 L 1251.179688 786.367188 C 1252.324219 797.160156 1253.5 808.320312 1253.074219 819.429688 C 1252.710938 828.847656 1251.179688 838.277344 1249.703125 847.398438 L 1230.875 963.402344 C 1230.300781 966.933594 1229.710938 970.582031 1230.3125 974.054688 C 1231.757812 982.417969 1239.683594 988.183594 1246.425781 992.269531 L 1247.203125 992.742188 C 1250.410156 994.679688 1253.730469 996.683594 1256.238281 999.667969 C 1259.457031 1003.503906 1260.457031 1008.433594 1258.789062 1012.226562 C 1256.25 1017.996094 1249.226562 1019.363281 1244.164062 1019.890625 C 1238.738281 1020.453125 1233.230469 1020.738281 1227.757812 1020.738281 Z M 1227.757812 1020.738281 " fill-opacity="1" fill-rule="nonzero"/><g clip-path="url(#a0d383d794)"><path fill="#000000" d="M 1145.089844 1036.792969 C 1142.230469 1036.792969 1139.316406 1036.222656 1136.71875 1035.207031 C 1133.734375 1034.039062 1130.929688 1032.449219 1128.214844 1030.914062 C 1124.636719 1028.882812 1121.257812 1026.96875 1117.503906 1025.941406 C 1116.082031 1025.554688 1114.632812 1025.300781 1113.09375 1025.03125 C 1110.824219 1024.632812 1108.476562 1024.222656 1106.230469 1023.335938 C 1102.28125 1021.78125 1098.417969 1018.128906 1098.691406 1013.476562 C 1099.011719 1008.128906 1104.246094 1005.128906 1108.773438 1003.109375 L 1119.648438 998.257812 C 1120.726562 997.777344 1121.949219 997.234375 1122.632812 996.375 C 1123.773438 994.941406 1123.527344 992.617188 1123.207031 990.550781 C 1119.761719 968.289062 1113.0625 946.152344 1106.589844 924.738281 C 1097.160156 893.570312 1087.410156 861.339844 1087.570312 828.269531 C 1087.597656 822.238281 1087.960938 816.132812 1088.3125 810.226562 C 1088.625 804.941406 1088.953125 799.476562 1089.03125 794.113281 C 1089.25 779.636719 1087.734375 765.140625 1084.519531 751.027344 L 1087.402344 750.371094 C 1090.667969 764.714844 1092.210938 779.445312 1091.988281 794.160156 C 1091.90625 799.589844 1091.578125 805.085938 1091.265625 810.402344 C 1090.914062 816.265625 1090.554688 822.332031 1090.527344 828.285156 C 1090.367188 860.90625 1100.050781 892.921875 1109.417969 923.882812 C 1115.921875 945.390625 1122.648438 967.632812 1126.128906 990.097656 C 1126.429688 992.039062 1126.988281 995.652344 1124.941406 998.21875 C 1123.8125 999.636719 1122.171875 1000.371094 1120.855469 1000.957031 L 1109.976562 1005.808594 C 1106.214844 1007.488281 1101.867188 1009.894531 1101.644531 1013.648438 C 1101.457031 1016.808594 1104.453125 1019.457031 1107.316406 1020.589844 C 1109.28125 1021.363281 1111.382812 1021.730469 1113.605469 1022.117188 C 1115.140625 1022.386719 1116.726562 1022.664062 1118.285156 1023.089844 C 1122.394531 1024.214844 1126.09375 1026.3125 1129.675781 1028.339844 C 1132.292969 1029.828125 1135.007812 1031.363281 1137.792969 1032.457031 C 1143.957031 1034.867188 1152.164062 1034.46875 1155.226562 1028.980469 C 1157.136719 1025.5625 1156.484375 1020.976562 1155.960938 1017.292969 C 1150.613281 979.816406 1148.277344 941.613281 1149.007812 903.75 C 1149.070312 900.609375 1149.152344 897.464844 1149.234375 894.316406 C 1149.679688 877.132812 1150.140625 859.359375 1147.070312 842.289062 C 1146.484375 839.035156 1145.757812 835.734375 1145.054688 832.542969 C 1143.972656 827.632812 1142.855469 822.554688 1142.203125 817.453125 C 1140.664062 805.359375 1141.722656 793.128906 1142.75 781.300781 L 1145.652344 747.730469 L 1148.597656 747.984375 L 1145.691406 781.554688 C 1144.683594 793.226562 1143.636719 805.300781 1145.136719 817.078125 C 1145.769531 822.050781 1146.871094 827.0625 1147.941406 831.90625 C 1148.648438 835.125 1149.382812 838.453125 1149.980469 841.765625 C 1153.101562 859.132812 1152.640625 877.058594 1152.1875 894.390625 C 1152.109375 897.535156 1152.023438 900.671875 1151.964844 903.808594 C 1151.238281 941.511719 1153.566406 979.554688 1158.886719 1016.875 C 1159.472656 1021 1160.207031 1026.132812 1157.808594 1030.421875 C 1155.304688 1034.90625 1150.296875 1036.792969 1145.089844 1036.792969 Z M 1145.089844 1036.792969 " fill-opacity="1" fill-rule="nonzero"/></g><path fill="#000000" d="M 997.949219 637.351562 C 996.28125 637.351562 995.308594 636.566406 994.792969 635.917969 C 994.09375 635.042969 993.917969 634 993.785156 633.238281 C 992.558594 626.078125 991.445312 618.777344 990.480469 611.535156 C 989.667969 605.433594 988.984375 599.464844 989.535156 593.453125 C 990.027344 588.089844 991.5 582.875 992.925781 577.832031 C 993.253906 576.671875 993.582031 575.511719 993.898438 574.351562 C 998.835938 556.210938 1000.988281 537.179688 1003.074219 518.773438 L 1006.007812 519.105469 C 1003.914062 537.621094 1001.746094 556.769531 996.75 575.128906 C 996.429688 576.296875 996.101562 577.464844 995.769531 578.632812 C 994.382812 583.550781 992.945312 588.632812 992.480469 593.722656 C 991.957031 599.429688 992.621094 605.21875 993.410156 611.140625 C 994.371094 618.347656 995.476562 625.613281 996.699219 632.738281 C 996.78125 633.207031 996.878906 633.796875 997.105469 634.078125 C 997.652344 634.761719 999.371094 634.214844 1000.679688 633.535156 L 1013.304688 626.988281 C 1015.371094 625.917969 1018.988281 623.304688 1017.878906 621.085938 L 1016.839844 619.003906 L 1019.167969 618.949219 C 1020.996094 618.933594 1022.578125 619.773438 1023.953125 620.542969 C 1024.3125 620.742188 1024.671875 620.941406 1025.03125 621.125 C 1026.257812 621.738281 1027.824219 621.980469 1028.441406 621.265625 C 1029.226562 620.351562 1028.207031 618.421875 1026.988281 616.917969 L 1016.269531 603.65625 C 1014.628906 601.625 1012.933594 599.527344 1010.753906 598.234375 C 1008.492188 599.429688 1004.601562 599.859375 1002.933594 598.621094 C 1002.140625 598.027344 1001.839844 597.113281 1002.113281 596.1875 C 1002.207031 595.460938 1002.632812 594.839844 1003.3125 594.449219 C 1004.914062 593.535156 1008.011719 593.988281 1010.351562 594.824219 C 1011.761719 593.339844 1012.574219 591.195312 1013.300781 589.28125 C 1017.441406 578.359375 1021.722656 566.988281 1026 555.621094 C 1030.277344 544.253906 1034.558594 532.882812 1038.703125 521.957031 L 1041.464844 523.007812 C 1037.324219 533.929688 1033.042969 545.296875 1028.765625 556.664062 C 1024.488281 568.035156 1020.207031 579.40625 1016.0625 590.328125 C 1015.359375 592.183594 1014.523438 594.390625 1013.0625 596.207031 C 1015.300781 597.753906 1017.027344 599.890625 1018.570312 601.796875 L 1029.289062 615.058594 C 1031.910156 618.296875 1032.402344 621.1875 1030.683594 623.1875 C 1028.878906 625.292969 1025.792969 624.816406 1023.703125 623.765625 C 1023.308594 623.566406 1022.910156 623.34375 1022.515625 623.121094 C 1022.015625 622.84375 1021.523438 622.574219 1021.046875 622.355469 C 1020.800781 625.347656 1017.746094 628.015625 1014.664062 629.613281 L 1002.039062 636.160156 C 1000.351562 637.035156 999.011719 637.351562 997.949219 637.351562 Z M 997.949219 637.351562 " fill-opacity="1" fill-rule="nonzero"/><path fill="#000000" d="M 1284.613281 681.515625 C 1283.898438 681.515625 1283.171875 681.382812 1282.449219 681.082031 L 1281.734375 680.78125 L 1281.574219 680.023438 C 1280.488281 674.917969 1282.453125 670.148438 1284.351562 665.527344 C 1285.539062 662.644531 1286.769531 659.664062 1287.175781 656.710938 C 1287.957031 651.09375 1285.835938 645.3125 1283.964844 640.210938 C 1283.804688 639.773438 1283.375 638.597656 1282.859375 638.453125 C 1282.453125 638.351562 1281.695312 638.921875 1281.074219 639.84375 C 1279.8125 641.71875 1278.867188 643.957031 1277.953125 646.121094 C 1276.332031 649.964844 1274.65625 653.933594 1271.097656 656.488281 C 1269.683594 657.5 1268.308594 657.929688 1267.019531 657.773438 C 1265.851562 657.628906 1264.789062 656.992188 1264.027344 655.980469 C 1263.066406 654.695312 1262.636719 652.875 1262.90625 651.230469 C 1263.199219 649.445312 1264.042969 647.949219 1264.859375 646.5 C 1265.121094 646.042969 1265.378906 645.582031 1265.617188 645.117188 C 1267.945312 640.542969 1268.148438 634.964844 1268.347656 629.570312 C 1268.59375 622.8125 1268.851562 615.820312 1273.171875 610.367188 C 1273.789062 609.589844 1274.46875 608.878906 1275.121094 608.191406 C 1276.085938 607.183594 1276.996094 606.226562 1277.652344 605.136719 C 1279.191406 602.585938 1279.316406 599.347656 1279.222656 596.230469 C 1278.816406 582.589844 1274.867188 569.246094 1271.050781 556.34375 L 1257.648438 511.027344 L 1260.480469 510.191406 L 1273.882812 555.503906 C 1277.757812 568.589844 1281.757812 582.121094 1282.175781 596.140625 C 1282.277344 599.539062 1282.121094 603.449219 1280.183594 606.664062 C 1279.359375 608.03125 1278.292969 609.148438 1277.261719 610.230469 C 1276.652344 610.871094 1276.039062 611.511719 1275.492188 612.203125 C 1271.769531 616.898438 1271.542969 623.109375 1271.300781 629.679688 C 1271.089844 635.394531 1270.875 641.300781 1268.25 646.457031 C 1267.996094 646.960938 1267.714844 647.460938 1267.433594 647.957031 C 1266.710938 649.234375 1266.027344 650.441406 1265.824219 651.707031 C 1265.683594 652.558594 1265.914062 653.5625 1266.394531 654.207031 C 1266.675781 654.578125 1267.003906 654.792969 1267.378906 654.839844 C 1267.910156 654.890625 1268.582031 654.652344 1269.375 654.085938 C 1272.257812 652.019531 1273.703125 648.597656 1275.230469 644.972656 C 1276.199219 642.679688 1277.199219 640.308594 1278.621094 638.195312 C 1280.050781 636.058594 1281.886719 635.117188 1283.652344 635.605469 C 1285.628906 636.15625 1286.378906 638.210938 1286.742188 639.195312 C 1288.730469 644.617188 1290.984375 650.765625 1290.105469 657.113281 C 1289.644531 660.441406 1288.34375 663.597656 1287.085938 666.652344 C 1285.402344 670.742188 1283.808594 674.621094 1284.316406 678.53125 C 1285.683594 678.679688 1287.230469 677.773438 1288.214844 676.742188 C 1289.050781 675.867188 1289.726562 674.816406 1290.445312 673.703125 C 1290.988281 672.867188 1291.542969 672 1292.195312 671.183594 C 1293.40625 669.652344 1294.863281 668.378906 1296.265625 667.148438 C 1298.089844 665.546875 1299.816406 664.035156 1300.902344 662.101562 C 1302.117188 659.949219 1302.484375 657.363281 1302.785156 654.679688 C 1305.011719 634.660156 1303.757812 614.09375 1302.542969 594.207031 C 1302.363281 591.21875 1302.179688 588.230469 1302.007812 585.246094 C 1300.382812 556.886719 1299.777344 528.117188 1300.199219 499.734375 L 1303.152344 499.777344 C 1302.730469 528.089844 1303.339844 556.789062 1304.960938 585.078125 C 1305.128906 588.058594 1305.3125 591.042969 1305.496094 594.027344 C 1306.714844 614.039062 1307.976562 634.734375 1305.722656 655.007812 C 1305.402344 657.882812 1304.964844 660.914062 1303.480469 663.554688 C 1302.140625 665.925781 1300.144531 667.675781 1298.214844 669.367188 C 1296.847656 670.566406 1295.558594 671.699219 1294.511719 673.019531 C 1293.949219 673.726562 1293.453125 674.492188 1292.929688 675.308594 C 1292.171875 676.484375 1291.382812 677.703125 1290.351562 678.78125 C 1289.015625 680.1875 1286.882812 681.515625 1284.613281 681.515625 Z M 1284.613281 681.515625 " fill-opacity="1" fill-rule="nonzero"/><path fill="#000000" d="M 1178.269531 234.90625 C 1178.003906 225.988281 1178.675781 216.996094 1179.5 208.191406 C 1179.246094 208.492188 1178.972656 208.78125 1178.660156 209.050781 C 1177.472656 210.089844 1176.039062 210.632812 1174.777344 211.109375 L 1167.566406 213.839844 C 1165.097656 214.773438 1162.542969 215.738281 1159.777344 216.03125 C 1157.039062 216.328125 1154.378906 215.925781 1151.804688 215.539062 L 1137.140625 213.355469 C 1136.902344 213.320312 1136.636719 213.28125 1136.355469 213.226562 C 1136.742188 220.925781 1136.445312 226.566406 1135.324219 233.855469 L 1132.40625 233.40625 C 1133.429688 226.734375 1133.742188 221.476562 1133.460938 214.617188 L 1133.335938 214.335938 C 1133.324219 214.304688 1132.328125 210.613281 1133.816406 209.628906 L 1134.839844 208.949219 L 1135.804688 209.867188 C 1136.121094 210.195312 1136.820312 210.320312 1137.574219 210.433594 L 1152.242188 212.617188 C 1154.632812 212.976562 1157.105469 213.339844 1159.464844 213.09375 C 1161.855469 212.839844 1164.226562 211.945312 1166.519531 211.074219 L 1173.730469 208.347656 C 1174.808594 207.9375 1175.929688 207.515625 1176.71875 206.824219 C 1177.484375 206.152344 1178.039062 205.15625 1178.621094 204.101562 C 1179.054688 203.320312 1179.523438 202.476562 1180.125 201.707031 C 1180.324219 199.699219 1180.574219 197.644531 1181.28125 195.640625 C 1182.191406 193.0625 1183.757812 190.871094 1185.273438 188.75 C 1186.796875 186.621094 1188.234375 184.609375 1188.972656 182.320312 C 1189.195312 181.628906 1189.359375 180.921875 1189.519531 180.210938 C 1189.8125 178.921875 1190.117188 177.585938 1190.757812 176.304688 C 1191.945312 173.9375 1194.585938 171.96875 1197.367188 172.8125 C 1199.265625 173.386719 1200.6875 175.230469 1200.988281 177.511719 C 1201.222656 179.335938 1200.777344 181.0625 1200.386719 182.589844 L 1197.769531 192.769531 C 1197.007812 195.722656 1196.042969 198.746094 1193.367188 200.371094 C 1191.605469 201.441406 1189.558594 201.550781 1187.753906 201.652344 C 1186.082031 201.742188 1184.503906 201.828125 1183.382812 202.617188 C 1183.238281 202.71875 1183.101562 202.828125 1182.972656 202.953125 C 1181.953125 213.414062 1180.910156 224.214844 1181.222656 234.820312 Z M 1196.074219 175.578125 C 1195.046875 175.578125 1193.9375 176.558594 1193.402344 177.628906 C 1192.921875 178.589844 1192.667969 179.695312 1192.402344 180.871094 C 1192.21875 181.664062 1192.035156 182.460938 1191.785156 183.230469 C 1190.902344 185.957031 1189.265625 188.25 1187.679688 190.46875 C 1186.21875 192.511719 1184.839844 194.441406 1184.070312 196.625 C 1183.765625 197.488281 1183.554688 198.402344 1183.402344 199.332031 C 1184.78125 198.855469 1186.25 198.773438 1187.59375 198.699219 C 1189.191406 198.613281 1190.703125 198.527344 1191.835938 197.84375 C 1193.5625 196.796875 1194.296875 194.398438 1194.90625 192.03125 L 1197.523438 181.851562 C 1197.867188 180.523438 1198.21875 179.148438 1198.054688 177.894531 C 1197.9375 177 1197.402344 175.910156 1196.511719 175.640625 C 1196.367188 175.597656 1196.222656 175.578125 1196.074219 175.578125 Z M 1196.074219 175.578125 " fill-opacity="1" fill-rule="nonzero"/><g clip-path="url(#7fe7e8650a)"><path fill="#000000" d="M 1137.0625 213.34375 C 1131.183594 212.144531 1125.8125 208.074219 1123.703125 203.210938 C 1122.5 200.4375 1121.714844 197.519531 1120.949219 194.695312 C 1120.398438 192.636719 1119.820312 190.503906 1119.097656 188.496094 C 1118.890625 187.921875 1118.640625 187.289062 1118.277344 187.039062 C 1117.84375 186.738281 1117.078125 186.828125 1116.183594 186.933594 C 1115.277344 187.039062 1114.25 187.164062 1113.214844 186.902344 C 1109.738281 186.023438 1108.875 181.785156 1108.554688 180.191406 L 1107.390625 174.445312 C 1106.953125 172.277344 1106.40625 169.585938 1107.332031 167.039062 C 1108.101562 164.910156 1110.0625 163.300781 1112.105469 163.007812 C 1110.851562 156.4375 1110.683594 149.746094 1111.605469 143.113281 C 1111.914062 140.902344 1112.378906 138.582031 1113.679688 136.597656 C 1114.886719 134.757812 1116.644531 133.472656 1118.191406 132.335938 C 1126.859375 125.976562 1136.195312 119.867188 1146.433594 121.09375 C 1150.433594 121.570312 1154.121094 123.148438 1157.6875 124.675781 C 1158.714844 125.113281 1159.738281 125.550781 1160.765625 125.964844 C 1166.609375 128.296875 1172.757812 129.785156 1179.039062 130.382812 C 1179.5 130.417969 1179.667969 130.160156 1179.742188 129.929688 C 1179.792969 129.765625 1179.867188 129.355469 1179.410156 129.089844 C 1178.96875 128.832031 1178.507812 128.609375 1178.0625 128.421875 C 1170.710938 125.289062 1162.945312 123.371094 1154.984375 122.730469 C 1153.75 122.628906 1152.605469 122.335938 1151.496094 122.050781 C 1151.140625 121.960938 1150.785156 121.867188 1150.425781 121.78125 C 1147.863281 121.179688 1146.433594 120.144531 1146.175781 118.707031 C 1146.027344 117.878906 1146.226562 116.644531 1148.007812 115.460938 L 1148.402344 115.199219 L 1148.875 115.214844 C 1165.589844 115.78125 1171.191406 119.179688 1177.679688 123.121094 C 1179.378906 124.152344 1181.140625 125.21875 1183.175781 126.265625 C 1189.953125 129.746094 1199.238281 134.515625 1200.941406 143.367188 C 1201.257812 145.015625 1201.277344 146.660156 1201.296875 148.25 C 1201.308594 149.335938 1201.320312 150.359375 1201.421875 151.375 C 1201.542969 152.59375 1201.789062 153.792969 1202.050781 155.066406 C 1202.359375 156.570312 1202.679688 158.125 1202.78125 159.730469 C 1203.136719 165.4375 1200.746094 170.742188 1198.636719 175.421875 L 1195.941406 174.207031 C 1197.910156 169.839844 1200.144531 164.890625 1199.832031 159.914062 C 1199.742188 158.515625 1199.457031 157.128906 1199.15625 155.664062 C 1198.890625 154.371094 1198.617188 153.035156 1198.480469 151.667969 C 1198.367188 150.523438 1198.355469 149.386719 1198.339844 148.285156 C 1198.324219 146.757812 1198.304688 145.3125 1198.039062 143.925781 C 1196.671875 136.820312 1189.136719 132.664062 1182.726562 129.355469 C 1182.769531 129.839844 1182.714844 130.339844 1182.554688 130.832031 C 1182.023438 132.492188 1180.496094 133.5 1178.757812 133.324219 C 1172.195312 132.699219 1165.773438 131.144531 1159.667969 128.707031 C 1158.617188 128.289062 1157.570312 127.839844 1156.527344 127.394531 C 1152.996094 125.882812 1149.65625 124.453125 1146.082031 124.027344 C 1136.894531 122.929688 1128.476562 128.457031 1119.9375 134.71875 C 1118.527344 135.757812 1117.066406 136.828125 1116.152344 138.21875 C 1115.171875 139.714844 1114.792969 141.648438 1114.535156 143.519531 C 1113.625 150.058594 1113.828125 156.660156 1115.140625 163.136719 C 1115.285156 163.847656 1115.089844 164.597656 1114.621094 165.140625 C 1114.167969 165.667969 1113.5 165.960938 1112.828125 165.917969 C 1111.789062 165.871094 1110.542969 166.84375 1110.109375 168.046875 C 1109.46875 169.8125 1109.902344 171.960938 1110.285156 173.859375 L 1111.449219 179.605469 C 1112.003906 182.339844 1112.796875 183.75 1113.9375 184.035156 C 1114.449219 184.164062 1115.117188 184.085938 1115.832031 184 C 1117.070312 183.851562 1118.609375 183.671875 1119.964844 184.609375 C 1121.132812 185.421875 1121.617188 186.769531 1121.878906 187.496094 C 1122.640625 189.617188 1123.234375 191.808594 1123.804688 193.925781 C 1124.570312 196.769531 1125.296875 199.457031 1126.414062 202.03125 C 1128.128906 205.988281 1132.753906 209.449219 1137.652344 210.445312 Z M 1149.25 118.222656 C 1149.53125 118.402344 1150.101562 118.667969 1151.105469 118.90625 C 1151.480469 118.996094 1151.855469 119.089844 1152.230469 119.1875 C 1153.265625 119.453125 1154.238281 119.703125 1155.222656 119.78125 C 1160.621094 120.21875 1165.933594 121.21875 1171.09375 122.761719 C 1166.414062 120.40625 1160.554688 118.617188 1149.289062 118.1875 C 1149.277344 118.199219 1149.261719 118.210938 1149.25 118.222656 Z M 1149.25 118.222656 " fill-opacity="1" fill-rule="nonzero"/></g><path fill="#000000" d="M 870.039062 566.121094 C 868.996094 566.121094 867.945312 566.019531 866.878906 565.792969 L 866.253906 565.660156 L 865.921875 565.113281 C 864.21875 562.296875 864.507812 558.984375 865.824219 556.1875 C 858.3125 555.601562 850.816406 551.097656 845.710938 543.941406 C 840.128906 536.117188 838.035156 526.636719 836.832031 519.25 C 835.796875 512.875 834.832031 504.503906 836.601562 496.253906 C 838.414062 487.820312 843.019531 480.757812 849.242188 476.882812 C 850.042969 476.382812 851.011719 475.855469 852.144531 475.742188 C 854.0625 475.550781 857.484375 476.332031 858.984375 483.726562 C 859.589844 486.714844 860.578125 490.511719 862.867188 493.332031 C 864.703125 495.597656 867.996094 497.546875 871.214844 496.8125 C 872.707031 496.472656 874.105469 495.339844 874.859375 493.859375 C 875.472656 492.65625 875.566406 491.410156 875.117188 490.359375 C 874.414062 488.707031 872.605469 487.578125 870.753906 486.601562 L 869.230469 485.8125 C 866.34375 484.332031 863.363281 482.796875 861.035156 480.328125 C 858.292969 477.417969 856.445312 472.433594 858.875 468.375 L 859.300781 467.660156 L 892.605469 467.515625 C 896.191406 467.492188 900.902344 467.480469 904.507812 469.964844 C 907.539062 472.054688 909.078125 475.308594 910.5625 478.453125 C 911.332031 480.078125 912.054688 481.613281 912.96875 482.992188 C 913.882812 484.367188 915.011719 485.617188 916.203125 486.9375 C 918.136719 489.082031 920.140625 491.300781 921.214844 494.164062 C 922.613281 497.902344 922.125 501.835938 920.972656 505.726562 L 917.953125 542.792969 C 917.867188 543.84375 917.761719 545.152344 917.109375 546.328125 C 916.128906 548.105469 914.304688 548.988281 912.695312 549.765625 C 910.960938 550.601562 909.894531 551.183594 909.675781 552.1875 C 909.613281 552.480469 909.621094 552.863281 909.632812 553.265625 C 909.648438 553.917969 909.667969 554.65625 909.414062 555.4375 C 908.246094 559.035156 903.507812 558.714844 901.726562 558.601562 C 896.996094 558.28125 892.140625 558.957031 887.675781 560.542969 C 886.058594 561.117188 884.390625 561.835938 882.777344 562.53125 C 878.675781 564.300781 874.457031 566.121094 870.039062 566.121094 Z M 868.160156 563.023438 C 872.589844 563.707031 876.976562 561.816406 881.605469 559.816406 C 883.265625 559.101562 884.976562 558.363281 886.6875 557.757812 C 891.527344 556.035156 896.800781 555.308594 901.921875 555.652344 C 904.757812 555.84375 906.292969 555.472656 906.601562 554.523438 C 906.699219 554.222656 906.6875 553.792969 906.675781 553.339844 C 906.664062 552.804688 906.648438 552.199219 906.789062 551.5625 C 907.324219 549.078125 909.496094 548.027344 911.410156 547.101562 C 912.738281 546.460938 913.996094 545.855469 914.523438 544.898438 C 914.867188 544.277344 914.9375 543.398438 915.007812 542.550781 L 917.179688 515.855469 L 914.953125 521.507812 C 914.621094 522.34375 914.121094 523.613281 912.929688 524.34375 C 911.9375 524.949219 910.785156 524.921875 909.992188 524.949219 C 909.773438 524.945312 909.5625 524.945312 909.355469 524.957031 C 907.847656 525.035156 906.394531 526.097656 905.566406 527.730469 C 904.738281 529.363281 904.738281 531.160156 905.570312 532.425781 C 905.894531 532.921875 906.308594 533.402344 906.71875 533.886719 C 908.039062 535.457031 909.683594 537.40625 908.796875 539.851562 C 907.972656 542.109375 905.425781 542.832031 904.199219 543.179688 L 881.113281 549.734375 C 877.550781 550.746094 873.515625 551.894531 870.6875 554.453125 C 868.382812 556.542969 866.910156 560.207031 868.160156 563.023438 Z M 852.605469 478.675781 C 852.550781 478.675781 852.496094 478.675781 852.4375 478.683594 C 851.914062 478.734375 851.34375 479.054688 850.804688 479.390625 C 845.257812 482.847656 841.136719 489.21875 839.492188 496.875 C 837.828125 504.640625 838.753906 512.65625 839.75 518.773438 C 840.898438 525.84375 842.890625 534.898438 848.117188 542.222656 C 853.097656 549.207031 860.464844 553.324219 867.699219 553.292969 C 868.019531 552.925781 868.355469 552.578125 868.707031 552.261719 C 872.042969 549.238281 876.433594 547.992188 880.304688 546.890625 L 903.394531 540.335938 C 904.539062 540.011719 905.75 539.578125 906.019531 538.839844 C 906.300781 538.0625 905.617188 537.167969 904.457031 535.792969 C 903.988281 535.238281 903.503906 534.664062 903.101562 534.046875 C 901.691406 531.902344 901.625 528.96875 902.929688 526.394531 C 904.234375 523.820312 906.640625 522.140625 909.207031 522.007812 C 909.464844 521.996094 909.738281 522.003906 909.992188 521.992188 C 910.570312 522 911.105469 521.992188 911.386719 521.820312 C 911.734375 521.609375 912.003906 520.921875 912.203125 520.421875 L 916.359375 509.882812 C 916.984375 508.308594 917.574219 506.742188 918.050781 505.207031 L 918.132812 504.175781 L 918.347656 504.191406 C 919.210938 501.035156 919.496094 498.003906 918.445312 495.203125 C 917.570312 492.863281 915.839844 490.945312 914.007812 488.917969 C 912.796875 487.574219 911.542969 486.1875 910.507812 484.625 C 909.476562 483.070312 908.667969 481.363281 907.890625 479.714844 C 906.511719 476.796875 905.207031 474.035156 902.828125 472.398438 C 900.203125 470.585938 896.710938 470.441406 892.753906 470.472656 L 861.058594 470.609375 C 860.074219 473.136719 861.300781 476.300781 863.1875 478.304688 C 865.164062 480.402344 867.792969 481.75 870.578125 483.179688 C 871.097656 483.449219 871.617188 483.714844 872.132812 483.988281 C 874.464844 485.214844 876.773438 486.699219 877.835938 489.199219 C 878.632812 491.070312 878.511719 493.203125 877.492188 495.203125 C 876.335938 497.472656 874.234375 499.152344 871.875 499.695312 C 867.953125 500.597656 863.519531 498.828125 860.574219 495.195312 C 857.878906 491.875 856.761719 487.632812 856.085938 484.3125 C 855.816406 482.96875 854.773438 478.675781 852.605469 478.675781 Z M 852.605469 478.675781 " fill-opacity="1" fill-rule="nonzero"/><path fill="#000000" d="M 852.617188 772.644531 C 849.734375 772.648438 847.007812 771.824219 845.105469 769.332031 C 843.628906 767.390625 843.230469 765.007812 842.972656 762.925781 C 841.671875 752.433594 842.695312 741.792969 843.683594 731.5 C 844.347656 724.558594 845.035156 717.382812 845 710.359375 C 844.9375 698.984375 842.984375 687.695312 840.261719 676.5625 C 831.671875 678.335938 822.886719 678.964844 814.144531 678.453125 C 812.085938 678.332031 809.730469 678.085938 807.867188 676.660156 C 804.003906 673.703125 804.789062 668.148438 805.71875 664.230469 L 816.839844 617.203125 C 818.785156 608.972656 820.992188 599.640625 826.4375 592.1875 C 830.875 586.113281 836.976562 581.808594 843.367188 577.578125 C 851.082031 572.460938 859.042969 567.503906 867.019531 562.84375 L 868.511719 565.394531 C 860.582031 570.027344 852.667969 574.953125 845 580.039062 C 838.84375 584.121094 832.976562 588.253906 828.824219 593.929688 C 823.730469 600.902344 821.597656 609.925781 819.714844 617.886719 L 808.59375 664.910156 C 807.421875 669.867188 807.761719 672.855469 809.664062 674.3125 C 810.863281 675.230469 812.621094 675.40625 814.316406 675.503906 C 822.40625 675.984375 830.53125 675.441406 838.496094 673.898438 C 837.515625 669.441406 836.640625 664.957031 835.878906 660.441406 C 835.050781 657.625 834.214844 654.820312 833.378906 652.027344 L 832.117188 647.800781 C 832.058594 647.601562 826.875 627.453125 831.164062 624.902344 C 831.789062 624.53125 833.082031 624.164062 834.765625 625.84375 L 835.167969 626.246094 L 835.195312 626.816406 C 835.726562 637.835938 836.921875 648.871094 838.761719 659.777344 C 843.566406 676.21875 847.859375 693.109375 847.953125 710.34375 C 847.992188 717.515625 847.296875 724.769531 846.625 731.78125 C 845.652344 741.917969 844.644531 752.394531 845.90625 762.5625 C 846.117188 764.261719 846.425781 766.1875 847.457031 767.539062 C 850.195312 771.132812 856.054688 769.574219 861.816406 767.667969 C 875.371094 763.183594 890.015625 763.464844 904.179688 763.746094 C 920.757812 764.058594 936.425781 764.371094 950.707031 757.785156 C 951.636719 757.355469 952.582031 756.878906 953.097656 756.167969 C 953.628906 755.445312 953.785156 754.359375 953.878906 753.296875 C 954.589844 745.085938 952.558594 737.152344 950.40625 728.753906 C 949.398438 724.820312 948.355469 720.75 947.640625 716.6875 C 946.167969 708.351562 946.03125 699.816406 945.894531 691.566406 L 945.179688 647.699219 C 945.164062 646.707031 945.28125 645.789062 945.519531 644.9375 C 939.511719 638.742188 932.984375 631.734375 929.464844 623.164062 C 927.367188 618.054688 926.40625 612.554688 925.472656 607.234375 C 924.347656 600.796875 923.28125 594.71875 920.386719 589.242188 C 918.90625 586.441406 917.019531 583.9375 915.019531 581.285156 C 913.636719 579.449219 912.203125 577.554688 910.9375 575.566406 C 907.492188 570.164062 904.511719 561.800781 906.109375 556.199219 L 906.347656 555.363281 L 907.195312 555.164062 C 920.65625 552.03125 935.433594 559.558594 943.460938 567.882812 C 950.304688 574.976562 953.890625 584.292969 957.359375 593.300781 C 960.355469 601.085938 963.457031 609.140625 968.632812 615.5625 C 969.035156 616.058594 969.453125 616.550781 969.867188 617.042969 C 971.300781 618.734375 972.785156 620.488281 973.789062 622.605469 C 975.398438 626.003906 975.183594 629.742188 973.242188 632.128906 C 971.640625 634.09375 969.230469 634.878906 967.101562 635.574219 L 966.800781 635.671875 C 965.730469 636.023438 964.59375 636.367188 963.429688 636.71875 C 956.214844 638.910156 948.035156 641.390625 948.136719 647.652344 L 948.851562 691.515625 C 948.984375 699.65625 949.121094 708.070312 950.550781 716.175781 C 951.246094 720.125 952.277344 724.140625 953.269531 728.019531 C 955.390625 736.289062 957.578125 744.839844 956.820312 753.550781 C 956.691406 755.042969 956.441406 756.601562 955.488281 757.910156 C 954.554688 759.1875 953.171875 759.902344 951.949219 760.464844 C 937.046875 767.339844 920.308594 767.019531 904.125 766.703125 C 890.210938 766.4375 875.820312 766.152344 862.746094 770.476562 C 859.976562 771.390625 856.179688 772.644531 852.617188 772.644531 Z M 908.761719 557.855469 C 907.976562 562.410156 910.421875 569.265625 913.425781 573.976562 C 914.632812 575.867188 916.027344 577.71875 917.378906 579.503906 C 919.359375 582.132812 921.410156 584.851562 923 587.859375 C 926.113281 593.75 927.269531 600.34375 928.386719 606.722656 C 929.289062 611.886719 930.222656 617.226562 932.199219 622.042969 C 935.363281 629.75 941.28125 636.285156 946.878906 642.09375 C 949.988281 637.710938 956.800781 635.644531 962.570312 633.890625 C 963.714844 633.546875 964.828125 633.207031 965.882812 632.863281 L 966.183594 632.765625 C 968.007812 632.167969 969.894531 631.550781 970.949219 630.261719 C 972.4375 628.429688 971.96875 625.671875 971.117188 623.871094 C 970.277344 622.101562 968.984375 620.570312 967.613281 618.949219 C 967.179688 618.441406 966.75 617.933594 966.332031 617.414062 C 960.863281 610.636719 957.679688 602.363281 954.601562 594.363281 C 951.082031 585.226562 947.761719 576.597656 941.332031 569.933594 C 933.824219 562.148438 920.351562 555.628906 908.761719 557.855469 Z M 832.402344 629.910156 C 832.378906 631.589844 832.546875 633.882812 832.855469 636.355469 C 832.679688 634.210938 832.527344 632.058594 832.402344 629.910156 Z M 832.402344 629.910156 " fill-opacity="1" fill-rule="nonzero"/><path fill="#000000" d="M 823.347656 789.15625 C 822.617188 789.15625 821.859375 789.0625 821.085938 788.867188 C 819.960938 788.585938 818.921875 788.152344 817.914062 787.730469 C 817.1875 787.429688 816.460938 787.125 815.710938 786.890625 C 815.378906 786.789062 815.042969 786.695312 814.703125 786.605469 C 813.441406 786.265625 812.015625 785.882812 810.839844 784.886719 C 808.050781 782.53125 808.414062 778.53125 809.039062 775.304688 C 809.550781 772.679688 810.132812 769.703125 811.730469 767.15625 C 812.570312 765.820312 813.625 764.703125 814.644531 763.621094 C 815.6875 762.519531 816.671875 761.476562 817.363281 760.28125 C 819.449219 756.6875 818.789062 751.953125 818.207031 747.777344 C 814.976562 724.632812 813.757812 700.921875 812.578125 677.992188 L 815.53125 677.839844 C 816.707031 700.707031 817.921875 724.351562 821.132812 747.371094 C 821.75 751.789062 822.515625 757.289062 819.921875 761.761719 C 819.054688 763.253906 817.90625 764.472656 816.796875 765.648438 C 815.832031 766.671875 814.917969 767.636719 814.234375 768.726562 C 812.929688 770.808594 812.425781 773.378906 811.941406 775.871094 C 811.46875 778.300781 811.132812 781.265625 812.75 782.632812 C 813.421875 783.199219 814.417969 783.46875 815.472656 783.75 C 815.847656 783.851562 816.222656 783.953125 816.589844 784.070312 C 817.425781 784.328125 818.238281 784.664062 819.050781 785.003906 C 820 785.398438 820.894531 785.769531 821.804688 786 C 823.078125 786.324219 824.785156 786.332031 825.746094 785.40625 C 825.980469 785.183594 826.171875 784.921875 826.367188 784.664062 C 826.65625 784.28125 826.984375 783.847656 827.414062 783.457031 C 828.167969 782.78125 829.042969 782.410156 829.8125 782.082031 C 830.410156 781.828125 830.976562 781.589844 831.363281 781.257812 C 831.769531 780.90625 832.089844 780.355469 832.386719 779.824219 C 834.210938 776.535156 835.4375 772.980469 836.03125 769.261719 C 836.714844 764.957031 836.523438 760.4375 836.339844 756.066406 C 836.289062 754.945312 836.242188 753.828125 836.210938 752.707031 C 835.855469 741.105469 836.996094 729.375 838.09375 718.027344 C 839.398438 704.550781 840.75 690.617188 839.570312 677 L 842.511719 676.746094 C 843.71875 690.632812 842.355469 704.703125 841.035156 718.3125 C 839.945312 729.566406 838.816406 741.203125 839.164062 752.617188 C 839.195312 753.722656 839.242188 754.832031 839.292969 755.941406 C 839.484375 760.460938 839.679688 765.128906 838.949219 769.730469 C 838.304688 773.785156 836.964844 777.667969 834.96875 781.261719 C 834.566406 781.988281 834.066406 782.828125 833.289062 783.496094 C 832.554688 784.128906 831.710938 784.484375 830.96875 784.804688 C 830.355469 785.0625 829.777344 785.308594 829.390625 785.65625 C 829.132812 785.886719 828.933594 786.167969 828.722656 786.445312 C 828.433594 786.828125 828.136719 787.207031 827.792969 787.539062 C 826.691406 788.597656 825.113281 789.15625 823.347656 789.15625 Z M 823.347656 789.15625 " fill-opacity="1" fill-rule="nonzero"/><path fill="#000000" d="M 864.203125 869.101562 C 862.121094 869.101562 859.347656 868.746094 857.695312 866.621094 C 856.539062 865.136719 856.332031 863.238281 856.179688 861.851562 C 854.480469 846.375 852.902344 830.941406 851.378906 816.015625 C 849.851562 801.09375 848.273438 785.664062 846.578125 770.199219 L 849.515625 769.875 C 851.214844 785.355469 852.792969 800.789062 854.320312 815.714844 C 855.84375 830.632812 857.421875 846.0625 859.117188 861.53125 C 859.269531 862.917969 859.433594 864.042969 860.027344 864.804688 C 861.085938 866.167969 863.378906 866.230469 865.691406 866.09375 L 900.632812 864.066406 C 902.386719 863.964844 903.921875 863.8125 904.90625 862.980469 C 906.355469 861.761719 906.382812 859.269531 906.195312 856.757812 L 903.8125 824.835938 C 900.558594 812.351562 896.039062 800.414062 888.023438 790.539062 C 887.398438 789.765625 886.746094 788.992188 886.085938 788.210938 C 882.808594 784.3125 879.417969 780.285156 878.152344 775.554688 C 877.800781 774.242188 878.363281 772.925781 879.546875 772.273438 C 880.722656 771.625 882.128906 771.851562 883.039062 772.839844 C 891.378906 781.859375 899.835938 791.699219 903.648438 804.027344 C 905.699219 810.667969 906.234375 817.609375 906.738281 824.332031 C 908.496094 831.125 909.886719 838.058594 911.257812 844.914062 C 912.15625 849.382812 913.082031 854.003906 914.089844 858.460938 C 914.382812 859.765625 914.777344 861.207031 915.691406 861.738281 C 916.441406 862.171875 917.601562 862.027344 918.824219 861.824219 L 956.632812 855.542969 C 957.980469 855.320312 959.148438 855.078125 959.820312 854.398438 C 960.6875 853.519531 960.734375 851.871094 960.710938 850.257812 L 959.992188 801.601562 C 959.761719 786.046875 959.523438 769.964844 954.339844 755.074219 L 957.132812 754.101562 C 962.472656 769.441406 962.714844 785.769531 962.949219 801.558594 L 963.667969 850.214844 C 963.691406 851.871094 963.730469 854.640625 961.925781 856.472656 C 960.523438 857.894531 958.558594 858.222656 957.121094 858.460938 L 919.308594 864.742188 C 917.96875 864.964844 915.941406 865.300781 914.207031 864.292969 C 912.101562 863.074219 911.519531 860.496094 911.207031 859.113281 C 910.191406 854.617188 909.261719 849.980469 908.359375 845.492188 C 908.339844 845.378906 908.316406 845.265625 908.292969 845.152344 L 909.144531 856.539062 C 909.386719 859.832031 909.277344 863.164062 906.8125 865.242188 C 904.996094 866.769531 902.574219 866.914062 900.804688 867.015625 L 865.863281 869.042969 C 865.410156 869.070312 864.839844 869.101562 864.203125 869.101562 Z M 880.871094 774.84375 C 882.105469 778.886719 885.277344 782.65625 888.347656 786.304688 C 889.019531 787.101562 889.683594 787.890625 890.320312 788.675781 C 895.359375 794.886719 899.054688 801.824219 901.925781 809.160156 C 901.617188 807.722656 901.257812 806.300781 900.824219 804.902344 C 897.195312 793.164062 888.976562 783.617188 880.871094 774.84375 Z M 880.871094 774.84375 " fill-opacity="1" fill-rule="nonzero"/><path fill="#000000" d="M 892.527344 1019.03125 C 891.234375 1019.03125 889.929688 1018.960938 888.652344 1018.863281 C 884.707031 1018.558594 880.238281 1018.210938 876.289062 1016.304688 L 875.621094 1015.980469 L 875.480469 1015.257812 C 874.867188 1012.128906 876.726562 1009.59375 878.367188 1007.359375 C 879.242188 1006.167969 880.066406 1005.046875 880.550781 1003.875 C 881.183594 1002.359375 881.269531 1000.585938 881.304688 998.898438 C 881.605469 984.371094 878.160156 969.851562 874.832031 955.808594 C 872.433594 945.707031 869.957031 935.261719 868.84375 924.773438 C 867.988281 916.753906 867.917969 908.570312 867.847656 900.65625 C 867.757812 890.238281 867.664062 879.472656 865.765625 869.136719 L 868.671875 868.601562 C 870.617188 879.191406 870.710938 890.089844 870.804688 900.628906 C 870.871094 908.472656 870.941406 916.582031 871.78125 924.460938 C 872.878906 934.761719 875.332031 945.113281 877.707031 955.125 C 881.078125 969.347656 884.566406 984.054688 884.257812 998.960938 C 884.21875 1000.839844 884.109375 1003.015625 883.28125 1005.011719 C 882.660156 1006.507812 881.6875 1007.832031 880.75 1009.109375 C 879.472656 1010.847656 878.347656 1012.382812 878.316406 1013.980469 C 881.589844 1015.351562 885.292969 1015.636719 888.878906 1015.914062 C 893.96875 1016.3125 899.527344 1016.226562 902.140625 1012.671875 C 904.542969 1009.402344 903.449219 1004.710938 902.390625 1000.175781 L 902.09375 998.886719 C 900.355469 991.207031 900.238281 983.429688 900.269531 974.785156 C 900.320312 960.027344 900.640625 945.054688 901.226562 930.289062 L 901.265625 929.308594 C 901.515625 923 901.777344 916.480469 901.082031 910.171875 C 900.859375 908.117188 900.523438 906.019531 900.199219 903.992188 C 899.660156 900.597656 899.101562 897.085938 899.003906 893.542969 C 898.878906 889.007812 899.519531 884.472656 900.132812 880.085938 C 900.925781 874.429688 901.675781 869.089844 900.953125 863.710938 L 903.882812 863.316406 C 904.660156 869.097656 903.847656 874.894531 903.058594 880.5 C 902.460938 884.761719 901.84375 889.175781 901.957031 893.464844 C 902.050781 896.8125 902.59375 900.226562 903.121094 903.53125 C 903.449219 905.589844 903.789062 907.722656 904.019531 909.847656 C 904.738281 916.378906 904.472656 923.011719 904.214844 929.425781 L 904.179688 930.402344 C 903.597656 945.136719 903.277344 960.070312 903.222656 974.796875 C 903.195312 983.253906 903.304688 990.855469 904.976562 998.230469 L 905.269531 999.503906 C 906.421875 1004.449219 907.730469 1010.054688 904.523438 1014.421875 C 901.800781 1018.125 897.222656 1019.03125 892.527344 1019.03125 Z M 892.527344 1019.03125 " fill-opacity="1" fill-rule="nonzero"/><path fill="#000000" d="M 949.972656 1011.960938 C 946.050781 1011.960938 941.886719 1011.515625 938.195312 1009.625 C 935.511719 1008.25 933.28125 1006.226562 931.121094 1004.265625 C 928.46875 1001.855469 925.960938 999.582031 922.824219 998.628906 C 922.054688 998.390625 921.234375 998.234375 920.371094 998.070312 C 918.71875 997.753906 917.007812 997.425781 915.429688 996.5 C 911.359375 994.101562 910.394531 989.054688 910.800781 985.460938 C 911.15625 982.363281 912.339844 979.511719 913.484375 976.753906 C 913.765625 976.074219 914.050781 975.390625 914.320312 974.707031 C 920.148438 959.9375 919.703125 943.484375 919.273438 927.570312 C 918.917969 914.417969 918.554688 900.820312 921.617188 887.886719 C 921.890625 886.726562 922.195312 885.546875 922.496094 884.355469 C 924.390625 876.933594 926.347656 869.253906 922.730469 863.207031 L 925.265625 861.691406 C 929.515625 868.792969 927.308594 877.449219 925.359375 885.089844 C 925.0625 886.261719 924.765625 887.425781 924.496094 888.570312 C 921.519531 901.125 921.878906 914.53125 922.230469 927.492188 C 922.667969 943.699219 923.117188 960.460938 917.070312 975.792969 C 916.792969 976.492188 916.503906 977.191406 916.210938 977.890625 C 915.097656 980.574219 914.042969 983.109375 913.738281 985.796875 C 913.40625 988.722656 914.261719 992.382812 916.929688 993.953125 C 918.066406 994.621094 919.457031 994.886719 920.925781 995.167969 C 921.828125 995.339844 922.761719 995.519531 923.6875 995.800781 C 927.457031 996.949219 930.328125 999.554688 933.109375 1002.078125 C 935.21875 1003.992188 937.210938 1005.796875 939.542969 1006.992188 C 944.28125 1009.417969 950.066406 1009.097656 955.175781 1008.8125 C 957.027344 1008.710938 958.941406 1008.601562 960.476562 1007.789062 C 961.664062 1007.160156 962.769531 1005.777344 962.484375 1004.460938 C 962.183594 1003.066406 960.492188 1002.078125 958.996094 1001.207031 C 953.015625 997.707031 947.566406 993.386719 942.796875 988.367188 C 941.316406 986.808594 939.8125 985.078125 938.867188 982.988281 C 936.734375 978.300781 937.789062 973.128906 939.164062 967.800781 L 952.648438 915.492188 C 954.066406 909.992188 955.535156 904.304688 956.304688 898.613281 C 958.15625 884.859375 956.042969 870.851562 953.992188 857.304688 L 956.917969 856.859375 C 958.996094 870.617188 961.144531 884.835938 959.230469 899.011719 C 958.441406 904.871094 956.953125 910.648438 955.511719 916.234375 L 942.023438 968.542969 C 940.789062 973.335938 939.824219 977.953125 941.558594 981.765625 C 942.324219 983.457031 943.636719 984.957031 944.941406 986.328125 C 949.519531 991.148438 954.75 995.296875 960.488281 998.65625 C 962.308594 999.71875 964.796875 1001.171875 965.371094 1003.839844 C 966 1006.734375 963.992188 1009.269531 961.859375 1010.398438 C 959.753906 1011.515625 957.410156 1011.648438 955.339844 1011.765625 C 953.660156 1011.859375 951.84375 1011.960938 949.972656 1011.960938 Z M 949.972656 1011.960938 " fill-opacity="1" fill-rule="nonzero"/><path fill="#000000" d="M 976.023438 664.464844 C 968.511719 664.464844 961.964844 662.046875 957.570312 657.542969 C 955.851562 655.78125 954.503906 653.746094 953.203125 651.777344 C 952.300781 650.414062 951.449219 649.125 950.480469 647.914062 C 949.5 646.691406 948.394531 645.550781 947.195312 644.527344 L 949.117188 642.28125 C 950.453125 643.425781 951.691406 644.699219 952.785156 646.070312 C 953.839844 647.382812 954.769531 648.789062 955.667969 650.148438 C 956.949219 652.085938 958.160156 653.914062 959.6875 655.480469 C 964.367188 660.277344 972.332031 662.394531 980.976562 661.140625 C 986.886719 660.289062 992.667969 658.128906 998.257812 656.039062 C 1000.113281 655.347656 1001.960938 654.65625 1003.824219 654.007812 C 1007.003906 652.898438 1010.703125 651.78125 1014.375 652.570312 C 1016.347656 652.992188 1018.195312 653.917969 1019.984375 654.816406 C 1022.851562 656.25 1025.328125 657.488281 1027.628906 656.488281 C 1028.011719 656.320312 1028.367188 656.101562 1028.726562 655.882812 C 1029.335938 655.515625 1030.027344 655.097656 1030.839844 654.855469 C 1031.496094 654.660156 1032.144531 654.605469 1032.71875 654.554688 C 1033.21875 654.511719 1033.695312 654.46875 1034.074219 654.34375 C 1034.878906 654.070312 1035.609375 653.308594 1036.382812 652.496094 C 1037.519531 651.308594 1038.8125 649.957031 1040.789062 649.761719 C 1041.5 649.6875 1042.171875 649.796875 1042.761719 649.890625 C 1043.328125 649.980469 1043.863281 650.070312 1044.183594 649.941406 C 1044.324219 649.886719 1044.484375 649.789062 1044.597656 649.476562 C 1044.847656 648.777344 1044.65625 647.566406 1044.152344 646.664062 C 1042.980469 644.566406 1041.125 642.828125 1039.160156 640.992188 C 1036.210938 638.226562 1033.160156 635.367188 1032.535156 631.128906 C 1032.429688 630.402344 1032.382812 629.621094 1032.339844 628.832031 C 1032.210938 626.46875 1032.050781 625 1030.976562 624.507812 C 1030.496094 624.289062 1029.769531 624.300781 1029.128906 624.3125 C 1023.484375 624.414062 1017.644531 624.515625 1012.421875 626.632812 C 1009.605469 627.777344 1007.054688 629.464844 1004.355469 631.25 C 1000.878906 633.554688 997.285156 635.933594 993.082031 637.019531 C 989.996094 637.820312 986.820312 637.851562 983.835938 637.8125 C 979.242188 637.757812 975.511719 635.261719 971.90625 632.84375 L 971.273438 632.421875 L 972.914062 629.964844 L 973.550781 630.390625 C 976.949219 632.664062 980.15625 634.8125 983.871094 634.859375 C 986.660156 634.898438 989.605469 634.867188 992.34375 634.15625 C 996.0625 633.195312 999.300781 631.054688 1002.726562 628.785156 C 1005.425781 626.996094 1008.21875 625.148438 1011.3125 623.894531 C 1017.042969 621.566406 1023.433594 621.457031 1029.078125 621.359375 C 1029.980469 621.347656 1031.113281 621.320312 1032.203125 621.820312 C 1034.980469 623.089844 1035.152344 626.183594 1035.292969 628.667969 C 1035.332031 629.367188 1035.367188 630.054688 1035.460938 630.699219 C 1035.933594 633.914062 1038.484375 636.304688 1041.183594 638.832031 C 1043.226562 640.746094 1045.335938 642.722656 1046.730469 645.21875 C 1047.667969 646.898438 1047.921875 648.960938 1047.375 650.480469 C 1046.996094 651.542969 1046.257812 652.308594 1045.25 652.699219 C 1044.183594 653.113281 1043.140625 652.945312 1042.296875 652.8125 C 1041.84375 652.738281 1041.410156 652.667969 1041.078125 652.703125 C 1040.191406 652.792969 1039.417969 653.601562 1038.519531 654.542969 C 1037.578125 655.523438 1036.511719 656.644531 1035.011719 657.144531 C 1034.300781 657.382812 1033.59375 657.445312 1032.972656 657.5 C 1032.5 657.542969 1032.054688 657.578125 1031.6875 657.691406 C 1031.230469 657.824219 1030.753906 658.109375 1030.253906 658.414062 C 1029.78125 658.699219 1029.308594 658.980469 1028.804688 659.195312 C 1025.238281 660.753906 1021.894531 659.078125 1018.660156 657.457031 C 1017.039062 656.648438 1015.359375 655.804688 1013.753906 655.460938 C 1010.832031 654.832031 1007.726562 655.773438 1004.796875 656.796875 C 1002.957031 657.4375 1001.125 658.121094 999.292969 658.808594 C 993.554688 660.953125 987.621094 663.167969 981.402344 664.066406 C 979.566406 664.332031 977.765625 664.464844 976.023438 664.464844 Z M 976.023438 664.464844 " fill-opacity="1" fill-rule="nonzero"/><path fill="#000000" d="M 1084.921875 751.457031 C 1084.171875 748.992188 1083.214844 746.5 1081.328125 744.96875 C 1080.117188 743.988281 1078.539062 743.4375 1077.15625 743.03125 C 1074.148438 742.144531 1071.03125 741.648438 1067.894531 741.550781 L 1067.03125 741.527344 C 1065.847656 741.503906 1064.625 741.480469 1063.382812 741.242188 C 1059.363281 740.476562 1055.726562 737.492188 1053.65625 733.261719 C 1052.355469 730.605469 1051.726562 727.667969 1051.835938 724.757812 L 1054.792969 724.871094 C 1054.699219 727.292969 1055.226562 729.742188 1056.3125 731.960938 C 1057.972656 735.363281 1060.824219 737.746094 1063.9375 738.339844 C 1064.933594 738.53125 1065.980469 738.550781 1067.089844 738.570312 L 1067.988281 738.59375 C 1071.375 738.699219 1074.742188 739.238281 1077.992188 740.195312 C 1079.65625 740.6875 1081.574219 741.363281 1083.191406 742.675781 C 1085.703125 744.710938 1086.902344 747.820312 1087.75 750.59375 Z M 1084.921875 751.457031 " fill-opacity="1" fill-rule="nonzero"/><path fill="#000000" d="M 1244.128906 747.769531 C 1243.363281 741.273438 1243.152344 733.335938 1243.5 724.171875 C 1243.765625 717.074219 1245.222656 709.679688 1246.636719 702.527344 C 1248.480469 693.164062 1250.390625 683.484375 1249.628906 674.457031 L 1252.570312 674.207031 C 1253.371094 683.648438 1251.421875 693.535156 1249.535156 703.097656 C 1248.148438 710.136719 1246.710938 717.417969 1246.453125 724.285156 C 1246.113281 733.296875 1246.316406 741.078125 1247.0625 747.421875 Z M 1244.128906 747.769531 " fill-opacity="1" fill-rule="nonzero"/></svg>