<svg xmlns="http://www.w3.org/2000/svg" xmlns:xlink="http://www.w3.org/1999/xlink" width="2816" zoomAndPan="magnify" viewBox="0 0 2112 1151.999944" height="1536" preserveAspectRatio="xMidYMid meet" version="1.0"><defs><clipPath id="4d27f779f2"><path d="M 494.902344 115.199219 L 1052 115.199219 L 1052 1032 L 494.902344 1032 Z M 494.902344 115.199219 " clip-rule="nonzero"/></clipPath><clipPath id="9bf54c52f1"><path d="M 1080 118 L 1616.902344 118 L 1616.902344 1036.949219 L 1080 1036.949219 Z M 1080 118 " clip-rule="nonzero"/></clipPath></defs><g clip-path="url(#4d27f779f2)"><path fill="#000000" d="M 1004.203125 1031.503906 C 1004.175781 1031.503906 1004.15625 1031.503906 1004.125 1031.503906 C 1003.003906 1031.464844 1002.128906 1030.519531 1002.179688 1029.398438 C 1002.398438 1023.613281 1002.65625 1017.769531 1002.933594 1012.035156 C 1004.097656 988.027344 1005.792969 963.71875 1007.980469 939.789062 C 1008.597656 933.019531 1009.074219 926.0625 1009.53125 919.324219 C 1010.535156 904.5 1011.578125 889.15625 1014.269531 874.378906 C 1017.726562 855.417969 1023.539062 836.761719 1029.160156 818.714844 C 1036.085938 796.484375 1043.238281 773.5 1045.960938 749.964844 C 1049.355469 720.621094 1046.167969 689.066406 1036.214844 653.511719 L 1034.972656 649.078125 C 1026.558594 618.988281 1018.621094 590.554688 1005.597656 562.332031 C 983.125 513.625 973.835938 459.632812 978.722656 406.21875 C 980.023438 392.027344 982.339844 377.609375 984.585938 363.675781 C 989.609375 332.460938 994.808594 300.183594 988.597656 269.097656 C 987.484375 263.523438 982.816406 245.214844 969.484375 243.617188 C 961.925781 242.722656 954.8125 248.160156 951.113281 253.953125 C 946.875 260.609375 945.292969 268.628906 943.773438 276.382812 L 906.082031 468.566406 C 905.894531 469.523438 905.058594 470.207031 904.09375 470.207031 C 904.09375 470.207031 904.085938 470.207031 904.085938 470.207031 C 903.113281 470.199219 902.277344 469.503906 902.097656 468.546875 C 893.761719 423.300781 903.441406 377.101562 915.140625 333.910156 C 917.140625 326.558594 919.234375 319.074219 921.273438 311.847656 C 931.277344 276.234375 941.628906 239.402344 943.285156 202.117188 C 943.695312 193.035156 943.515625 183.511719 939.542969 175.445312 C 935.957031 168.160156 927.789062 161.550781 919.097656 163 C 909.628906 164.582031 903.789062 174.441406 899.328125 183.890625 C 861.964844 262.894531 839.421875 350.777344 834.125 438.019531 C 834.066406 439.023438 833.28125 439.828125 832.277344 439.917969 C 831.265625 440.007812 830.363281 439.339844 830.132812 438.355469 C 821.03125 399.71875 825.105469 355.8125 842.949219 300.191406 C 847.9375 284.648438 853.617188 269.046875 859.113281 253.960938 C 869.253906 226.105469 879.753906 197.304688 886.164062 167.949219 C 887.882812 160.097656 889.589844 150.996094 888.269531 142.210938 C 886.890625 133.078125 882.101562 125.527344 875.445312 122.039062 C 865.835938 116.980469 853.984375 120.816406 846.503906 126.847656 C 838.089844 133.644531 832.695312 143.621094 827.898438 153.253906 C 813.542969 182.050781 801.3125 212.910156 790.523438 247.582031 C 772.445312 305.636719 761.238281 365.839844 757.234375 426.511719 C 757.164062 427.523438 756.359375 428.332031 755.347656 428.398438 C 754.324219 428.46875 753.429688 427.785156 753.21875 426.789062 C 741.867188 372.03125 747.855469 313.609375 770.109375 262.300781 C 772.722656 256.277344 775.601562 250.226562 778.382812 244.371094 C 787.175781 225.898438 796.257812 206.789062 797.957031 186.445312 C 799.15625 172.085938 794.597656 155.675781 781.710938 151.394531 C 765.964844 146.167969 750.945312 162.921875 743.386719 173.367188 C 701.144531 231.761719 674.050781 302.050781 662.855469 382.296875 C 659.082031 409.347656 654.390625 443.019531 667.613281 470.835938 C 678.664062 494.078125 701.898438 512.742188 736.660156 526.328125 C 747.714844 530.648438 759.261719 534.328125 770.4375 537.894531 C 788.179688 543.550781 806.519531 549.402344 823.476562 557.96875 C 867.359375 580.148438 901.589844 621.648438 915.042969 668.953125 C 916.253906 673.21875 916.355469 679.089844 913.851562 682.589844 C 912.570312 684.378906 910.730469 685.378906 908.546875 685.488281 C 904.085938 685.738281 900.925781 681.652344 899.417969 679.695312 C 893.148438 671.617188 887.175781 662.800781 881.40625 654.277344 C 869.34375 636.46875 856.875 618.050781 840.695312 604.714844 C 814.160156 582.851562 784.085938 558.066406 749.039062 547.15625 C 744.367188 545.707031 739.492188 544.453125 734.78125 543.25 C 722.582031 540.128906 709.964844 536.902344 699.238281 529.773438 C 684.730469 520.136719 675.503906 504.691406 667.695312 489.4375 C 662.9375 480.144531 658.425781 470.515625 654.0625 461.214844 C 643.890625 439.5 633.378906 417.050781 619.066406 397.503906 C 596.046875 366.058594 564.566406 347.355469 534.710938 347.355469 C 534.492188 347.355469 534.273438 347.355469 534.054688 347.355469 C 524.699219 347.445312 513.5625 350.578125 510.382812 359.125 C 507.910156 365.78125 511.007812 373.394531 514.394531 380.628906 C 517.367188 386.96875 520.15625 393.636719 522.851562 400.078125 C 528.074219 412.578125 533.480469 425.519531 540.574219 436.867188 C 559.648438 467.425781 573.40625 501.851562 586.707031 535.140625 C 606.488281 584.621094 626.933594 635.792969 664.992188 673.367188 C 674.738281 682.984375 685.785156 691.851562 696.472656 700.425781 C 717.695312 717.449219 739.640625 735.050781 752.503906 759.476562 C 772.175781 796.84375 766.421875 842.707031 758.1875 882.636719 C 750.328125 920.746094 740.246094 958.820312 728.195312 995.816406 C 725.355469 1004.53125 721.964844 1013.476562 714.585938 1018.695312 C 707.152344 1023.949219 697.558594 1024.128906 689.839844 1024.269531 L 496.941406 1027.785156 C 496.929688 1027.785156 496.910156 1027.785156 496.902344 1027.785156 C 495.796875 1027.785156 494.894531 1026.902344 494.875 1025.800781 C 494.855469 1024.675781 495.75 1023.753906 496.859375 1023.734375 L 689.757812 1020.214844 C 696.910156 1020.085938 705.824219 1019.925781 712.230469 1015.386719 C 718.597656 1010.871094 721.589844 1002.960938 724.320312 994.566406 C 736.320312 957.714844 746.375 919.785156 754.195312 881.820312 C 762.28125 842.597656 767.972656 797.609375 748.890625 761.375 C 736.421875 737.695312 714.8125 720.363281 693.910156 703.597656 C 683.140625 694.960938 672.015625 686.027344 662.121094 676.269531 C 623.457031 638.097656 602.851562 586.53125 582.921875 536.660156 C 569.691406 503.539062 556 469.285156 537.117188 439.035156 C 529.851562 427.40625 524.390625 414.316406 519.09375 401.667969 C 516.414062 395.257812 513.648438 388.640625 510.710938 382.378906 C 506.953125 374.367188 503.535156 365.871094 506.566406 357.734375 C 511.464844 344.554688 528.808594 343.371094 534.007812 343.332031 C 534.246094 343.332031 534.492188 343.332031 534.742188 343.332031 C 566.324219 343.332031 598.203125 362.183594 622.332031 395.148438 C 636.878906 415.015625 647.476562 437.640625 657.730469 459.535156 C 662.070312 468.808594 666.570312 478.40625 671.289062 487.640625 C 678.851562 502.40625 687.730469 517.324219 701.460938 526.445312 C 711.625 533.195312 723.894531 536.335938 735.765625 539.375 C 740.535156 540.597656 745.460938 541.859375 750.21875 543.339844 C 786.035156 554.492188 816.433594 579.542969 843.257812 601.644531 C 859.886719 615.347656 872.523438 634.011719 884.742188 652.058594 C 890.484375 660.527344 896.414062 669.292969 902.605469 677.273438 C 904.351562 679.527344 906.269531 681.613281 908.328125 681.496094 C 909.269531 681.445312 909.976562 681.066406 910.53125 680.28125 C 911.953125 678.304688 912.203125 673.941406 911.117188 670.125 C 897.976562 623.886719 864.515625 583.328125 821.621094 561.644531 C 804.960938 553.21875 786.769531 547.425781 769.183594 541.808594 C 757.960938 538.230469 746.34375 534.527344 735.167969 530.164062 C 699.414062 516.191406 675.441406 496.839844 663.9375 472.632812 C 650.191406 443.714844 654.976562 409.378906 658.824219 381.792969 C 670.109375 300.878906 697.449219 229.972656 740.085938 171.042969 C 748.304688 159.691406 764.792969 141.554688 782.984375 147.589844 C 797.964844 152.566406 803.320312 170.882812 801.988281 186.832031 C 800.230469 207.910156 790.980469 227.359375 782.03125 246.171875 C 779.257812 251.996094 776.398438 258.015625 773.816406 263.96875 C 754.023438 309.613281 747.289062 360.953125 754.402344 410.203125 C 759.242188 354.660156 770.058594 299.644531 786.640625 246.417969 C 797.5 211.539062 809.808594 180.480469 824.261719 151.492188 C 829.257812 141.457031 834.902344 131.050781 843.953125 123.746094 C 852.464844 116.871094 866.085938 112.585938 877.332031 118.5 C 885.121094 122.59375 890.703125 131.25 892.28125 141.664062 C 893.714844 151.125 891.925781 160.675781 890.128906 168.875 C 883.660156 198.5 873.121094 227.429688 862.925781 255.414062 C 857.441406 270.457031 851.769531 286.019531 846.8125 301.496094 C 831.542969 349.105469 826.476562 387.933594 831.214844 422.128906 C 838.148438 339.566406 860.3125 256.953125 895.660156 182.222656 C 900.578125 171.835938 907.125 160.953125 918.429688 159.066406 C 929.0625 157.289062 938.925781 165.097656 943.175781 173.722656 C 947.558594 182.609375 947.765625 192.746094 947.339844 202.363281 C 945.652344 240.128906 935.238281 277.1875 925.175781 313.023438 C 923.148438 320.246094 921.054688 327.710938 919.054688 335.054688 C 908.476562 374.101562 899.566406 415.589844 904.355469 456.375 L 939.789062 275.6875 C 941.308594 267.933594 943.027344 259.160156 947.6875 251.855469 C 953.03125 243.476562 961.765625 238.699219 969.960938 239.671875 C 980.789062 240.964844 989.234375 251.695312 992.570312 268.382812 C 998.917969 300.183594 993.664062 332.828125 988.578125 364.402344 C 986.34375 378.273438 984.039062 392.613281 982.746094 406.675781 C 977.917969 459.386719 987.097656 512.664062 1009.273438 560.722656 C 1022.425781 589.242188 1030.414062 617.824219 1038.875 648.074219 L 1040.117188 652.496094 C 1050.210938 688.5625 1053.441406 720.621094 1049.984375 750.511719 C 1047.222656 774.421875 1040 797.597656 1033.023438 820.007812 C 1027.441406 837.9375 1021.667969 856.46875 1018.253906 875.191406 C 1015.601562 889.742188 1014.566406 904.964844 1013.5625 919.683594 C 1013.105469 926.441406 1012.628906 933.417969 1012.011719 940.234375 C 1009.828125 964.105469 1008.140625 988.355469 1006.976562 1012.304688 C 1006.699219 1018.027344 1006.449219 1023.863281 1006.230469 1029.625 C 1006.183594 1030.648438 1005.289062 1031.503906 1004.203125 1031.503906 Z M 1004.203125 1031.503906 " fill-opacity="1" fill-rule="nonzero"/></g><path fill="#000000" d="M 967.605469 507.929688 C 967.179688 507.929688 966.742188 507.792969 966.375 507.515625 C 934.335938 482.957031 895.085938 464.492188 849.695312 452.636719 C 819.800781 444.835938 787.503906 439.816406 749.671875 437.164062 C 749.433594 437.324219 749.207031 437.492188 748.96875 437.652344 C 746.59375 439.300781 744.347656 440.851562 742.023438 442.820312 C 731.535156 451.652344 716.035156 453.941406 703.4375 448.503906 C 703.070312 448.34375 702.753906 448.078125 702.535156 447.738281 C 701.3125 445.839844 700.964844 443.464844 701.5625 441.070312 C 702.296875 438.089844 704.433594 435.296875 707.125 433.777344 C 711.605469 431.242188 717.070312 431.441406 721.050781 431.589844 C 730.53125 431.9375 739.679688 432.414062 748.519531 433.019531 C 750.300781 431.769531 752.039062 430.488281 753.816406 428.976562 C 754.671875 428.25 755.953125 428.351562 756.675781 429.203125 C 757.402344 430.058594 757.304688 431.339844 756.449219 432.066406 C 755.871094 432.554688 755.304688 433.03125 754.730469 433.476562 C 790.773438 436.21875 821.847656 441.179688 850.707031 448.722656 C 896.625 460.707031 936.363281 479.410156 968.828125 504.304688 C 969.710938 504.988281 969.882812 506.261719 969.207031 507.144531 C 968.820312 507.652344 968.210938 507.929688 967.605469 507.929688 Z M 705.683594 445.046875 C 716.78125 449.546875 730.242188 447.441406 739.410156 439.71875 C 740.691406 438.636719 741.972656 437.660156 743.226562 436.746094 C 735.992188 436.300781 728.5625 435.933594 720.902344 435.652344 C 716.363281 435.484375 712.351562 435.496094 709.121094 437.3125 C 707.394531 438.296875 705.972656 440.15625 705.496094 442.054688 C 705.316406 442.839844 705.207031 443.960938 705.683594 445.046875 Z M 705.683594 445.046875 " fill-opacity="1" fill-rule="nonzero"/><path fill="#000000" d="M 536.988281 437.214844 C 536.101562 437.214844 535.289062 436.636719 535.039062 435.742188 C 534.730469 434.671875 535.355469 433.546875 536.429688 433.230469 C 548.015625 429.910156 557.074219 418.042969 557.976562 405.007812 C 558.824219 392.8125 553.238281 380.113281 543.027344 371.027344 C 531.660156 360.910156 517.464844 357.324219 507.570312 356.101562 C 506.457031 355.964844 505.671875 354.949219 505.800781 353.835938 C 505.941406 352.722656 506.953125 351.929688 508.066406 352.078125 C 523.089844 353.9375 536.113281 359.441406 545.730469 367.996094 C 556.867188 377.914062 562.964844 391.859375 562.03125 405.292969 C 561.007812 419.972656 550.714844 433.359375 537.554688 437.132812 C 537.363281 437.195312 537.175781 437.214844 536.988281 437.214844 Z M 536.988281 437.214844 " fill-opacity="1" fill-rule="nonzero"/><g clip-path="url(#9bf54c52f1)"><path fill="#000000" d="M 1119.8125 1036.53125 C 1119.761719 1036.53125 1119.714844 1036.53125 1119.664062 1036.523438 C 1118.550781 1036.441406 1117.707031 1035.46875 1117.785156 1034.355469 C 1121.3125 985.542969 1118.105469 936.476562 1108.269531 888.539062 C 1105.316406 874.148438 1101.703125 859.589844 1098.203125 845.519531 C 1090.921875 816.179688 1083.382812 785.851562 1081.355469 755.152344 C 1076.042969 674.527344 1086.394531 617.785156 1113.929688 576.582031 C 1143.59375 532.199219 1142.96875 474.082031 1139.105469 428.398438 C 1138.339844 419.40625 1137.4375 410.214844 1136.550781 401.328125 C 1132.359375 359.152344 1128.019531 315.546875 1137.992188 273.867188 C 1141.28125 260.152344 1146.792969 252.183594 1154.882812 249.488281 C 1164.050781 246.4375 1173.519531 251.546875 1178.832031 257.957031 C 1184.128906 264.347656 1186.640625 272.15625 1189.164062 280.972656 C 1203.628906 331.617188 1214.648438 383.601562 1222 435.863281 C 1220.339844 391.539062 1208.019531 347.675781 1196.03125 305.003906 C 1188.558594 278.410156 1180.828125 250.910156 1175.722656 223.511719 C 1173.25 210.246094 1171.125 194.972656 1177.34375 181.546875 C 1180.929688 173.804688 1188.222656 167.433594 1196.367188 164.910156 C 1202.714844 162.941406 1209.042969 163.546875 1214.171875 166.597656 C 1220.449219 170.335938 1224.054688 176.773438 1227.503906 183.601562 C 1261.019531 250.007812 1284.207031 320.304688 1296.675781 393.191406 C 1290.585938 334.429688 1275.027344 276.300781 1250.839844 222.699219 C 1250.074219 221.007812 1249.296875 219.320312 1248.523438 217.621094 C 1240.597656 200.257812 1232.410156 182.300781 1232.789062 163.019531 C 1233.203125 141.84375 1248.882812 118.320312 1270.71875 118.320312 C 1270.765625 118.320312 1270.828125 118.320312 1270.875 118.320312 C 1283.324219 118.378906 1296.128906 126.371094 1304.285156 139.171875 C 1311.546875 150.550781 1314.6875 163.675781 1317.726562 176.359375 L 1372.746094 406.070312 C 1372.457031 355 1370.003906 299.347656 1346.578125 251.296875 C 1344.421875 246.875 1342.046875 242.445312 1339.75 238.152344 C 1335.320312 229.882812 1330.742188 221.335938 1327.421875 212.324219 C 1323.230469 200.945312 1319.585938 184.117188 1326.011719 168.617188 C 1331.535156 155.300781 1346.714844 143.59375 1362.542969 147.03125 C 1377.511719 150.300781 1386.375 164.808594 1393.496094 178.144531 C 1430.960938 248.277344 1473.421875 327.757812 1473.808594 413.691406 C 1473.925781 439.769531 1469.585938 460.378906 1460.523438 476.695312 C 1447.839844 499.5625 1424.621094 517.332031 1389.542969 531.027344 C 1378.855469 535.199219 1367.777344 538.808594 1357.058594 542.304688 C 1339.792969 547.941406 1321.929688 553.765625 1305.507812 562.011719 C 1260.066406 584.851562 1225.554688 626.90625 1211.707031 675.730469 C 1247.996094 629.769531 1292.890625 575.527344 1353.660156 551.835938 C 1361.738281 548.6875 1370.210938 546.023438 1378.40625 543.449219 C 1397.460938 537.457031 1417.171875 531.265625 1432.570312 518.625 C 1453.164062 501.730469 1462.800781 477.023438 1473.003906 450.859375 C 1478.984375 435.535156 1485.164062 419.695312 1493.746094 405.652344 C 1509.203125 380.359375 1532.929688 360.535156 1560.546875 349.832031 C 1572.445312 345.21875 1582.101562 343.660156 1590.914062 344.933594 C 1602.507812 346.601562 1612.164062 353.816406 1615.511719 363.316406 C 1619.277344 373.988281 1615.421875 386.871094 1604.375 400.554688 C 1596.289062 410.570312 1588.09375 421.332031 1584.496094 433.148438 C 1568.484375 485.808594 1548.851562 537.945312 1526.152344 588.078125 C 1516.507812 609.394531 1504.785156 633.804688 1487.726562 653.667969 C 1474.691406 668.84375 1458.597656 681.40625 1443.039062 693.550781 C 1423.886719 708.496094 1404.085938 723.949219 1390.398438 744.144531 C 1360.238281 788.632812 1365.332031 846.5 1374.910156 887.21875 C 1380.007812 908.863281 1387.101562 930.40625 1393.964844 951.246094 C 1402.5 977.132812 1411.308594 1003.90625 1416.40625 1031.195312 C 1416.613281 1032.296875 1415.890625 1033.363281 1414.785156 1033.5625 C 1413.683594 1033.769531 1412.621094 1033.042969 1412.421875 1031.941406 C 1407.375 1004.921875 1398.605469 978.277344 1390.109375 952.519531 C 1383.214844 931.597656 1376.09375 909.964844 1370.957031 888.152344 C 1361.191406 846.652344 1356.054688 787.582031 1387.039062 741.875 C 1401.085938 721.15625 1421.144531 705.503906 1440.546875 690.359375 C 1455.957031 678.335938 1471.878906 665.902344 1484.65625 651.035156 C 1501.367188 631.578125 1512.929688 607.476562 1522.46875 586.421875 C 1545.085938 536.433594 1564.660156 484.476562 1580.625 431.976562 C 1584.429688 419.464844 1592.890625 408.34375 1601.226562 398.019531 C 1608.28125 389.285156 1615.832031 376.40625 1611.699219 364.679688 C 1608.847656 356.589844 1600.460938 350.417969 1590.347656 348.957031 C 1582.253906 347.792969 1573.253906 349.273438 1562.015625 353.628906 C 1535.210938 364.023438 1512.203125 383.253906 1497.214844 407.789062 C 1488.820312 421.523438 1482.710938 437.203125 1476.789062 452.359375 C 1466.84375 477.851562 1456.5625 504.214844 1435.152344 521.785156 C 1419.148438 534.921875 1399.0625 541.234375 1379.640625 547.34375 C 1371.511719 549.898438 1363.109375 552.542969 1355.148438 555.644531 C 1292.066406 580.238281 1246.011719 638.753906 1208.996094 685.777344 C 1208.40625 686.523438 1207.386719 686.761719 1206.53125 686.355469 C 1205.675781 685.945312 1205.21875 685.003906 1205.429688 684.078125 C 1217.617188 630.195312 1254.355469 583.210938 1303.710938 558.40625 C 1320.398438 550.019531 1338.410156 544.144531 1355.824219 538.460938 C 1366.484375 534.980469 1377.511719 531.382812 1388.09375 527.261719 C 1422.257812 513.925781 1444.789062 496.75 1457 474.738281 C 1465.710938 459.039062 1469.882812 439.082031 1469.773438 413.722656 C 1469.386719 328.792969 1427.175781 249.777344 1389.941406 180.074219 C 1383.234375 167.53125 1374.980469 153.90625 1361.695312 151.007812 C 1347.949219 148.003906 1334.675781 158.398438 1329.789062 170.175781 C 1323.855469 184.457031 1327.3125 200.21875 1331.257812 210.921875 C 1334.476562 219.667969 1338.988281 228.082031 1343.347656 236.234375 C 1345.664062 240.554688 1348.058594 245.027344 1350.253906 249.519531 C 1376.777344 303.910156 1376.828125 367.402344 1376.878906 423.421875 C 1376.878906 424.453125 1376.113281 425.320312 1375.089844 425.4375 C 1374.066406 425.566406 1373.121094 424.890625 1372.875 423.898438 L 1313.8125 177.292969 C 1310.851562 164.929688 1307.792969 152.148438 1300.898438 141.335938 C 1295.078125 132.214844 1284.136719 122.433594 1270.886719 122.367188 C 1270.835938 122.367188 1270.796875 122.367188 1270.746094 122.367188 C 1251.246094 122.367188 1237.246094 143.792969 1236.871094 163.089844 C 1236.503906 181.445312 1244.5 198.964844 1252.238281 215.917969 C 1253.015625 217.617188 1253.789062 219.320312 1254.554688 221.019531 C 1285.996094 290.691406 1302.964844 367.917969 1303.640625 444.347656 C 1303.648438 445.433594 1302.804688 446.335938 1301.722656 446.398438 C 1300.660156 446.425781 1299.707031 445.652344 1299.597656 444.578125 C 1290.417969 353.9375 1264.957031 266.75 1223.90625 185.429688 C 1220.738281 179.160156 1217.457031 173.265625 1212.113281 170.085938 C 1206.820312 166.9375 1201.296875 167.640625 1197.589844 168.785156 C 1190.507812 170.980469 1184.15625 176.515625 1181.046875 183.246094 C 1175.335938 195.585938 1177.371094 210.105469 1179.738281 222.757812 C 1184.8125 249.964844 1192.511719 277.386719 1199.964844 303.890625 C 1214.558594 355.855469 1229.65625 409.585938 1225.605469 464.105469 C 1225.523438 465.148438 1224.671875 465.964844 1223.628906 465.984375 C 1222.574219 466.042969 1221.691406 465.230469 1221.570312 464.183594 C 1214.476562 402.78125 1202.277344 341.511719 1185.300781 282.074219 C 1182.90625 273.707031 1180.542969 266.3125 1175.753906 260.539062 C 1171.460938 255.363281 1163.515625 250.902344 1156.203125 253.335938 C 1149.566406 255.542969 1144.917969 262.566406 1141.984375 274.800781 C 1132.171875 315.804688 1136.472656 359.074219 1140.636719 400.910156 C 1141.519531 409.816406 1142.433594 419.019531 1143.199219 428.042969 C 1147.113281 474.371094 1147.71875 533.382812 1117.347656 578.816406 C 1090.335938 619.234375 1080.203125 675.175781 1085.449219 754.867188 C 1087.445312 785.207031 1094.9375 815.355469 1102.179688 844.515625 C 1105.6875 858.625 1109.3125 873.222656 1112.28125 887.703125 C 1122.195312 936.011719 1125.425781 985.441406 1121.878906 1034.632812 C 1121.757812 1035.71875 1120.875 1036.53125 1119.8125 1036.53125 Z M 1119.8125 1036.53125 " fill-opacity="1" fill-rule="nonzero"/></g><path fill="#000000" d="M 1164.328125 509.71875 C 1163.734375 509.71875 1163.148438 509.460938 1162.75 508.964844 C 1162.042969 508.089844 1162.183594 506.820312 1163.058594 506.113281 C 1193.457031 481.597656 1231.335938 462.882812 1275.644531 450.5 C 1306.472656 441.886719 1339.800781 436.230469 1381.902344 432.5625 C 1382.003906 432.453125 1382.121094 432.363281 1382.242188 432.285156 C 1382.96875 431.808594 1383.890625 431.859375 1384.554688 432.34375 C 1389.5625 431.925781 1394.691406 431.53125 1399.953125 431.164062 C 1405.230469 430.792969 1411.785156 430.335938 1417.578125 432.980469 C 1423.332031 435.605469 1428.160156 442.5 1425.945312 449.070312 C 1425.734375 449.6875 1425.25 450.164062 1424.632812 450.351562 C 1409.671875 455.101562 1391.976562 449.1875 1382.6875 436.578125 C 1340.636719 440.214844 1307.414062 445.832031 1276.726562 454.417969 C 1232.945312 466.660156 1195.554688 485.113281 1165.589844 509.28125 C 1165.234375 509.570312 1164.777344 509.71875 1164.328125 509.71875 Z M 1387.566406 436.160156 C 1395.929688 445.761719 1410.046875 450.203125 1422.347656 446.785156 C 1423.023438 442.757812 1419.746094 438.417969 1415.890625 436.65625 C 1411.398438 434.609375 1406.144531 434.78125 1400.234375 435.195312 C 1395.929688 435.503906 1391.710938 435.824219 1387.566406 436.160156 Z M 1387.566406 436.160156 " fill-opacity="1" fill-rule="nonzero"/><path fill="#000000" d="M 1582.210938 429.003906 C 1581.785156 429.003906 1581.367188 428.875 1581 428.597656 C 1568.292969 419.085938 1564.011719 399.242188 1571.273438 383.429688 C 1577.625 369.597656 1591.691406 358.84375 1608.925781 354.671875 C 1610.019531 354.402344 1611.113281 355.078125 1611.378906 356.160156 C 1611.648438 357.253906 1610.972656 358.347656 1609.890625 358.617188 C 1593.855469 362.503906 1580.800781 372.410156 1574.96875 385.121094 C 1568.484375 399.273438 1572.199219 416.941406 1583.445312 425.347656 C 1584.339844 426.023438 1584.527344 427.296875 1583.851562 428.191406 C 1583.433594 428.71875 1582.828125 429.003906 1582.210938 429.003906 Z M 1582.210938 429.003906 " fill-opacity="1" fill-rule="nonzero"/></svg>