<svg xmlns="http://www.w3.org/2000/svg" xmlns:xlink="http://www.w3.org/1999/xlink" width="2816" zoomAndPan="magnify" viewBox="0 0 2112 1151.999944" height="1536" preserveAspectRatio="xMidYMid meet" version="1.0"><defs><clipPath id="27eb451c83"><path d="M 731.503906 149.03125 L 1380.253906 149.03125 L 1380.253906 1003 L 731.503906 1003 Z M 731.503906 149.03125 " clip-rule="nonzero"/></clipPath></defs><g clip-path="url(#27eb451c83)"><path fill="#000000" d="M 1357.582031 385.066406 C 1352.085938 381.722656 1351.757812 378.707031 1353.578125 373.207031 C 1359.601562 355.023438 1360.328125 336.242188 1356.820312 317.628906 C 1349.871094 280.792969 1331.664062 252.636719 1294.03125 240.648438 C 1289.761719 239.289062 1286.417969 237.832031 1284.53125 232.664062 C 1273.277344 201.894531 1249.445312 184.304688 1219.65625 174.730469 C 1187.21875 164.296875 1154.417969 165.324219 1122.640625 178.011719 C 1115.0625 181.023438 1109.800781 180.957031 1104.207031 175.359375 C 1102.152344 173.273438 1099.570312 171.683594 1097.121094 170.027344 C 1059.023438 143.660156 997.394531 142.070312 961.480469 167.941406 C 951.1875 175.359375 942.019531 178.175781 929.308594 177.25 C 901.601562 175.261719 877.871094 184.335938 861.984375 208.882812 C 854.964844 219.746094 849.703125 231.375 847.054688 244.058594 C 845.664062 250.683594 843.28125 254.660156 835.703125 257.109375 C 804.421875 267.148438 783.371094 295.003906 781.914062 327.796875 C 781.585938 335.316406 778.671875 338.792969 772.78125 342.503906 C 755.535156 353.402344 748.285156 372.546875 755.105469 391.292969 C 758.019531 399.308594 756.824219 404.144531 752.191406 410.96875 C 734.253906 437.335938 728.128906 466.085938 740.871094 496.460938 C 744.3125 504.644531 743.289062 510.40625 739.945312 518.160156 C 715.351562 575.628906 747.0625 627.5 801.90625 634.984375 C 809.289062 635.980469 813.0625 639.65625 817.035156 644.957031 C 833.121094 666.421875 853.773438 678.90625 881.542969 676.6875 C 886.046875 676.324219 889.984375 676.355469 893.394531 680.53125 C 906.203125 696.066406 922.953125 701.101562 942.449219 697.457031 C 947.480469 696.53125 950.789062 697.789062 953.703125 702.027344 C 963.832031 716.835938 976.605469 729.125 990.738281 739.988281 C 994.746094 743.066406 996.070312 746.445312 996.203125 751.214844 C 996.464844 762.546875 997.460938 773.875 997.65625 785.234375 C 998.21875 820.28125 996.101562 855.226562 993.320312 890.171875 C 992.164062 904.777344 994.117188 903.949219 979.453125 907.957031 C 960.816406 913.058594 943.078125 920.347656 927.15625 931.542969 C 923.152344 934.359375 919.179688 937.503906 916.167969 941.3125 C 911.136719 947.738281 913.816406 954.265625 921.992188 954.925781 C 929.308594 955.523438 936.753906 954.730469 944.101562 954.164062 C 953.335938 953.4375 962.574219 952.410156 973.230469 955.191406 C 968.496094 963.507812 964.589844 969.765625 961.28125 976.324219 C 959.726562 979.40625 959.496094 983.082031 962.207031 986.03125 C 964.921875 988.980469 968.496094 988.980469 971.773438 987.6875 C 977.269531 985.566406 982.761719 983.25 987.960938 980.464844 C 1022.019531 962.347656 1054.226562 966.917969 1085.140625 988.085938 C 1087.160156 989.476562 1089.277344 990.765625 1091.261719 992.191406 C 1095.234375 995.105469 1098.910156 998.519531 1103.144531 1000.96875 C 1110.492188 1005.242188 1115.523438 1001.898438 1115.523438 993.316406 C 1115.523438 987.125 1110.859375 981.558594 1112.644531 974.636719 C 1128.003906 973.34375 1142.5 975.597656 1157.03125 978.347656 C 1162.558594 979.371094 1169.410156 982.71875 1173.417969 976.457031 C 1177.753906 969.632812 1171.960938 964.367188 1168.085938 959.5 C 1152.894531 940.519531 1133.066406 928 1110.792969 918.957031 C 1103.046875 915.808594 1093.414062 914.550781 1088.117188 909.050781 C 1082.226562 902.890625 1084.542969 892.191406 1083.417969 883.511719 C 1078.320312 843.367188 1074.480469 803.15625 1078.289062 762.546875 C 1079.3125 751.648438 1082.589844 742.871094 1090.535156 735.085938 C 1104.636719 721.273438 1117.808594 706.53125 1128.898438 690.136719 C 1132.007812 685.53125 1135.582031 683.609375 1140.878906 683.015625 C 1158.257812 681.0625 1174.609375 675.460938 1189.402344 666.289062 C 1196.617188 661.816406 1203.105469 660.921875 1211.414062 662.476562 C 1235.082031 666.917969 1254.476562 654.5625 1260.898438 631.078125 C 1262.621094 624.71875 1265.035156 621.039062 1271.027344 618.257812 C 1304.324219 602.824219 1331.796875 561.582031 1322.199219 517.925781 C 1321.007812 512.527344 1322.199219 508.617188 1325.90625 504.578125 C 1333.054688 496.828125 1337.886719 487.652344 1339.179688 477.019531 C 1339.773438 472.25 1342.355469 470.59375 1346.59375 469.300781 C 1365.988281 463.371094 1377.472656 449.855469 1379.890625 430.015625 C 1382.308594 410.703125 1374.230469 395.234375 1357.582031 385.066406 Z M 794.855469 348.796875 C 810.546875 348.828125 824.019531 362.113281 824.28125 377.78125 C 824.546875 393.515625 811.539062 406.996094 795.71875 407.425781 C 779.332031 407.855469 765.367188 394.175781 765.5625 377.878906 C 765.761719 362.179688 779.265625 348.761719 794.855469 348.796875 Z M 932.085938 685.832031 C 912.0625 686.160156 895.117188 669.335938 895.347656 649.359375 C 895.578125 629.6875 911.632812 613.953125 931.457031 614.019531 C 951.484375 614.050781 967.074219 629.519531 967.238281 649.527344 C 967.371094 669.335938 951.75 685.5 932.085938 685.832031 Z M 1081.035156 726.140625 C 1071.570312 735.21875 1066.867188 745.683594 1065.644531 758.601562 C 1062.269531 794.144531 1064.386719 829.554688 1067.996094 864.898438 C 1069.449219 879.105469 1071.667969 893.25 1072.960938 907.496094 C 1073.785156 916.539062 1077.890625 921.671875 1086.695312 924.253906 C 1105.230469 929.652344 1122.773438 937.4375 1138.398438 949.03125 C 1143.394531 952.742188 1148.460938 956.484375 1152.796875 963.640625 C 1137.074219 961.882812 1123.4375 960.890625 1109.734375 961.121094 C 1103.808594 961.222656 1099.605469 957.777344 1095.46875 954.230469 C 1088.351562 948.171875 1081.300781 941.941406 1073.089844 937.304688 C 1069.121094 935.085938 1064.683594 932.769531 1061.671875 938.300781 C 1059.257812 942.738281 1062.464844 945.554688 1065.808594 948.039062 C 1072.527344 953.039062 1079.214844 958.074219 1085.800781 963.242188 C 1090.070312 966.585938 1093.945312 970.363281 1095.730469 975.960938 C 1091.5625 978.445312 1089.246094 975 1086.597656 973.542969 C 1074.878906 967.148438 1062.730469 961.984375 1050.054688 957.742188 C 1036.152344 953.074219 1034.464844 953.039062 1020.726562 956.515625 C 1008.910156 959.53125 997.195312 962.8125 983.855469 967.449219 C 987.230469 958.671875 992.890625 954.796875 998.253906 950.917969 C 1003.417969 947.144531 1009.042969 944.0625 1014.503906 940.683594 C 1018.675781 938.101562 1024.136719 935.714844 1020.828125 929.554688 C 1017.648438 923.660156 1012.386719 926.339844 1007.785156 928.128906 C 1004.113281 929.554688 1000.140625 930.582031 996.929688 932.734375 C 985.742188 940.351562 973.527344 942.074219 960.421875 940.617188 C 954.660156 939.988281 948.804688 940.519531 942.546875 940.519531 C 943.539062 934.722656 948.042969 934.160156 951.21875 932.601562 C 963.597656 926.441406 976.640625 922.035156 990.078125 918.722656 C 1001.796875 915.839844 1004.378906 912.992188 1005.335938 901.929688 C 1009.707031 850.820312 1013.015625 799.644531 1009.109375 748.300781 C 1008.480469 739.789062 1006 733.992188 998.386719 728.890625 C 985.246094 720.113281 974.753906 708.1875 965.023438 695.636719 C 959.164062 688.082031 965.847656 685.367188 969.160156 681.160156 C 973.164062 676.058594 977.765625 677.085938 982.035156 680.496094 C 984.320312 682.285156 985.773438 685.070312 987.828125 687.1875 C 998.15625 697.953125 1009.738281 706.929688 1023.90625 712.328125 C 1035.855469 716.902344 1047.042969 715.773438 1057.734375 708.851562 C 1066.472656 703.21875 1075.144531 697.324219 1082.0625 689.671875 C 1088.78125 682.253906 1095.832031 679.472656 1105.296875 682.882812 C 1107.976562 683.84375 1111.222656 683.015625 1115.027344 686.921875 C 1104.769531 701.265625 1093.414062 714.25 1081.035156 726.140625 Z M 1000.4375 680.53125 C 1021.191406 678.972656 1038.203125 674.632812 1053.230469 664.53125 C 1057.304688 661.78125 1060.148438 662.378906 1063.660156 665.261719 C 1067.796875 668.707031 1072.332031 671.621094 1077.261719 675.164062 C 1069.121094 685.730469 1058.628906 692.785156 1047.769531 699.34375 C 1041.878906 702.921875 1035.523438 702.558594 1029.234375 700.304688 C 1018.941406 696.660156 1010.101562 690.867188 1000.4375 680.53125 Z M 1218.863281 650.355469 C 1202.378906 650.058594 1188.941406 636.046875 1189.636719 619.882812 C 1190.296875 604.246094 1203.902344 591.097656 1219.492188 591.0625 C 1235.808594 591.03125 1249.445312 604.84375 1249.28125 621.238281 C 1249.082031 637.933594 1235.808594 650.652344 1218.863281 650.355469 Z M 1323.289062 485.132812 C 1319.449219 493.382812 1313.558594 499.90625 1305.980469 504.941406 C 1303.53125 506.566406 1300.75 507.824219 1298.566406 509.746094 C 1293.699219 514.085938 1294.824219 519.449219 1301.378906 520.046875 C 1307.269531 520.578125 1309.851562 521.96875 1310.746094 528.0625 C 1314.949219 556.21875 1293.171875 595.136719 1266.890625 605.902344 C 1263.183594 607.425781 1260.632812 607.792969 1258.582031 603.453125 C 1252.820312 591.128906 1243.15625 583.113281 1230.117188 579.503906 C 1226.242188 578.410156 1224.355469 576.421875 1223.496094 572.648438 C 1222.964844 570.296875 1221.839844 568.007812 1220.648438 565.855469 C 1218.894531 562.609375 1216.246094 560.292969 1212.273438 561.515625 C 1207.972656 562.84375 1207.441406 566.75 1208.898438 569.964844 C 1211.976562 576.851562 1208.667969 579.007812 1202.90625 581.820312 C 1176.726562 594.675781 1169.511719 619.550781 1184.074219 644.890625 C 1185.265625 646.976562 1187.152344 648.765625 1187.019531 652.640625 C 1157.925781 670.261719 1126.710938 676.921875 1092.984375 666.585938 C 1081.035156 662.910156 1070.609375 656.316406 1063.03125 645.917969 C 1061.574219 643.929688 1060.050781 641.976562 1058.328125 640.21875 C 1056.078125 637.902344 1053.265625 637.136719 1050.285156 638.792969 C 1047.902344 640.121094 1046.546875 642.605469 1047.539062 644.988281 C 1049.824219 650.453125 1047.140625 653.171875 1042.871094 655.621094 C 1025.0625 665.789062 1005.898438 668.605469 985.773438 666.222656 C 980.28125 665.558594 978.492188 663.175781 979.585938 657.3125 C 982.464844 641.710938 977.863281 627.765625 966.976562 616.570312 C 961.644531 611.101562 961.28125 607.0625 966.113281 601.761719 C 967.105469 600.703125 967.867188 599.34375 968.398438 597.988281 C 969.390625 595.570312 969.292969 593.148438 967.273438 591.195312 C 964.757812 588.777344 962.007812 589.011719 959.230469 590.796875 C 958.832031 591.0625 958.238281 591.261719 958.070312 591.660156 C 952.476562 603.585938 942.746094 601.496094 932.085938 600.933594 C 904.152344 599.511719 882.207031 622.796875 882.4375 651.910156 C 882.539062 663.902344 881.148438 665.292969 869.332031 663.769531 C 852.21875 661.550781 838.316406 652.9375 828.984375 638.925781 C 821.734375 628.03125 812.929688 623.691406 800.320312 621.40625 C 753.183594 612.824219 730.546875 565.457031 752.359375 522.761719 C 752.789062 521.933594 753.746094 521.40625 754.507812 520.675781 C 759.40625 522.265625 761.957031 526.9375 766.027344 529.652344 C 769.074219 531.671875 772.414062 533.195312 775.394531 530.28125 C 779.003906 526.703125 777.25 523.0625 774.300781 519.914062 C 771.589844 517.066406 768.578125 514.480469 765.894531 511.601562 C 742.195312 486.0625 741.039062 444.492188 763.082031 417.660156 C 766.324219 413.71875 769.304688 411.863281 774.300781 415.011719 C 779.796875 418.488281 786.085938 419.878906 792.605469 420.113281 C 809.949219 420.707031 823.488281 413.785156 831.796875 398.546875 C 840.039062 383.445312 839.375 367.910156 829.214844 353.898438 C 824.515625 347.40625 820.113281 342.402344 828.121094 335.546875 C 830.007812 333.957031 829.875 331.007812 827.921875 328.855469 C 825.640625 326.339844 822.792969 326.273438 819.8125 327.398438 C 816.40625 328.691406 814.550781 331.738281 812.332031 334.355469 C 807.667969 339.820312 802.074219 336.605469 797.273438 335.316406 C 793.234375 334.222656 794.625 329.484375 794.726562 326.273438 C 795.355469 300.765625 818.554688 273.539062 844.140625 268.207031 C 847.519531 267.511719 850.992188 267.277344 854.371094 266.683594 C 858.175781 266.054688 862.777344 266.714844 864.960938 262.707031 C 867.445312 258.136719 863.871094 255.621094 860.792969 252.96875 C 859.203125 251.613281 859.566406 249.425781 859.667969 247.4375 C 860.988281 222.363281 886.011719 194.835938 911.070312 191.128906 C 919.378906 189.902344 927.785156 189.636719 936.125 190.828125 C 947.015625 192.351562 955.621094 189.238281 964.425781 182.019531 C 995.9375 156.183594 1053.960938 155.621094 1089.507812 180.792969 C 1113.042969 197.453125 1105.660156 196.691406 1135.683594 187.484375 C 1174.011719 175.691406 1211.8125 178.144531 1245.707031 202.621094 C 1258.648438 211.960938 1269.105469 223.488281 1272.945312 240.878906 C 1266.261719 240.878906 1261.792969 239.785156 1261.625 232.332031 C 1261.59375 229.914062 1260.929688 227.464844 1260.203125 225.144531 C 1259.410156 222.660156 1257.457031 220.90625 1254.773438 220.839844 C 1251.367188 220.773438 1248.351562 223.058594 1248.71875 226.039062 C 1250.175781 237.105469 1242.230469 236.9375 1235.148438 239.089844 C 1211.414062 246.378906 1198.042969 272.082031 1205.226562 295.667969 C 1212.773438 320.410156 1237.761719 333.992188 1262.519531 326.734375 C 1286.085938 319.847656 1299.957031 294.539062 1293.300781 270.460938 C 1292.507812 267.609375 1291.351562 264.894531 1290.222656 262.144531 C 1289.265625 259.859375 1288.269531 257.640625 1290.191406 253.929688 C 1332.027344 264.730469 1356.554688 318.851562 1341.363281 366.453125 C 1338.914062 366.648438 1338.382812 364.5625 1337.457031 363.074219 C 1335.769531 360.289062 1333.519531 358.535156 1330.175781 359.460938 C 1326.105469 360.589844 1324.714844 364.066406 1325.609375 367.578125 C 1327.859375 376.421875 1323.191406 379.171875 1315.875 382.351562 C 1297.472656 390.367188 1287.675781 405.105469 1287.972656 425.445312 C 1288.269531 445.78125 1298.53125 459.792969 1316.9375 467.976562 C 1327.726562 472.777344 1328.355469 474.269531 1323.289062 485.132812 Z M 1281.882812 282.152344 C 1282.148438 300.4375 1267.882812 315.277344 1249.710938 315.605469 C 1231.804688 315.90625 1216.480469 301.230469 1216.046875 283.34375 C 1215.617188 265.359375 1230.28125 250.417969 1248.519531 250.1875 C 1267.285156 249.957031 1281.617188 263.703125 1281.882812 282.152344 Z M 1333.882812 457.839844 C 1315.511719 457.808594 1300.949219 443.664062 1300.585938 425.476562 C 1300.21875 406.761719 1315.214844 391.59375 1334.015625 391.691406 C 1352.78125 391.792969 1367.941406 407.195312 1367.445312 425.675781 C 1366.980469 443.761719 1352.285156 457.839844 1333.882812 457.839844 Z M 1241.699219 419.648438 C 1233.65625 414.777344 1228.824219 410.109375 1230.082031 400.171875 C 1230.578125 396.261719 1228.425781 392.15625 1223.230469 392.386719 C 1218.863281 392.585938 1217.304688 395.964844 1217.769531 399.640625 C 1218.796875 408.054688 1214.921875 411.070312 1207.011719 411.136719 C 1204.164062 411.167969 1201.253906 412.394531 1198.472656 413.355469 C 1175.003906 421.335938 1161.832031 445.21875 1167.160156 469.996094 C 1172.191406 493.316406 1195.164062 510.109375 1218.5625 507.589844 C 1243.554688 504.910156 1262.121094 484.671875 1262.355469 459.859375 C 1262.554688 443.199219 1255.703125 428.09375 1241.699219 419.648438 Z M 1214.757812 494.738281 C 1195.394531 495.136719 1179.109375 479.039062 1178.976562 459.332031 C 1178.84375 439.554688 1194.898438 423.324219 1214.328125 423.589844 C 1233.824219 423.820312 1250.109375 440.449219 1249.742188 459.660156 C 1249.414062 478.34375 1233.457031 494.34375 1214.757812 494.738281 Z M 891.242188 498.945312 C 912.394531 499.011719 930.894531 485.433594 936.753906 465.558594 C 942.777344 445.054688 935.496094 424.386719 917.589844 412.425781 C 911.5 408.351562 904.019531 405.800781 907.195312 395.867188 C 907.925781 393.515625 906.136719 391.03125 903.457031 390.234375 C 900.179688 389.242188 896.835938 390.566406 896.207031 393.515625 C 894.121094 403.085938 886.808594 404.144531 879.09375 406.234375 C 855.03125 412.757812 841.03125 435.019531 844.804688 459.363281 C 848.3125 482.152344 867.941406 498.878906 891.242188 498.945312 Z M 890.648438 417.460938 C 910.738281 417.660156 925.46875 431.96875 925.632812 451.445312 C 925.765625 470.792969 910.507812 486.359375 891.410156 486.328125 C 872.574219 486.292969 856.71875 470.261719 856.886719 451.414062 C 857.050781 433.0625 872.742188 417.296875 890.648438 417.460938 Z M 1088.117188 330.679688 C 1082.855469 326.472656 1075.671875 323.753906 1080.207031 314.613281 C 1081.632812 311.699219 1080.109375 308.71875 1077.0625 307.324219 C 1073.191406 305.539062 1069.449219 307.425781 1068.625 310.804688 C 1066.207031 320.542969 1059.023438 320.90625 1051.015625 322.429688 C 1028.308594 326.769531 1013.679688 348.433594 1016.457031 371.816406 C 1019.140625 394.308594 1038.074219 410.703125 1061.144531 410.507812 C 1080.308594 410.375 1096.425781 398.945312 1102.816406 380.960938 C 1109.300781 362.675781 1103.773438 343.199219 1088.117188 330.679688 Z M 1060.515625 397.984375 C 1043.234375 397.820312 1028.539062 382.75 1028.804688 365.492188 C 1029.070312 348.566406 1043.167969 334.519531 1060.082031 334.355469 C 1077.890625 334.1875 1092.386719 348.300781 1092.453125 365.855469 C 1092.519531 383.378906 1077.824219 398.117188 1060.515625 397.984375 Z M 957.34375 227.429688 C 957.542969 223.125 958.070312 219.480469 954 217.757812 C 950.886719 216.46875 947.148438 217.261719 946.585938 220.242188 C 944.5 231.4375 936.425781 230.777344 927.949219 231.738281 C 901.238281 234.75 885.054688 262.574219 894.71875 287.816406 C 900.875 303.882812 916.398438 315.40625 933.28125 315.042969 C 950.921875 314.679688 964.328125 306.464844 972.003906 290.199219 C 979.289062 274.765625 976.078125 256.414062 963.929688 243.695312 C 959.164062 238.792969 952.113281 235.148438 957.34375 227.429688 Z M 933.34375 301.859375 C 917.558594 301.5625 904.316406 287.980469 904.679688 272.378906 C 905.046875 256.347656 917.921875 244.125 934.339844 244.257812 C 950.324219 244.390625 963.332031 257.605469 962.96875 273.339844 C 962.605469 289.175781 949.101562 302.125 933.34375 301.859375 Z M 1101.027344 495.203125 C 1104.667969 498.417969 1103.578125 502.425781 1101.160156 505.835938 C 1092.984375 517.429688 1080.871094 520.476562 1070.277344 520.839844 C 1058.59375 520.972656 1050.585938 516.734375 1042.144531 514.945312 C 1034.464844 513.289062 1027.613281 521.902344 1018.777344 521.503906 C 1002.621094 520.808594 990.738281 513.652344 983.09375 499.476562 C 980.941406 495.5 979.949219 491.195312 980.875 486.691406 C 981.40625 484.171875 982.894531 482.054688 985.511719 481.554688 C 988.789062 480.925781 991.269531 482.382812 992.394531 485.566406 C 993.222656 487.851562 993.386719 490.433594 994.382812 492.621094 C 1001.199219 507.722656 1017.21875 512.660156 1030.824219 503.121094 C 1036.914062 498.847656 1041.613281 498.183594 1048.101562 502.058594 C 1063.789062 511.335938 1078.785156 510.96875 1092.058594 496.992188 C 1094.539062 494.308594 1097.71875 492.253906 1101.027344 495.203125 Z M 965.816406 572.648438 C 967.40625 576.488281 964.789062 579.140625 961.777344 581.191406 C 955.355469 585.566406 948.109375 586.492188 939.964844 586.160156 C 930.929688 586.160156 921.59375 583.742188 914.480469 577.449219 C 908.355469 572.050781 903.058594 572.347656 895.84375 574.203125 C 876.316406 579.207031 855.132812 566.882812 848.910156 547.769531 C 848.445312 546.378906 848.082031 544.921875 847.851562 543.464844 C 847.121094 538.925781 846.558594 533.824219 852.019531 532.300781 C 857.976562 530.644531 858.738281 535.746094 860.328125 540.085938 C 867.972656 561.054688 880.652344 566.386719 901.835938 557.277344 C 907.394531 554.890625 911.167969 555.886719 914.84375 560.058594 C 926.230469 572.945312 939.699219 577.085938 955.886719 569.898438 C 959.890625 568.175781 963.863281 567.910156 965.816406 572.648438 Z M 1250.339844 527.832031 C 1243.953125 542.007812 1227.734375 550.488281 1209 548.996094 C 1202.410156 545.320312 1198.570312 550.320312 1194.101562 555.324219 C 1186.058594 564.398438 1176.328125 570.792969 1163.519531 570.460938 C 1160.109375 570.359375 1156.632812 570.261719 1153.722656 568.007812 C 1151.667969 566.417969 1150.246094 564.464844 1150.875 561.75 C 1151.503906 559.066406 1153.65625 557.113281 1156.105469 557.476562 C 1172.09375 559.894531 1181.890625 550.917969 1190.363281 539.359375 C 1194.003906 534.390625 1198.9375 532.898438 1204.660156 534.457031 C 1219.820312 538.5625 1231.636719 534.71875 1239.515625 520.542969 C 1241.4375 517.097656 1244.183594 513.519531 1248.851562 516.203125 C 1254.144531 519.25 1252.191406 523.722656 1250.339844 527.832031 Z M 1250.339844 527.832031 " fill-opacity="1" fill-rule="nonzero"/></g></svg>