<svg xmlns="http://www.w3.org/2000/svg" xmlns:xlink="http://www.w3.org/1999/xlink" width="2816" zoomAndPan="magnify" viewBox="0 0 2112 1151.999944" height="1536" preserveAspectRatio="xMidYMid meet" version="1.0"><defs><clipPath id="ab43c93875"><path d="M 601.753906 115.199219 L 1506.253906 115.199219 L 1506.253906 1036.949219 L 601.753906 1036.949219 Z M 601.753906 115.199219 " clip-rule="nonzero"/></clipPath></defs><g clip-path="url(#ab43c93875)"><path fill="#000000" d="M 1493.824219 468.824219 C 1481.429688 438.234375 1456.464844 414.742188 1444.566406 404.765625 C 1445.519531 394.507812 1446.605469 386.898438 1444.621094 377.496094 C 1443.917969 359.074219 1440.769531 336.648438 1431.234375 318.988281 C 1415.597656 290.039062 1383.523438 277.300781 1369.007812 272.859375 C 1362.125 255.960938 1341.015625 212.671875 1296.695312 185.230469 C 1254.320312 158.988281 1187.976562 164.863281 1166.042969 167.703125 C 1150.730469 152.503906 1103.226562 111.695312 1038.367188 116.0625 C 996.910156 118.863281 964.109375 140.203125 942.710938 159.046875 C 904.570312 135.304688 845.96875 134.199219 811.28125 171.5 C 796.785156 187.078125 788.949219 206.398438 787.632812 226.574219 C 787.328125 226.574219 787.023438 226.515625 786.71875 226.535156 C 753.707031 228.957031 724.320312 247.285156 703.992188 278.140625 C 684.328125 307.984375 676.890625 344.714844 683.757812 374.445312 C 638.921875 397.996094 613.121094 425.648438 605.300781 458.945312 C 593 511.40625 614.703125 545.199219 633.984375 561.007812 C 624.714844 584.160156 620.40625 622.890625 650.707031 656.589844 C 676.089844 684.8125 716.328125 688.324219 734.808594 688.324219 C 740.816406 688.324219 744.515625 687.941406 744.667969 687.921875 C 794.480469 682.5625 833.554688 636.261719 857.695312 554.050781 C 859.777344 546.953125 855.714844 539.515625 848.621094 537.4375 C 841.488281 535.359375 834.089844 539.421875 832.007812 546.515625 C 817.476562 596.023438 790.035156 656.113281 741.808594 661.300781 C 741.347656 661.339844 694.761719 665.515625 670.617188 638.664062 C 646.132812 611.429688 654.101562 582.347656 659.40625 569.820312 L 710.875 569.820312 C 715.585938 602.679688 741.636719 623.695312 742.953125 624.722656 C 745.410156 626.648438 748.328125 627.582031 751.226562 627.582031 C 755.195312 627.582031 759.105469 625.828125 761.753906 622.472656 C 766.332031 616.675781 765.320312 608.246094 759.523438 603.667969 C 759.257812 603.460938 733.398438 582.710938 737.25 553.761719 C 739.195312 539.136719 747.71875 528.894531 752.621094 524.070312 C 757.902344 518.882812 757.980469 510.417969 752.8125 505.132812 C 747.644531 499.851562 739.15625 499.773438 733.875 504.941406 C 727.332031 511.371094 716.519531 524.335938 712.09375 543.007812 C 712.09375 543.007812 712.078125 543.007812 712.058594 543.007812 L 654.867188 543.007812 C 646.628906 537.496094 619.605469 515.183594 631.371094 465.011719 C 633.546875 455.722656 640.144531 428.164062 693.941406 399.238281 C 715.011719 432.550781 760.589844 453.585938 800.027344 457.78125 C 800.503906 457.839844 800.980469 457.859375 801.457031 457.859375 C 802.355469 457.859375 803.175781 457.554688 804.050781 457.382812 C 805.101562 457.648438 806.148438 457.878906 807.238281 457.878906 C 808.761719 457.878906 810.289062 457.609375 811.796875 457.078125 C 818.753906 454.558594 822.339844 446.875 819.824219 439.933594 C 809.390625 411.15625 815.667969 381.347656 834.753906 369.027344 C 845.207031 362.277344 857.488281 362.449219 865.972656 363.765625 C 873.277344 364.929688 880.125 359.914062 881.269531 352.589844 C 882.414062 345.285156 877.414062 338.441406 870.09375 337.296875 C 857.03125 335.253906 837.769531 335.199219 820.242188 346.507812 C 795.605469 362.394531 784.105469 395.136719 789.519531 429.023438 C 752.332031 421.378906 719.933594 399.21875 711.332031 374.253906 C 703.378906 351.238281 709.425781 318.511719 726.339844 292.84375 C 735.417969 279.074219 755.574219 255.617188 788.664062 253.195312 C 789.007812 253.175781 789.3125 253.082031 789.636719 253.023438 C 792.953125 268.472656 799.953125 283.746094 810.804688 297.609375 C 813.433594 300.988281 817.382812 302.742188 821.347656 302.742188 C 824.230469 302.742188 827.148438 301.804688 829.585938 299.898438 C 835.402344 295.339844 836.433594 286.929688 831.875 281.097656 C 808.363281 251.058594 807.960938 214.3125 830.882812 189.671875 C 857.832031 160.707031 907.203125 164.441406 934.664062 185.917969 C 956.214844 202.753906 963.671875 226.878906 966.246094 242.25 C 944.179688 248.066406 931.917969 263.722656 929.707031 268.070312 C 926.351562 274.667969 928.792969 283.058594 935.390625 286.417969 C 937.429688 287.445312 939.585938 287.941406 941.683594 287.941406 C 946.410156 287.941406 950.875 285.445312 953.199219 280.886719 C 953.277344 280.773438 961.132812 269.464844 977.324219 267.136719 C 978.335938 267.003906 979.382812 266.90625 980.453125 266.8125 C 980.796875 266.8125 981.140625 266.890625 981.480469 266.871094 C 981.863281 266.871094 982.207031 266.753906 982.570312 266.71875 C 991.761719 266.449219 1002.25 269.0625 1008.351562 280.429688 C 1011.859375 286.949219 1019.964844 289.390625 1026.488281 285.902344 C 1033.011719 282.410156 1035.449219 274.289062 1031.960938 267.765625 C 1023.835938 252.625 1009.933594 243.183594 993.058594 240.628906 C 990.636719 224.191406 983.65625 198.007812 963.554688 176.210938 C 981.691406 160.972656 1008.085938 144.820312 1040.160156 142.644531 C 1088.714844 139.421875 1126.835938 168.066406 1142.816406 182.539062 C 1120.5625 200.980469 1110.226562 226.34375 1115.394531 252.777344 C 1123.15625 292.441406 1160.265625 309.53125 1164.460938 311.339844 C 1166.195312 312.085938 1168.007812 312.449219 1169.761719 312.449219 C 1174.949219 312.449219 1179.871094 309.414062 1182.0625 304.363281 C 1185 297.574219 1181.871094 289.695312 1175.082031 286.761719 C 1173.941406 286.265625 1146.859375 274.289062 1141.652344 247.628906 C 1135.800781 217.648438 1161.21875 200.390625 1174.53125 193.542969 C 1197.394531 191.046875 1250.410156 187.9375 1282.582031 207.847656 C 1328.847656 236.492188 1345.972656 287.445312 1346.125 287.941406 L 1348.527344 295.285156 L 1356.0625 296.925781 C 1356.441406 297 1393.4375 305.316406 1407.664062 331.574219 C 1419.582031 353.660156 1418.441406 388.367188 1417.371094 402.324219 C 1411.6875 415.65625 1384.359375 428.394531 1357.585938 430.644531 C 1342.140625 411.15625 1321.964844 402.191406 1315.003906 399.5625 C 1323.46875 378.070312 1324.671875 354.460938 1316.929688 332.472656 C 1300.394531 285.578125 1250.925781 271.65625 1245.339844 270.207031 C 1238.148438 268.375 1230.882812 272.6875 1229.035156 279.855469 C 1227.203125 287.027344 1231.511719 294.3125 1238.683594 296.160156 C 1240.34375 296.582031 1279.570312 307.011719 1291.679688 341.378906 C 1303.121094 373.835938 1286.226562 413.15625 1252.394531 432.839844 C 1246.007812 436.558594 1243.832031 444.757812 1247.550781 451.144531 C 1250.03125 455.417969 1254.53125 457.800781 1259.125 457.800781 C 1261.414062 457.800781 1263.722656 457.210938 1265.839844 455.988281 C 1280.636719 447.390625 1292.84375 436.042969 1302.109375 423.167969 C 1302.835938 423.570312 1303.578125 423.933594 1304.398438 424.199219 C 1307.753906 425.324219 1337.523438 436.082031 1347.003906 466.9375 C 1353.296875 487.457031 1347.230469 505.230469 1343.378906 513.5625 C 1328.695312 515.964844 1317.042969 522.582031 1309.414062 528.304688 C 1303.503906 532.746094 1302.300781 541.136719 1306.746094 547.050781 C 1311.1875 552.980469 1319.578125 554.164062 1325.492188 549.738281 C 1331.574219 545.164062 1341.394531 539.667969 1353.601562 539.382812 C 1376.121094 538.886719 1392.332031 556.699219 1399.902344 567.378906 C 1418.992188 594.324219 1403.277344 624.1875 1398.109375 634.011719 C 1397.15625 635.820312 1396.527344 637.136719 1396.261719 637.84375 C 1393.554688 644.726562 1396.871094 652.699219 1403.753906 655.40625 C 1405.414062 656.054688 1407.113281 656.359375 1408.769531 656.359375 C 1414.035156 656.359375 1418.953125 653.273438 1421.015625 648.027344 L 1421.816406 646.464844 C 1445.386719 601.667969 1434.800781 570.296875 1421.757812 551.894531 C 1413.117188 539.707031 1396.414062 520.847656 1371.621094 514.648438 C 1376.027344 501.28125 1379.460938 481.429688 1372.613281 459.097656 C 1372.269531 457.992188 1371.851562 456.980469 1371.46875 455.914062 C 1394.335938 452.042969 1417.046875 442.46875 1431.121094 428.453125 C 1441.972656 438.140625 1459.992188 456.542969 1469.015625 478.777344 C 1486.996094 523.175781 1480.972656 591.425781 1455.285156 634.183594 C 1438.367188 662.386719 1416.550781 683.171875 1390.464844 695.988281 C 1367.214844 707.410156 1338.800781 712.5625 1311.09375 714.355469 C 1316.890625 676.367188 1308.824219 635.308594 1285.289062 613.089844 C 1292.613281 595.773438 1293.511719 575.40625 1286.855469 555.859375 C 1284.472656 548.863281 1276.863281 545.125 1269.863281 547.507812 C 1262.863281 549.890625 1259.125 557.5 1261.511719 564.5 C 1268.300781 584.410156 1263.835938 605.347656 1250.164062 617.839844 C 1238.207031 628.746094 1223.046875 629.394531 1217.058594 629.300781 C 1209.828125 628.765625 1203.5 634.867188 1203.25 642.269531 C 1203.003906 649.667969 1208.820312 655.847656 1216.21875 656.074219 C 1216.867188 656.09375 1217.609375 656.113281 1218.410156 656.113281 C 1228.804688 656.113281 1250.410156 653.902344 1268.222656 637.632812 C 1268.851562 637.0625 1269.347656 636.375 1269.9375 635.785156 C 1284.699219 653.136719 1289.144531 686.207031 1283.785156 715.15625 C 1238.09375 714.90625 1200.160156 707.488281 1199.492188 707.335938 L 1192.207031 705.867188 L 1187.117188 711.285156 C 1186.773438 711.644531 1172.203125 726.941406 1148.996094 746.046875 C 1121.363281 753.449219 1089.839844 758.464844 1062.320312 743.320312 C 1045.003906 733.785156 1036.40625 724.707031 1031.390625 717.023438 C 1040.21875 705.277344 1046.339844 691.429688 1048.476562 676.441406 C 1049.523438 669.136719 1044.433594 662.347656 1037.109375 661.300781 C 1029.789062 660.347656 1023.015625 665.34375 1021.96875 672.664062 C 1018.6875 695.550781 1002.613281 715.019531 981.023438 722.269531 C 957.96875 729.992188 932.472656 723.144531 915.996094 704.835938 C 911.035156 699.34375 902.589844 698.886719 897.097656 703.828125 C 891.605469 708.765625 891.144531 717.234375 896.085938 722.726562 C 913.230469 741.796875 937.257812 752.167969 961.839844 752.167969 C 971.109375 752.167969 980.472656 750.683594 989.566406 747.632812 C 997.671875 744.902344 1005.207031 740.9375 1012.050781 736.054688 C 1019.144531 745.496094 1030.398438 756.269531 1049.410156 766.757812 C 1066.746094 776.292969 1084.898438 779.746094 1102.558594 779.839844 C 1078.09375 795.421875 1050.269531 809.570312 1021.53125 816.894531 C 955.050781 833.847656 872.191406 820.535156 847.378906 751.214844 C 829.511719 701.308594 861.074219 659.355469 941.167969 626.496094 C 947.367188 623.960938 954.363281 621.730469 961.761719 619.382812 C 985.183594 611.925781 1014.207031 602.5625 1042.582031 575.675781 L 1043.136719 575.675781 C 1067.316406 558.035156 1090.699219 532.195312 1111.3125 509.40625 C 1122.125 497.449219 1132.347656 486.140625 1141.40625 477.445312 C 1169.78125 450.191406 1190.511719 403.792969 1172.851562 361.628906 C 1159.808594 330.335938 1125.785156 308.804688 1091.996094 310.636719 C 1068.9375 311.816406 1048.761719 323.832031 1035.242188 343.457031 C 1021.703125 323.832031 1001.523438 311.816406 978.488281 310.636719 C 944.714844 308.976562 910.675781 330.335938 897.628906 361.609375 C 879.972656 403.8125 900.699219 450.191406 929.058594 477.460938 C 938.117188 486.160156 948.339844 497.46875 959.152344 509.425781 C 975.933594 527.980469 994.566406 548.480469 1013.957031 565.015625 C 993.269531 581.128906 972.40625 587.898438 953.621094 593.886719 C 945.6875 596.402344 938.191406 598.789062 930.984375 601.742188 C 811.625 650.679688 805.921875 714.945312 822.132812 760.253906 C 845.207031 824.695312 906.820312 850.285156 969.199219 850.285156 C 982.605469 850.285156 996.03125 849.007812 1009.132812 846.777344 C 1009.59375 847.484375 1010.144531 848.226562 1010.753906 848.855469 C 1101.472656 944.835938 1125.632812 974.683594 1129.390625 993.90625 C 1129.675781 995.277344 1129.792969 995.851562 1133.605469 1004.925781 C 1141.671875 1024.167969 1160.207031 1036.488281 1180.976562 1036.488281 C 1181.28125 1036.488281 1181.566406 1036.488281 1181.871094 1036.488281 L 1239.253906 1035.515625 C 1244.15625 1035.421875 1248.808594 1033.019531 1251.667969 1029.050781 C 1254.53125 1025.101562 1255.386719 1019.972656 1253.9375 1015.261719 C 1248.351562 997.261719 1227.945312 934.710938 1199.628906 885.8125 C 1195.925781 879.425781 1187.746094 877.234375 1181.339844 880.933594 C 1174.929688 884.632812 1172.757812 892.8125 1176.457031 899.21875 C 1198.195312 936.789062 1215.511719 984.425781 1223.75 1008.96875 L 1181.394531 1009.675781 C 1171.230469 1009.445312 1162.191406 1003.917969 1158.265625 994.535156 C 1156.984375 991.484375 1155.917969 988.925781 1155.421875 987.628906 C 1150.121094 962.648438 1128.171875 934.75 1038.636719 839.742188 C 1054.367188 834.914062 1069.683594 828.546875 1084.253906 821.164062 C 1084.328125 821.261719 1084.367188 821.375 1084.441406 821.453125 C 1091.632812 828.488281 1099.621094 835.066406 1108.183594 840.980469 C 1142.339844 864.53125 1185.113281 877.214844 1227.753906 877.214844 C 1240.550781 877.214844 1253.347656 876.070312 1265.894531 873.742188 C 1346.105469 858.8125 1406.0625 793.074219 1405.355469 720.855469 C 1405.355469 720.035156 1405.242188 719.234375 1405.070312 718.453125 C 1434.59375 703.234375 1459.210938 679.589844 1478.207031 647.929688 C 1508.242188 597.949219 1514.933594 520.886719 1493.804688 468.691406 Z M 1047.425781 405.035156 C 1047.425781 415.769531 1041.953125 418.308594 1035.183594 418.308594 C 1028.414062 418.308594 1022.941406 415.769531 1022.941406 405.035156 C 1022.941406 394.296875 1035.183594 379.441406 1035.183594 379.441406 C 1035.183594 379.441406 1047.425781 394.296875 1047.425781 405.035156 Z M 978.984375 491.59375 C 967.847656 479.273438 957.320312 467.640625 947.574219 458.277344 C 926.503906 438.042969 909.585938 402.421875 922.308594 372.082031 C 930.8125 351.695312 952.4375 337.46875 974.464844 337.46875 C 975.324219 337.46875 976.199219 337.488281 977.058594 337.523438 C 998.378906 338.613281 1012.355469 354.152344 1019.46875 370.535156 C 1014.492188 377.078125 1005.109375 391.226562 1005.109375 405.015625 C 1005.109375 423.933594 1016.914062 436.136719 1035.203125 436.136719 C 1053.492188 436.136719 1065.296875 423.914062 1065.296875 405.015625 C 1065.296875 391.226562 1055.914062 377.078125 1050.9375 370.535156 C 1058.050781 354.152344 1072.027344 338.613281 1093.347656 337.523438 C 1116.289062 336.457031 1139.289062 350.875 1148.117188 372.097656 C 1160.820312 402.441406 1143.921875 438.042969 1122.832031 458.277344 C 1113.085938 467.640625 1102.558594 479.273438 1091.421875 491.59375 C 1074.03125 510.816406 1054.597656 532.308594 1035.203125 548.078125 C 1015.808594 532.289062 996.375 510.816406 978.984375 491.59375 Z M 1261.015625 847.578125 C 1213.53125 856.390625 1162.078125 845.765625 1123.402344 819.105469 C 1118.253906 815.558594 1113.488281 811.667969 1108.910156 807.625 C 1153.898438 780.453125 1188.699219 747.707031 1201.417969 735.007812 C 1226.613281 739.316406 1311.132812 750.988281 1378.21875 729.589844 C 1374.253906 785.675781 1325.433594 835.5625 1261.015625 847.578125 Z M 1261.015625 847.578125 " fill-opacity="1" fill-rule="nonzero"/></g><path fill="#000000" d="M 1128.152344 615.53125 C 1108.984375 619.191406 1088.332031 609.734375 1076.71875 592.019531 C 1072.65625 585.839844 1064.34375 584.105469 1058.183594 588.164062 C 1052.003906 592.226562 1050.289062 600.523438 1054.332031 606.703125 C 1069.261719 629.453125 1094.511719 643.050781 1120.027344 643.050781 C 1124.414062 643.050781 1128.800781 642.648438 1133.148438 641.828125 C 1170.316406 634.753906 1196.9375 599.417969 1195.050781 559.65625 C 1194.6875 552.273438 1188.546875 546.613281 1181.035156 546.917969 C 1173.652344 547.277344 1167.953125 553.535156 1168.292969 560.933594 C 1169.554688 587.460938 1152.277344 610.953125 1128.132812 615.550781 Z M 1128.152344 615.53125 " fill-opacity="1" fill-rule="nonzero"/></svg>